<?xml version="1.0" encoding="UTF-8" standalone="no"?>
<!DOCTYPE svg PUBLIC "-//W3C//DTD SVG 1.1//EN"
 "http://www.w3.org/Graphics/SVG/1.1/DTD/svg11.dtd">
<!-- Generated by graphviz version 2.40.1 (20161225.0304)
 -->
<!-- Title: boxes_and_circles Pages: 1 -->
<svg width="2179pt" height="836pt"
 viewBox="0.00 0.00 2178.96 836.00" xmlns="http://www.w3.org/2000/svg" xmlns:xlink="http://www.w3.org/1999/xlink">
<g id="graph0" class="graph" transform="scale(1 1) rotate(0) translate(4 832)">
<title>boxes_and_circles</title>
<polygon fill="#ffffff" stroke="transparent" points="-4,4 -4,-832 2174.962,-832 2174.962,4 -4,4"/>
<!-- AccessPolicy -->
<g id="node1" class="node">
<title>AccessPolicy</title>
<ellipse fill="none" stroke="#000000" cx="1333.1397" cy="-666" rx="63.117" ry="18"/>
<text text-anchor="middle" x="1333.1397" y="-661.8" font-family="Times,serif" font-size="14.00" fill="#000000">AccessPolicy</text>
</g>
<!-- ApproveAccessSelector -->
<g id="node2" class="node">
<title>ApproveAccessSelector</title>
<ellipse fill="none" stroke="#000000" cx="1340.1397" cy="-594" rx="103.6103" ry="18"/>
<text text-anchor="middle" x="1340.1397" y="-589.8" font-family="Times,serif" font-size="14.00" fill="#000000">ApproveAccessSelector</text>
</g>
<!-- AccessPolicy&#45;&gt;ApproveAccessSelector -->
<g id="edge1" class="edge">
<title>AccessPolicy&#45;&gt;ApproveAccessSelector</title>
<path fill="none" stroke="#000000" d="M1334.9061,-647.8314C1335.6547,-640.131 1336.5449,-630.9743 1337.3769,-622.4166"/>
<polygon fill="#000000" stroke="#000000" points="1340.8653,-622.7051 1338.3495,-612.4133 1333.8982,-622.0276 1340.8653,-622.7051"/>
</g>
<!-- Asset -->
<g id="node3" class="node">
<title>Asset</title>
<ellipse fill="none" stroke="#000000" cx="1028.1397" cy="-666" rx="32.4788" ry="18"/>
<text text-anchor="middle" x="1028.1397" y="-661.8" font-family="Times,serif" font-size="14.00" fill="#000000">Asset</text>
</g>
<!-- StaticDataTable -->
<g id="node4" class="node">
<title>StaticDataTable</title>
<ellipse fill="none" stroke="#000000" cx="709.1397" cy="-594" rx="73.4862" ry="18"/>
<text text-anchor="middle" x="709.1397" y="-589.8" font-family="Times,serif" font-size="14.00" fill="#000000">StaticDataTable</text>
</g>
<!-- Asset&#45;&gt;StaticDataTable -->
<g id="edge2" class="edge">
<title>Asset&#45;&gt;StaticDataTable</title>
<path fill="none" stroke="#000000" d="M997.8413,-659.1615C946.4787,-647.5687 841.2573,-623.8197 773.0292,-608.4202"/>
<polygon fill="#000000" stroke="#000000" points="773.7673,-604.9988 763.242,-606.2112 772.226,-611.8271 773.7673,-604.9988"/>
</g>
<!-- StorageSetup -->
<g id="node5" class="node">
<title>StorageSetup</title>
<ellipse fill="none" stroke="#000000" cx="709.1397" cy="-522" rx="62.5585" ry="18"/>
<text text-anchor="middle" x="709.1397" y="-517.8" font-family="Times,serif" font-size="14.00" fill="#000000">StorageSetup</text>
</g>
<!-- StaticDataTable&#45;&gt;StorageSetup -->
<g id="edge3" class="edge">
<title>StaticDataTable&#45;&gt;StorageSetup</title>
<path fill="none" stroke="#000000" d="M709.1397,-575.8314C709.1397,-568.131 709.1397,-558.9743 709.1397,-550.4166"/>
<polygon fill="#000000" stroke="#000000" points="712.6398,-550.4132 709.1397,-540.4133 705.6398,-550.4133 712.6398,-550.4132"/>
</g>
<!-- DataSchema -->
<g id="node6" class="node">
<title>DataSchema</title>
<ellipse fill="none" stroke="#000000" cx="535.1397" cy="-522" rx="59.6685" ry="18"/>
<text text-anchor="middle" x="535.1397" y="-517.8" font-family="Times,serif" font-size="14.00" fill="#000000">DataSchema</text>
</g>
<!-- StaticDataTable&#45;&gt;DataSchema -->
<g id="edge4" class="edge">
<title>StaticDataTable&#45;&gt;DataSchema</title>
<path fill="none" stroke="#000000" d="M671.3843,-578.3771C644.4444,-567.2295 608.1113,-552.1952 579.7405,-540.4555"/>
<polygon fill="#000000" stroke="#000000" points="581.0278,-537.2005 570.4494,-536.6109 578.3513,-543.6686 581.0278,-537.2005"/>
</g>
<!-- RemoteImportStorageSetup -->
<g id="node38" class="node">
<title>RemoteImportStorageSetup</title>
<ellipse fill="none" stroke="#000000" cx="709.1397" cy="-450" rx="118.6993" ry="18"/>
<text text-anchor="middle" x="709.1397" y="-445.8" font-family="Times,serif" font-size="14.00" fill="#000000">RemoteImportStorageSetup</text>
</g>
<!-- StorageSetup&#45;&gt;RemoteImportStorageSetup -->
<g id="edge39" class="edge">
<title>StorageSetup&#45;&gt;RemoteImportStorageSetup</title>
<path fill="none" stroke="#000000" d="M709.1397,-503.8314C709.1397,-496.131 709.1397,-486.9743 709.1397,-478.4166"/>
<polygon fill="#000000" stroke="#000000" points="712.6398,-478.4132 709.1397,-468.4133 705.6398,-478.4133 712.6398,-478.4132"/>
</g>
<!-- TabularSchema -->
<g id="node34" class="node">
<title>TabularSchema</title>
<ellipse fill="none" stroke="#000000" cx="501.1397" cy="-450" rx="71.7679" ry="18"/>
<text text-anchor="middle" x="501.1397" y="-445.8" font-family="Times,serif" font-size="14.00" fill="#000000">TabularSchema</text>
</g>
<!-- DataSchema&#45;&gt;TabularSchema -->
<g id="edge28" class="edge">
<title>DataSchema&#45;&gt;TabularSchema</title>
<path fill="none" stroke="#000000" d="M526.56,-503.8314C522.7461,-495.7547 518.1756,-486.0761 513.9684,-477.1668"/>
<polygon fill="#000000" stroke="#000000" points="517.0338,-475.4614 509.5988,-467.9134 510.704,-478.4504 517.0338,-475.4614"/>
</g>
<!-- DataCompression -->
<g id="node7" class="node">
<title>DataCompression</title>
<ellipse fill="none" stroke="#000000" cx="950.1397" cy="-90" rx="80.4557" ry="18"/>
<text text-anchor="middle" x="950.1397" y="-85.8" font-family="Times,serif" font-size="14.00" fill="#000000">DataCompression</text>
</g>
<!-- GzipCompression -->
<g id="node8" class="node">
<title>GzipCompression</title>
<ellipse fill="none" stroke="#000000" cx="985.1397" cy="-18" rx="80.5393" ry="18"/>
<text text-anchor="middle" x="985.1397" y="-13.8" font-family="Times,serif" font-size="14.00" fill="#000000">GzipCompression</text>
</g>
<!-- DataCompression&#45;&gt;GzipCompression -->
<g id="edge5" class="edge">
<title>DataCompression&#45;&gt;GzipCompression</title>
<path fill="none" stroke="#000000" d="M958.9716,-71.8314C962.8978,-63.7547 967.6027,-54.0761 971.9336,-45.1668"/>
<polygon fill="#000000" stroke="#000000" points="975.2076,-46.4373 976.4318,-35.9134 968.912,-43.3769 975.2076,-46.4373"/>
</g>
<!-- ParsedDataSetup -->
<g id="node9" class="node">
<title>ParsedDataSetup</title>
<ellipse fill="none" stroke="#000000" cx="1180.1397" cy="-810" rx="77.0023" ry="18"/>
<text text-anchor="middle" x="1180.1397" y="-805.8" font-family="Times,serif" font-size="14.00" fill="#000000">ParsedDataSetup</text>
</g>
<!-- EndpointConfig -->
<g id="node10" class="node">
<title>EndpointConfig</title>
<ellipse fill="none" stroke="#000000" cx="958.1397" cy="-738" rx="73.0402" ry="18"/>
<text text-anchor="middle" x="958.1397" y="-733.8" font-family="Times,serif" font-size="14.00" fill="#000000">EndpointConfig</text>
</g>
<!-- ParsedDataSetup&#45;&gt;EndpointConfig -->
<g id="edge6" class="edge">
<title>ParsedDataSetup&#45;&gt;EndpointConfig</title>
<path fill="none" stroke="#000000" d="M1134.9471,-795.3429C1099.4522,-783.8311 1049.9063,-767.7621 1012.2907,-755.5625"/>
<polygon fill="#000000" stroke="#000000" points="1013.1029,-752.1465 1002.5108,-752.3907 1010.9433,-758.805 1013.1029,-752.1465"/>
</g>
<!-- User -->
<g id="node11" class="node">
<title>User</title>
<ellipse fill="none" stroke="#000000" cx="1079.1397" cy="-738" rx="29.0318" ry="18"/>
<text text-anchor="middle" x="1079.1397" y="-733.8" font-family="Times,serif" font-size="14.00" fill="#000000">User</text>
</g>
<!-- ParsedDataSetup&#45;&gt;User -->
<g id="edge7" class="edge">
<title>ParsedDataSetup&#45;&gt;User</title>
<path fill="none" stroke="#000000" d="M1155.9476,-792.7542C1141.077,-782.1533 1121.9837,-768.5423 1106.5542,-757.543"/>
<polygon fill="#000000" stroke="#000000" points="1108.5836,-754.6915 1098.4092,-751.7367 1104.5203,-760.3915 1108.5836,-754.6915"/>
</g>
<!-- UserGroup -->
<g id="node12" class="node">
<title>UserGroup</title>
<ellipse fill="none" stroke="#000000" cx="1180.1397" cy="-738" rx="53.8731" ry="18"/>
<text text-anchor="middle" x="1180.1397" y="-733.8" font-family="Times,serif" font-size="14.00" fill="#000000">UserGroup</text>
</g>
<!-- ParsedDataSetup&#45;&gt;UserGroup -->
<g id="edge8" class="edge">
<title>ParsedDataSetup&#45;&gt;UserGroup</title>
<path fill="none" stroke="#000000" d="M1180.1397,-791.8314C1180.1397,-784.131 1180.1397,-774.9743 1180.1397,-766.4166"/>
<polygon fill="#000000" stroke="#000000" points="1183.6398,-766.4132 1180.1397,-756.4133 1176.6398,-766.4133 1183.6398,-766.4132"/>
</g>
<!-- DataSet -->
<g id="node13" class="node">
<title>DataSet</title>
<ellipse fill="none" stroke="#000000" cx="1294.1397" cy="-738" rx="41.7075" ry="18"/>
<text text-anchor="middle" x="1294.1397" y="-733.8" font-family="Times,serif" font-size="14.00" fill="#000000">DataSet</text>
</g>
<!-- ParsedDataSetup&#45;&gt;DataSet -->
<g id="edge9" class="edge">
<title>ParsedDataSetup&#45;&gt;DataSet</title>
<path fill="none" stroke="#000000" d="M1207.1561,-792.937C1223.5282,-782.5967 1244.514,-769.3425 1261.7706,-758.4436"/>
<polygon fill="#000000" stroke="#000000" points="1263.8247,-761.286 1270.4106,-752.9868 1260.0867,-755.3675 1263.8247,-761.286"/>
</g>
<!-- RoleBinding -->
<g id="node14" class="node">
<title>RoleBinding</title>
<ellipse fill="none" stroke="#000000" cx="1483.1397" cy="-738" rx="60.2942" ry="18"/>
<text text-anchor="middle" x="1483.1397" y="-733.8" font-family="Times,serif" font-size="14.00" fill="#000000">RoleBinding</text>
</g>
<!-- ParsedDataSetup&#45;&gt;RoleBinding -->
<g id="edge10" class="edge">
<title>ParsedDataSetup&#45;&gt;RoleBinding</title>
<path fill="none" stroke="#000000" d="M1234.31,-797.1278C1288.3135,-784.2953 1370.9299,-764.6637 1425.9654,-751.586"/>
<polygon fill="#000000" stroke="#000000" points="1426.9878,-754.9406 1435.9077,-749.2234 1425.3694,-748.1302 1426.9878,-754.9406"/>
</g>
<!-- DataSet&#45;&gt;AccessPolicy -->
<g id="edge11" class="edge">
<title>DataSet&#45;&gt;AccessPolicy</title>
<path fill="none" stroke="#000000" d="M1303.7801,-720.2022C1308.2802,-711.8944 1313.7309,-701.8316 1318.7082,-692.6427"/>
<polygon fill="#000000" stroke="#000000" points="1321.7896,-694.3025 1323.475,-683.8425 1315.6345,-690.9685 1321.7896,-694.3025"/>
</g>
<!-- DataSet&#45;&gt;Asset -->
<g id="edge13" class="edge">
<title>DataSet&#45;&gt;Asset</title>
<path fill="none" stroke="#000000" d="M1262.4984,-726.1744C1256.1327,-723.9819 1249.457,-721.8141 1243.1397,-720 1172.6653,-699.7624 1152.7888,-703.6187 1082.1397,-684 1076.7241,-682.4962 1071.0496,-680.7721 1065.4983,-678.9998"/>
<polygon fill="#000000" stroke="#000000" points="1066.3147,-675.5842 1055.722,-675.795 1064.1341,-682.2359 1066.3147,-675.5842"/>
</g>
<!-- DatumTemplate -->
<g id="node15" class="node">
<title>DatumTemplate</title>
<ellipse fill="none" stroke="#000000" cx="1165.1397" cy="-666" rx="73.5734" ry="18"/>
<text text-anchor="middle" x="1165.1397" y="-661.8" font-family="Times,serif" font-size="14.00" fill="#000000">DatumTemplate</text>
</g>
<!-- DataSet&#45;&gt;DatumTemplate -->
<g id="edge12" class="edge">
<title>DataSet&#45;&gt;DatumTemplate</title>
<path fill="none" stroke="#000000" d="M1268.3446,-723.6028C1249.8987,-713.3074 1224.7509,-699.2714 1203.8976,-687.6323"/>
<polygon fill="#000000" stroke="#000000" points="1205.3954,-684.4601 1194.9577,-682.6426 1201.9838,-690.5725 1205.3954,-684.4601"/>
</g>
<!-- Role -->
<g id="node32" class="node">
<title>Role</title>
<ellipse fill="none" stroke="#000000" cx="1528.1397" cy="-666" rx="29.0529" ry="18"/>
<text text-anchor="middle" x="1528.1397" y="-661.8" font-family="Times,serif" font-size="14.00" fill="#000000">Role</text>
</g>
<!-- RoleBinding&#45;&gt;Role -->
<g id="edge27" class="edge">
<title>RoleBinding&#45;&gt;Role</title>
<path fill="none" stroke="#000000" d="M1494.2633,-720.2022C1499.6281,-711.6186 1506.1638,-701.1613 1512.0582,-691.7303"/>
<polygon fill="#000000" stroke="#000000" points="1515.1219,-693.4322 1517.4539,-683.0972 1509.1859,-689.7222 1515.1219,-693.4322"/>
</g>
<!-- KeyedStruct -->
<g id="node39" class="node">
<title>KeyedStruct</title>
<ellipse fill="none" stroke="#000000" cx="1159.1397" cy="-594" rx="59.1083" ry="18"/>
<text text-anchor="middle" x="1159.1397" y="-589.8" font-family="Times,serif" font-size="14.00" fill="#000000">KeyedStruct</text>
</g>
<!-- DatumTemplate&#45;&gt;KeyedStruct -->
<g id="edge40" class="edge">
<title>DatumTemplate&#45;&gt;KeyedStruct</title>
<path fill="none" stroke="#000000" d="M1163.6256,-647.8314C1162.9839,-640.131 1162.2209,-630.9743 1161.5077,-622.4166"/>
<polygon fill="#000000" stroke="#000000" points="1164.9926,-622.088 1160.6741,-612.4133 1158.0167,-622.6694 1164.9926,-622.088"/>
</g>
<!-- CSVEncoding -->
<g id="node16" class="node">
<title>CSVEncoding</title>
<ellipse fill="none" stroke="#000000" cx="856.1397" cy="-162" rx="66.6575" ry="18"/>
<text text-anchor="middle" x="856.1397" y="-157.8" font-family="Times,serif" font-size="14.00" fill="#000000">CSVEncoding</text>
</g>
<!-- CSVEncoding&#45;&gt;DataCompression -->
<g id="edge14" class="edge">
<title>CSVEncoding&#45;&gt;DataCompression</title>
<path fill="none" stroke="#000000" d="M878.4164,-144.937C890.6454,-135.57 905.9963,-123.8119 919.3552,-113.5796"/>
<polygon fill="#000000" stroke="#000000" points="921.5594,-116.3001 927.3699,-107.4407 917.3028,-110.7429 921.5594,-116.3001"/>
</g>
<!-- FileHeader -->
<g id="node17" class="node">
<title>FileHeader</title>
<ellipse fill="none" stroke="#000000" cx="780.1397" cy="-90" rx="53.8673" ry="18"/>
<text text-anchor="middle" x="780.1397" y="-85.8" font-family="Times,serif" font-size="14.00" fill="#000000">FileHeader</text>
</g>
<!-- CSVEncoding&#45;&gt;FileHeader -->
<g id="edge15" class="edge">
<title>CSVEncoding&#45;&gt;FileHeader</title>
<path fill="none" stroke="#000000" d="M837.7422,-144.5708C828.0562,-135.3946 816.0303,-124.0017 805.476,-114.0029"/>
<polygon fill="#000000" stroke="#000000" points="807.7721,-111.3569 798.1055,-107.0202 802.9579,-116.4386 807.7721,-111.3569"/>
</g>
<!-- UpperSnakeCaseCSVHeader -->
<g id="node20" class="node">
<title>UpperSnakeCaseCSVHeader</title>
<ellipse fill="none" stroke="#000000" cx="762.1397" cy="-18" rx="124.378" ry="18"/>
<text text-anchor="middle" x="762.1397" y="-13.8" font-family="Times,serif" font-size="14.00" fill="#000000">UpperSnakeCaseCSVHeader</text>
</g>
<!-- FileHeader&#45;&gt;UpperSnakeCaseCSVHeader -->
<g id="edge18" class="edge">
<title>FileHeader&#45;&gt;UpperSnakeCaseCSVHeader</title>
<path fill="none" stroke="#000000" d="M775.5975,-71.8314C773.6512,-64.0463 771.3329,-54.7729 769.1733,-46.1347"/>
<polygon fill="#000000" stroke="#000000" points="772.5639,-45.2658 766.743,-36.4133 765.7729,-46.9636 772.5639,-45.2658"/>
</g>
<!-- Encoding -->
<g id="node18" class="node">
<title>Encoding</title>
<ellipse fill="none" stroke="#000000" cx="776.1397" cy="-234" rx="48.0974" ry="18"/>
<text text-anchor="middle" x="776.1397" y="-229.8" font-family="Times,serif" font-size="14.00" fill="#000000">Encoding</text>
</g>
<!-- Encoding&#45;&gt;CSVEncoding -->
<g id="edge16" class="edge">
<title>Encoding&#45;&gt;CSVEncoding</title>
<path fill="none" stroke="#000000" d="M794.6944,-217.3008C804.9702,-208.0525 817.927,-196.3914 829.2905,-186.1643"/>
<polygon fill="#000000" stroke="#000000" points="831.7588,-188.6516 836.8504,-179.3603 827.076,-183.4485 831.7588,-188.6516"/>
</g>
<!-- ORCEncoding -->
<g id="node19" class="node">
<title>ORCEncoding</title>
<ellipse fill="none" stroke="#000000" cx="703.1397" cy="-162" rx="67.8011" ry="18"/>
<text text-anchor="middle" x="703.1397" y="-157.8" font-family="Times,serif" font-size="14.00" fill="#000000">ORCEncoding</text>
</g>
<!-- Encoding&#45;&gt;ORCEncoding -->
<g id="edge17" class="edge">
<title>Encoding&#45;&gt;ORCEncoding</title>
<path fill="none" stroke="#000000" d="M758.8397,-216.937C749.701,-207.9235 738.3175,-196.6959 728.2276,-186.7443"/>
<polygon fill="#000000" stroke="#000000" points="730.4,-183.9709 720.8226,-179.4407 725.4845,-188.9547 730.4,-183.9709"/>
</g>
<!-- FileBasedStorageLayout -->
<g id="node21" class="node">
<title>FileBasedStorageLayout</title>
<ellipse fill="none" stroke="#000000" cx="1138.1397" cy="-234" rx="106.5179" ry="18"/>
<text text-anchor="middle" x="1138.1397" y="-229.8" font-family="Times,serif" font-size="14.00" fill="#000000">FileBasedStorageLayout</text>
</g>
<!-- SingleFileLayout -->
<g id="node22" class="node">
<title>SingleFileLayout</title>
<ellipse fill="none" stroke="#000000" cx="1165.1397" cy="-162" rx="78.1868" ry="18"/>
<text text-anchor="middle" x="1165.1397" y="-157.8" font-family="Times,serif" font-size="14.00" fill="#000000">SingleFileLayout</text>
</g>
<!-- FileBasedStorageLayout&#45;&gt;SingleFileLayout -->
<g id="edge19" class="edge">
<title>FileBasedStorageLayout&#45;&gt;SingleFileLayout</title>
<path fill="none" stroke="#000000" d="M1144.9529,-215.8314C1147.904,-207.9617 1151.4255,-198.5712 1154.6947,-189.8533"/>
<polygon fill="#000000" stroke="#000000" points="1158.0005,-191.0055 1158.2347,-180.4133 1151.4462,-188.5476 1158.0005,-191.0055"/>
</g>
<!-- Granularity -->
<g id="node23" class="node">
<title>Granularity</title>
<ellipse fill="none" stroke="#000000" cx="335.1397" cy="-90" rx="55.5946" ry="18"/>
<text text-anchor="middle" x="335.1397" y="-85.8" font-family="Times,serif" font-size="14.00" fill="#000000">Granularity</text>
</g>
<!-- DailyGranularity -->
<g id="node24" class="node">
<title>DailyGranularity</title>
<ellipse fill="none" stroke="#000000" cx="335.1397" cy="-18" rx="77.0023" ry="18"/>
<text text-anchor="middle" x="335.1397" y="-13.8" font-family="Times,serif" font-size="14.00" fill="#000000">DailyGranularity</text>
</g>
<!-- Granularity&#45;&gt;DailyGranularity -->
<g id="edge20" class="edge">
<title>Granularity&#45;&gt;DailyGranularity</title>
<path fill="none" stroke="#000000" d="M335.1397,-71.8314C335.1397,-64.131 335.1397,-54.9743 335.1397,-46.4166"/>
<polygon fill="#000000" stroke="#000000" points="338.6398,-46.4132 335.1397,-36.4133 331.6398,-46.4133 338.6398,-46.4132"/>
</g>
<!-- DynamicHiveTableLayout -->
<g id="node25" class="node">
<title>DynamicHiveTableLayout</title>
<ellipse fill="none" stroke="#000000" cx="335.1397" cy="-162" rx="114.589" ry="18"/>
<text text-anchor="middle" x="335.1397" y="-157.8" font-family="Times,serif" font-size="14.00" fill="#000000">DynamicHiveTableLayout</text>
</g>
<!-- DynamicHiveTableLayout&#45;&gt;Granularity -->
<g id="edge21" class="edge">
<title>DynamicHiveTableLayout&#45;&gt;Granularity</title>
<path fill="none" stroke="#000000" d="M335.1397,-143.8314C335.1397,-136.131 335.1397,-126.9743 335.1397,-118.4166"/>
<polygon fill="#000000" stroke="#000000" points="338.6398,-118.4132 335.1397,-108.4133 331.6398,-118.4133 338.6398,-118.4132"/>
</g>
<!-- HiveStorageLayout -->
<g id="node26" class="node">
<title>HiveStorageLayout</title>
<ellipse fill="none" stroke="#000000" cx="335.1397" cy="-234" rx="86.8184" ry="18"/>
<text text-anchor="middle" x="335.1397" y="-229.8" font-family="Times,serif" font-size="14.00" fill="#000000">HiveStorageLayout</text>
</g>
<!-- HiveStorageLayout&#45;&gt;DynamicHiveTableLayout -->
<g id="edge23" class="edge">
<title>HiveStorageLayout&#45;&gt;DynamicHiveTableLayout</title>
<path fill="none" stroke="#000000" d="M335.1397,-215.8314C335.1397,-208.131 335.1397,-198.9743 335.1397,-190.4166"/>
<polygon fill="#000000" stroke="#000000" points="338.6398,-190.4132 335.1397,-180.4133 331.6398,-190.4133 338.6398,-190.4132"/>
</g>
<!-- StaticHiveTableLayout -->
<g id="node27" class="node">
<title>StaticHiveTableLayout</title>
<ellipse fill="none" stroke="#000000" cx="101.1397" cy="-162" rx="101.2795" ry="18"/>
<text text-anchor="middle" x="101.1397" y="-157.8" font-family="Times,serif" font-size="14.00" fill="#000000">StaticHiveTableLayout</text>
</g>
<!-- HiveStorageLayout&#45;&gt;StaticHiveTableLayout -->
<g id="edge22" class="edge">
<title>HiveStorageLayout&#45;&gt;StaticHiveTableLayout</title>
<path fill="none" stroke="#000000" d="M286.3704,-218.9941C250.0678,-207.824 200.294,-192.509 161.4839,-180.5675"/>
<polygon fill="#000000" stroke="#000000" points="162.4551,-177.2044 151.868,-177.6087 160.3965,-183.8949 162.4551,-177.2044"/>
</g>
<!-- HiveLocation -->
<g id="node28" class="node">
<title>HiveLocation</title>
<ellipse fill="none" stroke="#000000" cx="568.1397" cy="-234" rx="64.2649" ry="18"/>
<text text-anchor="middle" x="568.1397" y="-229.8" font-family="Times,serif" font-size="14.00" fill="#000000">HiveLocation</text>
</g>
<!-- AlluxioLocation -->
<g id="node29" class="node">
<title>AlluxioLocation</title>
<ellipse fill="none" stroke="#000000" cx="542.1397" cy="-162" rx="74.74" ry="18"/>
<text text-anchor="middle" x="542.1397" y="-157.8" font-family="Times,serif" font-size="14.00" fill="#000000">AlluxioLocation</text>
</g>
<!-- HiveLocation&#45;&gt;AlluxioLocation -->
<g id="edge24" class="edge">
<title>HiveLocation&#45;&gt;AlluxioLocation</title>
<path fill="none" stroke="#000000" d="M561.5788,-215.8314C558.7369,-207.9617 555.3459,-198.5712 552.1978,-189.8533"/>
<polygon fill="#000000" stroke="#000000" points="555.4774,-188.63 548.7889,-180.4133 548.8935,-191.0076 555.4774,-188.63"/>
</g>
<!-- RemoteLocation -->
<g id="node30" class="node">
<title>RemoteLocation</title>
<ellipse fill="none" stroke="#000000" cx="931.1397" cy="-234" rx="75.3002" ry="18"/>
<text text-anchor="middle" x="931.1397" y="-229.8" font-family="Times,serif" font-size="14.00" fill="#000000">RemoteLocation</text>
</g>
<!-- GCSLocation -->
<g id="node31" class="node">
<title>GCSLocation</title>
<ellipse fill="none" stroke="#000000" cx="1005.1397" cy="-162" rx="64.2843" ry="18"/>
<text text-anchor="middle" x="1005.1397" y="-157.8" font-family="Times,serif" font-size="14.00" fill="#000000">GCSLocation</text>
</g>
<!-- RemoteLocation&#45;&gt;GCSLocation -->
<g id="edge25" class="edge">
<title>RemoteLocation&#45;&gt;GCSLocation</title>
<path fill="none" stroke="#000000" d="M949.4318,-216.2022C958.6405,-207.2425 969.9472,-196.2414 979.9624,-186.4968"/>
<polygon fill="#000000" stroke="#000000" points="982.5868,-188.8267 987.3133,-179.3446 977.7052,-183.8096 982.5868,-188.8267"/>
</g>
<!-- GlobalPermissionsAdmin -->
<g id="node33" class="node">
<title>GlobalPermissionsAdmin</title>
<ellipse fill="none" stroke="#000000" cx="1573.1397" cy="-594" rx="110.6322" ry="18"/>
<text text-anchor="middle" x="1573.1397" y="-589.8" font-family="Times,serif" font-size="14.00" fill="#000000">GlobalPermissionsAdmin</text>
</g>
<!-- Role&#45;&gt;GlobalPermissionsAdmin -->
<g id="edge26" class="edge">
<title>Role&#45;&gt;GlobalPermissionsAdmin</title>
<path fill="none" stroke="#000000" d="M1538.804,-648.937C1544.0825,-640.4914 1550.576,-630.1019 1556.4899,-620.6396"/>
<polygon fill="#000000" stroke="#000000" points="1559.5918,-622.2803 1561.9239,-611.9453 1553.6558,-618.5702 1559.5918,-622.2803"/>
</g>
<!-- HiveTableStorage -->
<g id="node35" class="node">
<title>HiveTableStorage</title>
<ellipse fill="none" stroke="#000000" cx="624.1397" cy="-306" rx="81.0782" ry="18"/>
<text text-anchor="middle" x="624.1397" y="-301.8" font-family="Times,serif" font-size="14.00" fill="#000000">HiveTableStorage</text>
</g>
<!-- HiveTableStorage&#45;&gt;Encoding -->
<g id="edge31" class="edge">
<title>HiveTableStorage&#45;&gt;Encoding</title>
<path fill="none" stroke="#000000" d="M658.6308,-289.6621C681.906,-278.637 712.6736,-264.0629 736.8872,-252.5933"/>
<polygon fill="#000000" stroke="#000000" points="738.6114,-255.6494 746.1505,-248.2054 735.6148,-249.3232 738.6114,-255.6494"/>
</g>
<!-- HiveTableStorage&#45;&gt;HiveStorageLayout -->
<g id="edge30" class="edge">
<title>HiveTableStorage&#45;&gt;HiveStorageLayout</title>
<path fill="none" stroke="#000000" d="M570.12,-292.5418C522.1802,-280.5983 452.0077,-263.1159 400.8332,-250.3665"/>
<polygon fill="#000000" stroke="#000000" points="401.4133,-246.9042 390.8638,-247.8828 399.721,-253.6965 401.4133,-246.9042"/>
</g>
<!-- HiveTableStorage&#45;&gt;HiveLocation -->
<g id="edge29" class="edge">
<title>HiveTableStorage&#45;&gt;HiveLocation</title>
<path fill="none" stroke="#000000" d="M610.297,-288.2022C603.5833,-279.5704 595.3961,-269.0439 588.0287,-259.5717"/>
<polygon fill="#000000" stroke="#000000" points="590.7253,-257.3378 581.8231,-251.593 585.1998,-261.6354 590.7253,-257.3378"/>
</g>
<!-- RemoteStorage -->
<g id="node36" class="node">
<title>RemoteStorage</title>
<ellipse fill="none" stroke="#000000" cx="822.1397" cy="-306" rx="70.6432" ry="18"/>
<text text-anchor="middle" x="822.1397" y="-301.8" font-family="Times,serif" font-size="14.00" fill="#000000">RemoteStorage</text>
</g>
<!-- RemoteStorage&#45;&gt;Encoding -->
<g id="edge34" class="edge">
<title>RemoteStorage&#45;&gt;Encoding</title>
<path fill="none" stroke="#000000" d="M810.7689,-288.2022C805.3655,-279.7448 798.8001,-269.4685 792.8447,-260.147"/>
<polygon fill="#000000" stroke="#000000" points="795.713,-258.1356 787.3797,-251.593 789.8142,-261.9044 795.713,-258.1356"/>
</g>
<!-- RemoteStorage&#45;&gt;FileBasedStorageLayout -->
<g id="edge33" class="edge">
<title>RemoteStorage&#45;&gt;FileBasedStorageLayout</title>
<path fill="none" stroke="#000000" d="M875.031,-293.9488C926.934,-282.1228 1006.532,-263.9865 1064.5881,-250.7586"/>
<polygon fill="#000000" stroke="#000000" points="1065.4656,-254.1484 1074.4382,-248.5143 1063.9105,-247.3233 1065.4656,-254.1484"/>
</g>
<!-- RemoteStorage&#45;&gt;RemoteLocation -->
<g id="edge32" class="edge">
<title>RemoteStorage&#45;&gt;RemoteLocation</title>
<path fill="none" stroke="#000000" d="M847.6953,-289.1192C862.3488,-279.4399 880.9349,-267.1628 896.8449,-256.6534"/>
<polygon fill="#000000" stroke="#000000" points="898.9515,-259.4566 905.3664,-251.0245 895.0934,-253.6158 898.9515,-259.4566"/>
</g>
<!-- Storage -->
<g id="node37" class="node">
<title>Storage</title>
<ellipse fill="none" stroke="#000000" cx="709.1397" cy="-378" rx="40.5673" ry="18"/>
<text text-anchor="middle" x="709.1397" y="-373.8" font-family="Times,serif" font-size="14.00" fill="#000000">Storage</text>
</g>
<!-- Storage&#45;&gt;HiveTableStorage -->
<g id="edge36" class="edge">
<title>Storage&#45;&gt;HiveTableStorage</title>
<path fill="none" stroke="#000000" d="M690.2754,-362.0209C679.202,-352.641 664.9897,-340.6024 652.5798,-330.0905"/>
<polygon fill="#000000" stroke="#000000" points="654.6288,-327.2392 644.7361,-323.4464 650.1044,-332.5806 654.6288,-327.2392"/>
</g>
<!-- Storage&#45;&gt;RemoteStorage -->
<g id="edge35" class="edge">
<title>Storage&#45;&gt;RemoteStorage</title>
<path fill="none" stroke="#000000" d="M732.5533,-363.0816C748.1874,-353.12 769.04,-339.8334 786.693,-328.5855"/>
<polygon fill="#000000" stroke="#000000" points="789.0354,-331.2431 795.5882,-322.9178 785.2739,-325.3396 789.0354,-331.2431"/>
</g>
<!-- RemoteImportStorageSetup&#45;&gt;Storage -->
<g id="edge37" class="edge">
<title>RemoteImportStorageSetup&#45;&gt;Storage</title>
<path fill="none" stroke="#000000" d="M703.1873,-431.8314C702.4253,-424.0125 702.2093,-414.6923 702.5392,-406.0221"/>
<polygon fill="#000000" stroke="#000000" points="706.0401,-406.1239 703.2124,-395.9134 699.0555,-405.6587 706.0401,-406.1239"/>
</g>
<!-- RemoteImportStorageSetup&#45;&gt;Storage -->
<g id="edge38" class="edge">
<title>RemoteImportStorageSetup&#45;&gt;Storage</title>
<path fill="none" stroke="#000000" d="M715.0921,-431.8314C715.854,-424.0125 716.0701,-414.6923 715.7401,-406.0221"/>
<polygon fill="#000000" stroke="#000000" points="719.2238,-405.6587 715.0669,-395.9134 712.2393,-406.1239 719.2238,-405.6587"/>
</g>
<!-- Attribute -->
<g id="node40" class="node">
<title>Attribute</title>
<ellipse fill="none" stroke="#000000" cx="1459.1397" cy="-522" rx="45.8022" ry="18"/>
<text text-anchor="middle" x="1459.1397" y="-517.8" font-family="Times,serif" font-size="14.00" fill="#000000">Attribute</text>
</g>
<!-- KeyedStruct&#45;&gt;Attribute -->
<g id="edge41" class="edge">
<title>KeyedStruct&#45;&gt;Attribute</title>
<path fill="none" stroke="#000000" d="M1203.7153,-581.9953C1211.5125,-579.9542 1219.5549,-577.8861 1227.1397,-576 1289.7659,-560.4266 1362.2474,-543.7743 1409.299,-533.1451"/>
<polygon fill="#000000" stroke="#000000" points="1410.2464,-536.5194 1419.2315,-530.9054 1408.7066,-529.6909 1410.2464,-536.5194"/>
</g>
<!-- KeyStringIdentifier -->
<g id="node41" class="node">
<title>KeyStringIdentifier</title>
<ellipse fill="none" stroke="#000000" cx="1859.1397" cy="-450" rx="86.8126" ry="18"/>
<text text-anchor="middle" x="1859.1397" y="-445.8" font-family="Times,serif" font-size="14.00" fill="#000000">KeyStringIdentifier</text>
</g>
<!-- Attribute&#45;&gt;KeyStringIdentifier -->
<g id="edge42" class="edge">
<title>Attribute&#45;&gt;KeyStringIdentifier</title>
<path fill="none" stroke="#000000" d="M1501.6018,-514.6481C1560.554,-504.4032 1670.5171,-485.1568 1764.1397,-468 1770.9068,-466.7599 1777.9421,-465.4555 1784.9862,-464.1392"/>
<polygon fill="#000000" stroke="#000000" points="1786.0992,-467.4916 1795.2827,-462.2082 1784.8089,-460.6115 1786.0992,-467.4916"/>
</g>
<!-- NullableStringIdentifier -->
<g id="node42" class="node">
<title>NullableStringIdentifier</title>
<ellipse fill="none" stroke="#000000" cx="2067.1397" cy="-450" rx="103.645" ry="18"/>
<text text-anchor="middle" x="2067.1397" y="-445.8" font-family="Times,serif" font-size="14.00" fill="#000000">NullableStringIdentifier</text>
</g>
<!-- Attribute&#45;&gt;NullableStringIdentifier -->
<g id="edge43" class="edge">
<title>Attribute&#45;&gt;NullableStringIdentifier</title>
<path fill="none" stroke="#000000" d="M1504.0308,-517.8851C1591.1677,-509.7269 1789.245,-490.3466 1955.1397,-468 1964.0263,-466.8029 1973.2947,-465.4623 1982.5281,-464.067"/>
<polygon fill="#000000" stroke="#000000" points="1983.1598,-467.5111 1992.5137,-462.5357 1982.0987,-460.592 1983.1598,-467.5111"/>
</g>
<!-- NullablePOSIXTimestamp -->
<g id="node43" class="node">
<title>NullablePOSIXTimestamp</title>
<ellipse fill="none" stroke="#000000" cx="961.1397" cy="-450" rx="115.7638" ry="18"/>
<text text-anchor="middle" x="961.1397" y="-445.8" font-family="Times,serif" font-size="14.00" fill="#000000">NullablePOSIXTimestamp</text>
</g>
<!-- Attribute&#45;&gt;NullablePOSIXTimestamp -->
<g id="edge44" class="edge">
<title>Attribute&#45;&gt;NullablePOSIXTimestamp</title>
<path fill="none" stroke="#000000" d="M1415.9462,-515.7744C1346.3142,-505.7357 1204.93,-485.3424 1085.1397,-468 1075.6131,-466.6208 1065.6751,-465.1806 1055.7524,-463.7417"/>
<polygon fill="#000000" stroke="#000000" points="1056.2496,-460.2773 1045.8508,-462.3055 1055.2448,-467.2048 1056.2496,-460.2773"/>
</g>
<!-- NullableInt64 -->
<g id="node44" class="node">
<title>NullableInt64</title>
<ellipse fill="none" stroke="#000000" cx="1159.1397" cy="-450" rx="64.8467" ry="18"/>
<text text-anchor="middle" x="1159.1397" y="-445.8" font-family="Times,serif" font-size="14.00" fill="#000000">NullableInt64</text>
</g>
<!-- Attribute&#45;&gt;NullableInt64 -->
<g id="edge45" class="edge">
<title>Attribute&#45;&gt;NullableInt64</title>
<path fill="none" stroke="#000000" d="M1419.5275,-512.5867C1374.3958,-501.8497 1298.4359,-483.7422 1233.1397,-468 1228.2051,-466.8103 1223.0864,-465.5727 1217.9497,-464.3282"/>
<polygon fill="#000000" stroke="#000000" points="1218.6363,-460.8933 1208.093,-461.9373 1216.9861,-467.696 1218.6363,-460.8933"/>
</g>
<!-- NullableString -->
<g id="node45" class="node">
<title>NullableString</title>
<ellipse fill="none" stroke="#000000" cx="1310.1397" cy="-450" rx="67.7934" ry="18"/>
<text text-anchor="middle" x="1310.1397" y="-445.8" font-family="Times,serif" font-size="14.00" fill="#000000">NullableString</text>
</g>
<!-- Attribute&#45;&gt;NullableString -->
<g id="edge46" class="edge">
<title>Attribute&#45;&gt;NullableString</title>
<path fill="none" stroke="#000000" d="M1430.0573,-507.9468C1407.9036,-497.2417 1377.0857,-482.3497 1352.2392,-470.3434"/>
<polygon fill="#000000" stroke="#000000" points="1353.5661,-467.0974 1343.0394,-465.8979 1350.5205,-473.4001 1353.5661,-467.0974"/>
</g>
<!-- FloatLatitude -->
<g id="node46" class="node">
<title>FloatLatitude</title>
<ellipse fill="none" stroke="#000000" cx="1459.1397" cy="-450" rx="63.1363" ry="18"/>
<text text-anchor="middle" x="1459.1397" y="-445.8" font-family="Times,serif" font-size="14.00" fill="#000000">FloatLatitude</text>
</g>
<!-- Attribute&#45;&gt;FloatLatitude -->
<g id="edge47" class="edge">
<title>Attribute&#45;&gt;FloatLatitude</title>
<path fill="none" stroke="#000000" d="M1459.1397,-503.8314C1459.1397,-496.131 1459.1397,-486.9743 1459.1397,-478.4166"/>
<polygon fill="#000000" stroke="#000000" points="1462.6398,-478.4132 1459.1397,-468.4133 1455.6398,-478.4133 1462.6398,-478.4132"/>
</g>
<!-- FloatLongitude -->
<g id="node47" class="node">
<title>FloatLongitude</title>
<ellipse fill="none" stroke="#000000" cx="1611.1397" cy="-450" rx="70.6664" ry="18"/>
<text text-anchor="middle" x="1611.1397" y="-445.8" font-family="Times,serif" font-size="14.00" fill="#000000">FloatLongitude</text>
</g>
<!-- Attribute&#45;&gt;FloatLongitude -->
<g id="edge48" class="edge">
<title>Attribute&#45;&gt;FloatLongitude</title>
<path fill="none" stroke="#000000" d="M1488.4468,-508.1177C1511.1125,-497.3813 1542.8245,-482.3598 1568.33,-470.2783"/>
<polygon fill="#000000" stroke="#000000" points="1569.8787,-473.4176 1577.4177,-465.9735 1566.882,-467.0914 1569.8787,-473.4176"/>
</g>
<!-- URI -->
<g id="node48" class="node">
<title>URI</title>
<ellipse fill="none" stroke="#000000" cx="1727.1397" cy="-450" rx="27.8267" ry="18"/>
<text text-anchor="middle" x="1727.1397" y="-445.8" font-family="Times,serif" font-size="14.00" fill="#000000">URI</text>
</g>
<!-- Attribute&#45;&gt;URI -->
<g id="edge49" class="edge">
<title>Attribute&#45;&gt;URI</title>
<path fill="none" stroke="#000000" d="M1501.912,-515.1572C1549.1291,-506.8921 1626.9525,-491.1517 1691.1397,-468 1692.9637,-467.3421 1694.8153,-466.6153 1696.6671,-465.8423"/>
<polygon fill="#000000" stroke="#000000" points="1698.1408,-469.0171 1705.8003,-461.6971 1695.2478,-462.6429 1698.1408,-469.0171"/>
</g>
</g>
</svg>
