<?xml version="1.0" encoding="UTF-8" standalone="no"?>
<!DOCTYPE svg PUBLIC "-//W3C//DTD SVG 1.1//EN"
 "http://www.w3.org/Graphics/SVG/1.1/DTD/svg11.dtd">
<!-- Generated by graphviz version 2.40.1 (20161225.0304)
 -->
<!-- Title: boxes_and_circles Pages: 1 -->
<svg width="1650pt" height="942pt"
 viewBox="0.00 0.00 1649.85 941.80" xmlns="http://www.w3.org/2000/svg" xmlns:xlink="http://www.w3.org/1999/xlink">
<g id="graph0" class="graph" transform="scale(1 1) rotate(0) translate(4 937.8)">
<title>boxes_and_circles</title>
<polygon fill="#ffffff" stroke="transparent" points="-4,4 -4,-937.8 1645.8529,-937.8 1645.8529,4 -4,4"/>
<!-- AccessPolicy -->
<g id="node1" class="node">
<title>AccessPolicy</title>
<polygon fill="none" stroke="#000000" points="1202.9093,-756.2 1104.0041,-756.2 1104.0041,-720.2 1202.9093,-720.2 1202.9093,-756.2"/>
<text text-anchor="middle" x="1153.4567" y="-734" font-family="Helvetica,sans-Serif" font-size="14.00" fill="#000000">AccessPolicy</text>
</g>
<!-- ApproveAccessSelector -->
<g id="node2" class="node">
<title>ApproveAccessSelector</title>
<polygon fill="none" stroke="#000000" points="1235.5462,-683.2 1071.3672,-683.2 1071.3672,-647.2 1235.5462,-647.2 1235.5462,-683.2"/>
<text text-anchor="middle" x="1153.4567" y="-661" font-family="Helvetica,sans-Serif" font-size="14.00" fill="#000000">ApproveAccessSelector</text>
</g>
<!-- AccessPolicy&#45;&gt;ApproveAccessSelector -->
<g id="edge1" class="edge">
<title>AccessPolicy&#45;&gt;ApproveAccessSelector</title>
<path fill="none" stroke="#000000" d="M1153.4567,-720.1551C1153.4567,-712.0828 1153.4567,-702.3764 1153.4567,-693.3817"/>
<polygon fill="#000000" stroke="#000000" points="1156.9568,-693.2903 1153.4567,-683.2904 1149.9568,-693.2904 1156.9568,-693.2903"/>
</g>
<!-- Asset -->
<g id="node3" class="node">
<title>Asset</title>
<polygon fill="none" stroke="#000000" points="845.4567,-756.2 791.4567,-756.2 791.4567,-720.2 845.4567,-720.2 845.4567,-756.2"/>
<text text-anchor="middle" x="818.4567" y="-734" font-family="Helvetica,sans-Serif" font-size="14.00" fill="#000000">Asset</text>
</g>
<!-- StaticDataTable -->
<g id="node4" class="node">
<title>StaticDataTable</title>
<polygon fill="none" stroke="#000000" points="498.0339,-683.2 382.8795,-683.2 382.8795,-647.2 498.0339,-647.2 498.0339,-683.2"/>
<text text-anchor="middle" x="440.4567" y="-661" font-family="Helvetica,sans-Serif" font-size="14.00" fill="#000000">StaticDataTable</text>
</g>
<!-- Asset&#45;&gt;StaticDataTable -->
<g id="edge2" class="edge">
<title>Asset&#45;&gt;StaticDataTable</title>
<path fill="none" stroke="#000000" d="M791.2719,-732.95C732.5485,-721.6093 592.356,-694.5351 508.0482,-678.2534"/>
<polygon fill="#000000" stroke="#000000" points="508.5353,-674.7829 498.0531,-676.3231 507.208,-681.6559 508.5353,-674.7829"/>
</g>
<!-- StorageSetup -->
<g id="node5" class="node">
<title>StorageSetup</title>
<ellipse fill="none" stroke="#000000" cx="440.4567" cy="-576.4" rx="70.1544" ry="18"/>
<text text-anchor="middle" x="440.4567" y="-572.2" font-family="Helvetica,sans-Serif" font-size="14.00" fill="#000000">StorageSetup</text>
</g>
<!-- StaticDataTable&#45;&gt;StorageSetup -->
<g id="edge3" class="edge">
<title>StaticDataTable&#45;&gt;StorageSetup</title>
<path fill="none" stroke="#000000" d="M440.4567,-646.8006C440.4567,-634.6949 440.4567,-618.6076 440.4567,-604.8674"/>
<polygon fill="#000000" stroke="#000000" points="443.9568,-604.472 440.4567,-594.472 436.9568,-604.4721 443.9568,-604.472"/>
<text text-anchor="middle" x="455.2316" y="-616.6" font-family="Times,serif" font-size="14.00" fill="#000000">setup</text>
</g>
<!-- DataSchema -->
<g id="node6" class="node">
<title>DataSchema</title>
<ellipse fill="none" stroke="#000000" cx="259.4567" cy="-576.4" rx="66.6903" ry="18"/>
<text text-anchor="middle" x="259.4567" y="-572.2" font-family="Helvetica,sans-Serif" font-size="14.00" fill="#000000">DataSchema</text>
</g>
<!-- StaticDataTable&#45;&gt;DataSchema -->
<g id="edge4" class="edge">
<title>StaticDataTable&#45;&gt;DataSchema</title>
<path fill="none" stroke="#000000" d="M403.3919,-647.0157C373.5859,-632.3927 331.7322,-611.8589 300.8363,-596.7012"/>
<polygon fill="#000000" stroke="#000000" points="302.1446,-593.4445 291.6252,-592.1821 299.0614,-599.7289 302.1446,-593.4445"/>
<text text-anchor="middle" x="387.4462" y="-616.6" font-family="Times,serif" font-size="14.00" fill="#000000">schema</text>
</g>
<!-- RemoteImportStorageSetup -->
<g id="node38" class="node">
<title>RemoteImportStorageSetup</title>
<ellipse fill="none" stroke="#000000" cx="440.4567" cy="-503.4" rx="131.485" ry="18"/>
<text text-anchor="middle" x="440.4567" y="-499.2" font-family="Helvetica,sans-Serif" font-size="14.00" fill="#000000">RemoteImportStorageSetup</text>
</g>
<!-- StorageSetup&#45;&gt;RemoteImportStorageSetup -->
<g id="edge39" class="edge">
<title>StorageSetup&#45;&gt;RemoteImportStorageSetup</title>
<path fill="none" stroke="#000000" d="M440.4567,-558.3551C440.4567,-550.2828 440.4567,-540.5764 440.4567,-531.5817"/>
<polygon fill="#000000" stroke="#000000" points="443.9568,-531.4903 440.4567,-521.4904 436.9568,-531.4904 443.9568,-531.4903"/>
</g>
<!-- TabularSchema -->
<g id="node34" class="node">
<title>TabularSchema</title>
<polygon fill="none" stroke="#000000" points="290.7521,-521.4 176.1613,-521.4 176.1613,-485.4 290.7521,-485.4 290.7521,-521.4"/>
<text text-anchor="middle" x="233.4567" y="-499.2" font-family="Helvetica,sans-Serif" font-size="14.00" fill="#000000">TabularSchema</text>
</g>
<!-- DataSchema&#45;&gt;TabularSchema -->
<g id="edge28" class="edge">
<title>DataSchema&#45;&gt;TabularSchema</title>
<path fill="none" stroke="#000000" d="M253.0297,-558.3551C250.0922,-550.1074 246.547,-540.1536 243.2855,-530.9962"/>
<polygon fill="#000000" stroke="#000000" points="246.5522,-529.7364 239.8998,-521.4904 239.958,-532.085 246.5522,-529.7364"/>
</g>
<!-- DataCompression -->
<g id="node7" class="node">
<title>DataCompression</title>
<polygon fill="none" stroke="#000000" points="610.4665,-109 482.4469,-109 482.4469,-73 610.4665,-73 610.4665,-109"/>
<text text-anchor="middle" x="546.4567" y="-86.8" font-family="Helvetica,sans-Serif" font-size="14.00" fill="#000000">DataCompression</text>
</g>
<!-- GzipCompression -->
<g id="node8" class="node">
<title>GzipCompression</title>
<polygon fill="none" stroke="#000000" points="631.1841,-36 503.7293,-36 503.7293,0 631.1841,0 631.1841,-36"/>
<text text-anchor="middle" x="567.4567" y="-13.8" font-family="Helvetica,sans-Serif" font-size="14.00" fill="#000000">GzipCompression</text>
</g>
<!-- DataCompression&#45;&gt;GzipCompression -->
<g id="edge5" class="edge">
<title>DataCompression&#45;&gt;GzipCompression</title>
<path fill="none" stroke="#000000" d="M551.6477,-72.9551C553.9951,-64.7951 556.8229,-54.9652 559.4339,-45.8887"/>
<polygon fill="#000000" stroke="#000000" points="562.8516,-46.6683 562.2526,-36.0904 556.1244,-44.733 562.8516,-46.6683"/>
</g>
<!-- ParsedDataSetup -->
<g id="node9" class="node">
<title>ParsedDataSetup</title>
<ellipse fill="none" stroke="#000000" cx="1273.4567" cy="-915.8" rx="87.4912" ry="18"/>
<text text-anchor="middle" x="1273.4567" y="-911.6" font-family="Helvetica,sans-Serif" font-size="14.00" fill="#000000">ParsedDataSetup</text>
</g>
<!-- EndpointConfig -->
<g id="node10" class="node">
<title>EndpointConfig</title>
<ellipse fill="none" stroke="#000000" cx="1147.4567" cy="-827" rx="77.0951" ry="18"/>
<text text-anchor="middle" x="1147.4567" y="-822.8" font-family="Helvetica,sans-Serif" font-size="14.00" fill="#000000">EndpointConfig</text>
</g>
<!-- ParsedDataSetup&#45;&gt;EndpointConfig -->
<g id="edge6" class="edge">
<title>ParsedDataSetup&#45;&gt;EndpointConfig</title>
<path fill="none" stroke="#000000" d="M1244.2143,-898.6636C1234.7537,-892.8884 1224.3098,-886.2643 1215.0163,-879.8 1202.134,-870.8395 1188.4056,-860.3058 1176.7123,-851.0137"/>
<polygon fill="#000000" stroke="#000000" points="1178.5897,-848.0329 1168.5986,-844.5074 1174.2105,-853.4939 1178.5897,-848.0329"/>
<text text-anchor="middle" x="1242.6769" y="-867.2" font-family="Times,serif" font-size="14.00" fill="#000000">endpoints</text>
</g>
<!-- User -->
<g id="node11" class="node">
<title>User</title>
<ellipse fill="none" stroke="#000000" cx="1273.4567" cy="-827" rx="31.339" ry="18"/>
<text text-anchor="middle" x="1273.4567" y="-822.8" font-family="Helvetica,sans-Serif" font-size="14.00" fill="#000000">User</text>
</g>
<!-- ParsedDataSetup&#45;&gt;User -->
<g id="edge7" class="edge">
<title>ParsedDataSetup&#45;&gt;User</title>
<path fill="none" stroke="#000000" d="M1273.4567,-897.4006C1273.4567,-885.2949 1273.4567,-869.2076 1273.4567,-855.4674"/>
<polygon fill="#000000" stroke="#000000" points="1276.9568,-855.072 1273.4567,-845.072 1269.9568,-855.0721 1276.9568,-855.072"/>
<text text-anchor="middle" x="1287.8389" y="-867.2" font-family="Times,serif" font-size="14.00" fill="#000000">users</text>
</g>
<!-- UserGroup -->
<g id="node12" class="node">
<title>UserGroup</title>
<ellipse fill="none" stroke="#000000" cx="1381.4567" cy="-827" rx="58.0035" ry="18"/>
<text text-anchor="middle" x="1381.4567" y="-822.8" font-family="Helvetica,sans-Serif" font-size="14.00" fill="#000000">UserGroup</text>
</g>
<!-- ParsedDataSetup&#45;&gt;UserGroup -->
<g id="edge8" class="edge">
<title>ParsedDataSetup&#45;&gt;UserGroup</title>
<path fill="none" stroke="#000000" d="M1294.794,-898.256C1311.4265,-884.5804 1334.681,-865.46 1352.9142,-850.4683"/>
<polygon fill="#000000" stroke="#000000" points="1355.3951,-852.9597 1360.8965,-843.9051 1350.9493,-847.5527 1355.3951,-852.9597"/>
<text text-anchor="middle" x="1356.5093" y="-867.2" font-family="Times,serif" font-size="14.00" fill="#000000">groups</text>
</g>
<!-- DataSet -->
<g id="node13" class="node">
<title>DataSet</title>
<ellipse fill="none" stroke="#000000" cx="1006.4567" cy="-827" rx="45.8407" ry="18"/>
<text text-anchor="middle" x="1006.4567" y="-822.8" font-family="Helvetica,sans-Serif" font-size="14.00" fill="#000000">DataSet</text>
</g>
<!-- ParsedDataSetup&#45;&gt;DataSet -->
<g id="edge9" class="edge">
<title>ParsedDataSetup&#45;&gt;DataSet</title>
<path fill="none" stroke="#000000" d="M1218.6866,-901.7838C1195.5355,-895.5419 1168.3743,-887.7993 1144.1425,-879.8 1111.3401,-868.9714 1074.8666,-854.8897 1047.7044,-843.9923"/>
<polygon fill="#000000" stroke="#000000" points="1048.7258,-840.6303 1038.1426,-840.1335 1046.1061,-847.1217 1048.7258,-840.6303"/>
<text text-anchor="middle" x="1166.6138" y="-867.2" font-family="Times,serif" font-size="14.00" fill="#000000">datasets</text>
</g>
<!-- RoleBinding -->
<g id="node14" class="node">
<title>RoleBinding</title>
<ellipse fill="none" stroke="#000000" cx="1520.4567" cy="-827" rx="63.1731" ry="18"/>
<text text-anchor="middle" x="1520.4567" y="-822.8" font-family="Helvetica,sans-Serif" font-size="14.00" fill="#000000">RoleBinding</text>
</g>
<!-- ParsedDataSetup&#45;&gt;RoleBinding -->
<g id="edge10" class="edge">
<title>ParsedDataSetup&#45;&gt;RoleBinding</title>
<path fill="none" stroke="#000000" d="M1319.7403,-900.4266C1338.3433,-894.1575 1359.9629,-886.7583 1379.4567,-879.8 1410.7003,-868.6476 1445.6197,-855.576 1472.8915,-845.2292"/>
<polygon fill="#000000" stroke="#000000" points="1474.4684,-848.3741 1482.572,-841.549 1471.9809,-841.831 1474.4684,-848.3741"/>
<text text-anchor="middle" x="1460.9525" y="-867.2" font-family="Times,serif" font-size="14.00" fill="#000000">role_bindings</text>
</g>
<!-- DataSet&#45;&gt;AccessPolicy -->
<g id="edge11" class="edge">
<title>DataSet&#45;&gt;AccessPolicy</title>
<path fill="none" stroke="#000000" d="M1042.1938,-815.6279C1065.3397,-807.9051 1093.0417,-797.8833 1103.4567,-791 1114.4826,-783.7129 1124.8522,-773.5561 1133.2583,-764.0952"/>
<polygon fill="#000000" stroke="#000000" points="1136.0035,-766.2701 1139.829,-756.39 1130.6771,-761.728 1136.0035,-766.2701"/>
<text text-anchor="middle" x="1163.4946" y="-778.4" font-family="Times,serif" font-size="14.00" fill="#000000">accessPolicies</text>
</g>
<!-- DataSet&#45;&gt;Asset -->
<g id="edge13" class="edge">
<title>DataSet&#45;&gt;Asset</title>
<path fill="none" stroke="#000000" d="M977.0817,-813.125C943.9965,-797.4975 890.2091,-772.0915 854.5811,-755.263"/>
<polygon fill="#000000" stroke="#000000" points="856.0295,-752.0764 845.4926,-750.9701 853.0398,-758.4059 856.0295,-752.0764"/>
<text text-anchor="middle" x="945.7835" y="-778.4" font-family="Times,serif" font-size="14.00" fill="#000000">assets</text>
</g>
<!-- DatumTemplate -->
<g id="node15" class="node">
<title>DatumTemplate</title>
<ellipse fill="none" stroke="#000000" cx="1006.4567" cy="-738.2" rx="79.9282" ry="18"/>
<text text-anchor="middle" x="1006.4567" y="-734" font-family="Helvetica,sans-Serif" font-size="14.00" fill="#000000">DatumTemplate</text>
</g>
<!-- DataSet&#45;&gt;DatumTemplate -->
<g id="edge12" class="edge">
<title>DataSet&#45;&gt;DatumTemplate</title>
<path fill="none" stroke="#000000" d="M1006.4567,-808.6006C1006.4567,-796.4949 1006.4567,-780.4076 1006.4567,-766.6674"/>
<polygon fill="#000000" stroke="#000000" points="1009.9568,-766.272 1006.4567,-756.272 1002.9568,-766.2721 1009.9568,-766.272"/>
<text text-anchor="middle" x="1053.111" y="-778.4" font-family="Times,serif" font-size="14.00" fill="#000000">datumTemplates</text>
</g>
<!-- Role -->
<g id="node33" class="node">
<title>Role</title>
<polygon fill="none" stroke="#000000" points="1547.4567,-756.2 1493.4567,-756.2 1493.4567,-720.2 1547.4567,-720.2 1547.4567,-756.2"/>
<text text-anchor="middle" x="1520.4567" y="-734" font-family="Helvetica,sans-Serif" font-size="14.00" fill="#000000">Role</text>
</g>
<!-- RoleBinding&#45;&gt;Role -->
<g id="edge27" class="edge">
<title>RoleBinding&#45;&gt;Role</title>
<path fill="none" stroke="#000000" d="M1520.4567,-808.6006C1520.4567,-796.4949 1520.4567,-780.4076 1520.4567,-766.6674"/>
<polygon fill="#000000" stroke="#000000" points="1523.9568,-766.272 1520.4567,-756.272 1516.9568,-766.2721 1523.9568,-766.272"/>
<text text-anchor="middle" x="1531.3396" y="-778.4" font-family="Times,serif" font-size="14.00" fill="#000000">role</text>
</g>
<!-- KeyedStruct -->
<g id="node39" class="node">
<title>KeyedStruct</title>
<polygon fill="none" stroke="#000000" points="1053.7024,-683.2 961.211,-683.2 961.211,-647.2 1053.7024,-647.2 1053.7024,-683.2"/>
<text text-anchor="middle" x="1007.4567" y="-661" font-family="Helvetica,sans-Serif" font-size="14.00" fill="#000000">KeyedStruct</text>
</g>
<!-- DatumTemplate&#45;&gt;KeyedStruct -->
<g id="edge40" class="edge">
<title>DatumTemplate&#45;&gt;KeyedStruct</title>
<path fill="none" stroke="#000000" d="M1006.7039,-720.1551C1006.8145,-712.0828 1006.9474,-702.3764 1007.0706,-693.3817"/>
<polygon fill="#000000" stroke="#000000" points="1010.5715,-693.3374 1007.2089,-683.2904 1003.5721,-693.2414 1010.5715,-693.3374"/>
</g>
<!-- CSVEncoding -->
<g id="node16" class="node">
<title>CSVEncoding</title>
<ellipse fill="none" stroke="#000000" cx="532.4567" cy="-179.8" rx="71.2829" ry="18"/>
<text text-anchor="middle" x="532.4567" y="-175.6" font-family="Helvetica,sans-Serif" font-size="14.00" fill="#000000">CSVEncoding</text>
</g>
<!-- CSVEncoding&#45;&gt;DataCompression -->
<g id="edge14" class="edge">
<title>CSVEncoding&#45;&gt;DataCompression</title>
<path fill="none" stroke="#000000" d="M535.3575,-161.4006C537.285,-149.175 539.8526,-132.8887 542.0328,-119.0599"/>
<polygon fill="#000000" stroke="#000000" points="545.5074,-119.4951 543.6075,-109.072 538.5928,-118.4049 545.5074,-119.4951"/>
<text text-anchor="middle" x="576.8368" y="-131.2" font-family="Times,serif" font-size="14.00" fill="#000000">compression</text>
</g>
<!-- FileHeader -->
<g id="node17" class="node">
<title>FileHeader</title>
<ellipse fill="none" stroke="#000000" cx="396.4567" cy="-91" rx="58.4997" ry="18"/>
<text text-anchor="middle" x="396.4567" y="-86.8" font-family="Helvetica,sans-Serif" font-size="14.00" fill="#000000">FileHeader</text>
</g>
<!-- CSVEncoding&#45;&gt;FileHeader -->
<g id="edge15" class="edge">
<title>CSVEncoding&#45;&gt;FileHeader</title>
<path fill="none" stroke="#000000" d="M506.556,-162.8884C484.9611,-148.7882 454.0274,-128.5902 430.4443,-113.1919"/>
<polygon fill="#000000" stroke="#000000" points="432.0873,-110.0847 421.8006,-107.5481 428.2602,-115.9459 432.0873,-110.0847"/>
<text text-anchor="middle" x="496.1089" y="-131.2" font-family="Times,serif" font-size="14.00" fill="#000000">header</text>
</g>
<!-- UpperSnakeCaseCSVHeader -->
<g id="node20" class="node">
<title>UpperSnakeCaseCSVHeader</title>
<polygon fill="none" stroke="#000000" points="486.1054,-36 284.808,-36 284.808,0 486.1054,0 486.1054,-36"/>
<text text-anchor="middle" x="385.4567" y="-13.8" font-family="Helvetica,sans-Serif" font-size="14.00" fill="#000000">UpperSnakeCaseCSVHeader</text>
</g>
<!-- FileHeader&#45;&gt;UpperSnakeCaseCSVHeader -->
<g id="edge18" class="edge">
<title>FileHeader&#45;&gt;UpperSnakeCaseCSVHeader</title>
<path fill="none" stroke="#000000" d="M393.7376,-72.9551C392.5212,-64.8828 391.0586,-55.1764 389.7033,-46.1817"/>
<polygon fill="#000000" stroke="#000000" points="393.1337,-45.4572 388.1826,-36.0904 386.2118,-46.5003 393.1337,-45.4572"/>
</g>
<!-- Encoding -->
<g id="node18" class="node">
<title>Encoding</title>
<polygon fill="none" stroke="#000000" points="517.8138,-270.8 443.0996,-270.8 443.0996,-234.8 517.8138,-234.8 517.8138,-270.8"/>
<text text-anchor="middle" x="480.4567" y="-248.6" font-family="Helvetica,sans-Serif" font-size="14.00" fill="#000000">Encoding</text>
</g>
<!-- Encoding&#45;&gt;CSVEncoding -->
<g id="edge16" class="edge">
<title>Encoding&#45;&gt;CSVEncoding</title>
<path fill="none" stroke="#000000" d="M493.3106,-234.7551C499.4818,-226.0917 506.9937,-215.5461 513.7807,-206.0182"/>
<polygon fill="#000000" stroke="#000000" points="516.7995,-207.8129 519.7506,-197.6374 511.0981,-203.7516 516.7995,-207.8129"/>
</g>
<!-- ORCEncoding -->
<g id="node19" class="node">
<title>ORCEncoding</title>
<polygon fill="none" stroke="#000000" points="443.4177,-197.8 337.4957,-197.8 337.4957,-161.8 443.4177,-161.8 443.4177,-197.8"/>
<text text-anchor="middle" x="390.4567" y="-175.6" font-family="Helvetica,sans-Serif" font-size="14.00" fill="#000000">ORCEncoding</text>
</g>
<!-- Encoding&#45;&gt;ORCEncoding -->
<g id="edge17" class="edge">
<title>Encoding&#45;&gt;ORCEncoding</title>
<path fill="none" stroke="#000000" d="M458.2095,-234.7551C446.8512,-225.5422 432.8684,-214.2006 420.5611,-204.218"/>
<polygon fill="#000000" stroke="#000000" points="422.7311,-201.4716 412.7599,-197.8904 418.3215,-206.9081 422.7311,-201.4716"/>
</g>
<!-- SingleFileLayout -->
<g id="node21" class="node">
<title>SingleFileLayout</title>
<ellipse fill="none" stroke="#000000" cx="237.4567" cy="-179.8" rx="82.3124" ry="18"/>
<text text-anchor="middle" x="237.4567" y="-175.6" font-family="Helvetica,sans-Serif" font-size="14.00" fill="#000000">SingleFileLayout</text>
</g>
<!-- FileBasedStorageLayout -->
<g id="node22" class="node">
<title>FileBasedStorageLayout</title>
<polygon fill="none" stroke="#000000" points="357.2289,-270.8 187.6845,-270.8 187.6845,-234.8 357.2289,-234.8 357.2289,-270.8"/>
<text text-anchor="middle" x="272.4567" y="-248.6" font-family="Helvetica,sans-Serif" font-size="14.00" fill="#000000">FileBasedStorageLayout</text>
</g>
<!-- FileBasedStorageLayout&#45;&gt;SingleFileLayout -->
<g id="edge19" class="edge">
<title>FileBasedStorageLayout&#45;&gt;SingleFileLayout</title>
<path fill="none" stroke="#000000" d="M263.805,-234.7551C259.8086,-226.4196 254.9766,-216.3416 250.5477,-207.1042"/>
<polygon fill="#000000" stroke="#000000" points="253.6095,-205.3944 246.1302,-197.8904 247.2975,-208.4207 253.6095,-205.3944"/>
</g>
<!-- StaticHiveTableLayout -->
<g id="node23" class="node">
<title>StaticHiveTableLayout</title>
<ellipse fill="none" stroke="#000000" cx="989.4567" cy="-179.8" rx="107.7545" ry="18"/>
<text text-anchor="middle" x="989.4567" y="-175.6" font-family="Helvetica,sans-Serif" font-size="14.00" fill="#000000">StaticHiveTableLayout</text>
</g>
<!-- DailyGranularity -->
<g id="node24" class="node">
<title>DailyGranularity</title>
<ellipse fill="none" stroke="#000000" cx="742.4567" cy="-18" rx="79.9069" ry="18"/>
<text text-anchor="middle" x="742.4567" y="-13.8" font-family="Helvetica,sans-Serif" font-size="14.00" fill="#000000">DailyGranularity</text>
</g>
<!-- Granularity -->
<g id="node25" class="node">
<title>Granularity</title>
<polygon fill="none" stroke="#000000" points="784.9039,-109 700.0095,-109 700.0095,-73 784.9039,-73 784.9039,-109"/>
<text text-anchor="middle" x="742.4567" y="-86.8" font-family="Helvetica,sans-Serif" font-size="14.00" fill="#000000">Granularity</text>
</g>
<!-- Granularity&#45;&gt;DailyGranularity -->
<g id="edge20" class="edge">
<title>Granularity&#45;&gt;DailyGranularity</title>
<path fill="none" stroke="#000000" d="M742.4567,-72.9551C742.4567,-64.8828 742.4567,-55.1764 742.4567,-46.1817"/>
<polygon fill="#000000" stroke="#000000" points="745.9568,-46.0903 742.4567,-36.0904 738.9568,-46.0904 745.9568,-46.0903"/>
</g>
<!-- DynamicHiveTableLayout -->
<g id="node26" class="node">
<title>DynamicHiveTableLayout</title>
<ellipse fill="none" stroke="#000000" cx="742.4567" cy="-179.8" rx="121.0621" ry="18"/>
<text text-anchor="middle" x="742.4567" y="-175.6" font-family="Helvetica,sans-Serif" font-size="14.00" fill="#000000">DynamicHiveTableLayout</text>
</g>
<!-- DynamicHiveTableLayout&#45;&gt;Granularity -->
<g id="edge21" class="edge">
<title>DynamicHiveTableLayout&#45;&gt;Granularity</title>
<path fill="none" stroke="#000000" d="M742.4567,-161.4006C742.4567,-149.2949 742.4567,-133.2076 742.4567,-119.4674"/>
<polygon fill="#000000" stroke="#000000" points="745.9568,-119.072 742.4567,-109.072 738.9568,-119.0721 745.9568,-119.072"/>
<text text-anchor="middle" x="773.1678" y="-131.2" font-family="Times,serif" font-size="14.00" fill="#000000">granularity</text>
</g>
<!-- HiveStorageLayout -->
<g id="node27" class="node">
<title>HiveStorageLayout</title>
<polygon fill="none" stroke="#000000" points="809.9917,-270.8 674.9217,-270.8 674.9217,-234.8 809.9917,-234.8 809.9917,-270.8"/>
<text text-anchor="middle" x="742.4567" y="-248.6" font-family="Helvetica,sans-Serif" font-size="14.00" fill="#000000">HiveStorageLayout</text>
</g>
<!-- HiveStorageLayout&#45;&gt;StaticHiveTableLayout -->
<g id="edge22" class="edge">
<title>HiveStorageLayout&#45;&gt;StaticHiveTableLayout</title>
<path fill="none" stroke="#000000" d="M803.5129,-234.7551C840.8878,-223.709 888.6169,-209.6028 926.3602,-198.448"/>
<polygon fill="#000000" stroke="#000000" points="927.6269,-201.7233 936.2248,-195.5325 925.6428,-195.0104 927.6269,-201.7233"/>
</g>
<!-- HiveStorageLayout&#45;&gt;DynamicHiveTableLayout -->
<g id="edge23" class="edge">
<title>HiveStorageLayout&#45;&gt;DynamicHiveTableLayout</title>
<path fill="none" stroke="#000000" d="M742.4567,-234.7551C742.4567,-226.6828 742.4567,-216.9764 742.4567,-207.9817"/>
<polygon fill="#000000" stroke="#000000" points="745.9568,-207.8903 742.4567,-197.8904 738.9568,-207.8904 745.9568,-207.8903"/>
</g>
<!-- AlluxioLocation -->
<g id="node28" class="node">
<title>AlluxioLocation</title>
<ellipse fill="none" stroke="#000000" cx="1191.4567" cy="-179.8" rx="75.9338" ry="18"/>
<text text-anchor="middle" x="1191.4567" y="-175.6" font-family="Helvetica,sans-Serif" font-size="14.00" fill="#000000">AlluxioLocation</text>
</g>
<!-- GCSLocation -->
<g id="node29" class="node">
<title>GCSLocation</title>
<ellipse fill="none" stroke="#000000" cx="68.4567" cy="-179.8" rx="68.4134" ry="18"/>
<text text-anchor="middle" x="68.4567" y="-175.6" font-family="Helvetica,sans-Serif" font-size="14.00" fill="#000000">GCSLocation</text>
</g>
<!-- HiveLocation -->
<g id="node30" class="node">
<title>HiveLocation</title>
<polygon fill="none" stroke="#000000" points="1115.8627,-270.8 1019.0507,-270.8 1019.0507,-234.8 1115.8627,-234.8 1115.8627,-270.8"/>
<text text-anchor="middle" x="1067.4567" y="-248.6" font-family="Helvetica,sans-Serif" font-size="14.00" fill="#000000">HiveLocation</text>
</g>
<!-- HiveLocation&#45;&gt;AlluxioLocation -->
<g id="edge24" class="edge">
<title>HiveLocation&#45;&gt;AlluxioLocation</title>
<path fill="none" stroke="#000000" d="M1098.1084,-234.7551C1114.9645,-224.8317 1136.0158,-212.4386 1153.8587,-201.9343"/>
<polygon fill="#000000" stroke="#000000" points="1156.0159,-204.7259 1162.8578,-196.6365 1152.4646,-198.6936 1156.0159,-204.7259"/>
</g>
<!-- RemoteLocation -->
<g id="node31" class="node">
<title>RemoteLocation</title>
<polygon fill="none" stroke="#000000" points="138.3725,-270.8 20.5409,-270.8 20.5409,-234.8 138.3725,-234.8 138.3725,-270.8"/>
<text text-anchor="middle" x="79.4567" y="-248.6" font-family="Helvetica,sans-Serif" font-size="14.00" fill="#000000">RemoteLocation</text>
</g>
<!-- RemoteLocation&#45;&gt;GCSLocation -->
<g id="edge25" class="edge">
<title>RemoteLocation&#45;&gt;GCSLocation</title>
<path fill="none" stroke="#000000" d="M76.7376,-234.7551C75.5212,-226.6828 74.0586,-216.9764 72.7033,-207.9817"/>
<polygon fill="#000000" stroke="#000000" points="76.1337,-207.2572 71.1826,-197.8904 69.2118,-208.3003 76.1337,-207.2572"/>
</g>
<!-- GlobalPermissionsAdmin -->
<g id="node32" class="node">
<title>GlobalPermissionsAdmin</title>
<ellipse fill="none" stroke="#000000" cx="1520.4567" cy="-665.2" rx="118.7533" ry="18"/>
<text text-anchor="middle" x="1520.4567" y="-661" font-family="Helvetica,sans-Serif" font-size="14.00" fill="#000000">GlobalPermissionsAdmin</text>
</g>
<!-- Role&#45;&gt;GlobalPermissionsAdmin -->
<g id="edge26" class="edge">
<title>Role&#45;&gt;GlobalPermissionsAdmin</title>
<path fill="none" stroke="#000000" d="M1520.4567,-720.1551C1520.4567,-712.0828 1520.4567,-702.3764 1520.4567,-693.3817"/>
<polygon fill="#000000" stroke="#000000" points="1523.9568,-693.2903 1520.4567,-683.2904 1516.9568,-693.2904 1523.9568,-693.2903"/>
</g>
<!-- HiveTableStorage -->
<g id="node35" class="node">
<title>HiveTableStorage</title>
<ellipse fill="none" stroke="#000000" cx="548.4567" cy="-341.6" rx="88.1135" ry="18"/>
<text text-anchor="middle" x="548.4567" y="-337.4" font-family="Helvetica,sans-Serif" font-size="14.00" fill="#000000">HiveTableStorage</text>
</g>
<!-- HiveTableStorage&#45;&gt;Encoding -->
<g id="edge31" class="edge">
<title>HiveTableStorage&#45;&gt;Encoding</title>
<path fill="none" stroke="#000000" d="M534.6959,-323.63C524.8986,-310.8359 511.5762,-293.4385 500.5869,-279.0877"/>
<polygon fill="#000000" stroke="#000000" points="503.2891,-276.8597 494.4304,-271.0481 497.7315,-281.1155 503.2891,-276.8597"/>
<text text-anchor="middle" x="547.1166" y="-293" font-family="Times,serif" font-size="14.00" fill="#000000">encoding</text>
</g>
<!-- HiveTableStorage&#45;&gt;HiveStorageLayout -->
<g id="edge30" class="edge">
<title>HiveTableStorage&#45;&gt;HiveStorageLayout</title>
<path fill="none" stroke="#000000" d="M584.492,-325.1055C615.2411,-311.0306 659.7356,-290.6641 693.6715,-275.1305"/>
<polygon fill="#000000" stroke="#000000" points="695.307,-278.2312 702.943,-270.8867 692.3936,-271.8663 695.307,-278.2312"/>
<text text-anchor="middle" x="680.9546" y="-293" font-family="Times,serif" font-size="14.00" fill="#000000">layout</text>
</g>
<!-- HiveTableStorage&#45;&gt;HiveLocation -->
<g id="edge29" class="edge">
<title>HiveTableStorage&#45;&gt;HiveLocation</title>
<path fill="none" stroke="#000000" d="M616.3069,-329.991C719.0075,-312.419 912.194,-279.3652 1009.0198,-262.7985"/>
<polygon fill="#000000" stroke="#000000" points="1009.6628,-266.2394 1018.9292,-261.103 1008.4822,-259.3397 1009.6628,-266.2394"/>
<text text-anchor="middle" x="877.0072" y="-293" font-family="Times,serif" font-size="14.00" fill="#000000">location</text>
</g>
<!-- RemoteStorage -->
<g id="node36" class="node">
<title>RemoteStorage</title>
<ellipse fill="none" stroke="#000000" cx="348.4567" cy="-341.6" rx="78.8034" ry="18"/>
<text text-anchor="middle" x="348.4567" y="-337.4" font-family="Helvetica,sans-Serif" font-size="14.00" fill="#000000">RemoteStorage</text>
</g>
<!-- RemoteStorage&#45;&gt;Encoding -->
<g id="edge34" class="edge">
<title>RemoteStorage&#45;&gt;Encoding</title>
<path fill="none" stroke="#000000" d="M373.9076,-324.4785C394.0136,-310.9527 422.3164,-291.9125 444.6989,-276.8553"/>
<polygon fill="#000000" stroke="#000000" points="446.9227,-279.5776 453.2663,-271.0917 443.0154,-273.7695 446.9227,-279.5776"/>
<text text-anchor="middle" x="452.1166" y="-293" font-family="Times,serif" font-size="14.00" fill="#000000">encoding</text>
</g>
<!-- RemoteStorage&#45;&gt;FileBasedStorageLayout -->
<g id="edge33" class="edge">
<title>RemoteStorage&#45;&gt;FileBasedStorageLayout</title>
<path fill="none" stroke="#000000" d="M333.077,-323.63C322.0248,-310.7164 306.9587,-293.1129 294.6115,-278.6861"/>
<polygon fill="#000000" stroke="#000000" points="297.2358,-276.3697 288.0744,-271.0481 291.9176,-280.9213 297.2358,-276.3697"/>
<text text-anchor="middle" x="334.9546" y="-293" font-family="Times,serif" font-size="14.00" fill="#000000">layout</text>
</g>
<!-- RemoteStorage&#45;&gt;RemoteLocation -->
<g id="edge32" class="edge">
<title>RemoteStorage&#45;&gt;RemoteLocation</title>
<path fill="none" stroke="#000000" d="M303.4321,-326.7369C259.8244,-312.3414 193.2509,-290.3648 144.0089,-274.1094"/>
<polygon fill="#000000" stroke="#000000" points="144.9967,-270.7498 134.4036,-270.9386 142.8024,-277.397 144.9967,-270.7498"/>
<text text-anchor="middle" x="261.0072" y="-293" font-family="Times,serif" font-size="14.00" fill="#000000">location</text>
</g>
<!-- Storage -->
<g id="node37" class="node">
<title>Storage</title>
<polygon fill="none" stroke="#000000" points="472.9749,-432.6 407.9385,-432.6 407.9385,-396.6 472.9749,-396.6 472.9749,-432.6"/>
<text text-anchor="middle" x="440.4567" y="-410.4" font-family="Helvetica,sans-Serif" font-size="14.00" fill="#000000">Storage</text>
</g>
<!-- Storage&#45;&gt;HiveTableStorage -->
<g id="edge36" class="edge">
<title>Storage&#45;&gt;HiveTableStorage</title>
<path fill="none" stroke="#000000" d="M467.1533,-396.5551C481.3562,-386.9549 498.9788,-375.0434 514.1827,-364.7667"/>
<polygon fill="#000000" stroke="#000000" points="516.4859,-367.4345 522.8109,-358.9347 512.5659,-361.635 516.4859,-367.4345"/>
</g>
<!-- Storage&#45;&gt;RemoteStorage -->
<g id="edge35" class="edge">
<title>Storage&#45;&gt;RemoteStorage</title>
<path fill="none" stroke="#000000" d="M417.7151,-396.5551C405.8425,-387.1344 391.1647,-375.4879 378.3815,-365.3447"/>
<polygon fill="#000000" stroke="#000000" points="380.3122,-362.4087 370.3032,-358.9347 375.9612,-367.8922 380.3122,-362.4087"/>
</g>
<!-- RemoteImportStorageSetup&#45;&gt;Storage -->
<g id="edge37" class="edge">
<title>RemoteImportStorageSetup&#45;&gt;Storage</title>
<path fill="none" stroke="#000000" d="M421.5702,-485.5499C417.1053,-480.1881 412.9564,-473.9697 410.5857,-467.4 408.0513,-460.3766 408.0513,-457.6234 410.5857,-450.6 411.7797,-447.2913 413.4247,-444.0716 415.3339,-441.0057"/>
<polygon fill="#000000" stroke="#000000" points="418.2275,-442.9774 421.2593,-432.8256 412.5584,-438.8709 418.2275,-442.9774"/>
<text text-anchor="middle" x="430.8922" y="-454.8" font-family="Times,serif" font-size="14.00" fill="#000000">remote</text>
</g>
<!-- RemoteImportStorageSetup&#45;&gt;Storage -->
<g id="edge38" class="edge">
<title>RemoteImportStorageSetup&#45;&gt;Storage</title>
<path fill="none" stroke="#000000" d="M445.9135,-485.2491C447.3665,-479.5864 448.7325,-473.2826 449.4567,-467.4 450.369,-459.9893 450.369,-458.0107 449.4567,-450.6 449.1399,-448.0264 448.7002,-445.3721 448.1841,-442.7262"/>
<polygon fill="#000000" stroke="#000000" points="451.5458,-441.7246 445.9135,-432.7509 444.7203,-443.2783 451.5458,-441.7246"/>
<text text-anchor="middle" x="464.0619" y="-454.8" font-family="Times,serif" font-size="14.00" fill="#000000">local</text>
</g>
<!-- Attribute -->
<g id="node40" class="node">
<title>Attribute</title>
<ellipse fill="none" stroke="#000000" cx="1071.4567" cy="-576.4" rx="46.9806" ry="18"/>
<text text-anchor="middle" x="1071.4567" y="-572.2" font-family="Helvetica,sans-Serif" font-size="14.00" fill="#000000">Attribute</text>
</g>
<!-- KeyedStruct&#45;&gt;Attribute -->
<g id="edge41" class="edge">
<title>KeyedStruct&#45;&gt;Attribute</title>
<path fill="none" stroke="#000000" d="M1020.7175,-646.8006C1029.9956,-633.9273 1042.5186,-616.5516 1052.8018,-602.2837"/>
<polygon fill="#000000" stroke="#000000" points="1055.8585,-604.0285 1058.8661,-593.8695 1050.1797,-599.9357 1055.8585,-604.0285"/>
<text text-anchor="middle" x="1071.5051" y="-616.6" font-family="Times,serif" font-size="14.00" fill="#000000">attributes</text>
</g>
<!-- KeyStringIdentifier -->
<g id="node41" class="node">
<title>KeyStringIdentifier</title>
<polygon fill="none" stroke="#000000" points="1466.812,-521.4 1336.1014,-521.4 1336.1014,-485.4 1466.812,-485.4 1466.812,-521.4"/>
<text text-anchor="middle" x="1401.4567" y="-499.2" font-family="Helvetica,sans-Serif" font-size="14.00" fill="#000000">KeyStringIdentifier</text>
</g>
<!-- Attribute&#45;&gt;KeyStringIdentifier -->
<g id="edge42" class="edge">
<title>Attribute&#45;&gt;KeyStringIdentifier</title>
<path fill="none" stroke="#000000" d="M1113.2139,-567.7898C1161.9719,-557.6559 1245.2956,-540.0908 1326.2509,-521.6494"/>
<polygon fill="#000000" stroke="#000000" points="1327.1404,-525.0364 1336.1093,-519.3965 1325.5809,-518.2124 1327.1404,-525.0364"/>
</g>
<!-- NullableStringIdentifier -->
<g id="node42" class="node">
<title>NullableStringIdentifier</title>
<polygon fill="none" stroke="#000000" points="1641.7492,-521.4 1485.1642,-521.4 1485.1642,-485.4 1641.7492,-485.4 1641.7492,-521.4"/>
<text text-anchor="middle" x="1563.4567" y="-499.2" font-family="Helvetica,sans-Serif" font-size="14.00" fill="#000000">NullableStringIdentifier</text>
</g>
<!-- Attribute&#45;&gt;NullableStringIdentifier -->
<g id="edge43" class="edge">
<title>Attribute&#45;&gt;NullableStringIdentifier</title>
<path fill="none" stroke="#000000" d="M1116.7446,-571.2305C1189.7927,-562.6746 1338.3522,-544.3769 1474.6174,-521.4812"/>
<polygon fill="#000000" stroke="#000000" points="1475.5475,-524.8737 1484.8231,-519.7538 1474.3792,-517.9719 1475.5475,-524.8737"/>
</g>
<!-- NullablePOSIXTimestamp -->
<g id="node43" class="node">
<title>NullablePOSIXTimestamp</title>
<polygon fill="none" stroke="#000000" points="768.5238,-521.4 590.3896,-521.4 590.3896,-485.4 768.5238,-485.4 768.5238,-521.4"/>
<text text-anchor="middle" x="679.4567" y="-499.2" font-family="Helvetica,sans-Serif" font-size="14.00" fill="#000000">NullablePOSIXTimestamp</text>
</g>
<!-- Attribute&#45;&gt;NullablePOSIXTimestamp -->
<g id="edge44" class="edge">
<title>Attribute&#45;&gt;NullablePOSIXTimestamp</title>
<path fill="none" stroke="#000000" d="M1029.1334,-568.5184C969.7091,-557.4521 859.7786,-536.9803 778.9845,-521.9345"/>
<polygon fill="#000000" stroke="#000000" points="779.2558,-518.4249 768.784,-520.0349 777.9742,-525.3066 779.2558,-518.4249"/>
</g>
<!-- NullableInt64 -->
<g id="node44" class="node">
<title>NullableInt64</title>
<polygon fill="none" stroke="#000000" points="884.143,-521.4 786.7704,-521.4 786.7704,-485.4 884.143,-485.4 884.143,-521.4"/>
<text text-anchor="middle" x="835.4567" y="-499.2" font-family="Helvetica,sans-Serif" font-size="14.00" fill="#000000">NullableInt64</text>
</g>
<!-- Attribute&#45;&gt;NullableInt64 -->
<g id="edge45" class="edge">
<title>Attribute&#45;&gt;NullableInt64</title>
<path fill="none" stroke="#000000" d="M1034.4059,-565.1075C1000.2403,-554.6739 947.8547,-538.625 893.9826,-521.8663"/>
<polygon fill="#000000" stroke="#000000" points="894.8549,-518.4722 884.2665,-518.841 892.7738,-525.1557 894.8549,-518.4722"/>
</g>
<!-- NullableString -->
<g id="node45" class="node">
<title>NullableString</title>
<polygon fill="none" stroke="#000000" points="1005.0732,-521.4 901.8402,-521.4 901.8402,-485.4 1005.0732,-485.4 1005.0732,-521.4"/>
<text text-anchor="middle" x="953.4567" y="-499.2" font-family="Helvetica,sans-Serif" font-size="14.00" fill="#000000">NullableString</text>
</g>
<!-- Attribute&#45;&gt;NullableString -->
<g id="edge46" class="edge">
<title>Attribute&#45;&gt;NullableString</title>
<path fill="none" stroke="#000000" d="M1046.4319,-560.9186C1030.3857,-550.9917 1009.2534,-537.9183 991.191,-526.7441"/>
<polygon fill="#000000" stroke="#000000" points="992.9519,-523.7179 982.6063,-521.4332 989.2691,-529.6708 992.9519,-523.7179"/>
</g>
<!-- FloatLatitude -->
<g id="node46" class="node">
<title>FloatLatitude</title>
<polygon fill="none" stroke="#000000" points="1119.8725,-521.4 1023.0409,-521.4 1023.0409,-485.4 1119.8725,-485.4 1119.8725,-521.4"/>
<text text-anchor="middle" x="1071.4567" y="-499.2" font-family="Helvetica,sans-Serif" font-size="14.00" fill="#000000">FloatLatitude</text>
</g>
<!-- Attribute&#45;&gt;FloatLatitude -->
<g id="edge47" class="edge">
<title>Attribute&#45;&gt;FloatLatitude</title>
<path fill="none" stroke="#000000" d="M1071.4567,-558.3551C1071.4567,-550.2828 1071.4567,-540.5764 1071.4567,-531.5817"/>
<polygon fill="#000000" stroke="#000000" points="1074.9568,-531.4903 1071.4567,-521.4904 1067.9568,-531.4904 1074.9568,-531.4903"/>
</g>
<!-- FloatLongitude -->
<g id="node47" class="node">
<title>FloatLongitude</title>
<polygon fill="none" stroke="#000000" points="1246.5479,-521.4 1138.3655,-521.4 1138.3655,-485.4 1246.5479,-485.4 1246.5479,-521.4"/>
<text text-anchor="middle" x="1192.4567" y="-499.2" font-family="Helvetica,sans-Serif" font-size="14.00" fill="#000000">FloatLongitude</text>
</g>
<!-- Attribute&#45;&gt;FloatLongitude -->
<g id="edge48" class="edge">
<title>Attribute&#45;&gt;FloatLongitude</title>
<path fill="none" stroke="#000000" d="M1096.8223,-561.0968C1113.3338,-551.1353 1135.1885,-537.9502 1153.8375,-526.6992"/>
<polygon fill="#000000" stroke="#000000" points="1155.6683,-529.6823 1162.4227,-521.5197 1152.0523,-523.6886 1155.6683,-529.6823"/>
</g>
<!-- URI -->
<g id="node48" class="node">
<title>URI</title>
<polygon fill="none" stroke="#000000" points="1318.4567,-521.4 1264.4567,-521.4 1264.4567,-485.4 1318.4567,-485.4 1318.4567,-521.4"/>
<text text-anchor="middle" x="1291.4567" y="-499.2" font-family="Helvetica,sans-Serif" font-size="14.00" fill="#000000">URI</text>
</g>
<!-- Attribute&#45;&gt;URI -->
<g id="edge49" class="edge">
<title>Attribute&#45;&gt;URI</title>
<path fill="none" stroke="#000000" d="M1111.2518,-566.6393C1146.917,-557.4217 1200.6642,-542.3721 1254.772,-521.3644"/>
<polygon fill="#000000" stroke="#000000" points="1256.1456,-524.5851 1264.1628,-517.6586 1253.5761,-518.0737 1256.1456,-524.5851"/>
</g>
</g>
</svg>
