<?xml version="1.0" encoding="UTF-8" standalone="no"?>
<!DOCTYPE svg PUBLIC "-//W3C//DTD SVG 1.1//EN"
 "http://www.w3.org/Graphics/SVG/1.1/DTD/svg11.dtd">
<!-- Generated by graphviz version 2.40.1 (20161225.0304)
 -->
<!-- Title: boxes_and_circles Pages: 1 -->
<svg width="1358pt" height="230pt"
 viewBox="0.00 0.00 1358.28 229.60" xmlns="http://www.w3.org/2000/svg" xmlns:xlink="http://www.w3.org/1999/xlink">
<g id="graph0" class="graph" transform="scale(1 1) rotate(0) translate(4 225.6)">
<title>boxes_and_circles</title>
<polygon fill="#ffffff" stroke="transparent" points="-4,4 -4,-225.6 1354.2842,-225.6 1354.2842,4 -4,4"/>
<!-- IsAudited on 
ParsedDataSetup 1 -->
<g id="node1" class="node">
<title>IsAudited on 
ParsedDataSetup 1</title>
<polygon fill="none" stroke="#0000ff" points="138.2335,-131.4019 -.0779,-131.4019 -.0779,-90.1981 138.2335,-90.1981 138.2335,-131.4019"/>
<text text-anchor="middle" x="69.0778" y="-115" font-family="Helvetica,sans-Serif" font-size="14.00" fill="#0000ff">IsAudited on </text>
<text text-anchor="middle" x="69.0778" y="-98.2" font-family="Helvetica,sans-Serif" font-size="14.00" fill="#0000ff">ParsedDataSetup 1</text>
</g>
<!-- IsAuditedTable on 
StaticDataTable 1 -->
<g id="node2" class="node">
<title>IsAuditedTable on 
StaticDataTable 1</title>
<polygon fill="none" stroke="#0000ff" points="306.7182,-161.4019 174.3012,-161.4019 174.3012,-120.1981 306.7182,-120.1981 306.7182,-161.4019"/>
<text text-anchor="middle" x="240.5097" y="-145" font-family="Helvetica,sans-Serif" font-size="14.00" fill="#0000ff">IsAuditedTable on </text>
<text text-anchor="middle" x="240.5097" y="-128.2" font-family="Helvetica,sans-Serif" font-size="14.00" fill="#0000ff">StaticDataTable 1</text>
</g>
<!-- IsAuditedTable on 
StaticDataTable 1&#45;&gt;IsAudited on 
ParsedDataSetup 1 -->
<g id="edge1" class="edge">
<title>IsAuditedTable on 
StaticDataTable 1&#45;&gt;IsAudited on 
ParsedDataSetup 1</title>
<path fill="none" stroke="#0000ff" d="M174.2297,-129.2012C165.7645,-127.7198 157.0324,-126.1918 148.3877,-124.679"/>
<polygon fill="#0000ff" stroke="#0000ff" points="148.7546,-121.1901 138.301,-122.9138 147.5479,-128.0853 148.7546,-121.1901"/>
</g>
<!-- IsAuditedTable on 
StaticDataTable 2 -->
<g id="node3" class="node">
<title>IsAuditedTable on 
StaticDataTable 2</title>
<polygon fill="none" stroke="#0000ff" points="306.7182,-101.4019 174.3012,-101.4019 174.3012,-60.1981 306.7182,-60.1981 306.7182,-101.4019"/>
<text text-anchor="middle" x="240.5097" y="-85" font-family="Helvetica,sans-Serif" font-size="14.00" fill="#0000ff">IsAuditedTable on </text>
<text text-anchor="middle" x="240.5097" y="-68.2" font-family="Helvetica,sans-Serif" font-size="14.00" fill="#0000ff">StaticDataTable 2</text>
</g>
<!-- IsAuditedTable on 
StaticDataTable 2&#45;&gt;IsAudited on 
ParsedDataSetup 1 -->
<g id="edge2" class="edge">
<title>IsAuditedTable on 
StaticDataTable 2&#45;&gt;IsAudited on 
ParsedDataSetup 1</title>
<path fill="none" stroke="#0000ff" d="M174.2297,-92.3988C165.7645,-93.8802 157.0324,-95.4082 148.3877,-96.921"/>
<polygon fill="#0000ff" stroke="#0000ff" points="147.5479,-93.5147 138.301,-98.6862 148.7546,-100.4099 147.5479,-93.5147"/>
</g>
<!-- IsConsistent on 
ParsedDataSetup 1 -->
<g id="node4" class="node">
<title>IsConsistent on 
ParsedDataSetup 1</title>
<polygon fill="none" stroke="#0000ff" points="481.0973,-131.4019 342.7859,-131.4019 342.7859,-90.1981 481.0973,-90.1981 481.0973,-131.4019"/>
<text text-anchor="middle" x="411.9416" y="-115" font-family="Helvetica,sans-Serif" font-size="14.00" fill="#0000ff">IsConsistent on </text>
<text text-anchor="middle" x="411.9416" y="-98.2" font-family="Helvetica,sans-Serif" font-size="14.00" fill="#0000ff">ParsedDataSetup 1</text>
</g>
<!-- IsConsistent on 
ParsedDataSetup 1&#45;&gt;IsAuditedTable on 
StaticDataTable 1 -->
<g id="edge3" class="edge">
<title>IsConsistent on 
ParsedDataSetup 1&#45;&gt;IsAuditedTable on 
StaticDataTable 1</title>
<path fill="none" stroke="#0000ff" d="M342.7078,-122.9157C334.2253,-124.4001 325.519,-125.9237 316.9384,-127.4252"/>
<polygon fill="#0000ff" stroke="#0000ff" points="316.191,-124.0028 306.944,-129.1742 317.3977,-130.898 316.191,-124.0028"/>
</g>
<!-- IsConsistent on 
ParsedDataSetup 1&#45;&gt;IsAuditedTable on 
StaticDataTable 2 -->
<g id="edge4" class="edge">
<title>IsConsistent on 
ParsedDataSetup 1&#45;&gt;IsAuditedTable on 
StaticDataTable 2</title>
<path fill="none" stroke="#0000ff" d="M342.7078,-98.6843C334.2253,-97.1999 325.519,-95.6763 316.9384,-94.1748"/>
<polygon fill="#0000ff" stroke="#0000ff" points="317.3977,-90.702 306.944,-92.4258 316.191,-97.5972 317.3977,-90.702"/>
</g>
<!-- ReplicatedDataSets on 
DataSet 1 -->
<g id="node5" class="node">
<title>ReplicatedDataSets on 
DataSet 1</title>
<polygon fill="none" stroke="#0000ff" points="680.0824,-161.4019 516.9984,-161.4019 516.9984,-120.1981 680.0824,-120.1981 680.0824,-161.4019"/>
<text text-anchor="middle" x="598.5404" y="-145" font-family="Helvetica,sans-Serif" font-size="14.00" fill="#0000ff">ReplicatedDataSets on </text>
<text text-anchor="middle" x="598.5404" y="-128.2" font-family="Helvetica,sans-Serif" font-size="14.00" fill="#0000ff">DataSet 1</text>
</g>
<!-- ReplicatedDataSets on 
DataSet 1&#45;&gt;IsConsistent on 
ParsedDataSetup 1 -->
<g id="edge5" class="edge">
<title>ReplicatedDataSets on 
DataSet 1&#45;&gt;IsConsistent on 
ParsedDataSetup 1</title>
<path fill="none" stroke="#0000ff" d="M516.9669,-127.6852C508.3676,-126.3027 499.6332,-124.8984 491.0623,-123.5204"/>
<polygon fill="#0000ff" stroke="#0000ff" points="491.5225,-120.0496 481.0937,-121.9178 490.4113,-126.9608 491.5225,-120.0496"/>
</g>
<!-- ReplicatedDataSets on 
DataSet 2 -->
<g id="node6" class="node">
<title>ReplicatedDataSets on 
DataSet 2</title>
<polygon fill="none" stroke="#0000ff" points="680.0824,-101.4019 516.9984,-101.4019 516.9984,-60.1981 680.0824,-60.1981 680.0824,-101.4019"/>
<text text-anchor="middle" x="598.5404" y="-85" font-family="Helvetica,sans-Serif" font-size="14.00" fill="#0000ff">ReplicatedDataSets on </text>
<text text-anchor="middle" x="598.5404" y="-68.2" font-family="Helvetica,sans-Serif" font-size="14.00" fill="#0000ff">DataSet 2</text>
</g>
<!-- ReplicatedDataSets on 
DataSet 2&#45;&gt;IsConsistent on 
ParsedDataSetup 1 -->
<g id="edge6" class="edge">
<title>ReplicatedDataSets on 
DataSet 2&#45;&gt;IsConsistent on 
ParsedDataSetup 1</title>
<path fill="none" stroke="#0000ff" d="M516.9669,-93.9148C508.3676,-95.2973 499.6332,-96.7016 491.0623,-98.0796"/>
<polygon fill="#0000ff" stroke="#0000ff" points="490.4113,-94.6392 481.0937,-99.6822 491.5225,-101.5504 490.4113,-94.6392"/>
</g>
<!-- ReplicatedData on 
RemoteImportStorageSetup 1 -->
<g id="node7" class="node">
<title>ReplicatedData on 
RemoteImportStorageSetup 1</title>
<polygon fill="none" stroke="#0000ff" points="1101.4504,-221.4019 899.5712,-221.4019 899.5712,-180.1981 1101.4504,-180.1981 1101.4504,-221.4019"/>
<text text-anchor="middle" x="1000.5108" y="-205" font-family="Helvetica,sans-Serif" font-size="14.00" fill="#0000ff">ReplicatedData on </text>
<text text-anchor="middle" x="1000.5108" y="-188.2" font-family="Helvetica,sans-Serif" font-size="14.00" fill="#0000ff">RemoteImportStorageSetup 1</text>
</g>
<!-- ReplicatedAssets on 
Asset 1 -->
<g id="node8" class="node">
<title>ReplicatedAssets on 
Asset 1</title>
<polygon fill="none" stroke="#0000ff" points="863.7816,-161.4019 715.8208,-161.4019 715.8208,-120.1981 863.7816,-120.1981 863.7816,-161.4019"/>
<text text-anchor="middle" x="789.8012" y="-145" font-family="Helvetica,sans-Serif" font-size="14.00" fill="#0000ff">ReplicatedAssets on </text>
<text text-anchor="middle" x="789.8012" y="-128.2" font-family="Helvetica,sans-Serif" font-size="14.00" fill="#0000ff">Asset 1</text>
</g>
<!-- ReplicatedData on 
RemoteImportStorageSetup 1&#45;&gt;ReplicatedAssets on 
Asset 1 -->
<g id="edge7" class="edge">
<title>ReplicatedData on 
RemoteImportStorageSetup 1&#45;&gt;ReplicatedAssets on 
Asset 1</title>
<path fill="none" stroke="#0000ff" d="M927.9965,-180.1514C910.0347,-175.0368 890.658,-169.5192 872.26,-164.2803"/>
<polygon fill="#0000ff" stroke="#0000ff" points="873.0254,-160.8592 862.4492,-161.4867 871.1083,-167.5916 873.0254,-160.8592"/>
</g>
<!-- ReplicatedAssets on 
Asset 1&#45;&gt;ReplicatedDataSets on 
DataSet 1 -->
<g id="edge15" class="edge">
<title>ReplicatedAssets on 
Asset 1&#45;&gt;ReplicatedDataSets on 
DataSet 1</title>
<path fill="none" stroke="#0000ff" d="M715.8548,-140.8C707.4683,-140.8 698.8469,-140.8 690.2675,-140.8"/>
<polygon fill="#0000ff" stroke="#0000ff" points="690.2319,-137.3001 680.2319,-140.8 690.2319,-144.3001 690.2319,-137.3001"/>
</g>
<!-- ReplicatedSchema on 
StaticDataTable 1 -->
<g id="node9" class="node">
<title>ReplicatedSchema on 
StaticDataTable 1</title>
<polygon fill="none" stroke="#0000ff" points="1078.8257,-161.4019 922.1959,-161.4019 922.1959,-120.1981 1078.8257,-120.1981 1078.8257,-161.4019"/>
<text text-anchor="middle" x="1000.5108" y="-145" font-family="Helvetica,sans-Serif" font-size="14.00" fill="#0000ff">ReplicatedSchema on </text>
<text text-anchor="middle" x="1000.5108" y="-128.2" font-family="Helvetica,sans-Serif" font-size="14.00" fill="#0000ff">StaticDataTable 1</text>
</g>
<!-- ReplicatedSchema on 
StaticDataTable 1&#45;&gt;ReplicatedAssets on 
Asset 1 -->
<g id="edge8" class="edge">
<title>ReplicatedSchema on 
StaticDataTable 1&#45;&gt;ReplicatedAssets on 
Asset 1</title>
<path fill="none" stroke="#0000ff" d="M922.0503,-140.8C906.4052,-140.8 889.912,-140.8 874.0808,-140.8"/>
<polygon fill="#0000ff" stroke="#0000ff" points="873.7886,-137.3001 863.7886,-140.8 873.7886,-144.3001 873.7886,-137.3001"/>
</g>
<!-- ReplicatedData on 
RemoteImportStorageSetup 2 -->
<g id="node10" class="node">
<title>ReplicatedData on 
RemoteImportStorageSetup 2</title>
<polygon fill="none" stroke="#0000ff" points="1101.4504,-101.4019 899.5712,-101.4019 899.5712,-60.1981 1101.4504,-60.1981 1101.4504,-101.4019"/>
<text text-anchor="middle" x="1000.5108" y="-85" font-family="Helvetica,sans-Serif" font-size="14.00" fill="#0000ff">ReplicatedData on </text>
<text text-anchor="middle" x="1000.5108" y="-68.2" font-family="Helvetica,sans-Serif" font-size="14.00" fill="#0000ff">RemoteImportStorageSetup 2</text>
</g>
<!-- ReplicatedAssets on 
Asset 2 -->
<g id="node11" class="node">
<title>ReplicatedAssets on 
Asset 2</title>
<polygon fill="none" stroke="#0000ff" points="863.7816,-101.4019 715.8208,-101.4019 715.8208,-60.1981 863.7816,-60.1981 863.7816,-101.4019"/>
<text text-anchor="middle" x="789.8012" y="-85" font-family="Helvetica,sans-Serif" font-size="14.00" fill="#0000ff">ReplicatedAssets on </text>
<text text-anchor="middle" x="789.8012" y="-68.2" font-family="Helvetica,sans-Serif" font-size="14.00" fill="#0000ff">Asset 2</text>
</g>
<!-- ReplicatedData on 
RemoteImportStorageSetup 2&#45;&gt;ReplicatedAssets on 
Asset 2 -->
<g id="edge9" class="edge">
<title>ReplicatedData on 
RemoteImportStorageSetup 2&#45;&gt;ReplicatedAssets on 
Asset 2</title>
<path fill="none" stroke="#0000ff" d="M899.4761,-80.8C890.916,-80.8 882.3177,-80.8 873.9079,-80.8"/>
<polygon fill="#0000ff" stroke="#0000ff" points="873.7586,-77.3001 863.7585,-80.8 873.7585,-84.3001 873.7586,-77.3001"/>
</g>
<!-- ReplicatedAssets on 
Asset 2&#45;&gt;ReplicatedDataSets on 
DataSet 2 -->
<g id="edge16" class="edge">
<title>ReplicatedAssets on 
Asset 2&#45;&gt;ReplicatedDataSets on 
DataSet 2</title>
<path fill="none" stroke="#0000ff" d="M715.8548,-80.8C707.4683,-80.8 698.8469,-80.8 690.2675,-80.8"/>
<polygon fill="#0000ff" stroke="#0000ff" points="690.2319,-77.3001 680.2319,-80.8 690.2319,-84.3001 690.2319,-77.3001"/>
</g>
<!-- ReplicatedSchema on 
StaticDataTable 2 -->
<g id="node12" class="node">
<title>ReplicatedSchema on 
StaticDataTable 2</title>
<polygon fill="none" stroke="#0000ff" points="1078.8257,-41.4019 922.1959,-41.4019 922.1959,-.1981 1078.8257,-.1981 1078.8257,-41.4019"/>
<text text-anchor="middle" x="1000.5108" y="-25" font-family="Helvetica,sans-Serif" font-size="14.00" fill="#0000ff">ReplicatedSchema on </text>
<text text-anchor="middle" x="1000.5108" y="-8.2" font-family="Helvetica,sans-Serif" font-size="14.00" fill="#0000ff">StaticDataTable 2</text>
</g>
<!-- ReplicatedSchema on 
StaticDataTable 2&#45;&gt;ReplicatedAssets on 
Asset 2 -->
<g id="edge10" class="edge">
<title>ReplicatedSchema on 
StaticDataTable 2&#45;&gt;ReplicatedAssets on 
Asset 2</title>
<path fill="none" stroke="#0000ff" d="M927.9965,-41.4486C910.0347,-46.5632 890.658,-52.0808 872.26,-57.3197"/>
<polygon fill="#0000ff" stroke="#0000ff" points="871.1083,-54.0084 862.4492,-60.1133 873.0254,-60.7408 871.1083,-54.0084"/>
</g>
<!-- DownloadDataFromRemote on 
RemoteLocation 1 -->
<g id="node13" class="node">
<title>DownloadDataFromRemote on 
RemoteLocation 1</title>
<polygon fill="none" stroke="#0000ff" points="1350.1861,-221.4019 1137.5787,-221.4019 1137.5787,-180.1981 1350.1861,-180.1981 1350.1861,-221.4019"/>
<text text-anchor="middle" x="1243.8824" y="-205" font-family="Helvetica,sans-Serif" font-size="14.00" fill="#0000ff">DownloadDataFromRemote on </text>
<text text-anchor="middle" x="1243.8824" y="-188.2" font-family="Helvetica,sans-Serif" font-size="14.00" fill="#0000ff">RemoteLocation 1</text>
</g>
<!-- DownloadDataFromRemote on 
RemoteLocation 1&#45;&gt;ReplicatedData on 
RemoteImportStorageSetup 1 -->
<g id="edge11" class="edge">
<title>DownloadDataFromRemote on 
RemoteLocation 1&#45;&gt;ReplicatedData on 
RemoteImportStorageSetup 1</title>
<path fill="none" stroke="#0000ff" d="M1137.4901,-200.8C1128.9404,-200.8 1120.2884,-200.8 1111.7065,-200.8"/>
<polygon fill="#0000ff" stroke="#0000ff" points="1111.6747,-197.3001 1101.6746,-200.8 1111.6746,-204.3001 1111.6747,-197.3001"/>
</g>
<!-- UploadDataToLocal on 
HiveLocation 1 -->
<g id="node14" class="node">
<title>UploadDataToLocal on 
HiveLocation 1</title>
<polygon fill="none" stroke="#0000ff" points="1325.4244,-161.4019 1162.3404,-161.4019 1162.3404,-120.1981 1325.4244,-120.1981 1325.4244,-161.4019"/>
<text text-anchor="middle" x="1243.8824" y="-145" font-family="Helvetica,sans-Serif" font-size="14.00" fill="#0000ff">UploadDataToLocal on </text>
<text text-anchor="middle" x="1243.8824" y="-128.2" font-family="Helvetica,sans-Serif" font-size="14.00" fill="#0000ff">HiveLocation 1</text>
</g>
<!-- UploadDataToLocal on 
HiveLocation 1&#45;&gt;ReplicatedData on 
RemoteImportStorageSetup 1 -->
<g id="edge12" class="edge">
<title>UploadDataToLocal on 
HiveLocation 1&#45;&gt;ReplicatedData on 
RemoteImportStorageSetup 1</title>
<path fill="none" stroke="#0000ff" d="M1162.1661,-160.946C1140.2735,-166.3434 1116.4392,-172.2194 1093.9647,-177.7602"/>
<polygon fill="#0000ff" stroke="#0000ff" points="1092.9587,-174.4033 1084.0872,-180.1954 1094.6343,-181.1998 1092.9587,-174.4033"/>
</g>
<!-- DownloadDataFromRemote on 
RemoteLocation 2 -->
<g id="node15" class="node">
<title>DownloadDataFromRemote on 
RemoteLocation 2</title>
<polygon fill="none" stroke="#0000ff" points="1350.1861,-101.4019 1137.5787,-101.4019 1137.5787,-60.1981 1350.1861,-60.1981 1350.1861,-101.4019"/>
<text text-anchor="middle" x="1243.8824" y="-85" font-family="Helvetica,sans-Serif" font-size="14.00" fill="#0000ff">DownloadDataFromRemote on </text>
<text text-anchor="middle" x="1243.8824" y="-68.2" font-family="Helvetica,sans-Serif" font-size="14.00" fill="#0000ff">RemoteLocation 2</text>
</g>
<!-- DownloadDataFromRemote on 
RemoteLocation 2&#45;&gt;ReplicatedData on 
RemoteImportStorageSetup 2 -->
<g id="edge13" class="edge">
<title>DownloadDataFromRemote on 
RemoteLocation 2&#45;&gt;ReplicatedData on 
RemoteImportStorageSetup 2</title>
<path fill="none" stroke="#0000ff" d="M1137.4901,-80.8C1128.9404,-80.8 1120.2884,-80.8 1111.7065,-80.8"/>
<polygon fill="#0000ff" stroke="#0000ff" points="1111.6747,-77.3001 1101.6746,-80.8 1111.6746,-84.3001 1111.6747,-77.3001"/>
</g>
<!-- UploadDataToLocal on 
HiveLocation 2 -->
<g id="node16" class="node">
<title>UploadDataToLocal on 
HiveLocation 2</title>
<polygon fill="none" stroke="#0000ff" points="1325.4244,-41.4019 1162.3404,-41.4019 1162.3404,-.1981 1325.4244,-.1981 1325.4244,-41.4019"/>
<text text-anchor="middle" x="1243.8824" y="-25" font-family="Helvetica,sans-Serif" font-size="14.00" fill="#0000ff">UploadDataToLocal on </text>
<text text-anchor="middle" x="1243.8824" y="-8.2" font-family="Helvetica,sans-Serif" font-size="14.00" fill="#0000ff">HiveLocation 2</text>
</g>
<!-- UploadDataToLocal on 
HiveLocation 2&#45;&gt;ReplicatedData on 
RemoteImportStorageSetup 2 -->
<g id="edge14" class="edge">
<title>UploadDataToLocal on 
HiveLocation 2&#45;&gt;ReplicatedData on 
RemoteImportStorageSetup 2</title>
<path fill="none" stroke="#0000ff" d="M1162.1661,-40.946C1140.2735,-46.3434 1116.4392,-52.2194 1093.9647,-57.7602"/>
<polygon fill="#0000ff" stroke="#0000ff" points="1092.9587,-54.4033 1084.0872,-60.1954 1094.6343,-61.1998 1092.9587,-54.4033"/>
</g>
</g>
</svg>
