<?xml version="1.0" encoding="UTF-8" standalone="no"?>
<!DOCTYPE svg PUBLIC "-//W3C//DTD SVG 1.1//EN"
 "http://www.w3.org/Graphics/SVG/1.1/DTD/svg11.dtd">
<!-- Generated by graphviz version 2.40.1 (20161225.0304)
 -->
<!-- Title: boxes_and_circles Pages: 1 -->
<svg width="2172pt" height="942pt"
 viewBox="0.00 0.00 2172.36 941.80" xmlns="http://www.w3.org/2000/svg" xmlns:xlink="http://www.w3.org/1999/xlink">
<g id="graph0" class="graph" transform="scale(1 1) rotate(0) translate(4 937.8)">
<title>boxes_and_circles</title>
<polygon fill="#ffffff" stroke="transparent" points="-4,4 -4,-937.8 2168.3604,-937.8 2168.3604,4 -4,4"/>
<!-- AccessPolicy -->
<g id="node1" class="node">
<title>AccessPolicy</title>
<polygon fill="#c0c0c0" stroke="#000000" points="1313.9093,-756.2 1215.0041,-756.2 1215.0041,-720.2 1313.9093,-720.2 1313.9093,-756.2"/>
<text text-anchor="middle" x="1264.4567" y="-734" font-family="Helvetica,sans-Serif" font-size="14.00" fill="#000000">AccessPolicy</text>
</g>
<!-- ApproveAccessSelector -->
<g id="node2" class="node">
<title>ApproveAccessSelector</title>
<ellipse fill="#ffffff" stroke="#000000" cx="1299.4567" cy="-665.2" rx="113.561" ry="18"/>
<text text-anchor="middle" x="1299.4567" y="-661" font-family="Helvetica,sans-Serif" font-size="14.00" fill="#000000">ApproveAccessSelector</text>
</g>
<!-- AccessPolicy&#45;&gt;ApproveAccessSelector -->
<g id="edge1" class="edge">
<title>AccessPolicy&#45;&gt;ApproveAccessSelector</title>
<path fill="none" stroke="#000000" d="M1273.1084,-720.1551C1277.1048,-711.8196 1281.9368,-701.7416 1286.3657,-692.5042"/>
<polygon fill="#000000" stroke="#000000" points="1289.6159,-693.8207 1290.7832,-683.2904 1283.3039,-690.7944 1289.6159,-693.8207"/>
</g>
<!-- Asset -->
<g id="node3" class="node">
<title>Asset</title>
<polygon fill="#c0c0c0" stroke="#000000" points="900.4567,-756.2 846.4567,-756.2 846.4567,-720.2 900.4567,-720.2 900.4567,-756.2"/>
<text text-anchor="middle" x="873.4567" y="-734" font-family="Helvetica,sans-Serif" font-size="14.00" fill="#000000">Asset</text>
</g>
<!-- StaticDataTable -->
<g id="node4" class="node">
<title>StaticDataTable</title>
<ellipse fill="#ffffff" stroke="#000000" cx="681.4567" cy="-665.2" rx="79.9456" ry="18"/>
<text text-anchor="middle" x="681.4567" y="-661" font-family="Helvetica,sans-Serif" font-size="14.00" fill="#000000">StaticDataTable</text>
</g>
<!-- Asset&#45;&gt;StaticDataTable -->
<g id="edge2" class="edge">
<title>Asset&#45;&gt;StaticDataTable</title>
<path fill="none" stroke="#000000" d="M846.355,-727.8957C816.7495,-716.6394 768.6669,-698.358 732.0428,-684.4333"/>
<polygon fill="#000000" stroke="#000000" points="733.1114,-681.0952 722.5204,-680.8127 730.6237,-687.6382 733.1114,-681.0952"/>
</g>
<!-- DataSchema -->
<g id="node29" class="node">
<title>DataSchema</title>
<polygon fill="#c0c0c0" stroke="#000000" points="729.8641,-594.4 633.0493,-594.4 633.0493,-558.4 729.8641,-558.4 729.8641,-594.4"/>
<text text-anchor="middle" x="681.4567" y="-572.2" font-family="Helvetica,sans-Serif" font-size="14.00" fill="#000000">DataSchema</text>
</g>
<!-- StaticDataTable&#45;&gt;DataSchema -->
<g id="edge4" class="edge">
<title>StaticDataTable&#45;&gt;DataSchema</title>
<path fill="none" stroke="#000000" d="M681.4567,-646.8006C681.4567,-634.6949 681.4567,-618.6076 681.4567,-604.8674"/>
<polygon fill="#000000" stroke="#000000" points="684.9568,-604.472 681.4567,-594.472 677.9568,-604.4721 684.9568,-604.472"/>
<text text-anchor="middle" x="702.4462" y="-616.6" font-family="Times,serif" font-size="14.00" fill="#000000">schema</text>
</g>
<!-- StorageSetup -->
<g id="node35" class="node">
<title>StorageSetup</title>
<polygon fill="#c0c0c0" stroke="#000000" points="587.0507,-594.4 485.8627,-594.4 485.8627,-558.4 587.0507,-558.4 587.0507,-594.4"/>
<text text-anchor="middle" x="536.4567" y="-572.2" font-family="Helvetica,sans-Serif" font-size="14.00" fill="#000000">StorageSetup</text>
</g>
<!-- StaticDataTable&#45;&gt;StorageSetup -->
<g id="edge3" class="edge">
<title>StaticDataTable&#45;&gt;StorageSetup</title>
<path fill="none" stroke="#000000" d="M653.842,-648.2884C631.4484,-634.5743 599.6357,-615.0917 574.776,-599.8673"/>
<polygon fill="#000000" stroke="#000000" points="576.3179,-596.7074 565.9621,-594.4695 572.6621,-602.6769 576.3179,-596.7074"/>
<text text-anchor="middle" x="637.2316" y="-616.6" font-family="Times,serif" font-size="14.00" fill="#000000">setup</text>
</g>
<!-- DataCompression -->
<g id="node5" class="node">
<title>DataCompression</title>
<polygon fill="#c0c0c0" stroke="#000000" points="643.4665,-109 515.4469,-109 515.4469,-73 643.4665,-73 643.4665,-109"/>
<text text-anchor="middle" x="579.4567" y="-86.8" font-family="Helvetica,sans-Serif" font-size="14.00" fill="#000000">DataCompression</text>
</g>
<!-- GzipCompression -->
<g id="node6" class="node">
<title>GzipCompression</title>
<ellipse fill="#ffffff" stroke="#000000" cx="591.4567" cy="-18" rx="87.5187" ry="18"/>
<text text-anchor="middle" x="591.4567" y="-13.8" font-family="Helvetica,sans-Serif" font-size="14.00" fill="#000000">GzipCompression</text>
</g>
<!-- DataCompression&#45;&gt;GzipCompression -->
<g id="edge5" class="edge">
<title>DataCompression&#45;&gt;GzipCompression</title>
<path fill="none" stroke="#000000" d="M582.423,-72.9551C583.7499,-64.8828 585.3455,-55.1764 586.8241,-46.1817"/>
<polygon fill="#000000" stroke="#000000" points="590.3144,-46.5257 588.4829,-36.0904 583.4071,-45.3902 590.3144,-46.5257"/>
</g>
<!-- ParsedDataSetup -->
<g id="node7" class="node">
<title>ParsedDataSetup</title>
<ellipse fill="#ffffff" stroke="#000000" cx="1452.4567" cy="-915.8" rx="87.4912" ry="18"/>
<text text-anchor="middle" x="1452.4567" y="-911.6" font-family="Helvetica,sans-Serif" font-size="14.00" fill="#000000">ParsedDataSetup</text>
</g>
<!-- DataSet -->
<g id="node8" class="node">
<title>DataSet</title>
<ellipse fill="#ffffff" stroke="#000000" cx="1146.4567" cy="-827" rx="45.8407" ry="18"/>
<text text-anchor="middle" x="1146.4567" y="-822.8" font-family="Helvetica,sans-Serif" font-size="14.00" fill="#000000">DataSet</text>
</g>
<!-- ParsedDataSetup&#45;&gt;DataSet -->
<g id="edge9" class="edge">
<title>ParsedDataSetup&#45;&gt;DataSet</title>
<path fill="none" stroke="#000000" d="M1395.5163,-902.1323C1369.666,-895.7126 1338.7597,-887.737 1311.1425,-879.8 1270.2155,-868.0379 1224.0893,-853.1024 1191.0867,-842.12"/>
<polygon fill="#000000" stroke="#000000" points="1191.8798,-838.6949 1181.2861,-838.8465 1189.6621,-845.3344 1191.8798,-838.6949"/>
<text text-anchor="middle" x="1333.6138" y="-867.2" font-family="Times,serif" font-size="14.00" fill="#000000">datasets</text>
</g>
<!-- EndpointConfig -->
<g id="node12" class="node">
<title>EndpointConfig</title>
<ellipse fill="#ffffff" stroke="#000000" cx="1294.4567" cy="-827" rx="77.0951" ry="18"/>
<text text-anchor="middle" x="1294.4567" y="-822.8" font-family="Helvetica,sans-Serif" font-size="14.00" fill="#000000">EndpointConfig</text>
</g>
<!-- ParsedDataSetup&#45;&gt;EndpointConfig -->
<g id="edge6" class="edge">
<title>ParsedDataSetup&#45;&gt;EndpointConfig</title>
<path fill="none" stroke="#000000" d="M1422.3662,-898.8884C1397.0269,-884.6471 1360.6197,-864.1853 1333.1222,-848.731"/>
<polygon fill="#000000" stroke="#000000" points="1334.5997,-845.5465 1324.1673,-843.6981 1331.17,-851.6488 1334.5997,-845.5465"/>
<text text-anchor="middle" x="1415.6769" y="-867.2" font-family="Times,serif" font-size="14.00" fill="#000000">endpoints</text>
</g>
<!-- RoleBinding -->
<g id="node28" class="node">
<title>RoleBinding</title>
<ellipse fill="#ffffff" stroke="#000000" cx="1452.4567" cy="-827" rx="63.1731" ry="18"/>
<text text-anchor="middle" x="1452.4567" y="-822.8" font-family="Helvetica,sans-Serif" font-size="14.00" fill="#000000">RoleBinding</text>
</g>
<!-- ParsedDataSetup&#45;&gt;RoleBinding -->
<g id="edge10" class="edge">
<title>ParsedDataSetup&#45;&gt;RoleBinding</title>
<path fill="none" stroke="#000000" d="M1452.4567,-897.4006C1452.4567,-885.2949 1452.4567,-869.2076 1452.4567,-855.4674"/>
<polygon fill="#000000" stroke="#000000" points="1455.9568,-855.072 1452.4567,-845.072 1448.9568,-855.0721 1455.9568,-855.072"/>
<text text-anchor="middle" x="1490.9525" y="-867.2" font-family="Times,serif" font-size="14.00" fill="#000000">role_bindings</text>
</g>
<!-- User -->
<g id="node38" class="node">
<title>User</title>
<ellipse fill="#ffffff" stroke="#000000" cx="1565.4567" cy="-827" rx="31.339" ry="18"/>
<text text-anchor="middle" x="1565.4567" y="-822.8" font-family="Helvetica,sans-Serif" font-size="14.00" fill="#000000">User</text>
</g>
<!-- ParsedDataSetup&#45;&gt;User -->
<g id="edge7" class="edge">
<title>ParsedDataSetup&#45;&gt;User</title>
<path fill="none" stroke="#000000" d="M1499.88,-900.4547C1511.7006,-895.1567 1523.7561,-888.3438 1533.4567,-879.8 1541.6613,-872.5738 1548.4079,-862.7238 1553.5559,-853.4881"/>
<polygon fill="#000000" stroke="#000000" points="1556.6796,-855.0671 1558.1658,-844.5771 1550.4623,-851.8507 1556.6796,-855.0671"/>
<text text-anchor="middle" x="1562.8389" y="-867.2" font-family="Times,serif" font-size="14.00" fill="#000000">users</text>
</g>
<!-- UserGroup -->
<g id="node39" class="node">
<title>UserGroup</title>
<ellipse fill="#ffffff" stroke="#000000" cx="1673.4567" cy="-827" rx="58.0035" ry="18"/>
<text text-anchor="middle" x="1673.4567" y="-822.8" font-family="Helvetica,sans-Serif" font-size="14.00" fill="#000000">UserGroup</text>
</g>
<!-- ParsedDataSetup&#45;&gt;UserGroup -->
<g id="edge8" class="edge">
<title>ParsedDataSetup&#45;&gt;UserGroup</title>
<path fill="none" stroke="#000000" d="M1511.9413,-902.5065C1534.1692,-896.6853 1559.3663,-889.0508 1581.4567,-879.8 1601.5219,-871.3973 1622.658,-859.5072 1639.6045,-849.1371"/>
<polygon fill="#000000" stroke="#000000" points="1641.9159,-851.821 1648.5548,-843.5641 1638.2159,-845.8787 1641.9159,-851.821"/>
<text text-anchor="middle" x="1634.5093" y="-867.2" font-family="Times,serif" font-size="14.00" fill="#000000">groups</text>
</g>
<!-- DataSet&#45;&gt;AccessPolicy -->
<g id="edge11" class="edge">
<title>DataSet&#45;&gt;AccessPolicy</title>
<path fill="none" stroke="#000000" d="M1182.5386,-815.643C1204.1257,-808.3005 1228.9677,-798.7109 1237.4567,-791 1244.9562,-784.1878 1250.6797,-774.811 1254.8845,-765.8477"/>
<polygon fill="#000000" stroke="#000000" points="1258.1976,-766.9989 1258.8631,-756.425 1251.7489,-764.2759 1258.1976,-766.9989"/>
<text text-anchor="middle" x="1290.4946" y="-778.4" font-family="Times,serif" font-size="14.00" fill="#000000">accessPolicies</text>
</g>
<!-- DataSet&#45;&gt;Asset -->
<g id="edge13" class="edge">
<title>DataSet&#45;&gt;Asset</title>
<path fill="none" stroke="#000000" d="M1111.0466,-815.482C1059.1361,-798.5968 962.8491,-767.2771 910.194,-750.1497"/>
<polygon fill="#000000" stroke="#000000" points="911.1727,-746.7876 900.5805,-747.0227 909.0074,-753.4443 911.1727,-746.7876"/>
<text text-anchor="middle" x="1050.7835" y="-778.4" font-family="Times,serif" font-size="14.00" fill="#000000">assets</text>
</g>
<!-- DatumTemplate -->
<g id="node36" class="node">
<title>DatumTemplate</title>
<polygon fill="#c0c0c0" stroke="#000000" points="1188.0213,-756.2 1072.8921,-756.2 1072.8921,-720.2 1188.0213,-720.2 1188.0213,-756.2"/>
<text text-anchor="middle" x="1130.4567" y="-734" font-family="Helvetica,sans-Serif" font-size="14.00" fill="#000000">DatumTemplate</text>
</g>
<!-- DataSet&#45;&gt;DatumTemplate -->
<g id="edge12" class="edge">
<title>DataSet&#45;&gt;DatumTemplate</title>
<path fill="none" stroke="#000000" d="M1143.2189,-809.03C1141.0213,-796.8338 1138.0701,-780.4543 1135.5592,-766.5187"/>
<polygon fill="#000000" stroke="#000000" points="1138.9625,-765.6689 1133.7446,-756.4481 1132.0734,-766.9103 1138.9625,-765.6689"/>
<text text-anchor="middle" x="1187.111" y="-778.4" font-family="Times,serif" font-size="14.00" fill="#000000">datumTemplates</text>
</g>
<!-- CSVEncoding -->
<g id="node9" class="node">
<title>CSVEncoding</title>
<ellipse fill="#ffffff" stroke="#000000" cx="572.4567" cy="-179.8" rx="71.2829" ry="18"/>
<text text-anchor="middle" x="572.4567" y="-175.6" font-family="Helvetica,sans-Serif" font-size="14.00" fill="#000000">CSVEncoding</text>
</g>
<!-- CSVEncoding&#45;&gt;DataCompression -->
<g id="edge14" class="edge">
<title>CSVEncoding&#45;&gt;DataCompression</title>
<path fill="none" stroke="#000000" d="M573.9071,-161.4006C574.8708,-149.175 576.1547,-132.8887 577.2448,-119.0599"/>
<polygon fill="#000000" stroke="#000000" points="580.7353,-119.3162 578.0321,-109.072 573.757,-118.766 580.7353,-119.3162"/>
<text text-anchor="middle" x="612.8368" y="-131.2" font-family="Times,serif" font-size="14.00" fill="#000000">compression</text>
</g>
<!-- FileHeader -->
<g id="node13" class="node">
<title>FileHeader</title>
<polygon fill="#c0c0c0" stroke="#000000" points="437.9039,-109 353.0095,-109 353.0095,-73 437.9039,-73 437.9039,-109"/>
<text text-anchor="middle" x="395.4567" y="-86.8" font-family="Helvetica,sans-Serif" font-size="14.00" fill="#000000">FileHeader</text>
</g>
<!-- CSVEncoding&#45;&gt;FileHeader -->
<g id="edge15" class="edge">
<title>CSVEncoding&#45;&gt;FileHeader</title>
<path fill="none" stroke="#000000" d="M540.4033,-163.719C512.5963,-149.7683 472.0292,-129.416 440.8791,-113.7882"/>
<polygon fill="#000000" stroke="#000000" points="442.0464,-110.4581 431.5387,-109.1022 438.9074,-116.7148 442.0464,-110.4581"/>
<text text-anchor="middle" x="519.1089" y="-131.2" font-family="Times,serif" font-size="14.00" fill="#000000">header</text>
</g>
<!-- Encoding -->
<g id="node10" class="node">
<title>Encoding</title>
<polygon fill="#c0c0c0" stroke="#000000" points="545.8138,-270.8 471.0996,-270.8 471.0996,-234.8 545.8138,-234.8 545.8138,-270.8"/>
<text text-anchor="middle" x="508.4567" y="-248.6" font-family="Helvetica,sans-Serif" font-size="14.00" fill="#000000">Encoding</text>
</g>
<!-- Encoding&#45;&gt;CSVEncoding -->
<g id="edge16" class="edge">
<title>Encoding&#45;&gt;CSVEncoding</title>
<path fill="none" stroke="#000000" d="M524.2769,-234.7551C532.1631,-225.7599 541.8284,-214.7354 550.4267,-204.928"/>
<polygon fill="#000000" stroke="#000000" points="553.0787,-207.2122 557.0393,-197.3855 547.8151,-202.5976 553.0787,-207.2122"/>
</g>
<!-- ORCEncoding -->
<g id="node11" class="node">
<title>ORCEncoding</title>
<ellipse fill="#ffffff" stroke="#000000" cx="410.4567" cy="-179.8" rx="72.9896" ry="18"/>
<text text-anchor="middle" x="410.4567" y="-175.6" font-family="Helvetica,sans-Serif" font-size="14.00" fill="#000000">ORCEncoding</text>
</g>
<!-- Encoding&#45;&gt;ORCEncoding -->
<g id="edge17" class="edge">
<title>Encoding&#45;&gt;ORCEncoding</title>
<path fill="none" stroke="#000000" d="M484.232,-234.7551C471.3707,-225.1747 455.4192,-213.2925 441.6426,-203.0303"/>
<polygon fill="#000000" stroke="#000000" points="443.5032,-200.052 433.3927,-196.885 439.3215,-205.6657 443.5032,-200.052"/>
</g>
<!-- UpperSnakeCaseCSVHeader -->
<g id="node14" class="node">
<title>UpperSnakeCaseCSVHeader</title>
<ellipse fill="#ffffff" stroke="#000000" cx="346.4567" cy="-18" rx="138.9977" ry="18"/>
<text text-anchor="middle" x="346.4567" y="-13.8" font-family="Helvetica,sans-Serif" font-size="14.00" fill="#000000">UpperSnakeCaseCSVHeader</text>
</g>
<!-- FileHeader&#45;&gt;UpperSnakeCaseCSVHeader -->
<g id="edge18" class="edge">
<title>FileHeader&#45;&gt;UpperSnakeCaseCSVHeader</title>
<path fill="none" stroke="#000000" d="M383.3443,-72.9551C377.5726,-64.3564 370.5562,-53.9034 364.1985,-44.4316"/>
<polygon fill="#000000" stroke="#000000" points="367.0789,-42.4427 358.5995,-36.0904 361.2668,-46.344 367.0789,-42.4427"/>
</g>
<!-- SingleFileLayout -->
<g id="node15" class="node">
<title>SingleFileLayout</title>
<ellipse fill="#ffffff" stroke="#000000" cx="237.4567" cy="-179.8" rx="82.3124" ry="18"/>
<text text-anchor="middle" x="237.4567" y="-175.6" font-family="Helvetica,sans-Serif" font-size="14.00" fill="#000000">SingleFileLayout</text>
</g>
<!-- FileBasedStorageLayout -->
<g id="node16" class="node">
<title>FileBasedStorageLayout</title>
<polygon fill="#c0c0c0" stroke="#000000" points="392.2289,-270.8 222.6845,-270.8 222.6845,-234.8 392.2289,-234.8 392.2289,-270.8"/>
<text text-anchor="middle" x="307.4567" y="-248.6" font-family="Helvetica,sans-Serif" font-size="14.00" fill="#000000">FileBasedStorageLayout</text>
</g>
<!-- FileBasedStorageLayout&#45;&gt;SingleFileLayout -->
<g id="edge19" class="edge">
<title>FileBasedStorageLayout&#45;&gt;SingleFileLayout</title>
<path fill="none" stroke="#000000" d="M290.1533,-234.7551C281.507,-225.7381 270.9053,-214.6821 261.4837,-204.8568"/>
<polygon fill="#000000" stroke="#000000" points="264.0085,-202.4328 254.561,-197.6374 258.956,-207.2777 264.0085,-202.4328"/>
</g>
<!-- StaticHiveTableLayout -->
<g id="node17" class="node">
<title>StaticHiveTableLayout</title>
<ellipse fill="#ffffff" stroke="#000000" cx="1029.4567" cy="-179.8" rx="107.7545" ry="18"/>
<text text-anchor="middle" x="1029.4567" y="-175.6" font-family="Helvetica,sans-Serif" font-size="14.00" fill="#000000">StaticHiveTableLayout</text>
</g>
<!-- DailyGranularity -->
<g id="node18" class="node">
<title>DailyGranularity</title>
<ellipse fill="#ffffff" stroke="#000000" cx="782.4567" cy="-18" rx="79.9069" ry="18"/>
<text text-anchor="middle" x="782.4567" y="-13.8" font-family="Helvetica,sans-Serif" font-size="14.00" fill="#000000">DailyGranularity</text>
</g>
<!-- Granularity -->
<g id="node19" class="node">
<title>Granularity</title>
<polygon fill="#c0c0c0" stroke="#000000" points="824.9039,-109 740.0095,-109 740.0095,-73 824.9039,-73 824.9039,-109"/>
<text text-anchor="middle" x="782.4567" y="-86.8" font-family="Helvetica,sans-Serif" font-size="14.00" fill="#000000">Granularity</text>
</g>
<!-- Granularity&#45;&gt;DailyGranularity -->
<g id="edge20" class="edge">
<title>Granularity&#45;&gt;DailyGranularity</title>
<path fill="none" stroke="#000000" d="M782.4567,-72.9551C782.4567,-64.8828 782.4567,-55.1764 782.4567,-46.1817"/>
<polygon fill="#000000" stroke="#000000" points="785.9568,-46.0903 782.4567,-36.0904 778.9568,-46.0904 785.9568,-46.0903"/>
</g>
<!-- DynamicHiveTableLayout -->
<g id="node20" class="node">
<title>DynamicHiveTableLayout</title>
<ellipse fill="#ffffff" stroke="#000000" cx="782.4567" cy="-179.8" rx="121.0621" ry="18"/>
<text text-anchor="middle" x="782.4567" y="-175.6" font-family="Helvetica,sans-Serif" font-size="14.00" fill="#000000">DynamicHiveTableLayout</text>
</g>
<!-- DynamicHiveTableLayout&#45;&gt;Granularity -->
<g id="edge21" class="edge">
<title>DynamicHiveTableLayout&#45;&gt;Granularity</title>
<path fill="none" stroke="#000000" d="M782.4567,-161.4006C782.4567,-149.2949 782.4567,-133.2076 782.4567,-119.4674"/>
<polygon fill="#000000" stroke="#000000" points="785.9568,-119.072 782.4567,-109.072 778.9568,-119.0721 785.9568,-119.072"/>
<text text-anchor="middle" x="813.1678" y="-131.2" font-family="Times,serif" font-size="14.00" fill="#000000">granularity</text>
</g>
<!-- HiveStorageLayout -->
<g id="node21" class="node">
<title>HiveStorageLayout</title>
<polygon fill="#c0c0c0" stroke="#000000" points="849.9917,-270.8 714.9217,-270.8 714.9217,-234.8 849.9917,-234.8 849.9917,-270.8"/>
<text text-anchor="middle" x="782.4567" y="-248.6" font-family="Helvetica,sans-Serif" font-size="14.00" fill="#000000">HiveStorageLayout</text>
</g>
<!-- HiveStorageLayout&#45;&gt;StaticHiveTableLayout -->
<g id="edge22" class="edge">
<title>HiveStorageLayout&#45;&gt;StaticHiveTableLayout</title>
<path fill="none" stroke="#000000" d="M843.5129,-234.7551C880.8878,-223.709 928.6169,-209.6028 966.3602,-198.448"/>
<polygon fill="#000000" stroke="#000000" points="967.6269,-201.7233 976.2248,-195.5325 965.6428,-195.0104 967.6269,-201.7233"/>
</g>
<!-- HiveStorageLayout&#45;&gt;DynamicHiveTableLayout -->
<g id="edge23" class="edge">
<title>HiveStorageLayout&#45;&gt;DynamicHiveTableLayout</title>
<path fill="none" stroke="#000000" d="M782.4567,-234.7551C782.4567,-226.6828 782.4567,-216.9764 782.4567,-207.9817"/>
<polygon fill="#000000" stroke="#000000" points="785.9568,-207.8903 782.4567,-197.8904 778.9568,-207.8904 785.9568,-207.8903"/>
</g>
<!-- AlluxioLocation -->
<g id="node22" class="node">
<title>AlluxioLocation</title>
<ellipse fill="#ffffff" stroke="#000000" cx="1231.4567" cy="-179.8" rx="75.9338" ry="18"/>
<text text-anchor="middle" x="1231.4567" y="-175.6" font-family="Helvetica,sans-Serif" font-size="14.00" fill="#000000">AlluxioLocation</text>
</g>
<!-- GCSLocation -->
<g id="node23" class="node">
<title>GCSLocation</title>
<ellipse fill="#ffffff" stroke="#000000" cx="68.4567" cy="-179.8" rx="68.4134" ry="18"/>
<text text-anchor="middle" x="68.4567" y="-175.6" font-family="Helvetica,sans-Serif" font-size="14.00" fill="#000000">GCSLocation</text>
</g>
<!-- HiveLocation -->
<g id="node24" class="node">
<title>HiveLocation</title>
<polygon fill="#c0c0c0" stroke="#000000" points="1149.8627,-270.8 1053.0507,-270.8 1053.0507,-234.8 1149.8627,-234.8 1149.8627,-270.8"/>
<text text-anchor="middle" x="1101.4567" y="-248.6" font-family="Helvetica,sans-Serif" font-size="14.00" fill="#000000">HiveLocation</text>
</g>
<!-- HiveLocation&#45;&gt;AlluxioLocation -->
<g id="edge24" class="edge">
<title>HiveLocation&#45;&gt;AlluxioLocation</title>
<path fill="none" stroke="#000000" d="M1133.5915,-234.7551C1151.5546,-224.6681 1174.0621,-212.0293 1192.9619,-201.4163"/>
<polygon fill="#000000" stroke="#000000" points="1194.9089,-204.3371 1201.9145,-196.3891 1191.4815,-198.2336 1194.9089,-204.3371"/>
</g>
<!-- RemoteLocation -->
<g id="node25" class="node">
<title>RemoteLocation</title>
<polygon fill="#c0c0c0" stroke="#000000" points="140.3725,-270.8 22.5409,-270.8 22.5409,-234.8 140.3725,-234.8 140.3725,-270.8"/>
<text text-anchor="middle" x="81.4567" y="-248.6" font-family="Helvetica,sans-Serif" font-size="14.00" fill="#000000">RemoteLocation</text>
</g>
<!-- RemoteLocation&#45;&gt;GCSLocation -->
<g id="edge25" class="edge">
<title>RemoteLocation&#45;&gt;GCSLocation</title>
<path fill="none" stroke="#000000" d="M78.2432,-234.7551C76.8057,-226.6828 75.0772,-216.9764 73.4754,-207.9817"/>
<polygon fill="#000000" stroke="#000000" points="76.8774,-207.1218 71.6783,-197.8904 69.9858,-208.3491 76.8774,-207.1218"/>
</g>
<!-- GlobalPermissionsAdmin -->
<g id="node26" class="node">
<title>GlobalPermissionsAdmin</title>
<ellipse fill="#ffffff" stroke="#000000" cx="1549.4567" cy="-665.2" rx="118.7533" ry="18"/>
<text text-anchor="middle" x="1549.4567" y="-661" font-family="Helvetica,sans-Serif" font-size="14.00" fill="#000000">GlobalPermissionsAdmin</text>
</g>
<!-- Role -->
<g id="node27" class="node">
<title>Role</title>
<polygon fill="#c0c0c0" stroke="#000000" points="1521.4567,-756.2 1467.4567,-756.2 1467.4567,-720.2 1521.4567,-720.2 1521.4567,-756.2"/>
<text text-anchor="middle" x="1494.4567" y="-734" font-family="Helvetica,sans-Serif" font-size="14.00" fill="#000000">Role</text>
</g>
<!-- Role&#45;&gt;GlobalPermissionsAdmin -->
<g id="edge26" class="edge">
<title>Role&#45;&gt;GlobalPermissionsAdmin</title>
<path fill="none" stroke="#000000" d="M1508.0522,-720.1551C1514.5968,-711.4686 1522.5671,-700.8898 1529.7607,-691.342"/>
<polygon fill="#000000" stroke="#000000" points="1532.6049,-693.3834 1535.827,-683.2904 1527.014,-689.1711 1532.6049,-693.3834"/>
</g>
<!-- RoleBinding&#45;&gt;Role -->
<g id="edge27" class="edge">
<title>RoleBinding&#45;&gt;Role</title>
<path fill="none" stroke="#000000" d="M1460.956,-809.03C1466.8376,-796.5946 1474.7761,-779.8104 1481.4491,-765.7018"/>
<polygon fill="#000000" stroke="#000000" points="1484.7141,-766.9844 1485.8259,-756.4481 1478.3862,-763.9915 1484.7141,-766.9844"/>
<text text-anchor="middle" x="1488.3396" y="-778.4" font-family="Times,serif" font-size="14.00" fill="#000000">role</text>
</g>
<!-- TabularSchema -->
<g id="node30" class="node">
<title>TabularSchema</title>
<ellipse fill="#ffffff" stroke="#000000" cx="681.4567" cy="-503.4" rx="79.3677" ry="18"/>
<text text-anchor="middle" x="681.4567" y="-499.2" font-family="Helvetica,sans-Serif" font-size="14.00" fill="#000000">TabularSchema</text>
</g>
<!-- DataSchema&#45;&gt;TabularSchema -->
<g id="edge28" class="edge">
<title>DataSchema&#45;&gt;TabularSchema</title>
<path fill="none" stroke="#000000" d="M681.4567,-558.3551C681.4567,-550.2828 681.4567,-540.5764 681.4567,-531.5817"/>
<polygon fill="#000000" stroke="#000000" points="684.9568,-531.4903 681.4567,-521.4904 677.9568,-531.4904 684.9568,-531.4903"/>
</g>
<!-- HiveTableStorage -->
<g id="node31" class="node">
<title>HiveTableStorage</title>
<ellipse fill="#ffffff" stroke="#000000" cx="578.4567" cy="-341.6" rx="88.1135" ry="18"/>
<text text-anchor="middle" x="578.4567" y="-337.4" font-family="Helvetica,sans-Serif" font-size="14.00" fill="#000000">HiveTableStorage</text>
</g>
<!-- HiveTableStorage&#45;&gt;Encoding -->
<g id="edge31" class="edge">
<title>HiveTableStorage&#45;&gt;Encoding</title>
<path fill="none" stroke="#000000" d="M564.2912,-323.63C554.2057,-310.8359 540.4915,-293.4385 529.179,-279.0877"/>
<polygon fill="#000000" stroke="#000000" points="531.7809,-276.7347 522.8414,-271.0481 526.2835,-281.0682 531.7809,-276.7347"/>
<text text-anchor="middle" x="576.1166" y="-293" font-family="Times,serif" font-size="14.00" fill="#000000">encoding</text>
</g>
<!-- HiveTableStorage&#45;&gt;HiveStorageLayout -->
<g id="edge30" class="edge">
<title>HiveTableStorage&#45;&gt;HiveStorageLayout</title>
<path fill="none" stroke="#000000" d="M616.3494,-325.1055C648.8218,-310.9705 695.8718,-290.4899 731.6137,-274.9316"/>
<polygon fill="#000000" stroke="#000000" points="733.1342,-278.0871 740.9063,-270.8867 730.3403,-271.6688 733.1342,-278.0871"/>
<text text-anchor="middle" x="716.9546" y="-293" font-family="Times,serif" font-size="14.00" fill="#000000">layout</text>
</g>
<!-- HiveTableStorage&#45;&gt;HiveLocation -->
<g id="edge29" class="edge">
<title>HiveTableStorage&#45;&gt;HiveLocation</title>
<path fill="none" stroke="#000000" d="M646.5615,-330.0365C750.0947,-312.4576 945.3257,-279.3094 1042.8791,-262.7459"/>
<polygon fill="#000000" stroke="#000000" points="1043.5878,-266.1757 1052.8608,-261.0511 1042.416,-259.2745 1043.5878,-266.1757"/>
<text text-anchor="middle" x="910.0072" y="-293" font-family="Times,serif" font-size="14.00" fill="#000000">location</text>
</g>
<!-- RemoteStorage -->
<g id="node32" class="node">
<title>RemoteStorage</title>
<ellipse fill="#ffffff" stroke="#000000" cx="361.4567" cy="-341.6" rx="78.8034" ry="18"/>
<text text-anchor="middle" x="361.4567" y="-337.4" font-family="Helvetica,sans-Serif" font-size="14.00" fill="#000000">RemoteStorage</text>
</g>
<!-- RemoteStorage&#45;&gt;Encoding -->
<g id="edge34" class="edge">
<title>RemoteStorage&#45;&gt;Encoding</title>
<path fill="none" stroke="#000000" d="M389.4523,-324.6884C412.2543,-310.9141 444.6893,-291.3207 469.94,-276.0672"/>
<polygon fill="#000000" stroke="#000000" points="471.7946,-279.036 478.5443,-270.8695 468.1751,-273.0444 471.7946,-279.036"/>
<text text-anchor="middle" x="474.1166" y="-293" font-family="Times,serif" font-size="14.00" fill="#000000">encoding</text>
</g>
<!-- RemoteStorage&#45;&gt;FileBasedStorageLayout -->
<g id="edge33" class="edge">
<title>RemoteStorage&#45;&gt;FileBasedStorageLayout</title>
<path fill="none" stroke="#000000" d="M350.529,-323.63C342.8942,-311.0751 332.5638,-294.0872 323.9337,-279.8955"/>
<polygon fill="#000000" stroke="#000000" points="326.7398,-277.7737 318.5535,-271.0481 320.7589,-281.4108 326.7398,-277.7737"/>
<text text-anchor="middle" x="356.9546" y="-293" font-family="Times,serif" font-size="14.00" fill="#000000">layout</text>
</g>
<!-- RemoteStorage&#45;&gt;RemoteLocation -->
<g id="edge32" class="edge">
<title>RemoteStorage&#45;&gt;RemoteLocation</title>
<path fill="none" stroke="#000000" d="M315.2204,-326.9365C269.6923,-312.4976 199.6801,-290.2937 148.138,-273.9475"/>
<polygon fill="#000000" stroke="#000000" points="149.0044,-270.5505 138.4141,-270.8636 146.8882,-277.223 149.0044,-270.5505"/>
<text text-anchor="middle" x="270.0072" y="-293" font-family="Times,serif" font-size="14.00" fill="#000000">location</text>
</g>
<!-- Storage -->
<g id="node33" class="node">
<title>Storage</title>
<polygon fill="#c0c0c0" stroke="#000000" points="485.9749,-432.6 420.9385,-432.6 420.9385,-396.6 485.9749,-396.6 485.9749,-432.6"/>
<text text-anchor="middle" x="453.4567" y="-410.4" font-family="Helvetica,sans-Serif" font-size="14.00" fill="#000000">Storage</text>
</g>
<!-- Storage&#45;&gt;HiveTableStorage -->
<g id="edge36" class="edge">
<title>Storage&#45;&gt;HiveTableStorage</title>
<path fill="none" stroke="#000000" d="M484.3556,-396.5551C501.2245,-386.7036 522.2614,-374.4181 540.164,-363.9629"/>
<polygon fill="#000000" stroke="#000000" points="542.3313,-366.7504 549.2015,-358.685 538.8012,-360.7057 542.3313,-366.7504"/>
</g>
<!-- Storage&#45;&gt;RemoteStorage -->
<g id="edge35" class="edge">
<title>Storage&#45;&gt;RemoteStorage</title>
<path fill="none" stroke="#000000" d="M430.7151,-396.5551C418.8425,-387.1344 404.1647,-375.4879 391.3815,-365.3447"/>
<polygon fill="#000000" stroke="#000000" points="393.3122,-362.4087 383.3032,-358.9347 388.9612,-367.8922 393.3122,-362.4087"/>
</g>
<!-- RemoteImportStorageSetup -->
<g id="node34" class="node">
<title>RemoteImportStorageSetup</title>
<ellipse fill="#ffffff" stroke="#000000" cx="453.4567" cy="-503.4" rx="131.485" ry="18"/>
<text text-anchor="middle" x="453.4567" y="-499.2" font-family="Helvetica,sans-Serif" font-size="14.00" fill="#000000">RemoteImportStorageSetup</text>
</g>
<!-- RemoteImportStorageSetup&#45;&gt;Storage -->
<g id="edge37" class="edge">
<title>RemoteImportStorageSetup&#45;&gt;Storage</title>
<path fill="none" stroke="#000000" d="M434.5702,-485.5499C430.1053,-480.1881 425.9564,-473.9697 423.5857,-467.4 421.0513,-460.3766 421.0513,-457.6234 423.5857,-450.6 424.7797,-447.2913 426.4247,-444.0716 428.3339,-441.0057"/>
<polygon fill="#000000" stroke="#000000" points="431.2275,-442.9774 434.2593,-432.8256 425.5584,-438.8709 431.2275,-442.9774"/>
<text text-anchor="middle" x="443.8922" y="-454.8" font-family="Times,serif" font-size="14.00" fill="#000000">remote</text>
</g>
<!-- RemoteImportStorageSetup&#45;&gt;Storage -->
<g id="edge38" class="edge">
<title>RemoteImportStorageSetup&#45;&gt;Storage</title>
<path fill="none" stroke="#000000" d="M458.9135,-485.2491C460.3665,-479.5864 461.7325,-473.2826 462.4567,-467.4 463.369,-459.9893 463.369,-458.0107 462.4567,-450.6 462.1399,-448.0264 461.7002,-445.3721 461.1841,-442.7262"/>
<polygon fill="#000000" stroke="#000000" points="464.5458,-441.7246 458.9135,-432.7509 457.7203,-443.2783 464.5458,-441.7246"/>
<text text-anchor="middle" x="477.0619" y="-454.8" font-family="Times,serif" font-size="14.00" fill="#000000">local</text>
</g>
<!-- StorageSetup&#45;&gt;RemoteImportStorageSetup -->
<g id="edge39" class="edge">
<title>StorageSetup&#45;&gt;RemoteImportStorageSetup</title>
<path fill="none" stroke="#000000" d="M515.9398,-558.3551C505.4867,-549.1613 492.6233,-537.8477 481.2904,-527.8803"/>
<polygon fill="#000000" stroke="#000000" points="483.558,-525.2135 473.7376,-521.2374 478.935,-530.4698 483.558,-525.2135"/>
</g>
<!-- KeyedStruct -->
<g id="node37" class="node">
<title>KeyedStruct</title>
<ellipse fill="#ffffff" stroke="#000000" cx="1104.4567" cy="-665.2" rx="63.7587" ry="18"/>
<text text-anchor="middle" x="1104.4567" y="-661" font-family="Helvetica,sans-Serif" font-size="14.00" fill="#000000">KeyedStruct</text>
</g>
<!-- DatumTemplate&#45;&gt;KeyedStruct -->
<g id="edge40" class="edge">
<title>DatumTemplate&#45;&gt;KeyedStruct</title>
<path fill="none" stroke="#000000" d="M1124.0297,-720.1551C1121.0922,-711.9074 1117.547,-701.9536 1114.2855,-692.7962"/>
<polygon fill="#000000" stroke="#000000" points="1117.5522,-691.5364 1110.8998,-683.2904 1110.958,-693.885 1117.5522,-691.5364"/>
</g>
<!-- Attribute -->
<g id="node40" class="node">
<title>Attribute</title>
<polygon fill="#c0c0c0" stroke="#000000" points="1401.5802,-594.4 1333.3332,-594.4 1333.3332,-558.4 1401.5802,-558.4 1401.5802,-594.4"/>
<text text-anchor="middle" x="1367.4567" y="-572.2" font-family="Helvetica,sans-Serif" font-size="14.00" fill="#000000">Attribute</text>
</g>
<!-- KeyedStruct&#45;&gt;Attribute -->
<g id="edge41" class="edge">
<title>KeyedStruct&#45;&gt;Attribute</title>
<path fill="none" stroke="#000000" d="M1145.5505,-651.325C1194.0383,-634.9534 1274.3107,-607.8501 1323.8616,-591.1196"/>
<polygon fill="#000000" stroke="#000000" points="1324.9888,-594.4332 1333.3437,-587.918 1322.7495,-587.801 1324.9888,-594.4332"/>
<text text-anchor="middle" x="1286.5051" y="-616.6" font-family="Times,serif" font-size="14.00" fill="#000000">attributes</text>
</g>
<!-- URI -->
<g id="node41" class="node">
<title>URI</title>
<ellipse fill="#ffffff" stroke="#000000" cx="1968.4567" cy="-503.4" rx="27.8267" ry="18"/>
<text text-anchor="middle" x="1968.4567" y="-499.2" font-family="Helvetica,sans-Serif" font-size="14.00" fill="#000000">URI</text>
</g>
<!-- Attribute&#45;&gt;URI -->
<g id="edge49" class="edge">
<title>Attribute&#45;&gt;URI</title>
<path fill="none" stroke="#000000" d="M1401.6868,-574.6542C1507.8964,-568.9879 1830.7359,-549.8176 1931.4567,-521.4 1933.6352,-520.7853 1935.8413,-520.0471 1938.0348,-519.2252"/>
<polygon fill="#000000" stroke="#000000" points="1939.621,-522.3538 1947.4459,-515.2108 1936.8745,-515.9151 1939.621,-522.3538"/>
</g>
<!-- FloatLongitude -->
<g id="node42" class="node">
<title>FloatLongitude</title>
<ellipse fill="#ffffff" stroke="#000000" cx="2089.4567" cy="-503.4" rx="74.8075" ry="18"/>
<text text-anchor="middle" x="2089.4567" y="-499.2" font-family="Helvetica,sans-Serif" font-size="14.00" fill="#000000">FloatLongitude</text>
</g>
<!-- Attribute&#45;&gt;FloatLongitude -->
<g id="edge48" class="edge">
<title>Attribute&#45;&gt;FloatLongitude</title>
<path fill="none" stroke="#000000" d="M1401.5748,-575.2961C1497.364,-571.8024 1776.7122,-558.9081 2005.4567,-521.4 2011.7348,-520.3706 2018.2529,-519.1844 2024.7567,-517.9224"/>
<polygon fill="#000000" stroke="#000000" points="2025.8091,-521.2813 2034.9287,-515.8884 2024.4365,-514.4172 2025.8091,-521.2813"/>
</g>
<!-- FloatLatitude -->
<g id="node43" class="node">
<title>FloatLatitude</title>
<ellipse fill="#ffffff" stroke="#000000" cx="845.4567" cy="-503.4" rx="66.7018" ry="18"/>
<text text-anchor="middle" x="845.4567" y="-499.2" font-family="Helvetica,sans-Serif" font-size="14.00" fill="#000000">FloatLatitude</text>
</g>
<!-- Attribute&#45;&gt;FloatLatitude -->
<g id="edge47" class="edge">
<title>Attribute&#45;&gt;FloatLatitude</title>
<path fill="none" stroke="#000000" d="M1333.1326,-573.4638C1258.0787,-566.76 1073.8839,-548.7637 921.4567,-521.4 915.8138,-520.387 909.9617,-519.2176 904.1235,-517.9711"/>
<polygon fill="#000000" stroke="#000000" points="904.87,-514.5517 894.3507,-515.8145 903.3615,-521.3872 904.87,-514.5517"/>
</g>
<!-- NullableString -->
<g id="node44" class="node">
<title>NullableString</title>
<ellipse fill="#ffffff" stroke="#000000" cx="1001.4567" cy="-503.4" rx="71.2559" ry="18"/>
<text text-anchor="middle" x="1001.4567" y="-499.2" font-family="Helvetica,sans-Serif" font-size="14.00" fill="#000000">NullableString</text>
</g>
<!-- Attribute&#45;&gt;NullableString -->
<g id="edge46" class="edge">
<title>Attribute&#45;&gt;NullableString</title>
<path fill="none" stroke="#000000" d="M1333.1762,-570.1055C1279.5874,-560.1934 1172.7498,-540.1412 1082.4567,-521.4 1076.6737,-520.1997 1070.6654,-518.9221 1064.6523,-517.6229"/>
<polygon fill="#000000" stroke="#000000" points="1065.083,-514.1347 1054.5671,-515.4257 1063.5929,-520.9743 1065.083,-514.1347"/>
</g>
<!-- NullableInt64 -->
<g id="node45" class="node">
<title>NullableInt64</title>
<ellipse fill="#ffffff" stroke="#000000" cx="1158.4567" cy="-503.4" rx="67.264" ry="18"/>
<text text-anchor="middle" x="1158.4567" y="-499.2" font-family="Helvetica,sans-Serif" font-size="14.00" fill="#000000">NullableInt64</text>
</g>
<!-- Attribute&#45;&gt;NullableInt64 -->
<g id="edge45" class="edge">
<title>Attribute&#45;&gt;NullableInt64</title>
<path fill="none" stroke="#000000" d="M1332.9446,-564.3455C1299.1695,-552.5485 1247.3421,-534.4461 1208.9386,-521.0324"/>
<polygon fill="#000000" stroke="#000000" points="1210.0783,-517.7232 1199.4834,-517.7299 1207.77,-524.3317 1210.0783,-517.7232"/>
</g>
<!-- NullablePOSIXTimestamp -->
<g id="node46" class="node">
<title>NullablePOSIXTimestamp</title>
<ellipse fill="#ffffff" stroke="#000000" cx="1367.4567" cy="-503.4" rx="123.3442" ry="18"/>
<text text-anchor="middle" x="1367.4567" y="-499.2" font-family="Helvetica,sans-Serif" font-size="14.00" fill="#000000">NullablePOSIXTimestamp</text>
</g>
<!-- Attribute&#45;&gt;NullablePOSIXTimestamp -->
<g id="edge44" class="edge">
<title>Attribute&#45;&gt;NullablePOSIXTimestamp</title>
<path fill="none" stroke="#000000" d="M1367.4567,-558.3551C1367.4567,-550.2828 1367.4567,-540.5764 1367.4567,-531.5817"/>
<polygon fill="#000000" stroke="#000000" points="1370.9568,-531.4903 1367.4567,-521.4904 1363.9568,-531.4904 1370.9568,-531.4903"/>
</g>
<!-- NullableStringIdentifier -->
<g id="node47" class="node">
<title>NullableStringIdentifier</title>
<ellipse fill="#ffffff" stroke="#000000" cx="1616.4567" cy="-503.4" rx="108.3053" ry="18"/>
<text text-anchor="middle" x="1616.4567" y="-499.2" font-family="Helvetica,sans-Serif" font-size="14.00" fill="#000000">NullableStringIdentifier</text>
</g>
<!-- Attribute&#45;&gt;NullableStringIdentifier -->
<g id="edge43" class="edge">
<title>Attribute&#45;&gt;NullableStringIdentifier</title>
<path fill="none" stroke="#000000" d="M1401.557,-566.4027C1440.4348,-555.0048 1504.8294,-536.1261 1553.0107,-522.0006"/>
<polygon fill="#000000" stroke="#000000" points="1554.113,-525.3249 1562.7244,-519.1528 1552.1436,-518.6076 1554.113,-525.3249"/>
</g>
<!-- KeyStringIdentifier -->
<g id="node48" class="node">
<title>KeyStringIdentifier</title>
<ellipse fill="#ffffff" stroke="#000000" cx="1832.4567" cy="-503.4" rx="89.8328" ry="18"/>
<text text-anchor="middle" x="1832.4567" y="-499.2" font-family="Helvetica,sans-Serif" font-size="14.00" fill="#000000">KeyStringIdentifier</text>
</g>
<!-- Attribute&#45;&gt;KeyStringIdentifier -->
<g id="edge42" class="edge">
<title>Attribute&#45;&gt;KeyStringIdentifier</title>
<path fill="none" stroke="#000000" d="M1401.5715,-571.6301C1466.3519,-562.4935 1611.594,-541.6299 1733.4567,-521.4 1740.9694,-520.1529 1748.7943,-518.8085 1756.6071,-517.4362"/>
<polygon fill="#000000" stroke="#000000" points="1757.2366,-520.8792 1766.4726,-515.6882 1756.0153,-513.9866 1757.2366,-520.8792"/>
</g>
</g>
</svg>
