<?xml version="1.0" encoding="UTF-8" standalone="no"?>
<!DOCTYPE svg PUBLIC "-//W3C//DTD SVG 1.1//EN"
 "http://www.w3.org/Graphics/SVG/1.1/DTD/svg11.dtd">
<!-- Generated by graphviz version 2.40.1 (20161225.0304)
 -->
<!-- Title: boxes_and_circles Pages: 1 -->
<svg width="3060pt" height="977pt"
 viewBox="0.00 0.00 3060.29 976.80" xmlns="http://www.w3.org/2000/svg" xmlns:xlink="http://www.w3.org/1999/xlink">
<g id="graph0" class="graph" transform="scale(1 1) rotate(0) translate(4 972.8)">
<title>boxes_and_circles</title>
<polygon fill="#ffffff" stroke="transparent" points="-4,4 -4,-972.8 3056.2885,-972.8 3056.2885,4 -4,4"/>
<!-- AccessPolicy -->
<g id="node1" class="node">
<title>AccessPolicy</title>
<polygon fill="#c0c0c0" stroke="#000000" points="1229.8374,-772 1130.9321,-772 1130.9321,-736 1229.8374,-736 1229.8374,-772"/>
<text text-anchor="middle" x="1180.3848" y="-749.8" font-family="Helvetica,sans-Serif" font-size="14.00" fill="#000000">AccessPolicy</text>
</g>
<!-- ApproveAccessSelector -->
<g id="node2" class="node">
<title>ApproveAccessSelector</title>
<ellipse fill="#ffffff" stroke="#000000" cx="1093.3848" cy="-665.2" rx="113.561" ry="18"/>
<text text-anchor="middle" x="1093.3848" y="-661" font-family="Helvetica,sans-Serif" font-size="14.00" fill="#000000">ApproveAccessSelector</text>
</g>
<!-- AccessPolicy&#45;&gt;ApproveAccessSelector -->
<g id="edge1" class="edge">
<title>AccessPolicy&#45;&gt;ApproveAccessSelector</title>
<path fill="none" stroke="#000000" d="M1162.3583,-735.6006C1149.5586,-722.536 1132.2156,-704.8342 1118.1226,-690.4497"/>
<polygon fill="#000000" stroke="#000000" points="1120.5889,-687.9657 1111.0905,-683.272 1115.5887,-692.8646 1120.5889,-687.9657"/>
</g>
<!-- Asset -->
<g id="node3" class="node">
<title>Asset</title>
<polygon fill="#c0c0c0" stroke="#000000" points="1691.3848,-772 1637.3848,-772 1637.3848,-736 1691.3848,-736 1691.3848,-772"/>
<text text-anchor="middle" x="1664.3848" y="-749.8" font-family="Helvetica,sans-Serif" font-size="14.00" fill="#000000">Asset</text>
</g>
<!-- StaticDataTable -->
<g id="node4" class="node">
<title>StaticDataTable</title>
<ellipse fill="#ffffff" stroke="#000000" cx="1304.3848" cy="-665.2" rx="79.9456" ry="18"/>
<text text-anchor="middle" x="1304.3848" y="-661" font-family="Helvetica,sans-Serif" font-size="14.00" fill="#000000">StaticDataTable</text>
</g>
<!-- Asset&#45;&gt;StaticDataTable -->
<g id="edge2" class="edge">
<title>Asset&#45;&gt;StaticDataTable</title>
<path fill="none" stroke="#000000" d="M1637.3263,-747.3256C1580.6384,-733.3426 1448.077,-700.6441 1368.3783,-680.9851"/>
<polygon fill="#000000" stroke="#000000" points="1368.9996,-677.5335 1358.4523,-678.5367 1367.3231,-684.3298 1368.9996,-677.5335"/>
</g>
<!-- DataSchema -->
<g id="node36" class="node">
<title>DataSchema</title>
<polygon fill="#c0c0c0" stroke="#000000" points="1183.7922,-594.4 1086.9773,-594.4 1086.9773,-558.4 1183.7922,-558.4 1183.7922,-594.4"/>
<text text-anchor="middle" x="1135.3848" y="-572.2" font-family="Helvetica,sans-Serif" font-size="14.00" fill="#000000">DataSchema</text>
</g>
<!-- StaticDataTable&#45;&gt;DataSchema -->
<g id="edge4" class="edge">
<title>StaticDataTable&#45;&gt;DataSchema</title>
<path fill="none" stroke="#000000" d="M1278.9365,-647.9842C1262.3502,-637.1195 1240.029,-623.1573 1219.3848,-612.4 1210.1081,-607.5661 1200.0383,-602.8343 1190.1991,-598.4727"/>
<polygon fill="#000000" stroke="#000000" points="1191.4358,-595.1938 1180.8697,-594.413 1188.6427,-601.6125 1191.4358,-595.1938"/>
<text text-anchor="middle" x="1269.3743" y="-616.6" font-family="Times,serif" font-size="14.00" fill="#000000">schema</text>
</g>
<!-- StorageSetup -->
<g id="node42" class="node">
<title>StorageSetup</title>
<polygon fill="#c0c0c0" stroke="#000000" points="899.9788,-594.4 798.7908,-594.4 798.7908,-558.4 899.9788,-558.4 899.9788,-594.4"/>
<text text-anchor="middle" x="849.3848" y="-572.2" font-family="Helvetica,sans-Serif" font-size="14.00" fill="#000000">StorageSetup</text>
</g>
<!-- StaticDataTable&#45;&gt;StorageSetup -->
<g id="edge3" class="edge">
<title>StaticDataTable&#45;&gt;StorageSetup</title>
<path fill="none" stroke="#000000" d="M1245.2332,-653.0063C1235.5949,-651.0466 1225.7147,-649.0541 1216.3848,-647.2 1108.6408,-625.7887 982.9089,-601.7349 910.0946,-587.8965"/>
<polygon fill="#000000" stroke="#000000" points="910.6563,-584.4406 900.1788,-586.0129 909.35,-591.3177 910.6563,-584.4406"/>
<text text-anchor="middle" x="1131.1597" y="-616.6" font-family="Times,serif" font-size="14.00" fill="#000000">setup</text>
</g>
<!-- DataCompression -->
<g id="node5" class="node">
<title>DataCompression</title>
<polygon fill="#c0c0c0" stroke="#000000" points="949.3946,-109 821.375,-109 821.375,-73 949.3946,-73 949.3946,-109"/>
<text text-anchor="middle" x="885.3848" y="-86.8" font-family="Helvetica,sans-Serif" font-size="14.00" fill="#000000">DataCompression</text>
</g>
<!-- GzipCompression -->
<g id="node6" class="node">
<title>GzipCompression</title>
<ellipse fill="#ffffff" stroke="#000000" cx="807.3848" cy="-18" rx="87.5187" ry="18"/>
<text text-anchor="middle" x="807.3848" y="-13.8" font-family="Helvetica,sans-Serif" font-size="14.00" fill="#000000">GzipCompression</text>
</g>
<!-- DataCompression&#45;&gt;GzipCompression -->
<g id="edge5" class="edge">
<title>DataCompression&#45;&gt;GzipCompression</title>
<path fill="none" stroke="#000000" d="M866.1039,-72.9551C856.3023,-63.7818 844.2457,-52.498 833.6129,-42.5468"/>
<polygon fill="#000000" stroke="#000000" points="835.8676,-39.8633 826.1747,-35.5855 831.0844,-44.9741 835.8676,-39.8633"/>
</g>
<!-- ZipCompression -->
<g id="node7" class="node">
<title>ZipCompression</title>
<ellipse fill="#ffffff" stroke="#000000" cx="994.3848" cy="-18" rx="81.136" ry="18"/>
<text text-anchor="middle" x="994.3848" y="-13.8" font-family="Helvetica,sans-Serif" font-size="14.00" fill="#000000">ZipCompression</text>
</g>
<!-- DataCompression&#45;&gt;ZipCompression -->
<g id="edge6" class="edge">
<title>DataCompression&#45;&gt;ZipCompression</title>
<path fill="none" stroke="#000000" d="M912.3286,-72.9551C926.663,-63.3549 944.4487,-51.4434 959.7934,-41.1667"/>
<polygon fill="#000000" stroke="#000000" points="962.1403,-43.8074 968.5015,-35.3347 958.2451,-37.9912 962.1403,-43.8074"/>
</g>
<!-- Universe -->
<g id="node8" class="node">
<title>Universe</title>
<ellipse fill="#ffffff" stroke="#000000" cx="1954.3848" cy="-950.8" rx="49.2551" ry="18"/>
<text text-anchor="middle" x="1954.3848" y="-946.6" font-family="Helvetica,sans-Serif" font-size="14.00" fill="#000000">Universe</text>
</g>
<!-- DataSet -->
<g id="node9" class="node">
<title>DataSet</title>
<ellipse fill="#ffffff" stroke="#000000" cx="1701.3848" cy="-862" rx="45.8407" ry="18"/>
<text text-anchor="middle" x="1701.3848" y="-857.8" font-family="Helvetica,sans-Serif" font-size="14.00" fill="#000000">DataSet</text>
</g>
<!-- Universe&#45;&gt;DataSet -->
<g id="edge10" class="edge">
<title>Universe&#45;&gt;DataSet</title>
<path fill="none" stroke="#000000" d="M1911.7469,-941.6168C1884.3431,-935.2283 1848.1791,-925.8843 1817.0706,-914.8 1790.139,-905.204 1760.8513,-891.8052 1738.4829,-880.9066"/>
<polygon fill="#000000" stroke="#000000" points="1739.8645,-877.6857 1729.3471,-876.4072 1736.7717,-883.9654 1739.8645,-877.6857"/>
<text text-anchor="middle" x="1839.5419" y="-902.2" font-family="Times,serif" font-size="14.00" fill="#000000">datasets</text>
</g>
<!-- EndpointConfig -->
<g id="node18" class="node">
<title>EndpointConfig</title>
<ellipse fill="#ffffff" stroke="#000000" cx="1849.3848" cy="-862" rx="77.0951" ry="18"/>
<text text-anchor="middle" x="1849.3848" y="-857.8" font-family="Helvetica,sans-Serif" font-size="14.00" fill="#000000">EndpointConfig</text>
</g>
<!-- Universe&#45;&gt;EndpointConfig -->
<g id="edge7" class="edge">
<title>Universe&#45;&gt;EndpointConfig</title>
<path fill="none" stroke="#000000" d="M1917.2633,-938.8838C1903.7218,-933.1899 1889.028,-925.2829 1877.9444,-914.8 1870.4935,-907.7529 1864.5508,-898.3217 1860.0577,-889.3806"/>
<polygon fill="#000000" stroke="#000000" points="1863.1056,-887.6309 1855.7485,-880.007 1856.7454,-890.5548 1863.1056,-887.6309"/>
<text text-anchor="middle" x="1905.605" y="-902.2" font-family="Times,serif" font-size="14.00" fill="#000000">endpoints</text>
</g>
<!-- RoleBinding -->
<g id="node35" class="node">
<title>RoleBinding</title>
<ellipse fill="#ffffff" stroke="#000000" cx="1961.3848" cy="-808" rx="63.1731" ry="18"/>
<text text-anchor="middle" x="1961.3848" y="-803.8" font-family="Helvetica,sans-Serif" font-size="14.00" fill="#000000">RoleBinding</text>
</g>
<!-- Universe&#45;&gt;RoleBinding -->
<g id="edge11" class="edge">
<title>Universe&#45;&gt;RoleBinding</title>
<path fill="none" stroke="#000000" d="M1954.5185,-932.7101C1954.6471,-922.5126 1954.8991,-909.5415 1955.3932,-898 1956.2751,-877.3996 1957.8349,-854.1811 1959.1419,-836.4876"/>
<polygon fill="#000000" stroke="#000000" points="1962.6514,-836.4929 1959.9147,-826.2576 1955.6713,-835.9655 1962.6514,-836.4929"/>
<text text-anchor="middle" x="1994.8806" y="-902.2" font-family="Times,serif" font-size="14.00" fill="#000000">role_bindings</text>
</g>
<!-- User -->
<g id="node46" class="node">
<title>User</title>
<ellipse fill="#ffffff" stroke="#000000" cx="2106.3848" cy="-754" rx="31.339" ry="18"/>
<text text-anchor="middle" x="2106.3848" y="-749.8" font-family="Helvetica,sans-Serif" font-size="14.00" fill="#000000">User</text>
</g>
<!-- Universe&#45;&gt;User -->
<g id="edge8" class="edge">
<title>Universe&#45;&gt;User</title>
<path fill="none" stroke="#000000" d="M1993.7153,-939.8849C2007.5437,-934.3382 2022.1662,-926.2703 2032.3848,-914.8 2054.4145,-890.0717 2042.2573,-874.3022 2055.6204,-844 2065.5444,-821.4962 2079.3988,-797.2828 2090.1274,-779.6455"/>
<polygon fill="#000000" stroke="#000000" points="2093.1482,-781.415 2095.4155,-771.0656 2087.1891,-777.7422 2093.1482,-781.415"/>
<text text-anchor="middle" x="2070.767" y="-857.8" font-family="Times,serif" font-size="14.00" fill="#000000">users</text>
</g>
<!-- UserGroup -->
<g id="node47" class="node">
<title>UserGroup</title>
<ellipse fill="#ffffff" stroke="#000000" cx="2151.3848" cy="-862" rx="58.0035" ry="18"/>
<text text-anchor="middle" x="2151.3848" y="-857.8" font-family="Helvetica,sans-Serif" font-size="14.00" fill="#000000">UserGroup</text>
</g>
<!-- Universe&#45;&gt;UserGroup -->
<g id="edge9" class="edge">
<title>Universe&#45;&gt;UserGroup</title>
<path fill="none" stroke="#000000" d="M1991.7867,-938.9648C2017.0216,-930.8144 2047.9108,-920.4692 2060.3848,-914.8 2079.887,-905.9366 2100.6195,-894.1126 2117.3618,-883.9009"/>
<polygon fill="#000000" stroke="#000000" points="2119.5556,-886.6594 2126.2194,-878.4226 2115.8735,-880.706 2119.5556,-886.6594"/>
<text text-anchor="middle" x="2110.4374" y="-902.2" font-family="Times,serif" font-size="14.00" fill="#000000">groups</text>
</g>
<!-- DataSet&#45;&gt;AccessPolicy -->
<g id="edge12" class="edge">
<title>DataSet&#45;&gt;AccessPolicy</title>
<path fill="none" stroke="#000000" d="M1660.5028,-853.5254C1568.8257,-834.5213 1346.5085,-788.4364 1239.657,-766.2867"/>
<polygon fill="#000000" stroke="#000000" points="1240.1875,-762.8224 1229.6852,-764.2197 1238.7666,-769.6767 1240.1875,-762.8224"/>
<text text-anchor="middle" x="1558.4227" y="-803.8" font-family="Times,serif" font-size="14.00" fill="#000000">accessPolicies</text>
</g>
<!-- DataSet&#45;&gt;Asset -->
<g id="edge14" class="edge">
<title>DataSet&#45;&gt;Asset</title>
<path fill="none" stroke="#000000" d="M1695.1082,-843.6793C1689.2792,-826.6649 1680.5198,-801.0967 1673.8435,-781.6091"/>
<polygon fill="#000000" stroke="#000000" points="1677.1208,-780.376 1670.5686,-772.0502 1670.4986,-782.6448 1677.1208,-780.376"/>
<text text-anchor="middle" x="1704.7116" y="-803.8" font-family="Times,serif" font-size="14.00" fill="#000000">assets</text>
</g>
<!-- DatumTemplate -->
<g id="node43" class="node">
<title>DatumTemplate</title>
<polygon fill="#c0c0c0" stroke="#000000" points="1869.9494,-772 1754.8202,-772 1754.8202,-736 1869.9494,-736 1869.9494,-772"/>
<text text-anchor="middle" x="1812.3848" y="-749.8" font-family="Helvetica,sans-Serif" font-size="14.00" fill="#000000">DatumTemplate</text>
</g>
<!-- DataSet&#45;&gt;DatumTemplate -->
<g id="edge13" class="edge">
<title>DataSet&#45;&gt;DatumTemplate</title>
<path fill="none" stroke="#000000" d="M1718.7285,-845.125C1736.8664,-827.4773 1765.5423,-799.5764 1786.3887,-779.2935"/>
<polygon fill="#000000" stroke="#000000" points="1788.9541,-781.6807 1793.6807,-772.1986 1784.0726,-776.6636 1788.9541,-781.6807"/>
<text text-anchor="middle" x="1820.0391" y="-803.8" font-family="Times,serif" font-size="14.00" fill="#000000">datumTemplates</text>
</g>
<!-- CSVEncoding -->
<g id="node10" class="node">
<title>CSVEncoding</title>
<ellipse fill="#ffffff" stroke="#000000" cx="562.3848" cy="-179.8" rx="71.2829" ry="18"/>
<text text-anchor="middle" x="562.3848" y="-175.6" font-family="Helvetica,sans-Serif" font-size="14.00" fill="#000000">CSVEncoding</text>
</g>
<!-- Encoding -->
<g id="node11" class="node">
<title>Encoding</title>
<polygon fill="#c0c0c0" stroke="#000000" points="761.7418,-270.8 687.0277,-270.8 687.0277,-234.8 761.7418,-234.8 761.7418,-270.8"/>
<text text-anchor="middle" x="724.3848" y="-248.6" font-family="Helvetica,sans-Serif" font-size="14.00" fill="#000000">Encoding</text>
</g>
<!-- Encoding&#45;&gt;CSVEncoding -->
<g id="edge15" class="edge">
<title>Encoding&#45;&gt;CSVEncoding</title>
<path fill="none" stroke="#000000" d="M686.8115,-235.8688C662.8589,-225.0754 631.713,-211.0405 606.575,-199.7129"/>
<polygon fill="#000000" stroke="#000000" points="607.8173,-196.4338 597.2622,-195.5164 604.9414,-202.8158 607.8173,-196.4338"/>
</g>
<!-- ORCEncoding -->
<g id="node12" class="node">
<title>ORCEncoding</title>
<ellipse fill="#ffffff" stroke="#000000" cx="724.3848" cy="-179.8" rx="72.9896" ry="18"/>
<text text-anchor="middle" x="724.3848" y="-175.6" font-family="Helvetica,sans-Serif" font-size="14.00" fill="#000000">ORCEncoding</text>
</g>
<!-- Encoding&#45;&gt;ORCEncoding -->
<g id="edge16" class="edge">
<title>Encoding&#45;&gt;ORCEncoding</title>
<path fill="none" stroke="#000000" d="M724.3848,-234.7551C724.3848,-226.6828 724.3848,-216.9764 724.3848,-207.9817"/>
<polygon fill="#000000" stroke="#000000" points="727.8849,-207.8903 724.3848,-197.8904 720.8849,-207.8904 727.8849,-207.8903"/>
</g>
<!-- TSVEncoding -->
<g id="node13" class="node">
<title>TSVEncoding</title>
<ellipse fill="#ffffff" stroke="#000000" cx="885.3848" cy="-179.8" rx="70.1389" ry="18"/>
<text text-anchor="middle" x="885.3848" y="-175.6" font-family="Helvetica,sans-Serif" font-size="14.00" fill="#000000">TSVEncoding</text>
</g>
<!-- Encoding&#45;&gt;TSVEncoding -->
<g id="edge17" class="edge">
<title>Encoding&#45;&gt;TSVEncoding</title>
<path fill="none" stroke="#000000" d="M761.7261,-235.8688C785.5309,-225.0754 816.4845,-211.0405 841.4674,-199.7129"/>
<polygon fill="#000000" stroke="#000000" points="843.0604,-202.8336 850.7226,-195.5164 840.1697,-196.4583 843.0604,-202.8336"/>
</g>
<!-- TSVEncoding&#45;&gt;DataCompression -->
<g id="edge18" class="edge">
<title>TSVEncoding&#45;&gt;DataCompression</title>
<path fill="none" stroke="#000000" d="M885.3848,-161.4006C885.3848,-149.2949 885.3848,-133.2076 885.3848,-119.4674"/>
<polygon fill="#000000" stroke="#000000" points="888.8849,-119.072 885.3848,-109.072 881.8849,-119.0721 888.8849,-119.072"/>
<text text-anchor="middle" x="920.7649" y="-131.2" font-family="Times,serif" font-size="14.00" fill="#000000">compression</text>
</g>
<!-- FileHeader -->
<g id="node19" class="node">
<title>FileHeader</title>
<polygon fill="#c0c0c0" stroke="#000000" points="743.832,-109 658.9376,-109 658.9376,-73 743.832,-73 743.832,-109"/>
<text text-anchor="middle" x="701.3848" y="-86.8" font-family="Helvetica,sans-Serif" font-size="14.00" fill="#000000">FileHeader</text>
</g>
<!-- TSVEncoding&#45;&gt;FileHeader -->
<g id="edge19" class="edge">
<title>TSVEncoding&#45;&gt;FileHeader</title>
<path fill="none" stroke="#000000" d="M852.0638,-163.719C823.0324,-149.7082 780.6217,-129.2404 748.1853,-113.5864"/>
<polygon fill="#000000" stroke="#000000" points="749.4211,-110.2965 738.8938,-109.1022 746.3785,-116.6007 749.4211,-110.2965"/>
<text text-anchor="middle" x="829.037" y="-131.2" font-family="Times,serif" font-size="14.00" fill="#000000">header</text>
</g>
<!-- AlluxioConfig -->
<g id="node14" class="node">
<title>AlluxioConfig</title>
<ellipse fill="#ffffff" stroke="#000000" cx="2089.3848" cy="-950.8" rx="67.2466" ry="18"/>
<text text-anchor="middle" x="2089.3848" y="-946.6" font-family="Helvetica,sans-Serif" font-size="14.00" fill="#000000">AlluxioConfig</text>
</g>
<!-- GiteaConfig -->
<g id="node15" class="node">
<title>GiteaConfig</title>
<ellipse fill="#ffffff" stroke="#000000" cx="2236.3848" cy="-950.8" rx="62.0291" ry="18"/>
<text text-anchor="middle" x="2236.3848" y="-946.6" font-family="Helvetica,sans-Serif" font-size="14.00" fill="#000000">GiteaConfig</text>
</g>
<!-- PrestoConfig -->
<g id="node16" class="node">
<title>PrestoConfig</title>
<ellipse fill="#ffffff" stroke="#000000" cx="2383.3848" cy="-950.8" rx="66.6864" ry="18"/>
<text text-anchor="middle" x="2383.3848" y="-946.6" font-family="Helvetica,sans-Serif" font-size="14.00" fill="#000000">PrestoConfig</text>
</g>
<!-- RangerConfig -->
<g id="node17" class="node">
<title>RangerConfig</title>
<ellipse fill="#ffffff" stroke="#000000" cx="2538.3848" cy="-950.8" rx="70.6974" ry="18"/>
<text text-anchor="middle" x="2538.3848" y="-946.6" font-family="Helvetica,sans-Serif" font-size="14.00" fill="#000000">RangerConfig</text>
</g>
<!-- UpperSnakeCaseCSVHeader -->
<g id="node20" class="node">
<title>UpperSnakeCaseCSVHeader</title>
<ellipse fill="#ffffff" stroke="#000000" cx="562.3848" cy="-18" rx="138.9977" ry="18"/>
<text text-anchor="middle" x="562.3848" y="-13.8" font-family="Helvetica,sans-Serif" font-size="14.00" fill="#000000">UpperSnakeCaseCSVHeader</text>
</g>
<!-- FileHeader&#45;&gt;UpperSnakeCaseCSVHeader -->
<g id="edge20" class="edge">
<title>FileHeader&#45;&gt;UpperSnakeCaseCSVHeader</title>
<path fill="none" stroke="#000000" d="M667.0252,-72.9551C648.2017,-63.0693 624.711,-50.7325 604.7584,-40.2538"/>
<polygon fill="#000000" stroke="#000000" points="606.3502,-37.1365 595.8695,-35.5855 603.0954,-43.3338 606.3502,-37.1365"/>
</g>
<!-- SingleFileLayout -->
<g id="node21" class="node">
<title>SingleFileLayout</title>
<ellipse fill="#ffffff" stroke="#000000" cx="390.3848" cy="-179.8" rx="82.3124" ry="18"/>
<text text-anchor="middle" x="390.3848" y="-175.6" font-family="Helvetica,sans-Serif" font-size="14.00" fill="#000000">SingleFileLayout</text>
</g>
<!-- FileBasedStorageLayout -->
<g id="node22" class="node">
<title>FileBasedStorageLayout</title>
<polygon fill="#c0c0c0" stroke="#000000" points="512.157,-270.8 342.6126,-270.8 342.6126,-234.8 512.157,-234.8 512.157,-270.8"/>
<text text-anchor="middle" x="427.3848" y="-248.6" font-family="Helvetica,sans-Serif" font-size="14.00" fill="#000000">FileBasedStorageLayout</text>
</g>
<!-- FileBasedStorageLayout&#45;&gt;SingleFileLayout -->
<g id="edge21" class="edge">
<title>FileBasedStorageLayout&#45;&gt;SingleFileLayout</title>
<path fill="none" stroke="#000000" d="M418.2387,-234.7551C413.9694,-226.3319 408.7982,-216.1292 404.0762,-206.8128"/>
<polygon fill="#000000" stroke="#000000" points="407.1968,-205.2277 399.5539,-197.8904 400.953,-208.3924 407.1968,-205.2277"/>
</g>
<!-- StaticHiveTableLayout -->
<g id="node23" class="node">
<title>StaticHiveTableLayout</title>
<ellipse fill="#ffffff" stroke="#000000" cx="1341.3848" cy="-179.8" rx="107.7545" ry="18"/>
<text text-anchor="middle" x="1341.3848" y="-175.6" font-family="Helvetica,sans-Serif" font-size="14.00" fill="#000000">StaticHiveTableLayout</text>
</g>
<!-- DailyGranularity -->
<g id="node24" class="node">
<title>DailyGranularity</title>
<ellipse fill="#ffffff" stroke="#000000" cx="1173.3848" cy="-18" rx="79.9069" ry="18"/>
<text text-anchor="middle" x="1173.3848" y="-13.8" font-family="Helvetica,sans-Serif" font-size="14.00" fill="#000000">DailyGranularity</text>
</g>
<!-- Granularity -->
<g id="node25" class="node">
<title>Granularity</title>
<polygon fill="#c0c0c0" stroke="#000000" points="1176.832,-109 1091.9376,-109 1091.9376,-73 1176.832,-73 1176.832,-109"/>
<text text-anchor="middle" x="1134.3848" y="-86.8" font-family="Helvetica,sans-Serif" font-size="14.00" fill="#000000">Granularity</text>
</g>
<!-- Granularity&#45;&gt;DailyGranularity -->
<g id="edge22" class="edge">
<title>Granularity&#45;&gt;DailyGranularity</title>
<path fill="none" stroke="#000000" d="M1144.0252,-72.9551C1148.5253,-64.5319 1153.976,-54.3292 1158.9533,-45.0128"/>
<polygon fill="#000000" stroke="#000000" points="1162.0949,-46.5598 1163.7201,-36.0904 1155.9208,-43.2613 1162.0949,-46.5598"/>
</g>
<!-- DynamicHiveTableLayout -->
<g id="node26" class="node">
<title>DynamicHiveTableLayout</title>
<ellipse fill="#ffffff" stroke="#000000" cx="1094.3848" cy="-179.8" rx="121.0621" ry="18"/>
<text text-anchor="middle" x="1094.3848" y="-175.6" font-family="Helvetica,sans-Serif" font-size="14.00" fill="#000000">DynamicHiveTableLayout</text>
</g>
<!-- DynamicHiveTableLayout&#45;&gt;Granularity -->
<g id="edge23" class="edge">
<title>DynamicHiveTableLayout&#45;&gt;Granularity</title>
<path fill="none" stroke="#000000" d="M1102.4794,-161.83C1108.0809,-149.3946 1115.6414,-132.6104 1121.9966,-118.5018"/>
<polygon fill="#000000" stroke="#000000" points="1125.249,-119.8032 1126.1649,-109.2481 1118.8666,-116.9283 1125.249,-119.8032"/>
<text text-anchor="middle" x="1149.0959" y="-131.2" font-family="Times,serif" font-size="14.00" fill="#000000">granularity</text>
</g>
<!-- HiveStorageLayout -->
<g id="node27" class="node">
<title>HiveStorageLayout</title>
<polygon fill="#c0c0c0" stroke="#000000" points="1161.9198,-270.8 1026.8498,-270.8 1026.8498,-234.8 1161.9198,-234.8 1161.9198,-270.8"/>
<text text-anchor="middle" x="1094.3848" y="-248.6" font-family="Helvetica,sans-Serif" font-size="14.00" fill="#000000">HiveStorageLayout</text>
</g>
<!-- HiveStorageLayout&#45;&gt;StaticHiveTableLayout -->
<g id="edge24" class="edge">
<title>HiveStorageLayout&#45;&gt;StaticHiveTableLayout</title>
<path fill="none" stroke="#000000" d="M1155.441,-234.7551C1192.8159,-223.709 1240.545,-209.6028 1278.2882,-198.448"/>
<polygon fill="#000000" stroke="#000000" points="1279.555,-201.7233 1288.1529,-195.5325 1277.5709,-195.0104 1279.555,-201.7233"/>
</g>
<!-- HiveStorageLayout&#45;&gt;DynamicHiveTableLayout -->
<g id="edge25" class="edge">
<title>HiveStorageLayout&#45;&gt;DynamicHiveTableLayout</title>
<path fill="none" stroke="#000000" d="M1094.3848,-234.7551C1094.3848,-226.6828 1094.3848,-216.9764 1094.3848,-207.9817"/>
<polygon fill="#000000" stroke="#000000" points="1097.8849,-207.8903 1094.3848,-197.8904 1090.8849,-207.8904 1097.8849,-207.8903"/>
</g>
<!-- AlluxioLocation -->
<g id="node28" class="node">
<title>AlluxioLocation</title>
<ellipse fill="#ffffff" stroke="#000000" cx="1543.3848" cy="-179.8" rx="75.9338" ry="18"/>
<text text-anchor="middle" x="1543.3848" y="-175.6" font-family="Helvetica,sans-Serif" font-size="14.00" fill="#000000">AlluxioLocation</text>
</g>
<!-- GCSLocation -->
<g id="node29" class="node">
<title>GCSLocation</title>
<ellipse fill="#ffffff" stroke="#000000" cx="221.3848" cy="-179.8" rx="68.4134" ry="18"/>
<text text-anchor="middle" x="221.3848" y="-175.6" font-family="Helvetica,sans-Serif" font-size="14.00" fill="#000000">GCSLocation</text>
</g>
<!-- HiveLocation -->
<g id="node30" class="node">
<title>HiveLocation</title>
<polygon fill="#c0c0c0" stroke="#000000" points="1433.7908,-270.8 1336.9787,-270.8 1336.9787,-234.8 1433.7908,-234.8 1433.7908,-270.8"/>
<text text-anchor="middle" x="1385.3848" y="-248.6" font-family="Helvetica,sans-Serif" font-size="14.00" fill="#000000">HiveLocation</text>
</g>
<!-- HiveLocation&#45;&gt;AlluxioLocation -->
<g id="edge26" class="edge">
<title>HiveLocation&#45;&gt;AlluxioLocation</title>
<path fill="none" stroke="#000000" d="M1424.441,-234.7551C1447.0905,-224.2904 1475.6845,-211.0792 1499.1601,-200.2329"/>
<polygon fill="#000000" stroke="#000000" points="1500.933,-203.2694 1508.5429,-195.8978 1497.997,-196.9148 1500.933,-203.2694"/>
</g>
<!-- RemoteLocation -->
<g id="node31" class="node">
<title>RemoteLocation</title>
<polygon fill="#c0c0c0" stroke="#000000" points="280.3006,-270.8 162.4689,-270.8 162.4689,-234.8 280.3006,-234.8 280.3006,-270.8"/>
<text text-anchor="middle" x="221.3848" y="-248.6" font-family="Helvetica,sans-Serif" font-size="14.00" fill="#000000">RemoteLocation</text>
</g>
<!-- RemoteLocation&#45;&gt;GCSLocation -->
<g id="edge27" class="edge">
<title>RemoteLocation&#45;&gt;GCSLocation</title>
<path fill="none" stroke="#000000" d="M221.3848,-234.7551C221.3848,-226.6828 221.3848,-216.9764 221.3848,-207.9817"/>
<polygon fill="#000000" stroke="#000000" points="224.8849,-207.8903 221.3848,-197.8904 217.8849,-207.8904 224.8849,-207.8903"/>
</g>
<!-- WebLocation -->
<g id="node32" class="node">
<title>WebLocation</title>
<ellipse fill="#ffffff" stroke="#000000" cx="67.3848" cy="-179.8" rx="67.2698" ry="18"/>
<text text-anchor="middle" x="67.3848" y="-175.6" font-family="Helvetica,sans-Serif" font-size="14.00" fill="#000000">WebLocation</text>
</g>
<!-- RemoteLocation&#45;&gt;WebLocation -->
<g id="edge28" class="edge">
<title>RemoteLocation&#45;&gt;WebLocation</title>
<path fill="none" stroke="#000000" d="M183.3174,-234.7551C161.0064,-224.1791 132.7775,-210.7978 109.7613,-199.8876"/>
<polygon fill="#000000" stroke="#000000" points="111.1093,-196.6533 100.5739,-195.5325 108.1109,-202.9786 111.1093,-196.6533"/>
</g>
<!-- GlobalPermissionsAdmin -->
<g id="node33" class="node">
<title>GlobalPermissionsAdmin</title>
<ellipse fill="#ffffff" stroke="#000000" cx="2137.3848" cy="-576.4" rx="118.7533" ry="18"/>
<text text-anchor="middle" x="2137.3848" y="-572.2" font-family="Helvetica,sans-Serif" font-size="14.00" fill="#000000">GlobalPermissionsAdmin</text>
</g>
<!-- Role -->
<g id="node34" class="node">
<title>Role</title>
<polygon fill="#c0c0c0" stroke="#000000" points="2133.3848,-683.2 2079.3848,-683.2 2079.3848,-647.2 2133.3848,-647.2 2133.3848,-683.2"/>
<text text-anchor="middle" x="2106.3848" y="-661" font-family="Helvetica,sans-Serif" font-size="14.00" fill="#000000">Role</text>
</g>
<!-- Role&#45;&gt;GlobalPermissionsAdmin -->
<g id="edge29" class="edge">
<title>Role&#45;&gt;GlobalPermissionsAdmin</title>
<path fill="none" stroke="#000000" d="M2112.808,-646.8006C2117.1178,-634.4552 2122.8731,-617.9689 2127.7308,-604.0539"/>
<polygon fill="#000000" stroke="#000000" points="2131.0843,-605.0669 2131.0759,-594.472 2124.4754,-602.7597 2131.0843,-605.0669"/>
</g>
<!-- RoleBinding&#45;&gt;Role -->
<g id="edge30" class="edge">
<title>RoleBinding&#45;&gt;Role</title>
<path fill="none" stroke="#000000" d="M1979.1646,-790.4899C2004.5723,-765.4677 2051.4162,-719.3345 2080.6227,-690.5712"/>
<polygon fill="#000000" stroke="#000000" points="2083.333,-692.8144 2088.002,-683.3038 2078.4212,-687.8269 2083.333,-692.8144"/>
<text text-anchor="middle" x="2045.2677" y="-749.8" font-family="Times,serif" font-size="14.00" fill="#000000">role</text>
</g>
<!-- TabularSchema -->
<g id="node37" class="node">
<title>TabularSchema</title>
<ellipse fill="#ffffff" stroke="#000000" cx="941.3848" cy="-503.4" rx="79.3677" ry="18"/>
<text text-anchor="middle" x="941.3848" y="-499.2" font-family="Helvetica,sans-Serif" font-size="14.00" fill="#000000">TabularSchema</text>
</g>
<!-- DataSchema&#45;&gt;TabularSchema -->
<g id="edge31" class="edge">
<title>DataSchema&#45;&gt;TabularSchema</title>
<path fill="none" stroke="#000000" d="M1087.4297,-558.3551C1058.4975,-547.4682 1021.6654,-533.6087 992.2286,-522.532"/>
<polygon fill="#000000" stroke="#000000" points="993.1433,-519.1366 982.5513,-518.8905 990.678,-525.6881 993.1433,-519.1366"/>
</g>
<!-- HiveTableStorage -->
<g id="node38" class="node">
<title>HiveTableStorage</title>
<ellipse fill="#ffffff" stroke="#000000" cx="825.3848" cy="-341.6" rx="88.1135" ry="18"/>
<text text-anchor="middle" x="825.3848" y="-337.4" font-family="Helvetica,sans-Serif" font-size="14.00" fill="#000000">HiveTableStorage</text>
</g>
<!-- HiveTableStorage&#45;&gt;Encoding -->
<g id="edge34" class="edge">
<title>HiveTableStorage&#45;&gt;Encoding</title>
<path fill="none" stroke="#000000" d="M805.4304,-324.056C790.4114,-310.8511 769.6184,-292.5698 752.8542,-277.8305"/>
<polygon fill="#000000" stroke="#000000" points="754.8122,-274.8917 744.9911,-270.9172 750.1902,-280.1487 754.8122,-274.8917"/>
<text text-anchor="middle" x="810.0447" y="-293" font-family="Times,serif" font-size="14.00" fill="#000000">encoding</text>
</g>
<!-- HiveTableStorage&#45;&gt;HiveStorageLayout -->
<g id="edge33" class="edge">
<title>HiveTableStorage&#45;&gt;HiveStorageLayout</title>
<path fill="none" stroke="#000000" d="M871.9339,-326.2336C915.6362,-311.807 981.3991,-290.0979 1030.0972,-274.0221"/>
<polygon fill="#000000" stroke="#000000" points="1031.199,-277.3442 1039.5978,-270.8858 1029.0046,-270.697 1031.199,-277.3442"/>
<text text-anchor="middle" x="1001.8827" y="-293" font-family="Times,serif" font-size="14.00" fill="#000000">layout</text>
</g>
<!-- HiveTableStorage&#45;&gt;HiveLocation -->
<g id="edge32" class="edge">
<title>HiveTableStorage&#45;&gt;HiveLocation</title>
<path fill="none" stroke="#000000" d="M895.1769,-330.533C1006.6907,-312.8501 1223.0338,-278.5442 1326.9282,-262.0696"/>
<polygon fill="#000000" stroke="#000000" points="1327.5966,-265.5074 1336.925,-260.4843 1326.5002,-258.5938 1327.5966,-265.5074"/>
<text text-anchor="middle" x="1178.9353" y="-293" font-family="Times,serif" font-size="14.00" fill="#000000">location</text>
</g>
<!-- RemoteStorage -->
<g id="node39" class="node">
<title>RemoteStorage</title>
<ellipse fill="#ffffff" stroke="#000000" cx="621.3848" cy="-341.6" rx="78.8034" ry="18"/>
<text text-anchor="middle" x="621.3848" y="-337.4" font-family="Helvetica,sans-Serif" font-size="14.00" fill="#000000">RemoteStorage</text>
</g>
<!-- RemoteStorage&#45;&gt;Encoding -->
<g id="edge37" class="edge">
<title>RemoteStorage&#45;&gt;Encoding</title>
<path fill="none" stroke="#000000" d="M641.7343,-324.056C657.0507,-310.8511 678.2554,-292.5698 695.3516,-277.8305"/>
<polygon fill="#000000" stroke="#000000" points="698.082,-280.0978 703.3704,-270.9172 693.5111,-274.7961 698.082,-280.0978"/>
<text text-anchor="middle" x="708.0447" y="-293" font-family="Times,serif" font-size="14.00" fill="#000000">encoding</text>
</g>
<!-- RemoteStorage&#45;&gt;FileBasedStorageLayout -->
<g id="edge36" class="edge">
<title>RemoteStorage&#45;&gt;FileBasedStorageLayout</title>
<path fill="none" stroke="#000000" d="M585.8022,-325.3127C555.0063,-311.2165 510.1798,-290.6979 476.0637,-275.0819"/>
<polygon fill="#000000" stroke="#000000" points="477.2953,-271.7964 466.7458,-270.8168 474.3818,-278.1613 477.2953,-271.7964"/>
<text text-anchor="middle" x="559.8827" y="-293" font-family="Times,serif" font-size="14.00" fill="#000000">layout</text>
</g>
<!-- RemoteStorage&#45;&gt;RemoteLocation -->
<g id="edge35" class="edge">
<title>RemoteStorage&#45;&gt;RemoteLocation</title>
<path fill="none" stroke="#000000" d="M564.3898,-329.05C533.0689,-322.1458 493.5294,-313.4175 458.2838,-305.6 401.8271,-293.0779 337.8196,-278.8075 290.5821,-268.262"/>
<polygon fill="#000000" stroke="#000000" points="291.2878,-264.8335 280.7654,-266.0702 289.7624,-271.6653 291.2878,-264.8335"/>
<text text-anchor="middle" x="480.9353" y="-293" font-family="Times,serif" font-size="14.00" fill="#000000">location</text>
</g>
<!-- Storage -->
<g id="node40" class="node">
<title>Storage</title>
<polygon fill="#c0c0c0" stroke="#000000" points="745.903,-432.6 680.8666,-432.6 680.8666,-396.6 745.903,-396.6 745.903,-432.6"/>
<text text-anchor="middle" x="713.3848" y="-410.4" font-family="Helvetica,sans-Serif" font-size="14.00" fill="#000000">Storage</text>
</g>
<!-- Storage&#45;&gt;HiveTableStorage -->
<g id="edge39" class="edge">
<title>Storage&#45;&gt;HiveTableStorage</title>
<path fill="none" stroke="#000000" d="M741.0702,-396.5551C755.9368,-386.8652 774.4163,-374.8205 790.2828,-364.479"/>
<polygon fill="#000000" stroke="#000000" points="792.3226,-367.3273 798.7891,-358.9347 788.5003,-361.463 792.3226,-367.3273"/>
</g>
<!-- Storage&#45;&gt;RemoteStorage -->
<g id="edge38" class="edge">
<title>Storage&#45;&gt;RemoteStorage</title>
<path fill="none" stroke="#000000" d="M690.6432,-396.5551C678.7706,-387.1344 664.0928,-375.4879 651.3095,-365.3447"/>
<polygon fill="#000000" stroke="#000000" points="653.2403,-362.4087 643.2312,-358.9347 648.8893,-367.8922 653.2403,-362.4087"/>
</g>
<!-- RemoteImportStorageSetup -->
<g id="node41" class="node">
<title>RemoteImportStorageSetup</title>
<ellipse fill="#ffffff" stroke="#000000" cx="713.3848" cy="-503.4" rx="131.485" ry="18"/>
<text text-anchor="middle" x="713.3848" y="-499.2" font-family="Helvetica,sans-Serif" font-size="14.00" fill="#000000">RemoteImportStorageSetup</text>
</g>
<!-- RemoteImportStorageSetup&#45;&gt;Storage -->
<g id="edge40" class="edge">
<title>RemoteImportStorageSetup&#45;&gt;Storage</title>
<path fill="none" stroke="#000000" d="M694.4983,-485.5499C690.0334,-480.1881 685.8845,-473.9697 683.5138,-467.4 680.9794,-460.3766 680.9794,-457.6234 683.5138,-450.6 684.7077,-447.2913 686.3528,-444.0716 688.262,-441.0057"/>
<polygon fill="#000000" stroke="#000000" points="691.1555,-442.9774 694.1873,-432.8256 685.4865,-438.8709 691.1555,-442.9774"/>
<text text-anchor="middle" x="703.8203" y="-454.8" font-family="Times,serif" font-size="14.00" fill="#000000">remote</text>
</g>
<!-- RemoteImportStorageSetup&#45;&gt;Storage -->
<g id="edge41" class="edge">
<title>RemoteImportStorageSetup&#45;&gt;Storage</title>
<path fill="none" stroke="#000000" d="M718.8416,-485.2491C720.2946,-479.5864 721.6606,-473.2826 722.3848,-467.4 723.2971,-459.9893 723.2971,-458.0107 722.3848,-450.6 722.068,-448.0264 721.6283,-445.3721 721.1122,-442.7262"/>
<polygon fill="#000000" stroke="#000000" points="724.4738,-441.7246 718.8416,-432.7509 717.6484,-443.2783 724.4738,-441.7246"/>
<text text-anchor="middle" x="736.99" y="-454.8" font-family="Times,serif" font-size="14.00" fill="#000000">local</text>
</g>
<!-- StorageSetup&#45;&gt;RemoteImportStorageSetup -->
<g id="edge42" class="edge">
<title>StorageSetup&#45;&gt;RemoteImportStorageSetup</title>
<path fill="none" stroke="#000000" d="M815.7668,-558.3551C797.4324,-548.5138 774.5728,-536.2436 755.1079,-525.7955"/>
<polygon fill="#000000" stroke="#000000" points="756.613,-522.6311 746.1468,-520.9855 753.3024,-528.7988 756.613,-522.6311"/>
</g>
<!-- IdentifierTuple -->
<g id="node44" class="node">
<title>IdentifierTuple</title>
<ellipse fill="#ffffff" stroke="#000000" cx="1812.3848" cy="-665.2" rx="72.4175" ry="18"/>
<text text-anchor="middle" x="1812.3848" y="-661" font-family="Helvetica,sans-Serif" font-size="14.00" fill="#000000">IdentifierTuple</text>
</g>
<!-- DatumTemplate&#45;&gt;IdentifierTuple -->
<g id="edge44" class="edge">
<title>DatumTemplate&#45;&gt;IdentifierTuple</title>
<path fill="none" stroke="#000000" d="M1812.3848,-735.6006C1812.3848,-723.4949 1812.3848,-707.4076 1812.3848,-693.6674"/>
<polygon fill="#000000" stroke="#000000" points="1815.8849,-693.272 1812.3848,-683.272 1808.8849,-693.2721 1815.8849,-693.272"/>
</g>
<!-- KeyedStruct -->
<g id="node45" class="node">
<title>KeyedStruct</title>
<ellipse fill="#ffffff" stroke="#000000" cx="1966.3848" cy="-665.2" rx="63.7587" ry="18"/>
<text text-anchor="middle" x="1966.3848" y="-661" font-family="Helvetica,sans-Serif" font-size="14.00" fill="#000000">KeyedStruct</text>
</g>
<!-- DatumTemplate&#45;&gt;KeyedStruct -->
<g id="edge43" class="edge">
<title>DatumTemplate&#45;&gt;KeyedStruct</title>
<path fill="none" stroke="#000000" d="M1843.9206,-735.8157C1868.7163,-721.5179 1903.3116,-701.5694 1929.4101,-686.5205"/>
<polygon fill="#000000" stroke="#000000" points="1931.3424,-689.4465 1938.2571,-681.4191 1927.8457,-683.3824 1931.3424,-689.4465"/>
</g>
<!-- Attribute -->
<g id="node48" class="node">
<title>Attribute</title>
<polygon fill="#c0c0c0" stroke="#000000" points="2000.5083,-594.4 1932.2613,-594.4 1932.2613,-558.4 2000.5083,-558.4 2000.5083,-594.4"/>
<text text-anchor="middle" x="1966.3848" y="-572.2" font-family="Helvetica,sans-Serif" font-size="14.00" fill="#000000">Attribute</text>
</g>
<!-- IdentifierTuple&#45;&gt;Attribute -->
<g id="edge45" class="edge">
<title>IdentifierTuple&#45;&gt;Attribute</title>
<path fill="none" stroke="#000000" d="M1841.351,-648.4974C1865.3829,-634.64 1899.8084,-614.7895 1926.4548,-599.4245"/>
<polygon fill="#000000" stroke="#000000" points="1928.2523,-602.4283 1935.167,-594.4009 1924.7556,-596.3642 1928.2523,-602.4283"/>
<text text-anchor="middle" x="1929.4332" y="-616.6" font-family="Times,serif" font-size="14.00" fill="#000000">attributes</text>
</g>
<!-- KeyedStruct&#45;&gt;Attribute -->
<g id="edge46" class="edge">
<title>KeyedStruct&#45;&gt;Attribute</title>
<path fill="none" stroke="#000000" d="M1966.3848,-646.8006C1966.3848,-634.6949 1966.3848,-618.6076 1966.3848,-604.8674"/>
<polygon fill="#000000" stroke="#000000" points="1969.8849,-604.472 1966.3848,-594.472 1962.8849,-604.4721 1969.8849,-604.472"/>
<text text-anchor="middle" x="1992.4332" y="-616.6" font-family="Times,serif" font-size="14.00" fill="#000000">attributes</text>
</g>
<!-- User&#45;&gt;Role -->
<g id="edge47" class="edge">
<title>User&#45;&gt;Role</title>
<path fill="none" stroke="#000000" d="M2106.3848,-735.6006C2106.3848,-723.4949 2106.3848,-707.4076 2106.3848,-693.6674"/>
<polygon fill="#000000" stroke="#000000" points="2109.8849,-693.272 2106.3848,-683.272 2102.8849,-693.2721 2109.8849,-693.272"/>
<text text-anchor="middle" x="2119.99" y="-705.4" font-family="Times,serif" font-size="14.00" fill="#000000">roles</text>
</g>
<!-- UserGroup&#45;&gt;User -->
<g id="edge48" class="edge">
<title>UserGroup&#45;&gt;User</title>
<path fill="none" stroke="#000000" d="M2143.7511,-843.6793C2136.5864,-826.4838 2125.7813,-800.5517 2117.6303,-780.9892"/>
<polygon fill="#000000" stroke="#000000" points="2120.8336,-779.5769 2113.7566,-771.6923 2114.372,-782.2693 2120.8336,-779.5769"/>
<text text-anchor="middle" x="2150.767" y="-803.8" font-family="Times,serif" font-size="14.00" fill="#000000">users</text>
</g>
<!-- URI -->
<g id="node49" class="node">
<title>URI</title>
<ellipse fill="#ffffff" stroke="#000000" cx="2856.3848" cy="-503.4" rx="27.8267" ry="18"/>
<text text-anchor="middle" x="2856.3848" y="-499.2" font-family="Helvetica,sans-Serif" font-size="14.00" fill="#000000">URI</text>
</g>
<!-- Attribute&#45;&gt;URI -->
<g id="edge60" class="edge">
<title>Attribute&#45;&gt;URI</title>
<path fill="none" stroke="#000000" d="M2000.775,-560.783C2003.6488,-559.8538 2006.5422,-559.0388 2009.3848,-558.4 2185.1883,-518.8941 2644.7637,-565.8417 2819.3848,-521.4 2821.5784,-520.8417 2823.7959,-520.1458 2825.9977,-519.355"/>
<polygon fill="#000000" stroke="#000000" points="2827.5521,-522.4988 2835.4279,-515.412 2824.8518,-516.0406 2827.5521,-522.4988"/>
</g>
<!-- FloatLongitude -->
<g id="node50" class="node">
<title>FloatLongitude</title>
<ellipse fill="#ffffff" stroke="#000000" cx="2977.3848" cy="-503.4" rx="74.8075" ry="18"/>
<text text-anchor="middle" x="2977.3848" y="-499.2" font-family="Helvetica,sans-Serif" font-size="14.00" fill="#000000">FloatLongitude</text>
</g>
<!-- Attribute&#45;&gt;FloatLongitude -->
<g id="edge59" class="edge">
<title>Attribute&#45;&gt;FloatLongitude</title>
<path fill="none" stroke="#000000" d="M2000.7623,-560.7256C2003.639,-559.8093 2006.5365,-559.0129 2009.3848,-558.4 2151.9545,-527.7236 2519.775,-548.4585 2665.3848,-540.4 2766.914,-534.7811 2792.7986,-536.3057 2893.3848,-521.4 2899.9269,-520.4305 2906.723,-519.2568 2913.4888,-517.9788"/>
<polygon fill="#000000" stroke="#000000" points="2914.2083,-521.4044 2923.3466,-516.0432 2912.8596,-514.5356 2914.2083,-521.4044"/>
</g>
<!-- FloatLatitude -->
<g id="node51" class="node">
<title>FloatLatitude</title>
<ellipse fill="#ffffff" stroke="#000000" cx="1105.3848" cy="-503.4" rx="66.7018" ry="18"/>
<text text-anchor="middle" x="1105.3848" y="-499.2" font-family="Helvetica,sans-Serif" font-size="14.00" fill="#000000">FloatLatitude</text>
</g>
<!-- Attribute&#45;&gt;FloatLatitude -->
<g id="edge58" class="edge">
<title>Attribute&#45;&gt;FloatLatitude</title>
<path fill="none" stroke="#000000" d="M1932.1185,-575.9835C1822.2898,-574.2259 1469.3982,-565.2982 1181.3848,-521.4 1175.5454,-520.51 1169.4926,-519.4016 1163.4682,-518.1751"/>
<polygon fill="#000000" stroke="#000000" points="1163.9105,-514.6904 1153.399,-516.0168 1162.4434,-521.535 1163.9105,-514.6904"/>
</g>
<!-- NullableString -->
<g id="node52" class="node">
<title>NullableString</title>
<ellipse fill="#ffffff" stroke="#000000" cx="1261.3848" cy="-503.4" rx="71.2559" ry="18"/>
<text text-anchor="middle" x="1261.3848" y="-499.2" font-family="Helvetica,sans-Serif" font-size="14.00" fill="#000000">NullableString</text>
</g>
<!-- Attribute&#45;&gt;NullableString -->
<g id="edge57" class="edge">
<title>Attribute&#45;&gt;NullableString</title>
<path fill="none" stroke="#000000" d="M1932.3175,-575.0026C1837.9323,-570.7868 1565.2512,-556.2753 1341.3848,-521.4 1335.1999,-520.4365 1328.7797,-519.273 1322.3874,-518.0066"/>
<polygon fill="#000000" stroke="#000000" points="1322.9042,-514.5395 1312.4031,-515.9458 1321.4891,-521.395 1322.9042,-514.5395"/>
</g>
<!-- Int64Identifier -->
<g id="node53" class="node">
<title>Int64Identifier</title>
<ellipse fill="#ffffff" stroke="#000000" cx="1420.3848" cy="-503.4" rx="69.5669" ry="18"/>
<text text-anchor="middle" x="1420.3848" y="-499.2" font-family="Helvetica,sans-Serif" font-size="14.00" fill="#000000">Int64Identifier</text>
</g>
<!-- Attribute&#45;&gt;Int64Identifier -->
<g id="edge56" class="edge">
<title>Attribute&#45;&gt;Int64Identifier</title>
<path fill="none" stroke="#000000" d="M1932.2197,-573.6358C1854.8138,-567.0986 1660.2872,-549.1241 1499.3848,-521.4 1493.5235,-520.3901 1487.4434,-519.2228 1481.3766,-517.9776"/>
<polygon fill="#000000" stroke="#000000" points="1481.7289,-514.4745 1471.2201,-515.8225 1480.2759,-521.322 1481.7289,-514.4745"/>
</g>
<!-- NullableInt64 -->
<g id="node54" class="node">
<title>NullableInt64</title>
<ellipse fill="#ffffff" stroke="#000000" cx="1575.3848" cy="-503.4" rx="67.264" ry="18"/>
<text text-anchor="middle" x="1575.3848" y="-499.2" font-family="Helvetica,sans-Serif" font-size="14.00" fill="#000000">NullableInt64</text>
</g>
<!-- Attribute&#45;&gt;NullableInt64 -->
<g id="edge55" class="edge">
<title>Attribute&#45;&gt;NullableInt64</title>
<path fill="none" stroke="#000000" d="M1931.8822,-571.008C1873.9446,-561.808 1753.5123,-542.0598 1652.3848,-521.4 1646.9205,-520.2837 1641.2513,-519.0684 1635.58,-517.8136"/>
<polygon fill="#000000" stroke="#000000" points="1635.9375,-514.3065 1625.413,-515.5252 1634.4004,-521.1357 1635.9375,-514.3065"/>
</g>
<!-- NullablePOSIXTimestamp -->
<g id="node55" class="node">
<title>NullablePOSIXTimestamp</title>
<ellipse fill="#ffffff" stroke="#000000" cx="1784.3848" cy="-503.4" rx="123.3442" ry="18"/>
<text text-anchor="middle" x="1784.3848" y="-499.2" font-family="Helvetica,sans-Serif" font-size="14.00" fill="#000000">NullablePOSIXTimestamp</text>
</g>
<!-- Attribute&#45;&gt;NullablePOSIXTimestamp -->
<g id="edge54" class="edge">
<title>Attribute&#45;&gt;NullablePOSIXTimestamp</title>
<path fill="none" stroke="#000000" d="M1932.152,-562.6693C1905.09,-551.8147 1866.8761,-536.4872 1836.0892,-524.1386"/>
<polygon fill="#000000" stroke="#000000" points="1837.3779,-520.8845 1826.7937,-520.4102 1834.772,-527.3814 1837.3779,-520.8845"/>
</g>
<!-- NullableStringIdentifier -->
<g id="node56" class="node">
<title>NullableStringIdentifier</title>
<ellipse fill="#ffffff" stroke="#000000" cx="2033.3848" cy="-503.4" rx="108.3053" ry="18"/>
<text text-anchor="middle" x="2033.3848" y="-499.2" font-family="Helvetica,sans-Serif" font-size="14.00" fill="#000000">NullableStringIdentifier</text>
</g>
<!-- Attribute&#45;&gt;NullableStringIdentifier -->
<g id="edge53" class="edge">
<title>Attribute&#45;&gt;NullableStringIdentifier</title>
<path fill="none" stroke="#000000" d="M1982.9466,-558.3551C1991.1413,-549.4265 2001.1709,-538.4987 2010.1219,-528.7461"/>
<polygon fill="#000000" stroke="#000000" points="2012.8302,-530.9714 2017.0135,-521.2374 2007.6731,-526.2381 2012.8302,-530.9714"/>
</g>
<!-- NumericIdentifier -->
<g id="node57" class="node">
<title>NumericIdentifier</title>
<ellipse fill="#ffffff" stroke="#000000" cx="2243.3848" cy="-503.4" rx="83.9972" ry="18"/>
<text text-anchor="middle" x="2243.3848" y="-499.2" font-family="Helvetica,sans-Serif" font-size="14.00" fill="#000000">NumericIdentifier</text>
</g>
<!-- Attribute&#45;&gt;NumericIdentifier -->
<g id="edge52" class="edge">
<title>Attribute&#45;&gt;NumericIdentifier</title>
<path fill="none" stroke="#000000" d="M2000.4598,-561.5362C2003.4552,-560.4126 2006.4595,-559.3488 2009.3848,-558.4 2062.2698,-541.2466 2123.4843,-527.0513 2170.0362,-517.3809"/>
<polygon fill="#000000" stroke="#000000" points="2170.9466,-520.7671 2180.0375,-515.3259 2169.5377,-513.9103 2170.9466,-520.7671"/>
</g>
<!-- Empty -->
<g id="node58" class="node">
<title>Empty</title>
<ellipse fill="#ffffff" stroke="#000000" cx="2383.3848" cy="-503.4" rx="38.3011" ry="18"/>
<text text-anchor="middle" x="2383.3848" y="-499.2" font-family="Helvetica,sans-Serif" font-size="14.00" fill="#000000">Empty</text>
</g>
<!-- Attribute&#45;&gt;Empty -->
<g id="edge51" class="edge">
<title>Attribute&#45;&gt;Empty</title>
<path fill="none" stroke="#000000" d="M2000.8259,-560.9932C2003.6883,-560.0169 2006.5652,-559.1337 2009.3848,-558.4 2150.9323,-521.5693 2194.2887,-556.0542 2336.3848,-521.4 2339.3453,-520.678 2342.3714,-519.8187 2345.3904,-518.8728"/>
<polygon fill="#000000" stroke="#000000" points="2346.5866,-522.1628 2354.9192,-515.6193 2344.3247,-515.5383 2346.5866,-522.1628"/>
</g>
<!-- KeyInt64Identifier -->
<g id="node59" class="node">
<title>KeyInt64Identifier</title>
<ellipse fill="#ffffff" stroke="#000000" cx="2526.3848" cy="-503.4" rx="86.3412" ry="18"/>
<text text-anchor="middle" x="2526.3848" y="-499.2" font-family="Helvetica,sans-Serif" font-size="14.00" fill="#000000">KeyInt64Identifier</text>
</g>
<!-- Attribute&#45;&gt;KeyInt64Identifier -->
<g id="edge50" class="edge">
<title>Attribute&#45;&gt;KeyInt64Identifier</title>
<path fill="none" stroke="#000000" d="M2000.8061,-560.915C2003.6729,-559.9562 2006.5562,-559.0983 2009.3848,-558.4 2100.5631,-535.8888 2337.3422,-534.1802 2430.3848,-521.4 2438.1217,-520.3373 2446.1818,-519.0744 2454.1985,-517.7177"/>
<polygon fill="#000000" stroke="#000000" points="2455.0514,-521.1219 2464.302,-515.9571 2453.8496,-514.2258 2455.0514,-521.1219"/>
</g>
<!-- KeyStringIdentifier -->
<g id="node60" class="node">
<title>KeyStringIdentifier</title>
<ellipse fill="#ffffff" stroke="#000000" cx="2720.3848" cy="-503.4" rx="89.8328" ry="18"/>
<text text-anchor="middle" x="2720.3848" y="-499.2" font-family="Helvetica,sans-Serif" font-size="14.00" fill="#000000">KeyStringIdentifier</text>
</g>
<!-- Attribute&#45;&gt;KeyStringIdentifier -->
<g id="edge49" class="edge">
<title>Attribute&#45;&gt;KeyStringIdentifier</title>
<path fill="none" stroke="#000000" d="M2000.7856,-560.8294C2003.657,-559.8898 2006.547,-559.0597 2009.3848,-558.4 2075.7396,-542.9745 2553.7515,-529.5633 2621.3848,-521.4 2629.6121,-520.407 2638.1896,-519.1639 2646.7052,-517.7975"/>
<polygon fill="#000000" stroke="#000000" points="2647.3579,-521.2372 2656.6485,-516.1445 2646.2099,-514.3319 2647.3579,-521.2372"/>
</g>
</g>
</svg>
