<?xml version="1.0" encoding="UTF-8" standalone="no"?>
<!DOCTYPE svg PUBLIC "-//W3C//DTD SVG 1.1//EN"
 "http://www.w3.org/Graphics/SVG/1.1/DTD/svg11.dtd">
<!-- Generated by graphviz version 2.40.1 (20161225.0304)
 -->
<!-- Title: boxes_and_circles Pages: 1 -->
<svg width="1822pt" height="261pt"
 viewBox="0.00 0.00 1821.69 260.61" xmlns="http://www.w3.org/2000/svg" xmlns:xlink="http://www.w3.org/1999/xlink">
<g id="graph0" class="graph" transform="scale(1 1) rotate(0) translate(4 256.6068)">
<title>boxes_and_circles</title>
<polygon fill="#ffffff" stroke="transparent" points="-4,4 -4,-256.6068 1817.695,-256.6068 1817.695,4 -4,4"/>
<!-- IsAudited on 
ParsedDataSetup 1 -->
<g id="node1" class="node">
<title>IsAudited on 
ParsedDataSetup 1</title>
<polygon fill="none" stroke="#0000ff" points="138.2335,-135.4019 -.0779,-135.4019 -.0779,-94.1981 138.2335,-94.1981 138.2335,-135.4019"/>
<text text-anchor="middle" x="69.0778" y="-119" font-family="Helvetica,sans-Serif" font-size="14.00" fill="#0000ff">IsAudited on </text>
<text text-anchor="middle" x="69.0778" y="-102.2" font-family="Helvetica,sans-Serif" font-size="14.00" fill="#0000ff">ParsedDataSetup 1</text>
</g>
<!-- DownloadDataFromRemote on 
RemoteLocation 1 -->
<g id="node2" class="node">
<title>DownloadDataFromRemote on 
RemoteLocation 1</title>
<polygon fill="none" stroke="#0000ff" points="1813.5969,-212.4019 1600.9895,-212.4019 1600.9895,-171.1981 1813.5969,-171.1981 1813.5969,-212.4019"/>
<text text-anchor="middle" x="1707.2932" y="-196" font-family="Helvetica,sans-Serif" font-size="14.00" fill="#0000ff">DownloadDataFromRemote on </text>
<text text-anchor="middle" x="1707.2932" y="-179.2" font-family="Helvetica,sans-Serif" font-size="14.00" fill="#0000ff">RemoteLocation 1</text>
</g>
<!-- DataFromRemoteDownloaded on 
RemoteImportStorageSetup 1 -->
<g id="node3" class="node">
<title>DataFromRemoteDownloaded on 
RemoteImportStorageSetup 1</title>
<polygon fill="none" stroke="#0000ff" points="1565.0761,-237.4019 1336.3379,-237.4019 1336.3379,-196.1981 1565.0761,-196.1981 1565.0761,-237.4019"/>
<text text-anchor="middle" x="1450.707" y="-221" font-family="Helvetica,sans-Serif" font-size="14.00" fill="#0000ff">DataFromRemoteDownloaded on </text>
<text text-anchor="middle" x="1450.707" y="-204.2" font-family="Helvetica,sans-Serif" font-size="14.00" fill="#0000ff">RemoteImportStorageSetup 1</text>
</g>
<!-- DownloadDataFromRemote on 
RemoteLocation 1&#45;&gt;DataFromRemoteDownloaded on 
RemoteImportStorageSetup 1 -->
<g id="edge1" class="edge">
<title>DownloadDataFromRemote on 
RemoteLocation 1&#45;&gt;DataFromRemoteDownloaded on 
RemoteImportStorageSetup 1</title>
<path fill="none" stroke="#0000ff" d="M1600.7067,-202.1851C1592.2947,-203.0047 1583.7546,-203.8368 1575.2365,-204.6667"/>
<polygon fill="#0000ff" stroke="#0000ff" points="1574.8697,-201.1858 1565.2563,-205.6391 1575.5486,-208.1528 1574.8697,-201.1858"/>
</g>
<!-- ReplicatedData on 
RemoteImportStorageSetup 1 -->
<g id="node11" class="node">
<title>ReplicatedData on 
RemoteImportStorageSetup 1</title>
<polygon fill="none" stroke="#0000ff" points="1101.4504,-236.4019 899.5712,-236.4019 899.5712,-195.1981 1101.4504,-195.1981 1101.4504,-236.4019"/>
<text text-anchor="middle" x="1000.5108" y="-220" font-family="Helvetica,sans-Serif" font-size="14.00" fill="#0000ff">ReplicatedData on </text>
<text text-anchor="middle" x="1000.5108" y="-203.2" font-family="Helvetica,sans-Serif" font-size="14.00" fill="#0000ff">RemoteImportStorageSetup 1</text>
</g>
<!-- DownloadDataFromRemote on 
RemoteLocation 1&#45;&gt;ReplicatedData on 
RemoteImportStorageSetup 1 -->
<g id="edge14" class="edge">
<title>DownloadDataFromRemote on 
RemoteLocation 1&#45;&gt;ReplicatedData on 
RemoteImportStorageSetup 1</title>
<path fill="none" stroke="#0000ff" d="M1600.8822,-183.7162C1486.1623,-176.6674 1298.3511,-169.9565 1137.4806,-186.8 1123.4367,-188.2704 1108.7133,-190.5669 1094.3419,-193.2388"/>
<polygon fill="#0000ff" stroke="#0000ff" points="1093.6184,-189.8137 1084.4615,-195.143 1094.9431,-196.6872 1093.6184,-189.8137"/>
</g>
<!-- DataFromRemoteDownloaded on 
RemoteImportStorageSetup 1&#45;&gt;ReplicatedData on 
RemoteImportStorageSetup 1 -->
<g id="edge13" class="edge">
<title>DataFromRemoteDownloaded on 
RemoteImportStorageSetup 1&#45;&gt;ReplicatedData on 
RemoteImportStorageSetup 1</title>
<path fill="none" stroke="#0000ff" d="M1362.5959,-237.4116C1342.3196,-241.3137 1320.7643,-244.7981 1300.5226,-246.8 1228.4113,-253.9318 1209.4954,-254.8477 1137.4806,-246.8 1121.3278,-244.9949 1104.2995,-242.0278 1087.947,-238.6262"/>
<polygon fill="#0000ff" stroke="#0000ff" points="1088.3787,-235.1391 1077.8664,-236.4586 1086.9071,-241.9827 1088.3787,-235.1391"/>
</g>
<!-- UploadDataToLocal on 
HiveLocation 2 -->
<g id="node17" class="node">
<title>UploadDataToLocal on 
HiveLocation 2</title>
<polygon fill="none" stroke="#0000ff" points="1300.5436,-237.4019 1137.4596,-237.4019 1137.4596,-196.1981 1300.5436,-196.1981 1300.5436,-237.4019"/>
<text text-anchor="middle" x="1219.0016" y="-221" font-family="Helvetica,sans-Serif" font-size="14.00" fill="#0000ff">UploadDataToLocal on </text>
<text text-anchor="middle" x="1219.0016" y="-204.2" font-family="Helvetica,sans-Serif" font-size="14.00" fill="#0000ff">HiveLocation 2</text>
</g>
<!-- DataFromRemoteDownloaded on 
RemoteImportStorageSetup 1&#45;&gt;UploadDataToLocal on 
HiveLocation 2 -->
<g id="edge22" class="edge">
<title>DataFromRemoteDownloaded on 
RemoteImportStorageSetup 1&#45;&gt;UploadDataToLocal on 
HiveLocation 2</title>
<path fill="none" stroke="#0000ff" d="M1336.2119,-216.8C1327.7009,-216.8 1319.1802,-216.8 1310.8334,-216.8"/>
<polygon fill="#0000ff" stroke="#0000ff" points="1310.7509,-213.3001 1300.7508,-216.8 1310.7508,-220.3001 1310.7509,-213.3001"/>
</g>
<!-- DownloadDataFromRemote on 
RemoteLocation 2 -->
<g id="node4" class="node">
<title>DownloadDataFromRemote on 
RemoteLocation 2</title>
<polygon fill="none" stroke="#0000ff" points="1813.5969,-77.4019 1600.9895,-77.4019 1600.9895,-36.1981 1813.5969,-36.1981 1813.5969,-77.4019"/>
<text text-anchor="middle" x="1707.2932" y="-61" font-family="Helvetica,sans-Serif" font-size="14.00" fill="#0000ff">DownloadDataFromRemote on </text>
<text text-anchor="middle" x="1707.2932" y="-44.2" font-family="Helvetica,sans-Serif" font-size="14.00" fill="#0000ff">RemoteLocation 2</text>
</g>
<!-- DataFromRemoteDownloaded on 
RemoteImportStorageSetup 2 -->
<g id="node5" class="node">
<title>DataFromRemoteDownloaded on 
RemoteImportStorageSetup 2</title>
<polygon fill="none" stroke="#0000ff" points="1565.0761,-101.4019 1336.3379,-101.4019 1336.3379,-60.1981 1565.0761,-60.1981 1565.0761,-101.4019"/>
<text text-anchor="middle" x="1450.707" y="-85" font-family="Helvetica,sans-Serif" font-size="14.00" fill="#0000ff">DataFromRemoteDownloaded on </text>
<text text-anchor="middle" x="1450.707" y="-68.2" font-family="Helvetica,sans-Serif" font-size="14.00" fill="#0000ff">RemoteImportStorageSetup 2</text>
</g>
<!-- DownloadDataFromRemote on 
RemoteLocation 2&#45;&gt;DataFromRemoteDownloaded on 
RemoteImportStorageSetup 2 -->
<g id="edge2" class="edge">
<title>DownloadDataFromRemote on 
RemoteLocation 2&#45;&gt;DataFromRemoteDownloaded on 
RemoteImportStorageSetup 2</title>
<path fill="none" stroke="#0000ff" d="M1600.7067,-66.7697C1592.2947,-67.5565 1583.7546,-68.3553 1575.2365,-69.152"/>
<polygon fill="#0000ff" stroke="#0000ff" points="1574.8869,-65.6694 1565.2563,-70.0855 1575.5388,-72.6389 1574.8869,-65.6694"/>
</g>
<!-- ReplicatedData on 
RemoteImportStorageSetup 2 -->
<g id="node14" class="node">
<title>ReplicatedData on 
RemoteImportStorageSetup 2</title>
<polygon fill="none" stroke="#0000ff" points="1101.4504,-101.4019 899.5712,-101.4019 899.5712,-60.1981 1101.4504,-60.1981 1101.4504,-101.4019"/>
<text text-anchor="middle" x="1000.5108" y="-85" font-family="Helvetica,sans-Serif" font-size="14.00" fill="#0000ff">ReplicatedData on </text>
<text text-anchor="middle" x="1000.5108" y="-68.2" font-family="Helvetica,sans-Serif" font-size="14.00" fill="#0000ff">RemoteImportStorageSetup 2</text>
</g>
<!-- DownloadDataFromRemote on 
RemoteLocation 2&#45;&gt;ReplicatedData on 
RemoteImportStorageSetup 2 -->
<g id="edge17" class="edge">
<title>DownloadDataFromRemote on 
RemoteLocation 2&#45;&gt;ReplicatedData on 
RemoteImportStorageSetup 2</title>
<path fill="none" stroke="#0000ff" d="M1600.8599,-48.199C1486.1211,-40.6696 1298.2941,-33.3951 1137.4806,-50.8 1122.293,-52.4438 1106.3208,-55.0843 1090.8614,-58.1343"/>
<polygon fill="#0000ff" stroke="#0000ff" points="1089.8871,-54.7609 1080.7898,-60.1912 1091.2879,-61.6193 1089.8871,-54.7609"/>
</g>
<!-- DataFromRemoteDownloaded on 
RemoteImportStorageSetup 2&#45;&gt;ReplicatedData on 
RemoteImportStorageSetup 2 -->
<g id="edge16" class="edge">
<title>DataFromRemoteDownloaded on 
RemoteImportStorageSetup 2&#45;&gt;ReplicatedData on 
RemoteImportStorageSetup 2</title>
<path fill="none" stroke="#0000ff" d="M1362.5959,-101.4116C1342.3196,-105.3137 1320.7643,-108.7981 1300.5226,-110.8 1228.4113,-117.9318 1209.523,-118.5972 1137.4806,-110.8 1122.293,-109.1562 1106.3208,-106.5157 1090.8614,-103.4657"/>
<polygon fill="#0000ff" stroke="#0000ff" points="1091.2879,-99.9807 1080.7898,-101.4088 1089.8871,-106.8391 1091.2879,-99.9807"/>
</g>
<!-- UploadDataToLocal on 
HiveLocation 1 -->
<g id="node18" class="node">
<title>UploadDataToLocal on 
HiveLocation 1</title>
<polygon fill="none" stroke="#0000ff" points="1300.5436,-101.4019 1137.4596,-101.4019 1137.4596,-60.1981 1300.5436,-60.1981 1300.5436,-101.4019"/>
<text text-anchor="middle" x="1219.0016" y="-85" font-family="Helvetica,sans-Serif" font-size="14.00" fill="#0000ff">UploadDataToLocal on </text>
<text text-anchor="middle" x="1219.0016" y="-68.2" font-family="Helvetica,sans-Serif" font-size="14.00" fill="#0000ff">HiveLocation 1</text>
</g>
<!-- DataFromRemoteDownloaded on 
RemoteImportStorageSetup 2&#45;&gt;UploadDataToLocal on 
HiveLocation 1 -->
<g id="edge21" class="edge">
<title>DataFromRemoteDownloaded on 
RemoteImportStorageSetup 2&#45;&gt;UploadDataToLocal on 
HiveLocation 1</title>
<path fill="none" stroke="#0000ff" d="M1336.2119,-80.8C1327.7009,-80.8 1319.1802,-80.8 1310.8334,-80.8"/>
<polygon fill="#0000ff" stroke="#0000ff" points="1310.7509,-77.3001 1300.7508,-80.8 1310.7508,-84.3001 1310.7509,-77.3001"/>
</g>
<!-- IsAuditedTable on 
StaticDataTable 1 -->
<g id="node6" class="node">
<title>IsAuditedTable on 
StaticDataTable 1</title>
<polygon fill="none" stroke="#0000ff" points="306.7182,-165.4019 174.3012,-165.4019 174.3012,-124.1981 306.7182,-124.1981 306.7182,-165.4019"/>
<text text-anchor="middle" x="240.5097" y="-149" font-family="Helvetica,sans-Serif" font-size="14.00" fill="#0000ff">IsAuditedTable on </text>
<text text-anchor="middle" x="240.5097" y="-132.2" font-family="Helvetica,sans-Serif" font-size="14.00" fill="#0000ff">StaticDataTable 1</text>
</g>
<!-- IsAuditedTable on 
StaticDataTable 1&#45;&gt;IsAudited on 
ParsedDataSetup 1 -->
<g id="edge3" class="edge">
<title>IsAuditedTable on 
StaticDataTable 1&#45;&gt;IsAudited on 
ParsedDataSetup 1</title>
<path fill="none" stroke="#0000ff" d="M174.2297,-133.2012C165.7645,-131.7198 157.0324,-130.1918 148.3877,-128.679"/>
<polygon fill="#0000ff" stroke="#0000ff" points="148.7546,-125.1901 138.301,-126.9138 147.5479,-132.0853 148.7546,-125.1901"/>
</g>
<!-- IsAuditedTable on 
StaticDataTable 2 -->
<g id="node7" class="node">
<title>IsAuditedTable on 
StaticDataTable 2</title>
<polygon fill="none" stroke="#0000ff" points="306.7182,-105.4019 174.3012,-105.4019 174.3012,-64.1981 306.7182,-64.1981 306.7182,-105.4019"/>
<text text-anchor="middle" x="240.5097" y="-89" font-family="Helvetica,sans-Serif" font-size="14.00" fill="#0000ff">IsAuditedTable on </text>
<text text-anchor="middle" x="240.5097" y="-72.2" font-family="Helvetica,sans-Serif" font-size="14.00" fill="#0000ff">StaticDataTable 2</text>
</g>
<!-- IsAuditedTable on 
StaticDataTable 2&#45;&gt;IsAudited on 
ParsedDataSetup 1 -->
<g id="edge4" class="edge">
<title>IsAuditedTable on 
StaticDataTable 2&#45;&gt;IsAudited on 
ParsedDataSetup 1</title>
<path fill="none" stroke="#0000ff" d="M174.2297,-96.3988C165.7645,-97.8802 157.0324,-99.4082 148.3877,-100.921"/>
<polygon fill="#0000ff" stroke="#0000ff" points="147.5479,-97.5147 138.301,-102.6862 148.7546,-104.4099 147.5479,-97.5147"/>
</g>
<!-- IsConsistent on 
ParsedDataSetup 1 -->
<g id="node8" class="node">
<title>IsConsistent on 
ParsedDataSetup 1</title>
<polygon fill="none" stroke="#0000ff" points="481.0973,-135.4019 342.7859,-135.4019 342.7859,-94.1981 481.0973,-94.1981 481.0973,-135.4019"/>
<text text-anchor="middle" x="411.9416" y="-119" font-family="Helvetica,sans-Serif" font-size="14.00" fill="#0000ff">IsConsistent on </text>
<text text-anchor="middle" x="411.9416" y="-102.2" font-family="Helvetica,sans-Serif" font-size="14.00" fill="#0000ff">ParsedDataSetup 1</text>
</g>
<!-- IsConsistent on 
ParsedDataSetup 1&#45;&gt;IsAuditedTable on 
StaticDataTable 1 -->
<g id="edge5" class="edge">
<title>IsConsistent on 
ParsedDataSetup 1&#45;&gt;IsAuditedTable on 
StaticDataTable 1</title>
<path fill="none" stroke="#0000ff" d="M342.7078,-126.9157C334.2253,-128.4001 325.519,-129.9237 316.9384,-131.4252"/>
<polygon fill="#0000ff" stroke="#0000ff" points="316.191,-128.0028 306.944,-133.1742 317.3977,-134.898 316.191,-128.0028"/>
</g>
<!-- IsConsistent on 
ParsedDataSetup 1&#45;&gt;IsAuditedTable on 
StaticDataTable 2 -->
<g id="edge6" class="edge">
<title>IsConsistent on 
ParsedDataSetup 1&#45;&gt;IsAuditedTable on 
StaticDataTable 2</title>
<path fill="none" stroke="#0000ff" d="M342.7078,-102.6843C334.2253,-101.1999 325.519,-99.6763 316.9384,-98.1748"/>
<polygon fill="#0000ff" stroke="#0000ff" points="317.3977,-94.702 306.944,-96.4258 316.191,-101.5972 317.3977,-94.702"/>
</g>
<!-- ReplicatedDataSets on 
DataSet 1 -->
<g id="node9" class="node">
<title>ReplicatedDataSets on 
DataSet 1</title>
<polygon fill="none" stroke="#0000ff" points="680.0824,-167.4019 516.9984,-167.4019 516.9984,-126.1981 680.0824,-126.1981 680.0824,-167.4019"/>
<text text-anchor="middle" x="598.5404" y="-151" font-family="Helvetica,sans-Serif" font-size="14.00" fill="#0000ff">ReplicatedDataSets on </text>
<text text-anchor="middle" x="598.5404" y="-134.2" font-family="Helvetica,sans-Serif" font-size="14.00" fill="#0000ff">DataSet 1</text>
</g>
<!-- ReplicatedDataSets on 
DataSet 1&#45;&gt;IsConsistent on 
ParsedDataSetup 1 -->
<g id="edge7" class="edge">
<title>ReplicatedDataSets on 
DataSet 1&#45;&gt;IsConsistent on 
ParsedDataSetup 1</title>
<path fill="none" stroke="#0000ff" d="M516.9669,-132.8109C508.3676,-131.3362 499.6332,-129.8383 491.0623,-128.3685"/>
<polygon fill="#0000ff" stroke="#0000ff" points="491.5414,-124.8996 481.0937,-126.659 490.3582,-131.7989 491.5414,-124.8996"/>
</g>
<!-- ReplicatedDataSets on 
DataSet 2 -->
<g id="node10" class="node">
<title>ReplicatedDataSets on 
DataSet 2</title>
<polygon fill="none" stroke="#0000ff" points="680.0824,-105.4019 516.9984,-105.4019 516.9984,-64.1981 680.0824,-64.1981 680.0824,-105.4019"/>
<text text-anchor="middle" x="598.5404" y="-89" font-family="Helvetica,sans-Serif" font-size="14.00" fill="#0000ff">ReplicatedDataSets on </text>
<text text-anchor="middle" x="598.5404" y="-72.2" font-family="Helvetica,sans-Serif" font-size="14.00" fill="#0000ff">DataSet 2</text>
</g>
<!-- ReplicatedDataSets on 
DataSet 2&#45;&gt;IsConsistent on 
ParsedDataSetup 1 -->
<g id="edge8" class="edge">
<title>ReplicatedDataSets on 
DataSet 2&#45;&gt;IsConsistent on 
ParsedDataSetup 1</title>
<path fill="none" stroke="#0000ff" d="M516.9669,-97.9148C508.3676,-99.2973 499.6332,-100.7016 491.0623,-102.0796"/>
<polygon fill="#0000ff" stroke="#0000ff" points="490.4113,-98.6392 481.0937,-103.6822 491.5225,-105.5504 490.4113,-98.6392"/>
</g>
<!-- ReplicatedAssets on 
Asset 1 -->
<g id="node12" class="node">
<title>ReplicatedAssets on 
Asset 1</title>
<polygon fill="none" stroke="#0000ff" points="863.7816,-168.4019 715.8208,-168.4019 715.8208,-127.1981 863.7816,-127.1981 863.7816,-168.4019"/>
<text text-anchor="middle" x="789.8012" y="-152" font-family="Helvetica,sans-Serif" font-size="14.00" fill="#0000ff">ReplicatedAssets on </text>
<text text-anchor="middle" x="789.8012" y="-135.2" font-family="Helvetica,sans-Serif" font-size="14.00" fill="#0000ff">Asset 1</text>
</g>
<!-- ReplicatedData on 
RemoteImportStorageSetup 1&#45;&gt;ReplicatedAssets on 
Asset 1 -->
<g id="edge9" class="edge">
<title>ReplicatedData on 
RemoteImportStorageSetup 1&#45;&gt;ReplicatedAssets on 
Asset 1</title>
<path fill="none" stroke="#0000ff" d="M936.4328,-195.1208C913.4469,-187.7028 887.3473,-179.28 863.6032,-171.6173"/>
<polygon fill="#0000ff" stroke="#0000ff" points="864.5291,-168.2384 853.9375,-168.498 862.3792,-174.9001 864.5291,-168.2384"/>
</g>
<!-- ReplicatedAssets on 
Asset 1&#45;&gt;ReplicatedDataSets on 
DataSet 1 -->
<g id="edge19" class="edge">
<title>ReplicatedAssets on 
Asset 1&#45;&gt;ReplicatedDataSets on 
DataSet 1</title>
<path fill="none" stroke="#0000ff" d="M715.8548,-147.4134C707.4683,-147.3695 698.8469,-147.3244 690.2675,-147.2796"/>
<polygon fill="#0000ff" stroke="#0000ff" points="690.2501,-143.7796 680.2319,-147.2271 690.2134,-150.7795 690.2501,-143.7796"/>
</g>
<!-- ReplicatedSchema on 
StaticDataTable 1 -->
<g id="node13" class="node">
<title>ReplicatedSchema on 
StaticDataTable 1</title>
<polygon fill="none" stroke="#0000ff" points="1078.8257,-168.4019 922.1959,-168.4019 922.1959,-127.1981 1078.8257,-127.1981 1078.8257,-168.4019"/>
<text text-anchor="middle" x="1000.5108" y="-152" font-family="Helvetica,sans-Serif" font-size="14.00" fill="#0000ff">ReplicatedSchema on </text>
<text text-anchor="middle" x="1000.5108" y="-135.2" font-family="Helvetica,sans-Serif" font-size="14.00" fill="#0000ff">StaticDataTable 1</text>
</g>
<!-- ReplicatedSchema on 
StaticDataTable 1&#45;&gt;ReplicatedAssets on 
Asset 1 -->
<g id="edge10" class="edge">
<title>ReplicatedSchema on 
StaticDataTable 1&#45;&gt;ReplicatedAssets on 
Asset 1</title>
<path fill="none" stroke="#0000ff" d="M922.0503,-147.8C906.4052,-147.8 889.912,-147.8 874.0808,-147.8"/>
<polygon fill="#0000ff" stroke="#0000ff" points="873.7886,-144.3001 863.7886,-147.8 873.7886,-151.3001 873.7886,-144.3001"/>
</g>
<!-- ReplicatedAssets on 
Asset 2 -->
<g id="node15" class="node">
<title>ReplicatedAssets on 
Asset 2</title>
<polygon fill="none" stroke="#0000ff" points="863.7816,-101.4019 715.8208,-101.4019 715.8208,-60.1981 863.7816,-60.1981 863.7816,-101.4019"/>
<text text-anchor="middle" x="789.8012" y="-85" font-family="Helvetica,sans-Serif" font-size="14.00" fill="#0000ff">ReplicatedAssets on </text>
<text text-anchor="middle" x="789.8012" y="-68.2" font-family="Helvetica,sans-Serif" font-size="14.00" fill="#0000ff">Asset 2</text>
</g>
<!-- ReplicatedData on 
RemoteImportStorageSetup 2&#45;&gt;ReplicatedAssets on 
Asset 2 -->
<g id="edge11" class="edge">
<title>ReplicatedData on 
RemoteImportStorageSetup 2&#45;&gt;ReplicatedAssets on 
Asset 2</title>
<path fill="none" stroke="#0000ff" d="M899.4761,-80.8C890.916,-80.8 882.3177,-80.8 873.9079,-80.8"/>
<polygon fill="#0000ff" stroke="#0000ff" points="873.7586,-77.3001 863.7585,-80.8 873.7585,-84.3001 873.7586,-77.3001"/>
</g>
<!-- ReplicatedAssets on 
Asset 2&#45;&gt;ReplicatedDataSets on 
DataSet 2 -->
<g id="edge20" class="edge">
<title>ReplicatedAssets on 
Asset 2&#45;&gt;ReplicatedDataSets on 
DataSet 2</title>
<path fill="none" stroke="#0000ff" d="M715.8548,-82.3465C707.4683,-82.5219 698.8469,-82.7022 690.2675,-82.8816"/>
<polygon fill="#0000ff" stroke="#0000ff" points="690.1565,-79.3831 680.2319,-83.0915 690.3029,-86.3816 690.1565,-79.3831"/>
</g>
<!-- ReplicatedSchema on 
StaticDataTable 2 -->
<g id="node16" class="node">
<title>ReplicatedSchema on 
StaticDataTable 2</title>
<polygon fill="none" stroke="#0000ff" points="1078.8257,-41.4019 922.1959,-41.4019 922.1959,-.1981 1078.8257,-.1981 1078.8257,-41.4019"/>
<text text-anchor="middle" x="1000.5108" y="-25" font-family="Helvetica,sans-Serif" font-size="14.00" fill="#0000ff">ReplicatedSchema on </text>
<text text-anchor="middle" x="1000.5108" y="-8.2" font-family="Helvetica,sans-Serif" font-size="14.00" fill="#0000ff">StaticDataTable 2</text>
</g>
<!-- ReplicatedSchema on 
StaticDataTable 2&#45;&gt;ReplicatedAssets on 
Asset 2 -->
<g id="edge12" class="edge">
<title>ReplicatedSchema on 
StaticDataTable 2&#45;&gt;ReplicatedAssets on 
Asset 2</title>
<path fill="none" stroke="#0000ff" d="M927.9965,-41.4486C910.0347,-46.5632 890.658,-52.0808 872.26,-57.3197"/>
<polygon fill="#0000ff" stroke="#0000ff" points="871.1083,-54.0084 862.4492,-60.1133 873.0254,-60.7408 871.1083,-54.0084"/>
</g>
<!-- UploadDataToLocal on 
HiveLocation 2&#45;&gt;ReplicatedData on 
RemoteImportStorageSetup 1 -->
<g id="edge15" class="edge">
<title>UploadDataToLocal on 
HiveLocation 2&#45;&gt;ReplicatedData on 
RemoteImportStorageSetup 1</title>
<path fill="none" stroke="#0000ff" d="M1137.333,-216.4262C1128.9695,-216.3879 1120.3754,-216.3486 1111.7646,-216.3092"/>
<polygon fill="#0000ff" stroke="#0000ff" points="1111.6774,-212.8089 1101.6614,-216.263 1111.6453,-219.8088 1111.6774,-212.8089"/>
</g>
<!-- UploadDataToLocal on 
HiveLocation 1&#45;&gt;ReplicatedData on 
RemoteImportStorageSetup 2 -->
<g id="edge18" class="edge">
<title>UploadDataToLocal on 
HiveLocation 1&#45;&gt;ReplicatedData on 
RemoteImportStorageSetup 2</title>
<path fill="none" stroke="#0000ff" d="M1137.333,-80.8C1128.9695,-80.8 1120.3754,-80.8 1111.7646,-80.8"/>
<polygon fill="#0000ff" stroke="#0000ff" points="1111.6614,-77.3001 1101.6614,-80.8 1111.6614,-84.3001 1111.6614,-77.3001"/>
</g>
</g>
</svg>
