<?xml version="1.0" encoding="UTF-8" standalone="no"?>
<!DOCTYPE svg PUBLIC "-//W3C//DTD SVG 1.1//EN"
 "http://www.w3.org/Graphics/SVG/1.1/DTD/svg11.dtd">
<!-- Generated by graphviz version 2.40.1 (20161225.0304)
 -->
<!-- Title: boxes_and_circles Pages: 1 -->
<svg width="2485pt" height="1161pt"
 viewBox="0.00 0.00 2484.61 1160.80" xmlns="http://www.w3.org/2000/svg" xmlns:xlink="http://www.w3.org/1999/xlink">
<g id="graph0" class="graph" transform="scale(1 1) rotate(0) translate(4 1156.8)">
<title>boxes_and_circles</title>
<polygon fill="#ffffff" stroke="transparent" points="-4,4 -4,-1156.8 2480.6092,-1156.8 2480.6092,4 -4,4"/>
<!-- AccessPolicy -->
<g id="node1" class="node">
<title>AccessPolicy</title>
<polygon fill="#c0c0c0" stroke="#000000" points="1208.9093,-756.2 1110.0041,-756.2 1110.0041,-720.2 1208.9093,-720.2 1208.9093,-756.2"/>
<text text-anchor="middle" x="1159.4567" y="-734" font-family="Helvetica,sans-Serif" font-size="14.00" fill="#000000">AccessPolicy</text>
</g>
<!-- ApproveAccessSelector -->
<g id="node2" class="node">
<title>ApproveAccessSelector</title>
<ellipse fill="#ffffff" stroke="#000000" cx="1159.4567" cy="-665.2" rx="113.561" ry="18"/>
<text text-anchor="middle" x="1159.4567" y="-661" font-family="Helvetica,sans-Serif" font-size="14.00" fill="#000000">ApproveAccessSelector</text>
</g>
<!-- AccessPolicy&#45;&gt;ApproveAccessSelector -->
<g id="edge1" class="edge">
<title>AccessPolicy&#45;&gt;ApproveAccessSelector</title>
<path fill="none" stroke="#000000" d="M1159.4567,-720.1551C1159.4567,-712.0828 1159.4567,-702.3764 1159.4567,-693.3817"/>
<polygon fill="#000000" stroke="#000000" points="1162.9568,-693.2903 1159.4567,-683.2904 1155.9568,-693.2904 1162.9568,-693.2903"/>
</g>
<!-- Asset -->
<g id="node3" class="node">
<title>Asset</title>
<polygon fill="#c0c0c0" stroke="#000000" points="1092.4567,-756.2 1038.4567,-756.2 1038.4567,-720.2 1092.4567,-720.2 1092.4567,-756.2"/>
<text text-anchor="middle" x="1065.4567" y="-734" font-family="Helvetica,sans-Serif" font-size="14.00" fill="#000000">Asset</text>
</g>
<!-- StaticDataTable -->
<g id="node4" class="node">
<title>StaticDataTable</title>
<ellipse fill="#ffffff" stroke="#000000" cx="948.4567" cy="-665.2" rx="79.9456" ry="18"/>
<text text-anchor="middle" x="948.4567" y="-661" font-family="Helvetica,sans-Serif" font-size="14.00" fill="#000000">StaticDataTable</text>
</g>
<!-- Asset&#45;&gt;StaticDataTable -->
<g id="edge2" class="edge">
<title>Asset&#45;&gt;StaticDataTable</title>
<path fill="none" stroke="#000000" d="M1038.3205,-721.2688C1022.3395,-711.2978 1001.9251,-698.5606 984.5935,-687.7469"/>
<polygon fill="#000000" stroke="#000000" points="986.1879,-684.6163 975.8511,-682.2922 982.4824,-690.5551 986.1879,-684.6163"/>
</g>
<!-- DataSchema -->
<g id="node28" class="node">
<title>DataSchema</title>
<polygon fill="#c0c0c0" stroke="#000000" points="1085.8641,-594.4 989.0493,-594.4 989.0493,-558.4 1085.8641,-558.4 1085.8641,-594.4"/>
<text text-anchor="middle" x="1037.4567" y="-572.2" font-family="Helvetica,sans-Serif" font-size="14.00" fill="#000000">DataSchema</text>
</g>
<!-- StaticDataTable&#45;&gt;DataSchema -->
<g id="edge4" class="edge">
<title>StaticDataTable&#45;&gt;DataSchema</title>
<path fill="none" stroke="#000000" d="M966.4672,-647.23C979.5297,-634.1968 997.3802,-616.3865 1011.9131,-601.8862"/>
<polygon fill="#000000" stroke="#000000" points="1014.5606,-604.1889 1019.1675,-594.6481 1009.6164,-599.2335 1014.5606,-604.1889"/>
<text text-anchor="middle" x="1022.4462" y="-616.6" font-family="Times,serif" font-size="14.00" fill="#000000">schema</text>
</g>
<!-- StorageSetup -->
<g id="node34" class="node">
<title>StorageSetup</title>
<polygon fill="#c0c0c0" stroke="#000000" points="971.0507,-594.4 869.8627,-594.4 869.8627,-558.4 971.0507,-558.4 971.0507,-594.4"/>
<text text-anchor="middle" x="920.4567" y="-572.2" font-family="Helvetica,sans-Serif" font-size="14.00" fill="#000000">StorageSetup</text>
</g>
<!-- StaticDataTable&#45;&gt;StorageSetup -->
<g id="edge3" class="edge">
<title>StaticDataTable&#45;&gt;StorageSetup</title>
<path fill="none" stroke="#000000" d="M942.7905,-647.23C938.9071,-634.9142 933.6787,-618.3328 929.257,-604.3095"/>
<polygon fill="#000000" stroke="#000000" points="932.5559,-603.1326 926.2106,-594.6481 925.8799,-605.2377 932.5559,-603.1326"/>
<text text-anchor="middle" x="952.2316" y="-616.6" font-family="Times,serif" font-size="14.00" fill="#000000">setup</text>
</g>
<!-- DataCompression -->
<g id="node5" class="node">
<title>DataCompression</title>
<polygon fill="#c0c0c0" stroke="#000000" points="643.4665,-109 515.4469,-109 515.4469,-73 643.4665,-73 643.4665,-109"/>
<text text-anchor="middle" x="579.4567" y="-86.8" font-family="Helvetica,sans-Serif" font-size="14.00" fill="#000000">DataCompression</text>
</g>
<!-- GzipCompression -->
<g id="node6" class="node">
<title>GzipCompression</title>
<ellipse fill="#ffffff" stroke="#000000" cx="591.4567" cy="-18" rx="87.5187" ry="18"/>
<text text-anchor="middle" x="591.4567" y="-13.8" font-family="Helvetica,sans-Serif" font-size="14.00" fill="#000000">GzipCompression</text>
</g>
<!-- DataCompression&#45;&gt;GzipCompression -->
<g id="edge5" class="edge">
<title>DataCompression&#45;&gt;GzipCompression</title>
<path fill="none" stroke="#000000" d="M582.423,-72.9551C583.7499,-64.8828 585.3455,-55.1764 586.8241,-46.1817"/>
<polygon fill="#000000" stroke="#000000" points="590.3144,-46.5257 588.4829,-36.0904 583.4071,-45.3902 590.3144,-46.5257"/>
</g>
<!-- ParsedDataSetup -->
<g id="node7" class="node">
<title>ParsedDataSetup</title>
<ellipse fill="#ffffff" stroke="#000000" cx="1247.4567" cy="-915.8" rx="87.4912" ry="18"/>
<text text-anchor="middle" x="1247.4567" y="-911.6" font-family="Helvetica,sans-Serif" font-size="14.00" fill="#000000">ParsedDataSetup</text>
</g>
<!-- DataSet -->
<g id="node8" class="node">
<title>DataSet</title>
<ellipse fill="#ffffff" stroke="#000000" cx="1125.4567" cy="-827" rx="45.8407" ry="18"/>
<text text-anchor="middle" x="1125.4567" y="-822.8" font-family="Helvetica,sans-Serif" font-size="14.00" fill="#000000">DataSet</text>
</g>
<!-- ParsedDataSetup&#45;&gt;DataSet -->
<g id="edge8" class="edge">
<title>ParsedDataSetup&#45;&gt;DataSet</title>
<path fill="none" stroke="#000000" d="M1223.6443,-898.4677C1204.2631,-884.3607 1176.7829,-864.3587 1155.8212,-849.1014"/>
<polygon fill="#000000" stroke="#000000" points="1157.7114,-846.1482 1147.5666,-843.0931 1153.5919,-851.8078 1157.7114,-846.1482"/>
<text text-anchor="middle" x="1219.6138" y="-867.2" font-family="Times,serif" font-size="14.00" fill="#000000">datasets</text>
</g>
<!-- RoleBinding -->
<g id="node27" class="node">
<title>RoleBinding</title>
<ellipse fill="#ffffff" stroke="#000000" cx="1386.4567" cy="-827" rx="63.1731" ry="18"/>
<text text-anchor="middle" x="1386.4567" y="-822.8" font-family="Helvetica,sans-Serif" font-size="14.00" fill="#000000">RoleBinding</text>
</g>
<!-- ParsedDataSetup&#45;&gt;RoleBinding -->
<g id="edge9" class="edge">
<title>ParsedDataSetup&#45;&gt;RoleBinding</title>
<path fill="none" stroke="#000000" d="M1274.5873,-898.4677C1296.6821,-884.3524 1328.0153,-864.3352 1351.9031,-849.0745"/>
<polygon fill="#000000" stroke="#000000" points="1353.7933,-852.0203 1360.3361,-843.6871 1350.0247,-846.1213 1353.7933,-852.0203"/>
<text text-anchor="middle" x="1367.9525" y="-867.2" font-family="Times,serif" font-size="14.00" fill="#000000">role_bindings</text>
</g>
<!-- User -->
<g id="node37" class="node">
<title>User</title>
<ellipse fill="#ffffff" stroke="#000000" cx="1499.4567" cy="-827" rx="31.339" ry="18"/>
<text text-anchor="middle" x="1499.4567" y="-822.8" font-family="Helvetica,sans-Serif" font-size="14.00" fill="#000000">User</text>
</g>
<!-- ParsedDataSetup&#45;&gt;User -->
<g id="edge6" class="edge">
<title>ParsedDataSetup&#45;&gt;User</title>
<path fill="none" stroke="#000000" d="M1318.3133,-905.2297C1347.4795,-899.5858 1381.2141,-891.3582 1410.4567,-879.8 1432.0833,-871.252 1454.5929,-857.8499 1471.564,-846.6875"/>
<polygon fill="#000000" stroke="#000000" points="1473.5476,-849.5714 1479.8998,-841.092 1469.6462,-843.7594 1473.5476,-849.5714"/>
<text text-anchor="middle" x="1457.8389" y="-867.2" font-family="Times,serif" font-size="14.00" fill="#000000">users</text>
</g>
<!-- UserGroup -->
<g id="node38" class="node">
<title>UserGroup</title>
<ellipse fill="#ffffff" stroke="#000000" cx="1247.4567" cy="-827" rx="58.0035" ry="18"/>
<text text-anchor="middle" x="1247.4567" y="-822.8" font-family="Helvetica,sans-Serif" font-size="14.00" fill="#000000">UserGroup</text>
</g>
<!-- ParsedDataSetup&#45;&gt;UserGroup -->
<g id="edge7" class="edge">
<title>ParsedDataSetup&#45;&gt;UserGroup</title>
<path fill="none" stroke="#000000" d="M1247.4567,-897.4006C1247.4567,-885.2949 1247.4567,-869.2076 1247.4567,-855.4674"/>
<polygon fill="#000000" stroke="#000000" points="1250.9568,-855.072 1247.4567,-845.072 1243.9568,-855.0721 1250.9568,-855.072"/>
<text text-anchor="middle" x="1266.5093" y="-867.2" font-family="Times,serif" font-size="14.00" fill="#000000">groups</text>
</g>
<!-- DataSet&#45;&gt;AccessPolicy -->
<g id="edge10" class="edge">
<title>DataSet&#45;&gt;AccessPolicy</title>
<path fill="none" stroke="#000000" d="M1132.3371,-809.03C1137.0526,-796.7142 1143.4014,-780.1328 1148.7706,-766.1095"/>
<polygon fill="#000000" stroke="#000000" points="1152.1627,-767.0385 1152.4698,-756.4481 1145.6255,-764.5354 1152.1627,-767.0385"/>
<text text-anchor="middle" x="1186.4946" y="-778.4" font-family="Times,serif" font-size="14.00" fill="#000000">accessPolicies</text>
</g>
<!-- DataSet&#45;&gt;Asset -->
<g id="edge12" class="edge">
<title>DataSet&#45;&gt;Asset</title>
<path fill="none" stroke="#000000" d="M1113.6026,-809.456C1105.0049,-796.7313 1093.222,-779.2926 1083.4649,-764.8521"/>
<polygon fill="#000000" stroke="#000000" points="1086.1968,-762.6436 1077.6981,-756.3172 1080.3966,-766.5627 1086.1968,-762.6436"/>
<text text-anchor="middle" x="1117.7835" y="-778.4" font-family="Times,serif" font-size="14.00" fill="#000000">assets</text>
</g>
<!-- DatumTemplate -->
<g id="node35" class="node">
<title>DatumTemplate</title>
<polygon fill="#c0c0c0" stroke="#000000" points="1377.0213,-756.2 1261.8921,-756.2 1261.8921,-720.2 1377.0213,-720.2 1377.0213,-756.2"/>
<text text-anchor="middle" x="1319.4567" y="-734" font-family="Helvetica,sans-Serif" font-size="14.00" fill="#000000">DatumTemplate</text>
</g>
<!-- DataSet&#45;&gt;DatumTemplate -->
<g id="edge11" class="edge">
<title>DataSet&#45;&gt;DatumTemplate</title>
<path fill="none" stroke="#000000" d="M1160.6258,-815.3394C1188.5084,-806.0282 1223.853,-794.0516 1230.4567,-791 1248.4524,-782.6841 1267.4698,-771.7275 1283.2847,-761.9516"/>
<polygon fill="#000000" stroke="#000000" points="1285.5841,-764.6408 1292.1943,-756.361 1281.8635,-758.7114 1285.5841,-764.6408"/>
<text text-anchor="middle" x="1308.111" y="-778.4" font-family="Times,serif" font-size="14.00" fill="#000000">datumTemplates</text>
</g>
<!-- CSVEncoding -->
<g id="node9" class="node">
<title>CSVEncoding</title>
<ellipse fill="#ffffff" stroke="#000000" cx="572.4567" cy="-179.8" rx="71.2829" ry="18"/>
<text text-anchor="middle" x="572.4567" y="-175.6" font-family="Helvetica,sans-Serif" font-size="14.00" fill="#000000">CSVEncoding</text>
</g>
<!-- CSVEncoding&#45;&gt;DataCompression -->
<g id="edge13" class="edge">
<title>CSVEncoding&#45;&gt;DataCompression</title>
<path fill="none" stroke="#000000" d="M573.9071,-161.4006C574.8708,-149.175 576.1547,-132.8887 577.2448,-119.0599"/>
<polygon fill="#000000" stroke="#000000" points="580.7353,-119.3162 578.0321,-109.072 573.757,-118.766 580.7353,-119.3162"/>
<text text-anchor="middle" x="612.8368" y="-131.2" font-family="Times,serif" font-size="14.00" fill="#000000">compression</text>
</g>
<!-- FileHeader -->
<g id="node12" class="node">
<title>FileHeader</title>
<polygon fill="#c0c0c0" stroke="#000000" points="437.9039,-109 353.0095,-109 353.0095,-73 437.9039,-73 437.9039,-109"/>
<text text-anchor="middle" x="395.4567" y="-86.8" font-family="Helvetica,sans-Serif" font-size="14.00" fill="#000000">FileHeader</text>
</g>
<!-- CSVEncoding&#45;&gt;FileHeader -->
<g id="edge14" class="edge">
<title>CSVEncoding&#45;&gt;FileHeader</title>
<path fill="none" stroke="#000000" d="M540.4033,-163.719C512.5963,-149.7683 472.0292,-129.416 440.8791,-113.7882"/>
<polygon fill="#000000" stroke="#000000" points="442.0464,-110.4581 431.5387,-109.1022 438.9074,-116.7148 442.0464,-110.4581"/>
<text text-anchor="middle" x="519.1089" y="-131.2" font-family="Times,serif" font-size="14.00" fill="#000000">header</text>
</g>
<!-- Encoding -->
<g id="node10" class="node">
<title>Encoding</title>
<polygon fill="#c0c0c0" stroke="#000000" points="609.8138,-270.8 535.0996,-270.8 535.0996,-234.8 609.8138,-234.8 609.8138,-270.8"/>
<text text-anchor="middle" x="572.4567" y="-248.6" font-family="Helvetica,sans-Serif" font-size="14.00" fill="#000000">Encoding</text>
</g>
<!-- Encoding&#45;&gt;CSVEncoding -->
<g id="edge15" class="edge">
<title>Encoding&#45;&gt;CSVEncoding</title>
<path fill="none" stroke="#000000" d="M572.4567,-234.7551C572.4567,-226.6828 572.4567,-216.9764 572.4567,-207.9817"/>
<polygon fill="#000000" stroke="#000000" points="575.9568,-207.8903 572.4567,-197.8904 568.9568,-207.8904 575.9568,-207.8903"/>
</g>
<!-- ORCEncoding -->
<g id="node11" class="node">
<title>ORCEncoding</title>
<ellipse fill="#ffffff" stroke="#000000" cx="410.4567" cy="-179.8" rx="72.9896" ry="18"/>
<text text-anchor="middle" x="410.4567" y="-175.6" font-family="Helvetica,sans-Serif" font-size="14.00" fill="#000000">ORCEncoding</text>
</g>
<!-- Encoding&#45;&gt;ORCEncoding -->
<g id="edge16" class="edge">
<title>Encoding&#45;&gt;ORCEncoding</title>
<path fill="none" stroke="#000000" d="M534.8835,-235.8688C511.0137,-225.1127 480.0004,-211.1376 454.908,-199.8305"/>
<polygon fill="#000000" stroke="#000000" points="456.1633,-196.5573 445.6083,-195.6399 453.2875,-202.9393 456.1633,-196.5573"/>
</g>
<!-- UpperSnakeCaseCSVHeader -->
<g id="node13" class="node">
<title>UpperSnakeCaseCSVHeader</title>
<ellipse fill="#ffffff" stroke="#000000" cx="346.4567" cy="-18" rx="138.9977" ry="18"/>
<text text-anchor="middle" x="346.4567" y="-13.8" font-family="Helvetica,sans-Serif" font-size="14.00" fill="#000000">UpperSnakeCaseCSVHeader</text>
</g>
<!-- FileHeader&#45;&gt;UpperSnakeCaseCSVHeader -->
<g id="edge17" class="edge">
<title>FileHeader&#45;&gt;UpperSnakeCaseCSVHeader</title>
<path fill="none" stroke="#000000" d="M383.3443,-72.9551C377.5726,-64.3564 370.5562,-53.9034 364.1985,-44.4316"/>
<polygon fill="#000000" stroke="#000000" points="367.0789,-42.4427 358.5995,-36.0904 361.2668,-46.344 367.0789,-42.4427"/>
</g>
<!-- SingleFileLayout -->
<g id="node14" class="node">
<title>SingleFileLayout</title>
<ellipse fill="#ffffff" stroke="#000000" cx="237.4567" cy="-179.8" rx="82.3124" ry="18"/>
<text text-anchor="middle" x="237.4567" y="-175.6" font-family="Helvetica,sans-Serif" font-size="14.00" fill="#000000">SingleFileLayout</text>
</g>
<!-- FileBasedStorageLayout -->
<g id="node15" class="node">
<title>FileBasedStorageLayout</title>
<polygon fill="#c0c0c0" stroke="#000000" points="517.2289,-270.8 347.6845,-270.8 347.6845,-234.8 517.2289,-234.8 517.2289,-270.8"/>
<text text-anchor="middle" x="432.4567" y="-248.6" font-family="Helvetica,sans-Serif" font-size="14.00" fill="#000000">FileBasedStorageLayout</text>
</g>
<!-- FileBasedStorageLayout&#45;&gt;SingleFileLayout -->
<g id="edge18" class="edge">
<title>FileBasedStorageLayout&#45;&gt;SingleFileLayout</title>
<path fill="none" stroke="#000000" d="M384.2544,-234.7551C355.2744,-223.9061 318.4091,-210.1053 288.8722,-199.0478"/>
<polygon fill="#000000" stroke="#000000" points="289.7506,-195.6395 279.1582,-195.4113 287.2964,-202.1952 289.7506,-195.6395"/>
</g>
<!-- StaticHiveTableLayout -->
<g id="node16" class="node">
<title>StaticHiveTableLayout</title>
<ellipse fill="#ffffff" stroke="#000000" cx="1029.4567" cy="-179.8" rx="107.7545" ry="18"/>
<text text-anchor="middle" x="1029.4567" y="-175.6" font-family="Helvetica,sans-Serif" font-size="14.00" fill="#000000">StaticHiveTableLayout</text>
</g>
<!-- DailyGranularity -->
<g id="node17" class="node">
<title>DailyGranularity</title>
<ellipse fill="#ffffff" stroke="#000000" cx="782.4567" cy="-18" rx="79.9069" ry="18"/>
<text text-anchor="middle" x="782.4567" y="-13.8" font-family="Helvetica,sans-Serif" font-size="14.00" fill="#000000">DailyGranularity</text>
</g>
<!-- Granularity -->
<g id="node18" class="node">
<title>Granularity</title>
<polygon fill="#c0c0c0" stroke="#000000" points="824.9039,-109 740.0095,-109 740.0095,-73 824.9039,-73 824.9039,-109"/>
<text text-anchor="middle" x="782.4567" y="-86.8" font-family="Helvetica,sans-Serif" font-size="14.00" fill="#000000">Granularity</text>
</g>
<!-- Granularity&#45;&gt;DailyGranularity -->
<g id="edge19" class="edge">
<title>Granularity&#45;&gt;DailyGranularity</title>
<path fill="none" stroke="#000000" d="M782.4567,-72.9551C782.4567,-64.8828 782.4567,-55.1764 782.4567,-46.1817"/>
<polygon fill="#000000" stroke="#000000" points="785.9568,-46.0903 782.4567,-36.0904 778.9568,-46.0904 785.9568,-46.0903"/>
</g>
<!-- DynamicHiveTableLayout -->
<g id="node19" class="node">
<title>DynamicHiveTableLayout</title>
<ellipse fill="#ffffff" stroke="#000000" cx="782.4567" cy="-179.8" rx="121.0621" ry="18"/>
<text text-anchor="middle" x="782.4567" y="-175.6" font-family="Helvetica,sans-Serif" font-size="14.00" fill="#000000">DynamicHiveTableLayout</text>
</g>
<!-- DynamicHiveTableLayout&#45;&gt;Granularity -->
<g id="edge20" class="edge">
<title>DynamicHiveTableLayout&#45;&gt;Granularity</title>
<path fill="none" stroke="#000000" d="M782.4567,-161.4006C782.4567,-149.2949 782.4567,-133.2076 782.4567,-119.4674"/>
<polygon fill="#000000" stroke="#000000" points="785.9568,-119.072 782.4567,-109.072 778.9568,-119.0721 785.9568,-119.072"/>
<text text-anchor="middle" x="813.1678" y="-131.2" font-family="Times,serif" font-size="14.00" fill="#000000">granularity</text>
</g>
<!-- HiveStorageLayout -->
<g id="node20" class="node">
<title>HiveStorageLayout</title>
<polygon fill="#c0c0c0" stroke="#000000" points="805.9917,-270.8 670.9217,-270.8 670.9217,-234.8 805.9917,-234.8 805.9917,-270.8"/>
<text text-anchor="middle" x="738.4567" y="-248.6" font-family="Helvetica,sans-Serif" font-size="14.00" fill="#000000">HiveStorageLayout</text>
</g>
<!-- HiveStorageLayout&#45;&gt;StaticHiveTableLayout -->
<g id="edge21" class="edge">
<title>HiveStorageLayout&#45;&gt;StaticHiveTableLayout</title>
<path fill="none" stroke="#000000" d="M806.316,-235.7769C852.3167,-224.2372 912.9601,-209.0242 959.4146,-197.3707"/>
<polygon fill="#000000" stroke="#000000" points="960.552,-200.6939 969.3998,-194.8658 958.8487,-193.9043 960.552,-200.6939"/>
</g>
<!-- HiveStorageLayout&#45;&gt;DynamicHiveTableLayout -->
<g id="edge22" class="edge">
<title>HiveStorageLayout&#45;&gt;DynamicHiveTableLayout</title>
<path fill="none" stroke="#000000" d="M749.3331,-234.7551C754.463,-226.2441 760.6879,-215.9165 766.3503,-206.5219"/>
<polygon fill="#000000" stroke="#000000" points="769.3883,-208.2617 771.5529,-197.8904 763.3931,-204.6481 769.3883,-208.2617"/>
</g>
<!-- AlluxioLocation -->
<g id="node21" class="node">
<title>AlluxioLocation</title>
<ellipse fill="#ffffff" stroke="#000000" cx="1231.4567" cy="-179.8" rx="75.9338" ry="18"/>
<text text-anchor="middle" x="1231.4567" y="-175.6" font-family="Helvetica,sans-Serif" font-size="14.00" fill="#000000">AlluxioLocation</text>
</g>
<!-- GCSLocation -->
<g id="node22" class="node">
<title>GCSLocation</title>
<ellipse fill="#ffffff" stroke="#000000" cx="68.4567" cy="-179.8" rx="68.4134" ry="18"/>
<text text-anchor="middle" x="68.4567" y="-175.6" font-family="Helvetica,sans-Serif" font-size="14.00" fill="#000000">GCSLocation</text>
</g>
<!-- HiveLocation -->
<g id="node23" class="node">
<title>HiveLocation</title>
<polygon fill="#c0c0c0" stroke="#000000" points="920.8627,-270.8 824.0507,-270.8 824.0507,-234.8 920.8627,-234.8 920.8627,-270.8"/>
<text text-anchor="middle" x="872.4567" y="-248.6" font-family="Helvetica,sans-Serif" font-size="14.00" fill="#000000">HiveLocation</text>
</g>
<!-- HiveLocation&#45;&gt;AlluxioLocation -->
<g id="edge23" class="edge">
<title>HiveLocation&#45;&gt;AlluxioLocation</title>
<path fill="none" stroke="#000000" d="M920.9933,-243.2185C975.7849,-232.3646 1067.5764,-214.0684 1146.4567,-197.8 1152.4676,-196.5603 1158.7149,-195.26 1164.9717,-193.9496"/>
<polygon fill="#000000" stroke="#000000" points="1165.7121,-197.3706 1174.779,-191.8895 1164.273,-190.5201 1165.7121,-197.3706"/>
</g>
<!-- RemoteLocation -->
<g id="node24" class="node">
<title>RemoteLocation</title>
<polygon fill="#c0c0c0" stroke="#000000" points="329.3725,-270.8 211.5409,-270.8 211.5409,-234.8 329.3725,-234.8 329.3725,-270.8"/>
<text text-anchor="middle" x="270.4567" y="-248.6" font-family="Helvetica,sans-Serif" font-size="14.00" fill="#000000">RemoteLocation</text>
</g>
<!-- RemoteLocation&#45;&gt;GCSLocation -->
<g id="edge24" class="edge">
<title>RemoteLocation&#45;&gt;GCSLocation</title>
<path fill="none" stroke="#000000" d="M220.5241,-234.7551C189.5299,-223.5542 149.8287,-209.2067 118.7645,-197.9805"/>
<polygon fill="#000000" stroke="#000000" points="119.5985,-194.5605 109.0042,-194.4533 117.2194,-201.1438 119.5985,-194.5605"/>
</g>
<!-- GlobalPermissionsAdmin -->
<g id="node25" class="node">
<title>GlobalPermissionsAdmin</title>
<ellipse fill="#ffffff" stroke="#000000" cx="1555.4567" cy="-665.2" rx="118.7533" ry="18"/>
<text text-anchor="middle" x="1555.4567" y="-661" font-family="Helvetica,sans-Serif" font-size="14.00" fill="#000000">GlobalPermissionsAdmin</text>
</g>
<!-- Role -->
<g id="node26" class="node">
<title>Role</title>
<polygon fill="#c0c0c0" stroke="#000000" points="1515.4567,-756.2 1461.4567,-756.2 1461.4567,-720.2 1515.4567,-720.2 1515.4567,-756.2"/>
<text text-anchor="middle" x="1488.4567" y="-734" font-family="Helvetica,sans-Serif" font-size="14.00" fill="#000000">Role</text>
</g>
<!-- Role&#45;&gt;GlobalPermissionsAdmin -->
<g id="edge25" class="edge">
<title>Role&#45;&gt;GlobalPermissionsAdmin</title>
<path fill="none" stroke="#000000" d="M1505.0185,-720.1551C1513.2132,-711.2265 1523.2429,-700.2987 1532.1938,-690.5461"/>
<polygon fill="#000000" stroke="#000000" points="1534.9021,-692.7714 1539.0854,-683.0374 1529.745,-688.0381 1534.9021,-692.7714"/>
</g>
<!-- RoleBinding&#45;&gt;Role -->
<g id="edge26" class="edge">
<title>RoleBinding&#45;&gt;Role</title>
<path fill="none" stroke="#000000" d="M1406.1233,-809.8785C1421.3848,-796.5921 1442.7579,-777.9848 1459.9031,-763.0584"/>
<polygon fill="#000000" stroke="#000000" points="1462.2018,-765.6978 1467.4459,-756.4917 1457.6055,-760.4182 1462.2018,-765.6978"/>
<text text-anchor="middle" x="1457.3396" y="-778.4" font-family="Times,serif" font-size="14.00" fill="#000000">role</text>
</g>
<!-- TabularSchema -->
<g id="node29" class="node">
<title>TabularSchema</title>
<ellipse fill="#ffffff" stroke="#000000" cx="993.4567" cy="-503.4" rx="79.3677" ry="18"/>
<text text-anchor="middle" x="993.4567" y="-499.2" font-family="Helvetica,sans-Serif" font-size="14.00" fill="#000000">TabularSchema</text>
</g>
<!-- DataSchema&#45;&gt;TabularSchema -->
<g id="edge27" class="edge">
<title>DataSchema&#45;&gt;TabularSchema</title>
<path fill="none" stroke="#000000" d="M1026.5803,-558.3551C1021.4119,-549.7801 1015.1319,-539.3611 1009.4354,-529.9102"/>
<polygon fill="#000000" stroke="#000000" points="1012.3678,-527.9952 1004.208,-521.2374 1006.3726,-531.6087 1012.3678,-527.9952"/>
</g>
<!-- HiveTableStorage -->
<g id="node30" class="node">
<title>HiveTableStorage</title>
<ellipse fill="#ffffff" stroke="#000000" cx="688.4567" cy="-341.6" rx="88.1135" ry="18"/>
<text text-anchor="middle" x="688.4567" y="-337.4" font-family="Helvetica,sans-Serif" font-size="14.00" fill="#000000">HiveTableStorage</text>
</g>
<!-- HiveTableStorage&#45;&gt;Encoding -->
<g id="edge30" class="edge">
<title>HiveTableStorage&#45;&gt;Encoding</title>
<path fill="none" stroke="#000000" d="M665.5388,-324.056C647.9756,-310.611 623.5376,-291.9033 604.1087,-277.0302"/>
<polygon fill="#000000" stroke="#000000" points="606.1914,-274.2167 596.1234,-270.9172 601.9363,-279.775 606.1914,-274.2167"/>
<text text-anchor="middle" x="667.1166" y="-293" font-family="Times,serif" font-size="14.00" fill="#000000">encoding</text>
</g>
<!-- HiveTableStorage&#45;&gt;HiveStorageLayout -->
<g id="edge29" class="edge">
<title>HiveTableStorage&#45;&gt;HiveStorageLayout</title>
<path fill="none" stroke="#000000" d="M696.7905,-323.2112C701.6327,-312.9202 708.0327,-299.9552 714.4609,-288.8 716.2399,-285.7128 718.1836,-282.5336 720.1698,-279.4025"/>
<polygon fill="#000000" stroke="#000000" points="723.2367,-281.1074 725.7786,-270.8219 717.3774,-277.2773 723.2367,-281.1074"/>
<text text-anchor="middle" x="732.9546" y="-293" font-family="Times,serif" font-size="14.00" fill="#000000">layout</text>
</g>
<!-- HiveTableStorage&#45;&gt;HiveLocation -->
<g id="edge28" class="edge">
<title>HiveTableStorage&#45;&gt;HiveLocation</title>
<path fill="none" stroke="#000000" d="M716.704,-324.4232C735.0806,-313.5741 759.7479,-299.6145 782.3557,-288.8 792.5808,-283.9088 803.6556,-279.1016 814.427,-274.6723"/>
<polygon fill="#000000" stroke="#000000" points="815.8292,-277.8807 823.7857,-270.8845 813.203,-271.392 815.8292,-277.8807"/>
<text text-anchor="middle" x="805.0072" y="-293" font-family="Times,serif" font-size="14.00" fill="#000000">location</text>
</g>
<!-- RemoteStorage -->
<g id="node31" class="node">
<title>RemoteStorage</title>
<ellipse fill="#ffffff" stroke="#000000" cx="484.4567" cy="-341.6" rx="78.8034" ry="18"/>
<text text-anchor="middle" x="484.4567" y="-337.4" font-family="Helvetica,sans-Serif" font-size="14.00" fill="#000000">RemoteStorage</text>
</g>
<!-- RemoteStorage&#45;&gt;Encoding -->
<g id="edge33" class="edge">
<title>RemoteStorage&#45;&gt;Encoding</title>
<path fill="none" stroke="#000000" d="M498.2154,-323.805C506.7007,-313.2332 518.0493,-299.7891 529.1369,-288.8 532.8614,-285.1086 536.9263,-281.384 541.0257,-277.8022"/>
<polygon fill="#000000" stroke="#000000" points="543.5165,-280.2786 548.8708,-271.1363 538.9839,-274.9442 543.5165,-280.2786"/>
<text text-anchor="middle" x="555.1166" y="-293" font-family="Times,serif" font-size="14.00" fill="#000000">encoding</text>
</g>
<!-- RemoteStorage&#45;&gt;FileBasedStorageLayout -->
<g id="edge32" class="edge">
<title>RemoteStorage&#45;&gt;FileBasedStorageLayout</title>
<path fill="none" stroke="#000000" d="M473.9337,-323.63C466.5817,-311.0751 456.6339,-294.0872 448.3235,-279.8955"/>
<polygon fill="#000000" stroke="#000000" points="451.216,-277.9088 443.1425,-271.0481 445.1755,-281.446 451.216,-277.9088"/>
<text text-anchor="middle" x="480.9546" y="-293" font-family="Times,serif" font-size="14.00" fill="#000000">layout</text>
</g>
<!-- RemoteStorage&#45;&gt;RemoteLocation -->
<g id="edge31" class="edge">
<title>RemoteStorage&#45;&gt;RemoteLocation</title>
<path fill="none" stroke="#000000" d="M446.1978,-325.7243C411.9512,-311.5136 361.4125,-290.5424 323.3112,-274.7321"/>
<polygon fill="#000000" stroke="#000000" points="324.4877,-271.431 313.9098,-270.831 321.8048,-277.8965 324.4877,-271.431"/>
<text text-anchor="middle" x="420.0072" y="-293" font-family="Times,serif" font-size="14.00" fill="#000000">location</text>
</g>
<!-- Storage -->
<g id="node32" class="node">
<title>Storage</title>
<polygon fill="#c0c0c0" stroke="#000000" points="699.9749,-432.6 634.9385,-432.6 634.9385,-396.6 699.9749,-396.6 699.9749,-432.6"/>
<text text-anchor="middle" x="667.4567" y="-410.4" font-family="Helvetica,sans-Serif" font-size="14.00" fill="#000000">Storage</text>
</g>
<!-- Storage&#45;&gt;HiveTableStorage -->
<g id="edge35" class="edge">
<title>Storage&#45;&gt;HiveTableStorage</title>
<path fill="none" stroke="#000000" d="M672.6477,-396.5551C674.9951,-388.3951 677.8229,-378.5652 680.4339,-369.4887"/>
<polygon fill="#000000" stroke="#000000" points="683.8516,-370.2683 683.2526,-359.6904 677.1244,-368.333 683.8516,-370.2683"/>
</g>
<!-- Storage&#45;&gt;RemoteStorage -->
<g id="edge34" class="edge">
<title>Storage&#45;&gt;RemoteStorage</title>
<path fill="none" stroke="#000000" d="M634.74,-401.5491C606.6029,-390.325 565.6051,-373.9707 533.5358,-361.178"/>
<polygon fill="#000000" stroke="#000000" points="534.4791,-357.7861 523.894,-357.3318 531.8854,-364.2879 534.4791,-357.7861"/>
</g>
<!-- RemoteImportStorageSetup -->
<g id="node33" class="node">
<title>RemoteImportStorageSetup</title>
<ellipse fill="#ffffff" stroke="#000000" cx="682.4567" cy="-503.4" rx="131.485" ry="18"/>
<text text-anchor="middle" x="682.4567" y="-499.2" font-family="Helvetica,sans-Serif" font-size="14.00" fill="#000000">RemoteImportStorageSetup</text>
</g>
<!-- RemoteImportStorageSetup&#45;&gt;Storage -->
<g id="edge36" class="edge">
<title>RemoteImportStorageSetup&#45;&gt;Storage</title>
<path fill="none" stroke="#000000" d="M679.3487,-485.0006C677.2836,-472.775 674.5325,-456.4887 672.1966,-442.6599"/>
<polygon fill="#000000" stroke="#000000" points="675.6262,-441.9493 670.5094,-432.672 668.724,-443.1153 675.6262,-441.9493"/>
<text text-anchor="middle" x="695.8922" y="-454.8" font-family="Times,serif" font-size="14.00" fill="#000000">remote</text>
</g>
<!-- RemoteImportStorageSetup&#45;&gt;Storage -->
<g id="edge37" class="edge">
<title>RemoteImportStorageSetup&#45;&gt;Storage</title>
<path fill="none" stroke="#000000" d="M656.9632,-485.7296C651.4135,-480.5245 646.2949,-474.3376 643.2463,-467.4 639.4923,-458.8572 641.6151,-449.5919 645.8568,-441.2424"/>
<polygon fill="#000000" stroke="#000000" points="648.8967,-442.9798 651.1132,-432.6194 642.9197,-439.3363 648.8967,-442.9798"/>
<text text-anchor="middle" x="657.0619" y="-454.8" font-family="Times,serif" font-size="14.00" fill="#000000">local</text>
</g>
<!-- StorageSetup&#45;&gt;RemoteImportStorageSetup -->
<g id="edge38" class="edge">
<title>StorageSetup&#45;&gt;RemoteImportStorageSetup</title>
<path fill="none" stroke="#000000" d="M869.6917,-560.8292C833.4457,-549.7118 784.4435,-534.6817 745.6612,-522.7862"/>
<polygon fill="#000000" stroke="#000000" points="746.6222,-519.4201 736.0354,-519.8338 744.5694,-526.1124 746.6222,-519.4201"/>
</g>
<!-- KeyedStruct -->
<g id="node36" class="node">
<title>KeyedStruct</title>
<ellipse fill="#ffffff" stroke="#000000" cx="1354.4567" cy="-665.2" rx="63.7587" ry="18"/>
<text text-anchor="middle" x="1354.4567" y="-661" font-family="Helvetica,sans-Serif" font-size="14.00" fill="#000000">KeyedStruct</text>
</g>
<!-- DatumTemplate&#45;&gt;KeyedStruct -->
<g id="edge39" class="edge">
<title>DatumTemplate&#45;&gt;KeyedStruct</title>
<path fill="none" stroke="#000000" d="M1328.1084,-720.1551C1332.1349,-711.7569 1337.0095,-701.59 1341.4655,-692.296"/>
<polygon fill="#000000" stroke="#000000" points="1344.7372,-693.5677 1345.9045,-683.0374 1338.4252,-690.5414 1344.7372,-693.5677"/>
</g>
<!-- Attribute -->
<g id="node39" class="node">
<title>Attribute</title>
<polygon fill="#c0c0c0" stroke="#000000" points="1631.5802,-594.4 1563.3332,-594.4 1563.3332,-558.4 1631.5802,-558.4 1631.5802,-594.4"/>
<text text-anchor="middle" x="1597.4567" y="-572.2" font-family="Helvetica,sans-Serif" font-size="14.00" fill="#000000">Attribute</text>
</g>
<!-- KeyedStruct&#45;&gt;Attribute -->
<g id="edge40" class="edge">
<title>KeyedStruct&#45;&gt;Attribute</title>
<path fill="none" stroke="#000000" d="M1393.4989,-650.9327C1437.2453,-634.9464 1507.9951,-609.0922 1553.6099,-592.423"/>
<polygon fill="#000000" stroke="#000000" points="1555.0332,-595.6294 1563.2244,-588.9096 1552.6305,-589.0546 1555.0332,-595.6294"/>
<text text-anchor="middle" x="1523.5051" y="-616.6" font-family="Times,serif" font-size="14.00" fill="#000000">attributes</text>
</g>
<!-- URI -->
<g id="node40" class="node">
<title>URI</title>
<ellipse fill="#ffffff" stroke="#000000" cx="1316.4567" cy="-503.4" rx="27.8267" ry="18"/>
<text text-anchor="middle" x="1316.4567" y="-499.2" font-family="Helvetica,sans-Serif" font-size="14.00" fill="#000000">URI</text>
</g>
<!-- Attribute&#45;&gt;URI -->
<g id="edge48" class="edge">
<title>Attribute&#45;&gt;URI</title>
<path fill="none" stroke="#000000" d="M1563.2161,-571.2512C1515.3665,-563.4821 1426.1925,-546.9038 1353.4567,-521.4 1351.5355,-520.7264 1349.5835,-519.9796 1347.6314,-519.1844"/>
<polygon fill="#000000" stroke="#000000" points="1348.5718,-515.7728 1338.0115,-514.9184 1345.7341,-522.1718 1348.5718,-515.7728"/>
</g>
<!-- FloatLongitude -->
<g id="node41" class="node">
<title>FloatLongitude</title>
<ellipse fill="#ffffff" stroke="#000000" cx="1437.4567" cy="-503.4" rx="74.8075" ry="18"/>
<text text-anchor="middle" x="1437.4567" y="-499.2" font-family="Helvetica,sans-Serif" font-size="14.00" fill="#000000">FloatLongitude</text>
</g>
<!-- Attribute&#45;&gt;FloatLongitude -->
<g id="edge47" class="edge">
<title>Attribute&#45;&gt;FloatLongitude</title>
<path fill="none" stroke="#000000" d="M1563.1327,-560.7397C1539.3348,-549.8819 1507.4273,-535.3241 1481.718,-523.5942"/>
<polygon fill="#000000" stroke="#000000" points="1483.1038,-520.3795 1472.5531,-519.4128 1480.1981,-526.7479 1483.1038,-520.3795"/>
</g>
<!-- FloatLatitude -->
<g id="node42" class="node">
<title>FloatLatitude</title>
<ellipse fill="#ffffff" stroke="#000000" cx="1597.4567" cy="-503.4" rx="66.7018" ry="18"/>
<text text-anchor="middle" x="1597.4567" y="-499.2" font-family="Helvetica,sans-Serif" font-size="14.00" fill="#000000">FloatLatitude</text>
</g>
<!-- Attribute&#45;&gt;FloatLatitude -->
<g id="edge46" class="edge">
<title>Attribute&#45;&gt;FloatLatitude</title>
<path fill="none" stroke="#000000" d="M1597.4567,-558.3551C1597.4567,-550.2828 1597.4567,-540.5764 1597.4567,-531.5817"/>
<polygon fill="#000000" stroke="#000000" points="1600.9568,-531.4903 1597.4567,-521.4904 1593.9568,-531.4904 1600.9568,-531.4903"/>
</g>
<!-- NullableString -->
<g id="node43" class="node">
<title>NullableString</title>
<ellipse fill="#ffffff" stroke="#000000" cx="1753.4567" cy="-503.4" rx="71.2559" ry="18"/>
<text text-anchor="middle" x="1753.4567" y="-499.2" font-family="Helvetica,sans-Serif" font-size="14.00" fill="#000000">NullableString</text>
</g>
<!-- Attribute&#45;&gt;NullableString -->
<g id="edge45" class="edge">
<title>Attribute&#45;&gt;NullableString</title>
<path fill="none" stroke="#000000" d="M1631.6916,-560.3798C1654.8347,-549.5501 1685.5779,-535.1638 1710.3826,-523.5565"/>
<polygon fill="#000000" stroke="#000000" points="1711.9963,-526.6657 1719.5702,-519.2571 1709.0294,-520.3255 1711.9963,-526.6657"/>
</g>
<!-- NullableInt64 -->
<g id="node44" class="node">
<title>NullableInt64</title>
<ellipse fill="#ffffff" stroke="#000000" cx="1910.4567" cy="-503.4" rx="67.264" ry="18"/>
<text text-anchor="middle" x="1910.4567" y="-499.2" font-family="Helvetica,sans-Serif" font-size="14.00" fill="#000000">NullableInt64</text>
</g>
<!-- Attribute&#45;&gt;NullableInt64 -->
<g id="edge44" class="edge">
<title>Attribute&#45;&gt;NullableInt64</title>
<path fill="none" stroke="#000000" d="M1631.8524,-568.3918C1677.8039,-557.6913 1761.761,-538.1344 1833.4567,-521.4 1838.7208,-520.1713 1844.1871,-518.8948 1849.669,-517.6142"/>
<polygon fill="#000000" stroke="#000000" points="1850.5715,-520.9976 1859.5128,-515.3141 1848.9787,-514.1812 1850.5715,-520.9976"/>
</g>
<!-- NullablePOSIXTimestamp -->
<g id="node45" class="node">
<title>NullablePOSIXTimestamp</title>
<ellipse fill="#ffffff" stroke="#000000" cx="2119.4567" cy="-503.4" rx="123.3442" ry="18"/>
<text text-anchor="middle" x="2119.4567" y="-499.2" font-family="Helvetica,sans-Serif" font-size="14.00" fill="#000000">NullablePOSIXTimestamp</text>
</g>
<!-- Attribute&#45;&gt;NullablePOSIXTimestamp -->
<g id="edge43" class="edge">
<title>Attribute&#45;&gt;NullablePOSIXTimestamp</title>
<path fill="none" stroke="#000000" d="M1631.7066,-571.6103C1709.3957,-560.7457 1901.4241,-533.8911 2020.0423,-517.3028"/>
<polygon fill="#000000" stroke="#000000" points="2020.8034,-520.7305 2030.2222,-515.8791 2019.8338,-513.798 2020.8034,-520.7305"/>
</g>
<!-- NullableStringIdentifier -->
<g id="node46" class="node">
<title>NullableStringIdentifier</title>
<ellipse fill="#ffffff" stroke="#000000" cx="2368.4567" cy="-503.4" rx="108.3053" ry="18"/>
<text text-anchor="middle" x="2368.4567" y="-499.2" font-family="Helvetica,sans-Serif" font-size="14.00" fill="#000000">NullableStringIdentifier</text>
</g>
<!-- Attribute&#45;&gt;NullableStringIdentifier -->
<g id="edge42" class="edge">
<title>Attribute&#45;&gt;NullableStringIdentifier</title>
<path fill="none" stroke="#000000" d="M1631.5824,-574.3606C1728.7221,-568.3766 2014.9807,-549.5003 2251.4567,-521.4 2261.0994,-520.2542 2271.1684,-518.9181 2281.1777,-517.5011"/>
<polygon fill="#000000" stroke="#000000" points="2281.7522,-520.9545 2291.1492,-516.0611 2280.7516,-514.0264 2281.7522,-520.9545"/>
</g>
<!-- KeyStringIdentifier -->
<g id="node47" class="node">
<title>KeyStringIdentifier</title>
<ellipse fill="#ffffff" stroke="#000000" cx="1180.4567" cy="-503.4" rx="89.8328" ry="18"/>
<text text-anchor="middle" x="1180.4567" y="-499.2" font-family="Helvetica,sans-Serif" font-size="14.00" fill="#000000">KeyStringIdentifier</text>
</g>
<!-- Attribute&#45;&gt;KeyStringIdentifier -->
<g id="edge41" class="edge">
<title>Attribute&#45;&gt;KeyStringIdentifier</title>
<path fill="none" stroke="#000000" d="M1563.0879,-570.5553C1504.7473,-560.6116 1382.6186,-539.6992 1279.4567,-521.4 1272.1612,-520.1059 1264.5655,-518.7465 1256.9695,-517.379"/>
<polygon fill="#000000" stroke="#000000" points="1257.4714,-513.9131 1247.0087,-515.5814 1256.2281,-520.8018 1257.4714,-513.9131"/>
</g>
<!-- DownloadDataFromRemote -->
<g id="node48" class="node">
<title>DownloadDataFromRemote</title>
<polygon fill="#ffffff" stroke="#ff0000" points="533.4145,-521.4 343.4989,-521.4 343.4989,-485.4 533.4145,-485.4 533.4145,-521.4"/>
<text text-anchor="middle" x="438.4567" y="-499.2" font-family="Helvetica,sans-Serif" font-size="14.00" fill="#ff0000">DownloadDataFromRemote</text>
</g>
<!-- DownloadDataFromRemote&#45;&gt;RemoteLocation -->
<g id="edge49" class="edge">
<title>DownloadDataFromRemote&#45;&gt;RemoteLocation</title>
<path fill="none" stroke="#ff0000" d="M426.3746,-485.3775C397.204,-441.8647 322.8016,-330.8812 288.4005,-279.5662"/>
<polygon fill="#ff0000" stroke="#ff0000" points="291.1307,-277.3532 282.6551,-270.996 285.3164,-281.2511 291.1307,-277.3532"/>
</g>
<!-- ReplicatedSchema -->
<g id="node49" class="node">
<title>ReplicatedSchema</title>
<polygon fill="#ffffff" stroke="#ff0000" points="1020.4259,-756.2 886.4875,-756.2 886.4875,-720.2 1020.4259,-720.2 1020.4259,-756.2"/>
<text text-anchor="middle" x="953.4567" y="-734" font-family="Helvetica,sans-Serif" font-size="14.00" fill="#ff0000">ReplicatedSchema</text>
</g>
<!-- ReplicatedSchema&#45;&gt;StaticDataTable -->
<g id="edge50" class="edge">
<title>ReplicatedSchema&#45;&gt;StaticDataTable</title>
<path fill="none" stroke="#ff0000" d="M952.2207,-720.1551C951.6679,-712.0828 951.003,-702.3764 950.387,-693.3817"/>
<polygon fill="#ff0000" stroke="#ff0000" points="953.871,-693.0278 949.6958,-683.2904 946.8874,-693.5062 953.871,-693.0278"/>
</g>
<!-- DataFromRemoteDownloaded -->
<g id="node50" class="node">
<title>DataFromRemoteDownloaded</title>
<polygon fill="#ffffff" stroke="#ff0000" points="805.9791,-594.4 600.9343,-594.4 600.9343,-558.4 805.9791,-558.4 805.9791,-594.4"/>
<text text-anchor="middle" x="703.4567" y="-572.2" font-family="Helvetica,sans-Serif" font-size="14.00" fill="#ff0000">DataFromRemoteDownloaded</text>
</g>
<!-- DataFromRemoteDownloaded&#45;&gt;RemoteImportStorageSetup -->
<g id="edge51" class="edge">
<title>DataFromRemoteDownloaded&#45;&gt;RemoteImportStorageSetup</title>
<path fill="none" stroke="#ff0000" d="M698.2657,-558.3551C695.9183,-550.1951 693.0905,-540.3652 690.4795,-531.2887"/>
<polygon fill="#ff0000" stroke="#ff0000" points="693.789,-530.133 687.6608,-521.4904 687.0619,-532.0683 693.789,-530.133"/>
</g>
<!-- DataFromRemoteDownloaded&#45;&gt;DownloadDataFromRemote -->
<g id="edge52" class="edge">
<title>DataFromRemoteDownloaded&#45;&gt;DownloadDataFromRemote</title>
<path fill="none" stroke="#ff0000" d="M637.9511,-558.3551C600.3665,-548.0016 553.0223,-534.9596 513.8886,-524.1794"/>
<polygon fill="#ff0000" stroke="#ff0000" points="514.6976,-520.7719 504.1272,-521.4904 512.8385,-527.5205 514.6976,-520.7719"/>
</g>
<!-- UploadDataToLocal -->
<g id="node51" class="node">
<title>UploadDataToLocal</title>
<polygon fill="#ffffff" stroke="#ff0000" points="822.1526,-683.2 682.7608,-683.2 682.7608,-647.2 822.1526,-647.2 822.1526,-683.2"/>
<text text-anchor="middle" x="752.4567" y="-661" font-family="Helvetica,sans-Serif" font-size="14.00" fill="#ff0000">UploadDataToLocal</text>
</g>
<!-- UploadDataToLocal&#45;&gt;HiveLocation -->
<g id="edge53" class="edge">
<title>UploadDataToLocal&#45;&gt;HiveLocation</title>
<path fill="none" stroke="#ff0000" d="M788.6564,-647.1299C813.2965,-631.9989 841.4567,-607.8309 841.4567,-576.4 841.4567,-576.4 841.4567,-576.4 841.4567,-341.6 841.4567,-320.1694 849.6043,-297.3733 857.5455,-280.2444"/>
<polygon fill="#ff0000" stroke="#ff0000" points="860.8825,-281.3878 862.1341,-270.8671 854.5949,-278.311 860.8825,-281.3878"/>
</g>
<!-- UploadDataToLocal&#45;&gt;DataFromRemoteDownloaded -->
<g id="edge54" class="edge">
<title>UploadDataToLocal&#45;&gt;DataFromRemoteDownloaded</title>
<path fill="none" stroke="#ff0000" d="M742.3039,-646.8006C735.3594,-634.2155 726.0404,-617.3271 718.2705,-603.2463"/>
<polygon fill="#ff0000" stroke="#ff0000" points="721.3246,-601.5365 713.4289,-594.472 715.1958,-604.9185 721.3246,-601.5365"/>
</g>
<!-- ReplicatedData -->
<g id="node52" class="node">
<title>ReplicatedData</title>
<polygon fill="#ffffff" stroke="#ff0000" points="710.1429,-756.2 598.7705,-756.2 598.7705,-720.2 710.1429,-720.2 710.1429,-756.2"/>
<text text-anchor="middle" x="654.4567" y="-734" font-family="Helvetica,sans-Serif" font-size="14.00" fill="#ff0000">ReplicatedData</text>
</g>
<!-- ReplicatedData&#45;&gt;RemoteImportStorageSetup -->
<g id="edge55" class="edge">
<title>ReplicatedData&#45;&gt;RemoteImportStorageSetup</title>
<path fill="none" stroke="#ff0000" d="M638.3318,-719.9542C610.7647,-686.4292 560.4191,-613.4252 591.4567,-558.4 599.3427,-544.4192 612.3702,-533.5905 626.1367,-525.3857"/>
<polygon fill="#ff0000" stroke="#ff0000" points="628.1752,-528.2586 635.2433,-520.366 624.796,-522.1282 628.1752,-528.2586"/>
</g>
<!-- ReplicatedData&#45;&gt;DownloadDataFromRemote -->
<g id="edge56" class="edge">
<title>ReplicatedData&#45;&gt;DownloadDataFromRemote</title>
<path fill="none" stroke="#ff0000" d="M631.0595,-720.0166C618.3013,-709.7099 602.4985,-696.2901 589.4567,-683.2 538.5835,-632.1381 485.9474,-565.8337 458.255,-529.7047"/>
<polygon fill="#ff0000" stroke="#ff0000" points="460.9369,-527.4495 452.0895,-521.6206 455.3709,-531.6945 460.9369,-527.4495"/>
</g>
<!-- ReplicatedData&#45;&gt;DataFromRemoteDownloaded -->
<g id="edge58" class="edge">
<title>ReplicatedData&#45;&gt;DataFromRemoteDownloaded</title>
<path fill="none" stroke="#ff0000" d="M657.1579,-720.1508C660.1816,-701.5975 665.6956,-671.9981 673.4567,-647.2 678.0321,-632.5806 684.5334,-616.8421 690.3147,-603.925"/>
<polygon fill="#ff0000" stroke="#ff0000" points="693.5747,-605.2122 694.5516,-594.6625 687.209,-602.3004 693.5747,-605.2122"/>
</g>
<!-- ReplicatedData&#45;&gt;UploadDataToLocal -->
<g id="edge57" class="edge">
<title>ReplicatedData&#45;&gt;UploadDataToLocal</title>
<path fill="none" stroke="#ff0000" d="M678.6814,-720.1551C691.1672,-710.8545 706.5653,-699.3844 720.0587,-689.3332"/>
<polygon fill="#ff0000" stroke="#ff0000" points="722.2422,-692.071 728.171,-683.2904 718.0606,-686.4573 722.2422,-692.071"/>
</g>
<!-- ReplicatedAssets -->
<g id="node53" class="node">
<title>ReplicatedAssets</title>
<polygon fill="#ffffff" stroke="#ff0000" points="1040.59,-845 916.3234,-845 916.3234,-809 1040.59,-809 1040.59,-845"/>
<text text-anchor="middle" x="978.4567" y="-822.8" font-family="Helvetica,sans-Serif" font-size="14.00" fill="#ff0000">ReplicatedAssets</text>
</g>
<!-- ReplicatedAssets&#45;&gt;Asset -->
<g id="edge59" class="edge">
<title>ReplicatedAssets&#45;&gt;Asset</title>
<path fill="none" stroke="#ff0000" d="M996.4832,-808.6006C1009.2829,-795.536 1026.6259,-777.8342 1040.7188,-763.4497"/>
<polygon fill="#ff0000" stroke="#ff0000" points="1043.2528,-765.8646 1047.751,-756.272 1038.2526,-760.9657 1043.2528,-765.8646"/>
</g>
<!-- ReplicatedAssets&#45;&gt;ReplicatedSchema -->
<g id="edge60" class="edge">
<title>ReplicatedAssets&#45;&gt;ReplicatedSchema</title>
<path fill="none" stroke="#ff0000" d="M973.2767,-808.6006C969.8348,-796.375 965.2497,-780.0887 961.3565,-766.2599"/>
<polygon fill="#ff0000" stroke="#ff0000" points="964.6236,-764.9493 958.5445,-756.272 957.8855,-766.8463 964.6236,-764.9493"/>
</g>
<!-- ReplicatedAssets&#45;&gt;ReplicatedData -->
<g id="edge61" class="edge">
<title>ReplicatedAssets&#45;&gt;ReplicatedData</title>
<path fill="none" stroke="#ff0000" d="M916.3696,-809.9835C860.0911,-794.5591 777.4193,-771.9009 720.0707,-756.1831"/>
<polygon fill="#ff0000" stroke="#ff0000" points="720.9514,-752.7955 710.3819,-753.5277 719.1011,-759.5465 720.9514,-752.7955"/>
</g>
<!-- ReplicatedDataSets -->
<g id="node54" class="node">
<title>ReplicatedDataSets</title>
<polygon fill="#ffffff" stroke="#ff0000" points="1142.1526,-933.8 1002.7608,-933.8 1002.7608,-897.8 1142.1526,-897.8 1142.1526,-933.8"/>
<text text-anchor="middle" x="1072.4567" y="-911.6" font-family="Helvetica,sans-Serif" font-size="14.00" fill="#ff0000">ReplicatedDataSets</text>
</g>
<!-- ReplicatedDataSets&#45;&gt;DataSet -->
<g id="edge62" class="edge">
<title>ReplicatedDataSets&#45;&gt;DataSet</title>
<path fill="none" stroke="#ff0000" d="M1083.4383,-897.4006C1090.9995,-884.7321 1101.1631,-867.7033 1109.6003,-853.5669"/>
<polygon fill="#ff0000" stroke="#ff0000" points="1112.7311,-855.1505 1114.8508,-844.7699 1106.7203,-851.563 1112.7311,-855.1505"/>
</g>
<!-- ReplicatedDataSets&#45;&gt;ReplicatedAssets -->
<g id="edge63" class="edge">
<title>ReplicatedDataSets&#45;&gt;ReplicatedAssets</title>
<path fill="none" stroke="#ff0000" d="M1052.9798,-897.4006C1039.1502,-884.336 1020.4118,-866.6342 1005.185,-852.2497"/>
<polygon fill="#ff0000" stroke="#ff0000" points="1007.2598,-849.3949 997.587,-845.072 1002.4528,-854.4834 1007.2598,-849.3949"/>
</g>
<!-- IsConsistent -->
<g id="node55" class="node">
<title>IsConsistent</title>
<polygon fill="#ffffff" stroke="#ff0000" points="1152.9721,-1006.8 1059.9413,-1006.8 1059.9413,-970.8 1152.9721,-970.8 1152.9721,-1006.8"/>
<text text-anchor="middle" x="1106.4567" y="-984.6" font-family="Helvetica,sans-Serif" font-size="14.00" fill="#ff0000">IsConsistent</text>
</g>
<!-- IsConsistent&#45;&gt;ParsedDataSetup -->
<g id="edge64" class="edge">
<title>IsConsistent&#45;&gt;ParsedDataSetup</title>
<path fill="none" stroke="#ff0000" d="M1141.3106,-970.7551C1160.8294,-960.6496 1185.2951,-947.983 1205.8173,-937.358"/>
<polygon fill="#ff0000" stroke="#ff0000" points="1207.6657,-940.3423 1214.9369,-932.6365 1204.4473,-934.126 1207.6657,-940.3423"/>
</g>
<!-- IsConsistent&#45;&gt;ReplicatedDataSets -->
<g id="edge65" class="edge">
<title>IsConsistent&#45;&gt;ReplicatedDataSets</title>
<path fill="none" stroke="#ff0000" d="M1098.0522,-970.7551C1094.1699,-962.4196 1089.4761,-952.3416 1085.1737,-943.1042"/>
<polygon fill="#ff0000" stroke="#ff0000" points="1088.2772,-941.4776 1080.8823,-933.8904 1081.9317,-944.4331 1088.2772,-941.4776"/>
</g>
<!-- IsAuditedTable -->
<g id="node56" class="node">
<title>IsAuditedTable</title>
<polygon fill="#ffffff" stroke="#ff0000" points="1161.3191,-1079.8 1051.5943,-1079.8 1051.5943,-1043.8 1161.3191,-1043.8 1161.3191,-1079.8"/>
<text text-anchor="middle" x="1106.4567" y="-1057.6" font-family="Helvetica,sans-Serif" font-size="14.00" fill="#ff0000">IsAuditedTable</text>
</g>
<!-- IsAuditedTable&#45;&gt;StaticDataTable -->
<g id="edge66" class="edge">
<title>IsAuditedTable&#45;&gt;StaticDataTable</title>
<path fill="none" stroke="#ff0000" d="M1051.725,-1056.7586C978.6917,-1048.4893 858.4567,-1028.8012 858.4567,-988.8 858.4567,-988.8 858.4567,-988.8 858.4567,-738.2 858.4567,-714.5228 877.4773,-697.1875 898.0302,-685.367"/>
<polygon fill="#ff0000" stroke="#ff0000" points="899.7119,-688.4368 906.8815,-680.6363 896.4123,-682.2632 899.7119,-688.4368"/>
</g>
<!-- IsAuditedTable&#45;&gt;IsConsistent -->
<g id="edge67" class="edge">
<title>IsAuditedTable&#45;&gt;IsConsistent</title>
<path fill="none" stroke="#ff0000" d="M1106.4567,-1043.7551C1106.4567,-1035.6828 1106.4567,-1025.9764 1106.4567,-1016.9817"/>
<polygon fill="#ff0000" stroke="#ff0000" points="1109.9568,-1016.8903 1106.4567,-1006.8904 1102.9568,-1016.8904 1109.9568,-1016.8903"/>
</g>
<!-- IsAudited -->
<g id="node57" class="node">
<title>IsAudited</title>
<polygon fill="#ffffff" stroke="#ff0000" points="1199.8124,-1152.8 1125.1011,-1152.8 1125.1011,-1116.8 1199.8124,-1116.8 1199.8124,-1152.8"/>
<text text-anchor="middle" x="1162.4567" y="-1130.6" font-family="Helvetica,sans-Serif" font-size="14.00" fill="#ff0000">IsAudited</text>
</g>
<!-- IsAudited&#45;&gt;ParsedDataSetup -->
<g id="edge68" class="edge">
<title>IsAudited&#45;&gt;ParsedDataSetup</title>
<path fill="none" stroke="#ff0000" d="M1169.5576,-1116.5049C1184.4696,-1078.0844 1219.1183,-988.813 1236.7446,-943.3994"/>
<polygon fill="#ff0000" stroke="#ff0000" points="1240.0803,-944.4779 1240.4358,-933.889 1233.5546,-941.9451 1240.0803,-944.4779"/>
</g>
<!-- IsAudited&#45;&gt;IsAuditedTable -->
<g id="edge69" class="edge">
<title>IsAudited&#45;&gt;IsAuditedTable</title>
<path fill="none" stroke="#ff0000" d="M1148.614,-1116.7551C1141.9505,-1108.0686 1133.8352,-1097.4898 1126.5108,-1087.942"/>
<polygon fill="#ff0000" stroke="#ff0000" points="1129.1979,-1085.6944 1120.3342,-1079.8904 1123.6439,-1089.955 1129.1979,-1085.6944"/>
</g>
</g>
</svg>
