<?xml version="1.0" encoding="UTF-8" standalone="no"?>
<!DOCTYPE svg PUBLIC "-//W3C//DTD SVG 1.1//EN"
 "http://www.w3.org/Graphics/SVG/1.1/DTD/svg11.dtd">
<!-- Generated by graphviz version 2.40.1 (20161225.0304)
 -->
<!-- Title: boxes_and_circles Pages: 1 -->
<svg width="2164pt" height="942pt"
 viewBox="0.00 0.00 2164.36 941.80" xmlns="http://www.w3.org/2000/svg" xmlns:xlink="http://www.w3.org/1999/xlink">
<g id="graph0" class="graph" transform="scale(1 1) rotate(0) translate(4 937.8)">
<title>boxes_and_circles</title>
<polygon fill="#ffffff" stroke="transparent" points="-4,4 -4,-937.8 2160.3604,-937.8 2160.3604,4 -4,4"/>
<!-- AccessPolicy -->
<g id="node1" class="node">
<title>AccessPolicy</title>
<polygon fill="#c0c0c0" stroke="#000000" points="1323.9093,-756.2 1225.0041,-756.2 1225.0041,-720.2 1323.9093,-720.2 1323.9093,-756.2"/>
<text text-anchor="middle" x="1274.4567" y="-734" font-family="Helvetica,sans-Serif" font-size="14.00" fill="#000000">AccessPolicy</text>
</g>
<!-- ApproveAccessSelector -->
<g id="node2" class="node">
<title>ApproveAccessSelector</title>
<ellipse fill="#ffffff" stroke="#000000" cx="1291.4567" cy="-665.2" rx="113.561" ry="18"/>
<text text-anchor="middle" x="1291.4567" y="-661" font-family="Helvetica,sans-Serif" font-size="14.00" fill="#000000">ApproveAccessSelector</text>
</g>
<!-- AccessPolicy&#45;&gt;ApproveAccessSelector -->
<g id="edge1" class="edge">
<title>AccessPolicy&#45;&gt;ApproveAccessSelector</title>
<path fill="none" stroke="#000000" d="M1278.6589,-720.1551C1280.5592,-711.9951 1282.8484,-702.1652 1284.9621,-693.0887"/>
<polygon fill="#000000" stroke="#000000" points="1288.3845,-693.8236 1287.2439,-683.2904 1281.5669,-692.2359 1288.3845,-693.8236"/>
</g>
<!-- Asset -->
<g id="node3" class="node">
<title>Asset</title>
<polygon fill="#c0c0c0" stroke="#000000" points="910.4567,-756.2 856.4567,-756.2 856.4567,-720.2 910.4567,-720.2 910.4567,-756.2"/>
<text text-anchor="middle" x="883.4567" y="-734" font-family="Helvetica,sans-Serif" font-size="14.00" fill="#000000">Asset</text>
</g>
<!-- StaticDataTable -->
<g id="node4" class="node">
<title>StaticDataTable</title>
<ellipse fill="#ffffff" stroke="#000000" cx="673.4567" cy="-665.2" rx="79.9456" ry="18"/>
<text text-anchor="middle" x="673.4567" y="-661" font-family="Helvetica,sans-Serif" font-size="14.00" fill="#000000">StaticDataTable</text>
</g>
<!-- Asset&#45;&gt;StaticDataTable -->
<g id="edge2" class="edge">
<title>Asset&#45;&gt;StaticDataTable</title>
<path fill="none" stroke="#000000" d="M856.4328,-728.806C823.8203,-717.4693 768.2162,-698.1402 726.843,-683.7581"/>
<polygon fill="#000000" stroke="#000000" points="727.7809,-680.3787 717.1861,-680.4012 725.4824,-686.9906 727.7809,-680.3787"/>
</g>
<!-- DataSchema -->
<g id="node28" class="node">
<title>DataSchema</title>
<polygon fill="#c0c0c0" stroke="#000000" points="721.8641,-594.4 625.0493,-594.4 625.0493,-558.4 721.8641,-558.4 721.8641,-594.4"/>
<text text-anchor="middle" x="673.4567" y="-572.2" font-family="Helvetica,sans-Serif" font-size="14.00" fill="#000000">DataSchema</text>
</g>
<!-- StaticDataTable&#45;&gt;DataSchema -->
<g id="edge4" class="edge">
<title>StaticDataTable&#45;&gt;DataSchema</title>
<path fill="none" stroke="#000000" d="M673.4567,-646.8006C673.4567,-634.6949 673.4567,-618.6076 673.4567,-604.8674"/>
<polygon fill="#000000" stroke="#000000" points="676.9568,-604.472 673.4567,-594.472 669.9568,-604.4721 676.9568,-604.472"/>
<text text-anchor="middle" x="694.4462" y="-616.6" font-family="Times,serif" font-size="14.00" fill="#000000">schema</text>
</g>
<!-- StorageSetup -->
<g id="node34" class="node">
<title>StorageSetup</title>
<polygon fill="#c0c0c0" stroke="#000000" points="579.0507,-594.4 477.8627,-594.4 477.8627,-558.4 579.0507,-558.4 579.0507,-594.4"/>
<text text-anchor="middle" x="528.4567" y="-572.2" font-family="Helvetica,sans-Serif" font-size="14.00" fill="#000000">StorageSetup</text>
</g>
<!-- StaticDataTable&#45;&gt;StorageSetup -->
<g id="edge3" class="edge">
<title>StaticDataTable&#45;&gt;StorageSetup</title>
<path fill="none" stroke="#000000" d="M645.842,-648.2884C623.4484,-634.5743 591.6357,-615.0917 566.776,-599.8673"/>
<polygon fill="#000000" stroke="#000000" points="568.3179,-596.7074 557.9621,-594.4695 564.6621,-602.6769 568.3179,-596.7074"/>
<text text-anchor="middle" x="629.2316" y="-616.6" font-family="Times,serif" font-size="14.00" fill="#000000">setup</text>
</g>
<!-- DataCompression -->
<g id="node5" class="node">
<title>DataCompression</title>
<polygon fill="#c0c0c0" stroke="#000000" points="643.4665,-109 515.4469,-109 515.4469,-73 643.4665,-73 643.4665,-109"/>
<text text-anchor="middle" x="579.4567" y="-86.8" font-family="Helvetica,sans-Serif" font-size="14.00" fill="#000000">DataCompression</text>
</g>
<!-- GzipCompression -->
<g id="node6" class="node">
<title>GzipCompression</title>
<ellipse fill="#ffffff" stroke="#000000" cx="591.4567" cy="-18" rx="87.5187" ry="18"/>
<text text-anchor="middle" x="591.4567" y="-13.8" font-family="Helvetica,sans-Serif" font-size="14.00" fill="#000000">GzipCompression</text>
</g>
<!-- DataCompression&#45;&gt;GzipCompression -->
<g id="edge5" class="edge">
<title>DataCompression&#45;&gt;GzipCompression</title>
<path fill="none" stroke="#000000" d="M582.423,-72.9551C583.7499,-64.8828 585.3455,-55.1764 586.8241,-46.1817"/>
<polygon fill="#000000" stroke="#000000" points="590.3144,-46.5257 588.4829,-36.0904 583.4071,-45.3902 590.3144,-46.5257"/>
</g>
<!-- ParsedDataSetup -->
<g id="node7" class="node">
<title>ParsedDataSetup</title>
<ellipse fill="#ffffff" stroke="#000000" cx="1434.4567" cy="-915.8" rx="87.4912" ry="18"/>
<text text-anchor="middle" x="1434.4567" y="-911.6" font-family="Helvetica,sans-Serif" font-size="14.00" fill="#000000">ParsedDataSetup</text>
</g>
<!-- DataSet -->
<g id="node8" class="node">
<title>DataSet</title>
<ellipse fill="#ffffff" stroke="#000000" cx="1206.4567" cy="-827" rx="45.8407" ry="18"/>
<text text-anchor="middle" x="1206.4567" y="-822.8" font-family="Helvetica,sans-Serif" font-size="14.00" fill="#000000">DataSet</text>
</g>
<!-- ParsedDataSetup&#45;&gt;DataSet -->
<g id="edge8" class="edge">
<title>ParsedDataSetup&#45;&gt;DataSet</title>
<path fill="none" stroke="#000000" d="M1386.5873,-900.7492C1367.9073,-894.614 1346.3946,-887.2238 1327.1425,-879.8 1299.5735,-869.1692 1269.0923,-855.8203 1245.6605,-845.2046"/>
<polygon fill="#000000" stroke="#000000" points="1246.9539,-841.9478 1236.4028,-840.9867 1244.0517,-848.3178 1246.9539,-841.9478"/>
<text text-anchor="middle" x="1349.6138" y="-867.2" font-family="Times,serif" font-size="14.00" fill="#000000">datasets</text>
</g>
<!-- RoleBinding -->
<g id="node27" class="node">
<title>RoleBinding</title>
<ellipse fill="#ffffff" stroke="#000000" cx="1374.4567" cy="-827" rx="63.1731" ry="18"/>
<text text-anchor="middle" x="1374.4567" y="-822.8" font-family="Helvetica,sans-Serif" font-size="14.00" fill="#000000">RoleBinding</text>
</g>
<!-- ParsedDataSetup&#45;&gt;RoleBinding -->
<g id="edge9" class="edge">
<title>ParsedDataSetup&#45;&gt;RoleBinding</title>
<path fill="none" stroke="#000000" d="M1400.6571,-899.0786C1393.2397,-893.885 1386.1971,-887.4661 1381.4651,-879.8 1377.0255,-872.6075 1374.8627,-863.8198 1373.9169,-855.4931"/>
<polygon fill="#000000" stroke="#000000" points="1377.4002,-855.1122 1373.29,-845.3471 1370.4135,-855.544 1377.4002,-855.1122"/>
<text text-anchor="middle" x="1420.9525" y="-867.2" font-family="Times,serif" font-size="14.00" fill="#000000">role_bindings</text>
</g>
<!-- User -->
<g id="node37" class="node">
<title>User</title>
<ellipse fill="#ffffff" stroke="#000000" cx="1487.4567" cy="-827" rx="31.339" ry="18"/>
<text text-anchor="middle" x="1487.4567" y="-822.8" font-family="Helvetica,sans-Serif" font-size="14.00" fill="#000000">User</text>
</g>
<!-- ParsedDataSetup&#45;&gt;User -->
<g id="edge6" class="edge">
<title>ParsedDataSetup&#45;&gt;User</title>
<path fill="none" stroke="#000000" d="M1449.507,-898.0448C1453.9492,-892.3983 1458.6391,-886.004 1462.4567,-879.8 1467.4772,-871.6412 1472.1962,-862.3153 1476.1528,-853.7941"/>
<polygon fill="#000000" stroke="#000000" points="1479.3685,-855.1768 1480.2714,-844.6205 1472.9826,-852.3097 1479.3685,-855.1768"/>
<text text-anchor="middle" x="1485.8389" y="-867.2" font-family="Times,serif" font-size="14.00" fill="#000000">users</text>
</g>
<!-- UserGroup -->
<g id="node38" class="node">
<title>UserGroup</title>
<ellipse fill="#ffffff" stroke="#000000" cx="1595.4567" cy="-827" rx="58.0035" ry="18"/>
<text text-anchor="middle" x="1595.4567" y="-822.8" font-family="Helvetica,sans-Serif" font-size="14.00" fill="#000000">UserGroup</text>
</g>
<!-- ParsedDataSetup&#45;&gt;UserGroup -->
<g id="edge7" class="edge">
<title>ParsedDataSetup&#45;&gt;UserGroup</title>
<path fill="none" stroke="#000000" d="M1467.7538,-899.1112C1479.4283,-893.1451 1492.5863,-886.2907 1504.4567,-879.8 1522.8466,-869.7445 1543.034,-858.095 1559.7127,-848.3008"/>
<polygon fill="#000000" stroke="#000000" points="1561.7459,-851.1651 1568.5839,-843.0724 1558.1917,-845.1346 1561.7459,-851.1651"/>
<text text-anchor="middle" x="1551.5093" y="-867.2" font-family="Times,serif" font-size="14.00" fill="#000000">groups</text>
</g>
<!-- DataSet&#45;&gt;AccessPolicy -->
<g id="edge10" class="edge">
<title>DataSet&#45;&gt;AccessPolicy</title>
<path fill="none" stroke="#000000" d="M1227.9379,-810.7997C1234.7085,-805.0321 1241.8707,-798.1757 1247.4567,-791 1253.4303,-783.3264 1258.6714,-774.1277 1262.9073,-765.5738"/>
<polygon fill="#000000" stroke="#000000" points="1266.1761,-766.8463 1267.2482,-756.3058 1259.837,-763.8772 1266.1761,-766.8463"/>
<text text-anchor="middle" x="1298.4946" y="-778.4" font-family="Times,serif" font-size="14.00" fill="#000000">accessPolicies</text>
</g>
<!-- DataSet&#45;&gt;Asset -->
<g id="edge12" class="edge">
<title>DataSet&#45;&gt;Asset</title>
<path fill="none" stroke="#000000" d="M1168.7723,-816.6397C1106.3477,-799.4778 982.2431,-765.3586 920.3463,-748.3418"/>
<polygon fill="#000000" stroke="#000000" points="921.1788,-744.9409 910.6087,-745.6647 919.3231,-751.6904 921.1788,-744.9409"/>
<text text-anchor="middle" x="1090.7835" y="-778.4" font-family="Times,serif" font-size="14.00" fill="#000000">assets</text>
</g>
<!-- DatumTemplate -->
<g id="node35" class="node">
<title>DatumTemplate</title>
<polygon fill="#c0c0c0" stroke="#000000" points="1198.0213,-756.2 1082.8921,-756.2 1082.8921,-720.2 1198.0213,-720.2 1198.0213,-756.2"/>
<text text-anchor="middle" x="1140.4567" y="-734" font-family="Helvetica,sans-Serif" font-size="14.00" fill="#000000">DatumTemplate</text>
</g>
<!-- DataSet&#45;&gt;DatumTemplate -->
<g id="edge11" class="edge">
<title>DataSet&#45;&gt;DatumTemplate</title>
<path fill="none" stroke="#000000" d="M1178.085,-812.726C1169.2771,-807.0496 1160.2817,-799.7596 1154.1481,-791 1149.128,-783.8306 1145.9482,-774.9561 1143.9341,-766.5419"/>
<polygon fill="#000000" stroke="#000000" points="1147.3555,-765.8001 1142.0103,-756.6525 1140.4843,-767.1369 1147.3555,-765.8001"/>
<text text-anchor="middle" x="1201.111" y="-778.4" font-family="Times,serif" font-size="14.00" fill="#000000">datumTemplates</text>
</g>
<!-- CSVEncoding -->
<g id="node9" class="node">
<title>CSVEncoding</title>
<ellipse fill="#ffffff" stroke="#000000" cx="572.4567" cy="-179.8" rx="71.2829" ry="18"/>
<text text-anchor="middle" x="572.4567" y="-175.6" font-family="Helvetica,sans-Serif" font-size="14.00" fill="#000000">CSVEncoding</text>
</g>
<!-- CSVEncoding&#45;&gt;DataCompression -->
<g id="edge13" class="edge">
<title>CSVEncoding&#45;&gt;DataCompression</title>
<path fill="none" stroke="#000000" d="M573.9071,-161.4006C574.8708,-149.175 576.1547,-132.8887 577.2448,-119.0599"/>
<polygon fill="#000000" stroke="#000000" points="580.7353,-119.3162 578.0321,-109.072 573.757,-118.766 580.7353,-119.3162"/>
<text text-anchor="middle" x="612.8368" y="-131.2" font-family="Times,serif" font-size="14.00" fill="#000000">compression</text>
</g>
<!-- FileHeader -->
<g id="node12" class="node">
<title>FileHeader</title>
<polygon fill="#c0c0c0" stroke="#000000" points="437.9039,-109 353.0095,-109 353.0095,-73 437.9039,-73 437.9039,-109"/>
<text text-anchor="middle" x="395.4567" y="-86.8" font-family="Helvetica,sans-Serif" font-size="14.00" fill="#000000">FileHeader</text>
</g>
<!-- CSVEncoding&#45;&gt;FileHeader -->
<g id="edge14" class="edge">
<title>CSVEncoding&#45;&gt;FileHeader</title>
<path fill="none" stroke="#000000" d="M540.4033,-163.719C512.5963,-149.7683 472.0292,-129.416 440.8791,-113.7882"/>
<polygon fill="#000000" stroke="#000000" points="442.0464,-110.4581 431.5387,-109.1022 438.9074,-116.7148 442.0464,-110.4581"/>
<text text-anchor="middle" x="519.1089" y="-131.2" font-family="Times,serif" font-size="14.00" fill="#000000">header</text>
</g>
<!-- Encoding -->
<g id="node10" class="node">
<title>Encoding</title>
<polygon fill="#c0c0c0" stroke="#000000" points="501.8138,-270.8 427.0996,-270.8 427.0996,-234.8 501.8138,-234.8 501.8138,-270.8"/>
<text text-anchor="middle" x="464.4567" y="-248.6" font-family="Helvetica,sans-Serif" font-size="14.00" fill="#000000">Encoding</text>
</g>
<!-- Encoding&#45;&gt;CSVEncoding -->
<g id="edge15" class="edge">
<title>Encoding&#45;&gt;CSVEncoding</title>
<path fill="none" stroke="#000000" d="M491.1533,-234.7551C505.4607,-225.0844 523.2381,-213.0681 538.5177,-202.7403"/>
<polygon fill="#000000" stroke="#000000" points="540.8553,-205.3848 547.1802,-196.885 536.9353,-199.5853 540.8553,-205.3848"/>
</g>
<!-- ORCEncoding -->
<g id="node11" class="node">
<title>ORCEncoding</title>
<ellipse fill="#ffffff" stroke="#000000" cx="410.4567" cy="-179.8" rx="72.9896" ry="18"/>
<text text-anchor="middle" x="410.4567" y="-175.6" font-family="Helvetica,sans-Serif" font-size="14.00" fill="#000000">ORCEncoding</text>
</g>
<!-- Encoding&#45;&gt;ORCEncoding -->
<g id="edge16" class="edge">
<title>Encoding&#45;&gt;ORCEncoding</title>
<path fill="none" stroke="#000000" d="M451.1084,-234.7551C444.6345,-226.0033 436.7397,-215.3307 429.6354,-205.7268"/>
<polygon fill="#000000" stroke="#000000" points="432.4123,-203.5954 423.6515,-197.6374 426.7847,-207.7583 432.4123,-203.5954"/>
</g>
<!-- UpperSnakeCaseCSVHeader -->
<g id="node13" class="node">
<title>UpperSnakeCaseCSVHeader</title>
<ellipse fill="#ffffff" stroke="#000000" cx="346.4567" cy="-18" rx="138.9977" ry="18"/>
<text text-anchor="middle" x="346.4567" y="-13.8" font-family="Helvetica,sans-Serif" font-size="14.00" fill="#000000">UpperSnakeCaseCSVHeader</text>
</g>
<!-- FileHeader&#45;&gt;UpperSnakeCaseCSVHeader -->
<g id="edge17" class="edge">
<title>FileHeader&#45;&gt;UpperSnakeCaseCSVHeader</title>
<path fill="none" stroke="#000000" d="M383.3443,-72.9551C377.5726,-64.3564 370.5562,-53.9034 364.1985,-44.4316"/>
<polygon fill="#000000" stroke="#000000" points="367.0789,-42.4427 358.5995,-36.0904 361.2668,-46.344 367.0789,-42.4427"/>
</g>
<!-- SingleFileLayout -->
<g id="node14" class="node">
<title>SingleFileLayout</title>
<ellipse fill="#ffffff" stroke="#000000" cx="237.4567" cy="-179.8" rx="82.3124" ry="18"/>
<text text-anchor="middle" x="237.4567" y="-175.6" font-family="Helvetica,sans-Serif" font-size="14.00" fill="#000000">SingleFileLayout</text>
</g>
<!-- FileBasedStorageLayout -->
<g id="node15" class="node">
<title>FileBasedStorageLayout</title>
<polygon fill="#c0c0c0" stroke="#000000" points="399.2289,-270.8 229.6845,-270.8 229.6845,-234.8 399.2289,-234.8 399.2289,-270.8"/>
<text text-anchor="middle" x="314.4567" y="-248.6" font-family="Helvetica,sans-Serif" font-size="14.00" fill="#000000">FileBasedStorageLayout</text>
</g>
<!-- FileBasedStorageLayout&#45;&gt;SingleFileLayout -->
<g id="edge18" class="edge">
<title>FileBasedStorageLayout&#45;&gt;SingleFileLayout</title>
<path fill="none" stroke="#000000" d="M295.423,-234.7551C285.7471,-225.5818 273.845,-214.298 263.3485,-204.3468"/>
<polygon fill="#000000" stroke="#000000" points="265.6709,-201.7256 256.0058,-197.3855 260.8548,-206.8055 265.6709,-201.7256"/>
</g>
<!-- StaticHiveTableLayout -->
<g id="node16" class="node">
<title>StaticHiveTableLayout</title>
<ellipse fill="#ffffff" stroke="#000000" cx="1029.4567" cy="-179.8" rx="107.7545" ry="18"/>
<text text-anchor="middle" x="1029.4567" y="-175.6" font-family="Helvetica,sans-Serif" font-size="14.00" fill="#000000">StaticHiveTableLayout</text>
</g>
<!-- DailyGranularity -->
<g id="node17" class="node">
<title>DailyGranularity</title>
<ellipse fill="#ffffff" stroke="#000000" cx="782.4567" cy="-18" rx="79.9069" ry="18"/>
<text text-anchor="middle" x="782.4567" y="-13.8" font-family="Helvetica,sans-Serif" font-size="14.00" fill="#000000">DailyGranularity</text>
</g>
<!-- Granularity -->
<g id="node18" class="node">
<title>Granularity</title>
<polygon fill="#c0c0c0" stroke="#000000" points="824.9039,-109 740.0095,-109 740.0095,-73 824.9039,-73 824.9039,-109"/>
<text text-anchor="middle" x="782.4567" y="-86.8" font-family="Helvetica,sans-Serif" font-size="14.00" fill="#000000">Granularity</text>
</g>
<!-- Granularity&#45;&gt;DailyGranularity -->
<g id="edge19" class="edge">
<title>Granularity&#45;&gt;DailyGranularity</title>
<path fill="none" stroke="#000000" d="M782.4567,-72.9551C782.4567,-64.8828 782.4567,-55.1764 782.4567,-46.1817"/>
<polygon fill="#000000" stroke="#000000" points="785.9568,-46.0903 782.4567,-36.0904 778.9568,-46.0904 785.9568,-46.0903"/>
</g>
<!-- DynamicHiveTableLayout -->
<g id="node19" class="node">
<title>DynamicHiveTableLayout</title>
<ellipse fill="#ffffff" stroke="#000000" cx="782.4567" cy="-179.8" rx="121.0621" ry="18"/>
<text text-anchor="middle" x="782.4567" y="-175.6" font-family="Helvetica,sans-Serif" font-size="14.00" fill="#000000">DynamicHiveTableLayout</text>
</g>
<!-- DynamicHiveTableLayout&#45;&gt;Granularity -->
<g id="edge20" class="edge">
<title>DynamicHiveTableLayout&#45;&gt;Granularity</title>
<path fill="none" stroke="#000000" d="M782.4567,-161.4006C782.4567,-149.2949 782.4567,-133.2076 782.4567,-119.4674"/>
<polygon fill="#000000" stroke="#000000" points="785.9568,-119.072 782.4567,-109.072 778.9568,-119.0721 785.9568,-119.072"/>
<text text-anchor="middle" x="813.1678" y="-131.2" font-family="Times,serif" font-size="14.00" fill="#000000">granularity</text>
</g>
<!-- HiveStorageLayout -->
<g id="node20" class="node">
<title>HiveStorageLayout</title>
<polygon fill="#c0c0c0" stroke="#000000" points="849.9917,-270.8 714.9217,-270.8 714.9217,-234.8 849.9917,-234.8 849.9917,-270.8"/>
<text text-anchor="middle" x="782.4567" y="-248.6" font-family="Helvetica,sans-Serif" font-size="14.00" fill="#000000">HiveStorageLayout</text>
</g>
<!-- HiveStorageLayout&#45;&gt;StaticHiveTableLayout -->
<g id="edge21" class="edge">
<title>HiveStorageLayout&#45;&gt;StaticHiveTableLayout</title>
<path fill="none" stroke="#000000" d="M843.5129,-234.7551C880.8878,-223.709 928.6169,-209.6028 966.3602,-198.448"/>
<polygon fill="#000000" stroke="#000000" points="967.6269,-201.7233 976.2248,-195.5325 965.6428,-195.0104 967.6269,-201.7233"/>
</g>
<!-- HiveStorageLayout&#45;&gt;DynamicHiveTableLayout -->
<g id="edge22" class="edge">
<title>HiveStorageLayout&#45;&gt;DynamicHiveTableLayout</title>
<path fill="none" stroke="#000000" d="M782.4567,-234.7551C782.4567,-226.6828 782.4567,-216.9764 782.4567,-207.9817"/>
<polygon fill="#000000" stroke="#000000" points="785.9568,-207.8903 782.4567,-197.8904 778.9568,-207.8904 785.9568,-207.8903"/>
</g>
<!-- AlluxioLocation -->
<g id="node21" class="node">
<title>AlluxioLocation</title>
<ellipse fill="#ffffff" stroke="#000000" cx="1231.4567" cy="-179.8" rx="75.9338" ry="18"/>
<text text-anchor="middle" x="1231.4567" y="-175.6" font-family="Helvetica,sans-Serif" font-size="14.00" fill="#000000">AlluxioLocation</text>
</g>
<!-- GCSLocation -->
<g id="node22" class="node">
<title>GCSLocation</title>
<ellipse fill="#ffffff" stroke="#000000" cx="68.4567" cy="-179.8" rx="68.4134" ry="18"/>
<text text-anchor="middle" x="68.4567" y="-175.6" font-family="Helvetica,sans-Serif" font-size="14.00" fill="#000000">GCSLocation</text>
</g>
<!-- HiveLocation -->
<g id="node23" class="node">
<title>HiveLocation</title>
<polygon fill="#c0c0c0" stroke="#000000" points="1121.8627,-270.8 1025.0507,-270.8 1025.0507,-234.8 1121.8627,-234.8 1121.8627,-270.8"/>
<text text-anchor="middle" x="1073.4567" y="-248.6" font-family="Helvetica,sans-Serif" font-size="14.00" fill="#000000">HiveLocation</text>
</g>
<!-- HiveLocation&#45;&gt;AlluxioLocation -->
<g id="edge23" class="edge">
<title>HiveLocation&#45;&gt;AlluxioLocation</title>
<path fill="none" stroke="#000000" d="M1112.5129,-234.7551C1135.1624,-224.2904 1163.7564,-211.0792 1187.232,-200.2329"/>
<polygon fill="#000000" stroke="#000000" points="1189.0049,-203.2694 1196.6149,-195.8978 1186.0689,-196.9148 1189.0049,-203.2694"/>
</g>
<!-- RemoteLocation -->
<g id="node24" class="node">
<title>RemoteLocation</title>
<polygon fill="#c0c0c0" stroke="#000000" points="191.3725,-270.8 73.5409,-270.8 73.5409,-234.8 191.3725,-234.8 191.3725,-270.8"/>
<text text-anchor="middle" x="132.4567" y="-248.6" font-family="Helvetica,sans-Serif" font-size="14.00" fill="#000000">RemoteLocation</text>
</g>
<!-- RemoteLocation&#45;&gt;GCSLocation -->
<g id="edge24" class="edge">
<title>RemoteLocation&#45;&gt;GCSLocation</title>
<path fill="none" stroke="#000000" d="M116.6365,-234.7551C108.7503,-225.7599 99.085,-214.7354 90.4867,-204.928"/>
<polygon fill="#000000" stroke="#000000" points="93.0983,-202.5976 83.8741,-197.3855 87.8347,-207.2122 93.0983,-202.5976"/>
</g>
<!-- GlobalPermissionsAdmin -->
<g id="node25" class="node">
<title>GlobalPermissionsAdmin</title>
<ellipse fill="#ffffff" stroke="#000000" cx="1541.4567" cy="-665.2" rx="118.7533" ry="18"/>
<text text-anchor="middle" x="1541.4567" y="-661" font-family="Helvetica,sans-Serif" font-size="14.00" fill="#000000">GlobalPermissionsAdmin</text>
</g>
<!-- Role -->
<g id="node26" class="node">
<title>Role</title>
<polygon fill="#c0c0c0" stroke="#000000" points="1481.4567,-756.2 1427.4567,-756.2 1427.4567,-720.2 1481.4567,-720.2 1481.4567,-756.2"/>
<text text-anchor="middle" x="1454.4567" y="-734" font-family="Helvetica,sans-Serif" font-size="14.00" fill="#000000">Role</text>
</g>
<!-- Role&#45;&gt;GlobalPermissionsAdmin -->
<g id="edge25" class="edge">
<title>Role&#45;&gt;GlobalPermissionsAdmin</title>
<path fill="none" stroke="#000000" d="M1475.9623,-720.1551C1486.9192,-710.9613 1500.4026,-699.6477 1512.2816,-689.6803"/>
<polygon fill="#000000" stroke="#000000" points="1514.7877,-692.1464 1520.1985,-683.0374 1510.2882,-686.784 1514.7877,-692.1464"/>
</g>
<!-- RoleBinding&#45;&gt;Role -->
<g id="edge26" class="edge">
<title>RoleBinding&#45;&gt;Role</title>
<path fill="none" stroke="#000000" d="M1390.2621,-809.456C1401.9421,-796.4912 1418.0307,-778.6329 1431.1793,-764.038"/>
<polygon fill="#000000" stroke="#000000" points="1434.0419,-766.0896 1438.1349,-756.3172 1428.8411,-761.4042 1434.0419,-766.0896"/>
<text text-anchor="middle" x="1433.3396" y="-778.4" font-family="Times,serif" font-size="14.00" fill="#000000">role</text>
</g>
<!-- TabularSchema -->
<g id="node29" class="node">
<title>TabularSchema</title>
<ellipse fill="#ffffff" stroke="#000000" cx="673.4567" cy="-503.4" rx="79.3677" ry="18"/>
<text text-anchor="middle" x="673.4567" y="-499.2" font-family="Helvetica,sans-Serif" font-size="14.00" fill="#000000">TabularSchema</text>
</g>
<!-- DataSchema&#45;&gt;TabularSchema -->
<g id="edge27" class="edge">
<title>DataSchema&#45;&gt;TabularSchema</title>
<path fill="none" stroke="#000000" d="M673.4567,-558.3551C673.4567,-550.2828 673.4567,-540.5764 673.4567,-531.5817"/>
<polygon fill="#000000" stroke="#000000" points="676.9568,-531.4903 673.4567,-521.4904 669.9568,-531.4904 676.9568,-531.4903"/>
</g>
<!-- HiveTableStorage -->
<g id="node30" class="node">
<title>HiveTableStorage</title>
<ellipse fill="#ffffff" stroke="#000000" cx="625.4567" cy="-341.6" rx="88.1135" ry="18"/>
<text text-anchor="middle" x="625.4567" y="-337.4" font-family="Helvetica,sans-Serif" font-size="14.00" fill="#000000">HiveTableStorage</text>
</g>
<!-- HiveTableStorage&#45;&gt;Encoding -->
<g id="edge30" class="edge">
<title>HiveTableStorage&#45;&gt;Encoding</title>
<path fill="none" stroke="#000000" d="M594.7949,-324.6884C569.7122,-310.854 533.9867,-291.1495 506.2798,-275.8676"/>
<polygon fill="#000000" stroke="#000000" points="507.6647,-272.6344 497.2179,-270.8695 504.2839,-278.7639 507.6647,-272.6344"/>
<text text-anchor="middle" x="585.1166" y="-293" font-family="Times,serif" font-size="14.00" fill="#000000">encoding</text>
</g>
<!-- HiveTableStorage&#45;&gt;HiveStorageLayout -->
<g id="edge29" class="edge">
<title>HiveTableStorage&#45;&gt;HiveStorageLayout</title>
<path fill="none" stroke="#000000" d="M655.7279,-324.4785C680.1451,-310.668 714.7264,-291.1086 741.598,-275.9099"/>
<polygon fill="#000000" stroke="#000000" points="743.4085,-278.907 750.3896,-270.9373 739.9622,-272.8141 743.4085,-278.907"/>
<text text-anchor="middle" x="735.9546" y="-293" font-family="Times,serif" font-size="14.00" fill="#000000">layout</text>
</g>
<!-- HiveTableStorage&#45;&gt;HiveLocation -->
<g id="edge28" class="edge">
<title>HiveTableStorage&#45;&gt;HiveLocation</title>
<path fill="none" stroke="#000000" d="M689.1684,-328.9714C776.1032,-311.7397 930.6799,-281.1004 1014.8628,-264.4142"/>
<polygon fill="#000000" stroke="#000000" points="1015.6421,-267.8279 1024.7707,-262.4503 1014.281,-260.9614 1015.6421,-267.8279"/>
<text text-anchor="middle" x="913.0072" y="-293" font-family="Times,serif" font-size="14.00" fill="#000000">location</text>
</g>
<!-- RemoteStorage -->
<g id="node31" class="node">
<title>RemoteStorage</title>
<ellipse fill="#ffffff" stroke="#000000" cx="353.4567" cy="-341.6" rx="78.8034" ry="18"/>
<text text-anchor="middle" x="353.4567" y="-337.4" font-family="Helvetica,sans-Serif" font-size="14.00" fill="#000000">RemoteStorage</text>
</g>
<!-- RemoteStorage&#45;&gt;Encoding -->
<g id="edge33" class="edge">
<title>RemoteStorage&#45;&gt;Encoding</title>
<path fill="none" stroke="#000000" d="M375.1221,-324.2677C391.8296,-310.9017 415.1522,-292.2436 433.7777,-277.3432"/>
<polygon fill="#000000" stroke="#000000" points="436.0789,-279.9845 441.7012,-271.0044 431.706,-274.5184 436.0789,-279.9845"/>
<text text-anchor="middle" x="445.1166" y="-293" font-family="Times,serif" font-size="14.00" fill="#000000">encoding</text>
</g>
<!-- RemoteStorage&#45;&gt;FileBasedStorageLayout -->
<g id="edge32" class="edge">
<title>RemoteStorage&#45;&gt;FileBasedStorageLayout</title>
<path fill="none" stroke="#000000" d="M345.5645,-323.63C340.103,-311.1946 332.7315,-294.4104 326.5352,-280.3018"/>
<polygon fill="#000000" stroke="#000000" points="329.6968,-278.7965 322.4711,-271.0481 323.2877,-281.6114 329.6968,-278.7965"/>
<text text-anchor="middle" x="354.9546" y="-293" font-family="Times,serif" font-size="14.00" fill="#000000">layout</text>
</g>
<!-- RemoteStorage&#45;&gt;RemoteLocation -->
<g id="edge31" class="edge">
<title>RemoteStorage&#45;&gt;RemoteLocation</title>
<path fill="none" stroke="#000000" d="M314.4551,-325.9288C279.0818,-311.7154 226.5776,-290.6187 187.041,-274.7325"/>
<polygon fill="#000000" stroke="#000000" points="188.1266,-271.3968 177.5426,-270.916 185.5166,-277.8921 188.1266,-271.3968"/>
<text text-anchor="middle" x="286.0072" y="-293" font-family="Times,serif" font-size="14.00" fill="#000000">location</text>
</g>
<!-- Storage -->
<g id="node32" class="node">
<title>Storage</title>
<polygon fill="#c0c0c0" stroke="#000000" points="477.9749,-432.6 412.9385,-432.6 412.9385,-396.6 477.9749,-396.6 477.9749,-432.6"/>
<text text-anchor="middle" x="445.4567" y="-410.4" font-family="Helvetica,sans-Serif" font-size="14.00" fill="#000000">Storage</text>
</g>
<!-- Storage&#45;&gt;HiveTableStorage -->
<g id="edge35" class="edge">
<title>Storage&#45;&gt;HiveTableStorage</title>
<path fill="none" stroke="#000000" d="M478.0533,-401.3803C505.4136,-390.2842 544.9212,-374.2616 576.1494,-361.5968"/>
<polygon fill="#000000" stroke="#000000" points="577.601,-364.7851 585.5525,-357.7834 574.9702,-358.2983 577.601,-364.7851"/>
</g>
<!-- Storage&#45;&gt;RemoteStorage -->
<g id="edge34" class="edge">
<title>Storage&#45;&gt;RemoteStorage</title>
<path fill="none" stroke="#000000" d="M422.7151,-396.5551C410.8425,-387.1344 396.1647,-375.4879 383.3815,-365.3447"/>
<polygon fill="#000000" stroke="#000000" points="385.3122,-362.4087 375.3032,-358.9347 380.9612,-367.8922 385.3122,-362.4087"/>
</g>
<!-- RemoteImportStorageSetup -->
<g id="node33" class="node">
<title>RemoteImportStorageSetup</title>
<ellipse fill="#ffffff" stroke="#000000" cx="445.4567" cy="-503.4" rx="131.485" ry="18"/>
<text text-anchor="middle" x="445.4567" y="-499.2" font-family="Helvetica,sans-Serif" font-size="14.00" fill="#000000">RemoteImportStorageSetup</text>
</g>
<!-- RemoteImportStorageSetup&#45;&gt;Storage -->
<g id="edge36" class="edge">
<title>RemoteImportStorageSetup&#45;&gt;Storage</title>
<path fill="none" stroke="#000000" d="M426.5702,-485.5499C422.1053,-480.1881 417.9564,-473.9697 415.5857,-467.4 413.0513,-460.3766 413.0513,-457.6234 415.5857,-450.6 416.7797,-447.2913 418.4247,-444.0716 420.3339,-441.0057"/>
<polygon fill="#000000" stroke="#000000" points="423.2275,-442.9774 426.2593,-432.8256 417.5584,-438.8709 423.2275,-442.9774"/>
<text text-anchor="middle" x="435.8922" y="-454.8" font-family="Times,serif" font-size="14.00" fill="#000000">remote</text>
</g>
<!-- RemoteImportStorageSetup&#45;&gt;Storage -->
<g id="edge37" class="edge">
<title>RemoteImportStorageSetup&#45;&gt;Storage</title>
<path fill="none" stroke="#000000" d="M450.9135,-485.2491C452.3665,-479.5864 453.7325,-473.2826 454.4567,-467.4 455.369,-459.9893 455.369,-458.0107 454.4567,-450.6 454.1399,-448.0264 453.7002,-445.3721 453.1841,-442.7262"/>
<polygon fill="#000000" stroke="#000000" points="456.5458,-441.7246 450.9135,-432.7509 449.7203,-443.2783 456.5458,-441.7246"/>
<text text-anchor="middle" x="469.0619" y="-454.8" font-family="Times,serif" font-size="14.00" fill="#000000">local</text>
</g>
<!-- StorageSetup&#45;&gt;RemoteImportStorageSetup -->
<g id="edge38" class="edge">
<title>StorageSetup&#45;&gt;RemoteImportStorageSetup</title>
<path fill="none" stroke="#000000" d="M507.9398,-558.3551C497.4867,-549.1613 484.6233,-537.8477 473.2904,-527.8803"/>
<polygon fill="#000000" stroke="#000000" points="475.558,-525.2135 465.7376,-521.2374 470.935,-530.4698 475.558,-525.2135"/>
</g>
<!-- KeyedStruct -->
<g id="node36" class="node">
<title>KeyedStruct</title>
<ellipse fill="#ffffff" stroke="#000000" cx="1096.4567" cy="-665.2" rx="63.7587" ry="18"/>
<text text-anchor="middle" x="1096.4567" y="-661" font-family="Helvetica,sans-Serif" font-size="14.00" fill="#000000">KeyedStruct</text>
</g>
<!-- DatumTemplate&#45;&gt;KeyedStruct -->
<g id="edge39" class="edge">
<title>DatumTemplate&#45;&gt;KeyedStruct</title>
<path fill="none" stroke="#000000" d="M1129.5803,-720.1551C1124.4119,-711.5801 1118.1319,-701.1611 1112.4354,-691.7102"/>
<polygon fill="#000000" stroke="#000000" points="1115.3678,-689.7952 1107.208,-683.0374 1109.3726,-693.4087 1115.3678,-689.7952"/>
</g>
<!-- Attribute -->
<g id="node39" class="node">
<title>Attribute</title>
<polygon fill="#c0c0c0" stroke="#000000" points="1393.5802,-594.4 1325.3332,-594.4 1325.3332,-558.4 1393.5802,-558.4 1393.5802,-594.4"/>
<text text-anchor="middle" x="1359.4567" y="-572.2" font-family="Helvetica,sans-Serif" font-size="14.00" fill="#000000">Attribute</text>
</g>
<!-- KeyedStruct&#45;&gt;Attribute -->
<g id="edge40" class="edge">
<title>KeyedStruct&#45;&gt;Attribute</title>
<path fill="none" stroke="#000000" d="M1137.5505,-651.325C1186.0383,-634.9534 1266.3107,-607.8501 1315.8616,-591.1196"/>
<polygon fill="#000000" stroke="#000000" points="1316.9888,-594.4332 1325.3437,-587.918 1314.7495,-587.801 1316.9888,-594.4332"/>
<text text-anchor="middle" x="1278.5051" y="-616.6" font-family="Times,serif" font-size="14.00" fill="#000000">attributes</text>
</g>
<!-- URI -->
<g id="node40" class="node">
<title>URI</title>
<ellipse fill="#ffffff" stroke="#000000" cx="1960.4567" cy="-503.4" rx="27.8267" ry="18"/>
<text text-anchor="middle" x="1960.4567" y="-499.2" font-family="Helvetica,sans-Serif" font-size="14.00" fill="#000000">URI</text>
</g>
<!-- Attribute&#45;&gt;URI -->
<g id="edge48" class="edge">
<title>Attribute&#45;&gt;URI</title>
<path fill="none" stroke="#000000" d="M1393.6868,-574.6542C1499.8964,-568.9879 1822.7359,-549.8176 1923.4567,-521.4 1925.6352,-520.7853 1927.8413,-520.0471 1930.0348,-519.2252"/>
<polygon fill="#000000" stroke="#000000" points="1931.621,-522.3538 1939.4459,-515.2108 1928.8745,-515.9151 1931.621,-522.3538"/>
</g>
<!-- FloatLongitude -->
<g id="node41" class="node">
<title>FloatLongitude</title>
<ellipse fill="#ffffff" stroke="#000000" cx="2081.4567" cy="-503.4" rx="74.8075" ry="18"/>
<text text-anchor="middle" x="2081.4567" y="-499.2" font-family="Helvetica,sans-Serif" font-size="14.00" fill="#000000">FloatLongitude</text>
</g>
<!-- Attribute&#45;&gt;FloatLongitude -->
<g id="edge47" class="edge">
<title>Attribute&#45;&gt;FloatLongitude</title>
<path fill="none" stroke="#000000" d="M1393.5748,-575.2961C1489.364,-571.8024 1768.7122,-558.9081 1997.4567,-521.4 2003.7348,-520.3706 2010.2529,-519.1844 2016.7567,-517.9224"/>
<polygon fill="#000000" stroke="#000000" points="2017.8091,-521.2813 2026.9287,-515.8884 2016.4365,-514.4172 2017.8091,-521.2813"/>
</g>
<!-- FloatLatitude -->
<g id="node42" class="node">
<title>FloatLatitude</title>
<ellipse fill="#ffffff" stroke="#000000" cx="837.4567" cy="-503.4" rx="66.7018" ry="18"/>
<text text-anchor="middle" x="837.4567" y="-499.2" font-family="Helvetica,sans-Serif" font-size="14.00" fill="#000000">FloatLatitude</text>
</g>
<!-- Attribute&#45;&gt;FloatLatitude -->
<g id="edge46" class="edge">
<title>Attribute&#45;&gt;FloatLatitude</title>
<path fill="none" stroke="#000000" d="M1325.1326,-573.4638C1250.0787,-566.76 1065.8839,-548.7637 913.4567,-521.4 907.8138,-520.387 901.9617,-519.2176 896.1235,-517.9711"/>
<polygon fill="#000000" stroke="#000000" points="896.87,-514.5517 886.3507,-515.8145 895.3615,-521.3872 896.87,-514.5517"/>
</g>
<!-- NullableString -->
<g id="node43" class="node">
<title>NullableString</title>
<ellipse fill="#ffffff" stroke="#000000" cx="993.4567" cy="-503.4" rx="71.2559" ry="18"/>
<text text-anchor="middle" x="993.4567" y="-499.2" font-family="Helvetica,sans-Serif" font-size="14.00" fill="#000000">NullableString</text>
</g>
<!-- Attribute&#45;&gt;NullableString -->
<g id="edge45" class="edge">
<title>Attribute&#45;&gt;NullableString</title>
<path fill="none" stroke="#000000" d="M1325.1762,-570.1055C1271.5874,-560.1934 1164.7498,-540.1412 1074.4567,-521.4 1068.6737,-520.1997 1062.6654,-518.9221 1056.6523,-517.6229"/>
<polygon fill="#000000" stroke="#000000" points="1057.083,-514.1347 1046.5671,-515.4257 1055.5929,-520.9743 1057.083,-514.1347"/>
</g>
<!-- NullableInt64 -->
<g id="node44" class="node">
<title>NullableInt64</title>
<ellipse fill="#ffffff" stroke="#000000" cx="1150.4567" cy="-503.4" rx="67.264" ry="18"/>
<text text-anchor="middle" x="1150.4567" y="-499.2" font-family="Helvetica,sans-Serif" font-size="14.00" fill="#000000">NullableInt64</text>
</g>
<!-- Attribute&#45;&gt;NullableInt64 -->
<g id="edge44" class="edge">
<title>Attribute&#45;&gt;NullableInt64</title>
<path fill="none" stroke="#000000" d="M1324.9446,-564.3455C1291.1695,-552.5485 1239.3421,-534.4461 1200.9386,-521.0324"/>
<polygon fill="#000000" stroke="#000000" points="1202.0783,-517.7232 1191.4834,-517.7299 1199.77,-524.3317 1202.0783,-517.7232"/>
</g>
<!-- NullablePOSIXTimestamp -->
<g id="node45" class="node">
<title>NullablePOSIXTimestamp</title>
<ellipse fill="#ffffff" stroke="#000000" cx="1359.4567" cy="-503.4" rx="123.3442" ry="18"/>
<text text-anchor="middle" x="1359.4567" y="-499.2" font-family="Helvetica,sans-Serif" font-size="14.00" fill="#000000">NullablePOSIXTimestamp</text>
</g>
<!-- Attribute&#45;&gt;NullablePOSIXTimestamp -->
<g id="edge43" class="edge">
<title>Attribute&#45;&gt;NullablePOSIXTimestamp</title>
<path fill="none" stroke="#000000" d="M1359.4567,-558.3551C1359.4567,-550.2828 1359.4567,-540.5764 1359.4567,-531.5817"/>
<polygon fill="#000000" stroke="#000000" points="1362.9568,-531.4903 1359.4567,-521.4904 1355.9568,-531.4904 1362.9568,-531.4903"/>
</g>
<!-- NullableStringIdentifier -->
<g id="node46" class="node">
<title>NullableStringIdentifier</title>
<ellipse fill="#ffffff" stroke="#000000" cx="1608.4567" cy="-503.4" rx="108.3053" ry="18"/>
<text text-anchor="middle" x="1608.4567" y="-499.2" font-family="Helvetica,sans-Serif" font-size="14.00" fill="#000000">NullableStringIdentifier</text>
</g>
<!-- Attribute&#45;&gt;NullableStringIdentifier -->
<g id="edge42" class="edge">
<title>Attribute&#45;&gt;NullableStringIdentifier</title>
<path fill="none" stroke="#000000" d="M1393.557,-566.4027C1432.4348,-555.0048 1496.8294,-536.1261 1545.0107,-522.0006"/>
<polygon fill="#000000" stroke="#000000" points="1546.113,-525.3249 1554.7244,-519.1528 1544.1436,-518.6076 1546.113,-525.3249"/>
</g>
<!-- KeyStringIdentifier -->
<g id="node47" class="node">
<title>KeyStringIdentifier</title>
<ellipse fill="#ffffff" stroke="#000000" cx="1824.4567" cy="-503.4" rx="89.8328" ry="18"/>
<text text-anchor="middle" x="1824.4567" y="-499.2" font-family="Helvetica,sans-Serif" font-size="14.00" fill="#000000">KeyStringIdentifier</text>
</g>
<!-- Attribute&#45;&gt;KeyStringIdentifier -->
<g id="edge41" class="edge">
<title>Attribute&#45;&gt;KeyStringIdentifier</title>
<path fill="none" stroke="#000000" d="M1393.5715,-571.6301C1458.3519,-562.4935 1603.594,-541.6299 1725.4567,-521.4 1732.9694,-520.1529 1740.7943,-518.8085 1748.6071,-517.4362"/>
<polygon fill="#000000" stroke="#000000" points="1749.2366,-520.8792 1758.4726,-515.6882 1748.0153,-513.9866 1749.2366,-520.8792"/>
</g>
</g>
</svg>
