<?xml version="1.0" encoding="UTF-8" standalone="no"?>
<!DOCTYPE svg PUBLIC "-//W3C//DTD SVG 1.1//EN"
 "http://www.w3.org/Graphics/SVG/1.1/DTD/svg11.dtd">
<!-- Generated by graphviz version 2.40.1 (20161225.0304)
 -->
<!-- Title: boxes_and_circles Pages: 1 -->
<svg width="2225pt" height="1215pt"
 viewBox="0.00 0.00 2224.79 1215.00" xmlns="http://www.w3.org/2000/svg" xmlns:xlink="http://www.w3.org/1999/xlink">
<g id="graph0" class="graph" transform="scale(1 1) rotate(0) translate(4 1211)">
<title>boxes_and_circles</title>
<polygon fill="#ffffff" stroke="transparent" points="-4,4 -4,-1211 2220.788,-1211 2220.788,4 -4,4"/>
<!-- AccessPolicy -->
<g id="node1" class="node">
<title>AccessPolicy</title>
<polygon fill="#c0c0c0" stroke="#000000" points="904.8588,-810.4 805.9535,-810.4 805.9535,-774.4 904.8588,-774.4 904.8588,-810.4"/>
<text text-anchor="middle" x="855.4062" y="-788.2" font-family="Helvetica,sans-Serif" font-size="14.00" fill="#000000">AccessPolicy</text>
</g>
<!-- ApproveAccessSelector -->
<g id="node2" class="node">
<title>ApproveAccessSelector</title>
<ellipse fill="#ffffff" stroke="#000000" cx="856.4062" cy="-719.4" rx="113.561" ry="18"/>
<text text-anchor="middle" x="856.4062" y="-715.2" font-family="Helvetica,sans-Serif" font-size="14.00" fill="#000000">ApproveAccessSelector</text>
</g>
<!-- AccessPolicy&#45;&gt;ApproveAccessSelector -->
<g id="edge1" class="edge">
<title>AccessPolicy&#45;&gt;ApproveAccessSelector</title>
<path fill="none" stroke="#000000" d="M855.6533,-774.3551C855.7639,-766.2828 855.8969,-756.5764 856.0201,-747.5817"/>
<polygon fill="#000000" stroke="#000000" points="859.5209,-747.5374 856.1583,-737.4904 852.5216,-747.4414 859.5209,-747.5374"/>
</g>
<!-- Asset -->
<g id="node3" class="node">
<title>Asset</title>
<polygon fill="#c0c0c0" stroke="#000000" points="686.4062,-810.4 632.4062,-810.4 632.4062,-774.4 686.4062,-774.4 686.4062,-810.4"/>
<text text-anchor="middle" x="659.4062" y="-788.2" font-family="Helvetica,sans-Serif" font-size="14.00" fill="#000000">Asset</text>
</g>
<!-- StaticDataTable -->
<g id="node4" class="node">
<title>StaticDataTable</title>
<ellipse fill="#ffffff" stroke="#000000" cx="547.4062" cy="-719.4" rx="79.9456" ry="18"/>
<text text-anchor="middle" x="547.4062" y="-715.2" font-family="Helvetica,sans-Serif" font-size="14.00" fill="#000000">StaticDataTable</text>
</g>
<!-- Asset&#45;&gt;StaticDataTable -->
<g id="edge2" class="edge">
<title>Asset&#45;&gt;StaticDataTable</title>
<path fill="none" stroke="#000000" d="M632.2941,-774.7287C617.3271,-764.9735 598.5689,-752.7471 582.4948,-742.2703"/>
<polygon fill="#000000" stroke="#000000" points="584.1708,-739.1849 573.8821,-736.6566 580.3485,-745.0492 584.1708,-739.1849"/>
</g>
<!-- DataSchema -->
<g id="node28" class="node">
<title>DataSchema</title>
<polygon fill="#c0c0c0" stroke="#000000" points="429.8136,-648.6 332.9987,-648.6 332.9987,-612.6 429.8136,-612.6 429.8136,-648.6"/>
<text text-anchor="middle" x="381.4062" y="-626.4" font-family="Helvetica,sans-Serif" font-size="14.00" fill="#000000">DataSchema</text>
</g>
<!-- StaticDataTable&#45;&gt;DataSchema -->
<g id="edge4" class="edge">
<title>StaticDataTable&#45;&gt;DataSchema</title>
<path fill="none" stroke="#000000" d="M516.1828,-702.6974C490.1656,-688.7798 452.8474,-668.8168 424.0734,-653.4244"/>
<polygon fill="#000000" stroke="#000000" points="425.5251,-650.2317 415.0565,-648.6009 422.2232,-656.4041 425.5251,-650.2317"/>
<text text-anchor="middle" x="500.3957" y="-670.8" font-family="Times,serif" font-size="14.00" fill="#000000">schema</text>
</g>
<!-- StorageSetup -->
<g id="node34" class="node">
<title>StorageSetup</title>
<polygon fill="#c0c0c0" stroke="#000000" points="604.0002,-648.6 502.8121,-648.6 502.8121,-612.6 604.0002,-612.6 604.0002,-648.6"/>
<text text-anchor="middle" x="553.4062" y="-626.4" font-family="Helvetica,sans-Serif" font-size="14.00" fill="#000000">StorageSetup</text>
</g>
<!-- StaticDataTable&#45;&gt;StorageSetup -->
<g id="edge3" class="edge">
<title>StaticDataTable&#45;&gt;StorageSetup</title>
<path fill="none" stroke="#000000" d="M548.6494,-701.0006C549.4754,-688.775 550.5758,-672.4887 551.5102,-658.6599"/>
<polygon fill="#000000" stroke="#000000" points="555.0029,-658.8852 552.1851,-648.672 548.0188,-658.4133 555.0029,-658.8852"/>
<text text-anchor="middle" x="566.1811" y="-670.8" font-family="Times,serif" font-size="14.00" fill="#000000">setup</text>
</g>
<!-- DataCompression -->
<g id="node5" class="node">
<title>DataCompression</title>
<polygon fill="#c0c0c0" stroke="#000000" points="643.416,-109 515.3964,-109 515.3964,-73 643.416,-73 643.416,-109"/>
<text text-anchor="middle" x="579.4062" y="-86.8" font-family="Helvetica,sans-Serif" font-size="14.00" fill="#000000">DataCompression</text>
</g>
<!-- GzipCompression -->
<g id="node6" class="node">
<title>GzipCompression</title>
<ellipse fill="#ffffff" stroke="#000000" cx="591.4062" cy="-18" rx="87.5187" ry="18"/>
<text text-anchor="middle" x="591.4062" y="-13.8" font-family="Helvetica,sans-Serif" font-size="14.00" fill="#000000">GzipCompression</text>
</g>
<!-- DataCompression&#45;&gt;GzipCompression -->
<g id="edge5" class="edge">
<title>DataCompression&#45;&gt;GzipCompression</title>
<path fill="none" stroke="#000000" d="M582.3725,-72.9551C583.6994,-64.8828 585.295,-55.1764 586.7735,-46.1817"/>
<polygon fill="#000000" stroke="#000000" points="590.2639,-46.5257 588.4324,-36.0904 583.3566,-45.3902 590.2639,-46.5257"/>
</g>
<!-- ParsedDataSetup -->
<g id="node7" class="node">
<title>ParsedDataSetup</title>
<ellipse fill="#ffffff" stroke="#000000" cx="927.4062" cy="-970" rx="87.4912" ry="18"/>
<text text-anchor="middle" x="927.4062" y="-965.8" font-family="Helvetica,sans-Serif" font-size="14.00" fill="#000000">ParsedDataSetup</text>
</g>
<!-- DataSet -->
<g id="node8" class="node">
<title>DataSet</title>
<ellipse fill="#ffffff" stroke="#000000" cx="805.4062" cy="-881.2" rx="45.8407" ry="18"/>
<text text-anchor="middle" x="805.4062" y="-877" font-family="Helvetica,sans-Serif" font-size="14.00" fill="#000000">DataSet</text>
</g>
<!-- ParsedDataSetup&#45;&gt;DataSet -->
<g id="edge8" class="edge">
<title>ParsedDataSetup&#45;&gt;DataSet</title>
<path fill="none" stroke="#000000" d="M903.5937,-952.6677C884.2126,-938.5607 856.7323,-918.5587 835.7707,-903.3014"/>
<polygon fill="#000000" stroke="#000000" points="837.6608,-900.3482 827.516,-897.2931 833.5414,-906.0078 837.6608,-900.3482"/>
<text text-anchor="middle" x="899.5633" y="-921.4" font-family="Times,serif" font-size="14.00" fill="#000000">datasets</text>
</g>
<!-- RoleBinding -->
<g id="node27" class="node">
<title>RoleBinding</title>
<ellipse fill="#ffffff" stroke="#000000" cx="1066.4062" cy="-881.2" rx="63.1731" ry="18"/>
<text text-anchor="middle" x="1066.4062" y="-877" font-family="Helvetica,sans-Serif" font-size="14.00" fill="#000000">RoleBinding</text>
</g>
<!-- ParsedDataSetup&#45;&gt;RoleBinding -->
<g id="edge9" class="edge">
<title>ParsedDataSetup&#45;&gt;RoleBinding</title>
<path fill="none" stroke="#000000" d="M954.5367,-952.6677C976.6315,-938.5524 1007.9647,-918.5352 1031.8525,-903.2745"/>
<polygon fill="#000000" stroke="#000000" points="1033.7427,-906.2203 1040.2855,-897.8871 1029.9741,-900.3213 1033.7427,-906.2203"/>
<text text-anchor="middle" x="1047.902" y="-921.4" font-family="Times,serif" font-size="14.00" fill="#000000">role_bindings</text>
</g>
<!-- User -->
<g id="node37" class="node">
<title>User</title>
<ellipse fill="#ffffff" stroke="#000000" cx="1179.4062" cy="-881.2" rx="31.339" ry="18"/>
<text text-anchor="middle" x="1179.4062" y="-877" font-family="Helvetica,sans-Serif" font-size="14.00" fill="#000000">User</text>
</g>
<!-- ParsedDataSetup&#45;&gt;User -->
<g id="edge6" class="edge">
<title>ParsedDataSetup&#45;&gt;User</title>
<path fill="none" stroke="#000000" d="M998.2628,-959.4297C1027.4289,-953.7858 1061.1636,-945.5582 1090.4062,-934 1112.0327,-925.452 1134.5424,-912.0499 1151.5134,-900.8875"/>
<polygon fill="#000000" stroke="#000000" points="1153.4971,-903.7714 1159.8493,-895.292 1149.5957,-897.9594 1153.4971,-903.7714"/>
<text text-anchor="middle" x="1138.7884" y="-921.4" font-family="Times,serif" font-size="14.00" fill="#000000">users</text>
</g>
<!-- UserGroup -->
<g id="node38" class="node">
<title>UserGroup</title>
<ellipse fill="#ffffff" stroke="#000000" cx="927.4062" cy="-881.2" rx="58.0035" ry="18"/>
<text text-anchor="middle" x="927.4062" y="-877" font-family="Helvetica,sans-Serif" font-size="14.00" fill="#000000">UserGroup</text>
</g>
<!-- ParsedDataSetup&#45;&gt;UserGroup -->
<g id="edge7" class="edge">
<title>ParsedDataSetup&#45;&gt;UserGroup</title>
<path fill="none" stroke="#000000" d="M927.4062,-951.6006C927.4062,-939.4949 927.4062,-923.4076 927.4062,-909.6674"/>
<polygon fill="#000000" stroke="#000000" points="930.9063,-909.272 927.4062,-899.272 923.9063,-909.2721 930.9063,-909.272"/>
<text text-anchor="middle" x="946.4588" y="-921.4" font-family="Times,serif" font-size="14.00" fill="#000000">groups</text>
</g>
<!-- DataSet&#45;&gt;AccessPolicy -->
<g id="edge10" class="edge">
<title>DataSet&#45;&gt;AccessPolicy</title>
<path fill="none" stroke="#000000" d="M817.8396,-863.5464C821.7084,-857.7966 825.8807,-851.3178 829.4062,-845.2 834.0264,-837.1825 838.6315,-828.2298 842.654,-820.007"/>
<polygon fill="#000000" stroke="#000000" points="845.9062,-821.3194 847.0744,-810.7891 839.5945,-818.2925 845.9062,-821.3194"/>
<text text-anchor="middle" x="878.4441" y="-832.6" font-family="Times,serif" font-size="14.00" fill="#000000">accessPolicies</text>
</g>
<!-- DataSet&#45;&gt;Asset -->
<g id="edge12" class="edge">
<title>DataSet&#45;&gt;Asset</title>
<path fill="none" stroke="#000000" d="M780.3079,-865.9347C756.8679,-851.6781 721.6308,-830.2462 695.2361,-814.1924"/>
<polygon fill="#000000" stroke="#000000" points="697.0162,-811.1786 686.6536,-808.9724 693.3786,-817.1593 697.0162,-811.1786"/>
<text text-anchor="middle" x="762.733" y="-832.6" font-family="Times,serif" font-size="14.00" fill="#000000">assets</text>
</g>
<!-- DatumTemplate -->
<g id="node35" class="node">
<title>DatumTemplate</title>
<polygon fill="#c0c0c0" stroke="#000000" points="1072.9708,-810.4 957.8415,-810.4 957.8415,-774.4 1072.9708,-774.4 1072.9708,-810.4"/>
<text text-anchor="middle" x="1015.4062" y="-788.2" font-family="Helvetica,sans-Serif" font-size="14.00" fill="#000000">DatumTemplate</text>
</g>
<!-- DataSet&#45;&gt;DatumTemplate -->
<g id="edge11" class="edge">
<title>DataSet&#45;&gt;DatumTemplate</title>
<path fill="none" stroke="#000000" d="M840.5587,-869.5002C847.1416,-867.3647 853.9742,-865.1856 860.4062,-863.2 887.8229,-854.7364 895.9718,-856.3594 922.4062,-845.2 941.601,-837.0968 961.8379,-825.952 978.5149,-815.9892"/>
<polygon fill="#000000" stroke="#000000" points="980.6539,-818.7851 987.3845,-810.6028 977.0204,-812.802 980.6539,-818.7851"/>
<text text-anchor="middle" x="1004.0605" y="-832.6" font-family="Times,serif" font-size="14.00" fill="#000000">datumTemplates</text>
</g>
<!-- CSVEncoding -->
<g id="node9" class="node">
<title>CSVEncoding</title>
<ellipse fill="#ffffff" stroke="#000000" cx="572.4062" cy="-179.8" rx="71.2829" ry="18"/>
<text text-anchor="middle" x="572.4062" y="-175.6" font-family="Helvetica,sans-Serif" font-size="14.00" fill="#000000">CSVEncoding</text>
</g>
<!-- CSVEncoding&#45;&gt;DataCompression -->
<g id="edge13" class="edge">
<title>CSVEncoding&#45;&gt;DataCompression</title>
<path fill="none" stroke="#000000" d="M573.8566,-161.4006C574.8203,-149.175 576.1041,-132.8887 577.1942,-119.0599"/>
<polygon fill="#000000" stroke="#000000" points="580.6848,-119.3162 577.9816,-109.072 573.7064,-118.766 580.6848,-119.3162"/>
<text text-anchor="middle" x="612.7863" y="-131.2" font-family="Times,serif" font-size="14.00" fill="#000000">compression</text>
</g>
<!-- FileHeader -->
<g id="node12" class="node">
<title>FileHeader</title>
<polygon fill="#c0c0c0" stroke="#000000" points="437.8533,-109 352.959,-109 352.959,-73 437.8533,-73 437.8533,-109"/>
<text text-anchor="middle" x="395.4062" y="-86.8" font-family="Helvetica,sans-Serif" font-size="14.00" fill="#000000">FileHeader</text>
</g>
<!-- CSVEncoding&#45;&gt;FileHeader -->
<g id="edge14" class="edge">
<title>CSVEncoding&#45;&gt;FileHeader</title>
<path fill="none" stroke="#000000" d="M540.3528,-163.719C512.5458,-149.7683 471.9786,-129.416 440.8285,-113.7882"/>
<polygon fill="#000000" stroke="#000000" points="441.9959,-110.4581 431.4882,-109.1022 438.8569,-116.7148 441.9959,-110.4581"/>
<text text-anchor="middle" x="519.0584" y="-131.2" font-family="Times,serif" font-size="14.00" fill="#000000">header</text>
</g>
<!-- Encoding -->
<g id="node10" class="node">
<title>Encoding</title>
<polygon fill="#c0c0c0" stroke="#000000" points="609.7632,-270.8 535.0491,-270.8 535.0491,-234.8 609.7632,-234.8 609.7632,-270.8"/>
<text text-anchor="middle" x="572.4062" y="-248.6" font-family="Helvetica,sans-Serif" font-size="14.00" fill="#000000">Encoding</text>
</g>
<!-- Encoding&#45;&gt;CSVEncoding -->
<g id="edge15" class="edge">
<title>Encoding&#45;&gt;CSVEncoding</title>
<path fill="none" stroke="#000000" d="M572.4062,-234.7551C572.4062,-226.6828 572.4062,-216.9764 572.4062,-207.9817"/>
<polygon fill="#000000" stroke="#000000" points="575.9063,-207.8903 572.4062,-197.8904 568.9063,-207.8904 575.9063,-207.8903"/>
</g>
<!-- ORCEncoding -->
<g id="node11" class="node">
<title>ORCEncoding</title>
<ellipse fill="#ffffff" stroke="#000000" cx="410.4062" cy="-179.8" rx="72.9896" ry="18"/>
<text text-anchor="middle" x="410.4062" y="-175.6" font-family="Helvetica,sans-Serif" font-size="14.00" fill="#000000">ORCEncoding</text>
</g>
<!-- Encoding&#45;&gt;ORCEncoding -->
<g id="edge16" class="edge">
<title>Encoding&#45;&gt;ORCEncoding</title>
<path fill="none" stroke="#000000" d="M534.8329,-235.8688C510.9631,-225.1127 479.9498,-211.1376 454.8575,-199.8305"/>
<polygon fill="#000000" stroke="#000000" points="456.1128,-196.5573 445.5577,-195.6399 453.2369,-202.9393 456.1128,-196.5573"/>
</g>
<!-- UpperSnakeCaseCSVHeader -->
<g id="node13" class="node">
<title>UpperSnakeCaseCSVHeader</title>
<ellipse fill="#ffffff" stroke="#000000" cx="346.4062" cy="-18" rx="138.9977" ry="18"/>
<text text-anchor="middle" x="346.4062" y="-13.8" font-family="Helvetica,sans-Serif" font-size="14.00" fill="#000000">UpperSnakeCaseCSVHeader</text>
</g>
<!-- FileHeader&#45;&gt;UpperSnakeCaseCSVHeader -->
<g id="edge17" class="edge">
<title>FileHeader&#45;&gt;UpperSnakeCaseCSVHeader</title>
<path fill="none" stroke="#000000" d="M383.2938,-72.9551C377.5221,-64.3564 370.5057,-53.9034 364.1479,-44.4316"/>
<polygon fill="#000000" stroke="#000000" points="367.0283,-42.4427 358.549,-36.0904 361.2162,-46.344 367.0283,-42.4427"/>
</g>
<!-- SingleFileLayout -->
<g id="node14" class="node">
<title>SingleFileLayout</title>
<ellipse fill="#ffffff" stroke="#000000" cx="82.4062" cy="-179.8" rx="82.3124" ry="18"/>
<text text-anchor="middle" x="82.4062" y="-175.6" font-family="Helvetica,sans-Serif" font-size="14.00" fill="#000000">SingleFileLayout</text>
</g>
<!-- FileBasedStorageLayout -->
<g id="node15" class="node">
<title>FileBasedStorageLayout</title>
<polygon fill="#c0c0c0" stroke="#000000" points="274.1784,-270.8 104.6339,-270.8 104.6339,-234.8 274.1784,-234.8 274.1784,-270.8"/>
<text text-anchor="middle" x="189.4062" y="-248.6" font-family="Helvetica,sans-Serif" font-size="14.00" fill="#000000">FileBasedStorageLayout</text>
</g>
<!-- FileBasedStorageLayout&#45;&gt;SingleFileLayout -->
<g id="edge18" class="edge">
<title>FileBasedStorageLayout&#45;&gt;SingleFileLayout</title>
<path fill="none" stroke="#000000" d="M162.9567,-234.7551C148.8853,-225.1549 131.4259,-213.2434 116.3628,-202.9667"/>
<polygon fill="#000000" stroke="#000000" points="118.0477,-199.8793 107.8145,-197.1347 114.1027,-205.6617 118.0477,-199.8793"/>
</g>
<!-- StaticHiveTableLayout -->
<g id="node16" class="node">
<title>StaticHiveTableLayout</title>
<ellipse fill="#ffffff" stroke="#000000" cx="1029.4062" cy="-179.8" rx="107.7545" ry="18"/>
<text text-anchor="middle" x="1029.4062" y="-175.6" font-family="Helvetica,sans-Serif" font-size="14.00" fill="#000000">StaticHiveTableLayout</text>
</g>
<!-- DailyGranularity -->
<g id="node17" class="node">
<title>DailyGranularity</title>
<ellipse fill="#ffffff" stroke="#000000" cx="782.4062" cy="-18" rx="79.9069" ry="18"/>
<text text-anchor="middle" x="782.4062" y="-13.8" font-family="Helvetica,sans-Serif" font-size="14.00" fill="#000000">DailyGranularity</text>
</g>
<!-- Granularity -->
<g id="node18" class="node">
<title>Granularity</title>
<polygon fill="#c0c0c0" stroke="#000000" points="824.8533,-109 739.959,-109 739.959,-73 824.8533,-73 824.8533,-109"/>
<text text-anchor="middle" x="782.4062" y="-86.8" font-family="Helvetica,sans-Serif" font-size="14.00" fill="#000000">Granularity</text>
</g>
<!-- Granularity&#45;&gt;DailyGranularity -->
<g id="edge19" class="edge">
<title>Granularity&#45;&gt;DailyGranularity</title>
<path fill="none" stroke="#000000" d="M782.4062,-72.9551C782.4062,-64.8828 782.4062,-55.1764 782.4062,-46.1817"/>
<polygon fill="#000000" stroke="#000000" points="785.9063,-46.0903 782.4062,-36.0904 778.9063,-46.0904 785.9063,-46.0903"/>
</g>
<!-- DynamicHiveTableLayout -->
<g id="node19" class="node">
<title>DynamicHiveTableLayout</title>
<ellipse fill="#ffffff" stroke="#000000" cx="782.4062" cy="-179.8" rx="121.0621" ry="18"/>
<text text-anchor="middle" x="782.4062" y="-175.6" font-family="Helvetica,sans-Serif" font-size="14.00" fill="#000000">DynamicHiveTableLayout</text>
</g>
<!-- DynamicHiveTableLayout&#45;&gt;Granularity -->
<g id="edge20" class="edge">
<title>DynamicHiveTableLayout&#45;&gt;Granularity</title>
<path fill="none" stroke="#000000" d="M782.4062,-161.4006C782.4062,-149.2949 782.4062,-133.2076 782.4062,-119.4674"/>
<polygon fill="#000000" stroke="#000000" points="785.9063,-119.072 782.4062,-109.072 778.9063,-119.0721 785.9063,-119.072"/>
<text text-anchor="middle" x="813.1173" y="-131.2" font-family="Times,serif" font-size="14.00" fill="#000000">granularity</text>
</g>
<!-- HiveStorageLayout -->
<g id="node20" class="node">
<title>HiveStorageLayout</title>
<polygon fill="#c0c0c0" stroke="#000000" points="794.9412,-270.8 659.8712,-270.8 659.8712,-234.8 794.9412,-234.8 794.9412,-270.8"/>
<text text-anchor="middle" x="727.4062" y="-248.6" font-family="Helvetica,sans-Serif" font-size="14.00" fill="#000000">HiveStorageLayout</text>
</g>
<!-- HiveStorageLayout&#45;&gt;StaticHiveTableLayout -->
<g id="edge21" class="edge">
<title>HiveStorageLayout&#45;&gt;StaticHiveTableLayout</title>
<path fill="none" stroke="#000000" d="M795.1809,-236.4174C843.6645,-224.6978 908.7954,-208.9543 958.0687,-197.0438"/>
<polygon fill="#000000" stroke="#000000" points="959.1185,-200.391 968.0162,-194.6393 957.4737,-193.5869 959.1185,-200.391"/>
</g>
<!-- HiveStorageLayout&#45;&gt;DynamicHiveTableLayout -->
<g id="edge22" class="edge">
<title>HiveStorageLayout&#45;&gt;DynamicHiveTableLayout</title>
<path fill="none" stroke="#000000" d="M741.0017,-234.7551C747.5462,-226.0686 755.5165,-215.4898 762.7101,-205.942"/>
<polygon fill="#000000" stroke="#000000" points="765.5543,-207.9834 768.7764,-197.8904 759.9635,-203.7711 765.5543,-207.9834"/>
</g>
<!-- AlluxioLocation -->
<g id="node21" class="node">
<title>AlluxioLocation</title>
<ellipse fill="#ffffff" stroke="#000000" cx="1231.4062" cy="-179.8" rx="75.9338" ry="18"/>
<text text-anchor="middle" x="1231.4062" y="-175.6" font-family="Helvetica,sans-Serif" font-size="14.00" fill="#000000">AlluxioLocation</text>
</g>
<!-- GCSLocation -->
<g id="node22" class="node">
<title>GCSLocation</title>
<ellipse fill="#ffffff" stroke="#000000" cx="251.4062" cy="-179.8" rx="68.4134" ry="18"/>
<text text-anchor="middle" x="251.4062" y="-175.6" font-family="Helvetica,sans-Serif" font-size="14.00" fill="#000000">GCSLocation</text>
</g>
<!-- HiveLocation -->
<g id="node23" class="node">
<title>HiveLocation</title>
<polygon fill="#c0c0c0" stroke="#000000" points="909.8122,-270.8 813.0001,-270.8 813.0001,-234.8 909.8122,-234.8 909.8122,-270.8"/>
<text text-anchor="middle" x="861.4062" y="-248.6" font-family="Helvetica,sans-Serif" font-size="14.00" fill="#000000">HiveLocation</text>
</g>
<!-- HiveLocation&#45;&gt;AlluxioLocation -->
<g id="edge23" class="edge">
<title>HiveLocation&#45;&gt;AlluxioLocation</title>
<path fill="none" stroke="#000000" d="M909.869,-243.7233C966.6203,-233.0303 1063.4293,-214.5909 1146.4062,-197.8 1152.4216,-196.5827 1158.6721,-195.2977 1164.9309,-193.9972"/>
<polygon fill="#000000" stroke="#000000" points="1165.6673,-197.419 1174.7405,-191.9484 1164.2361,-190.5669 1165.6673,-197.419"/>
</g>
<!-- RemoteLocation -->
<g id="node24" class="node">
<title>RemoteLocation</title>
<polygon fill="#c0c0c0" stroke="#000000" points="517.322,-270.8 399.4903,-270.8 399.4903,-234.8 517.322,-234.8 517.322,-270.8"/>
<text text-anchor="middle" x="458.4062" y="-248.6" font-family="Helvetica,sans-Serif" font-size="14.00" fill="#000000">RemoteLocation</text>
</g>
<!-- RemoteLocation&#45;&gt;GCSLocation -->
<g id="edge24" class="edge">
<title>RemoteLocation&#45;&gt;GCSLocation</title>
<path fill="none" stroke="#000000" d="M407.2376,-234.7551C375.2302,-223.4674 334.1616,-208.9843 302.2212,-197.7203"/>
<polygon fill="#000000" stroke="#000000" points="303.2166,-194.3601 292.6218,-194.335 300.8885,-200.9616 303.2166,-194.3601"/>
</g>
<!-- GlobalPermissionsAdmin -->
<g id="node25" class="node">
<title>GlobalPermissionsAdmin</title>
<ellipse fill="#ffffff" stroke="#000000" cx="1252.4062" cy="-719.4" rx="118.7533" ry="18"/>
<text text-anchor="middle" x="1252.4062" y="-715.2" font-family="Helvetica,sans-Serif" font-size="14.00" fill="#000000">GlobalPermissionsAdmin</text>
</g>
<!-- Role -->
<g id="node26" class="node">
<title>Role</title>
<polygon fill="#c0c0c0" stroke="#000000" points="1211.4062,-810.4 1157.4062,-810.4 1157.4062,-774.4 1211.4062,-774.4 1211.4062,-810.4"/>
<text text-anchor="middle" x="1184.4062" y="-788.2" font-family="Helvetica,sans-Serif" font-size="14.00" fill="#000000">Role</text>
</g>
<!-- Role&#45;&gt;GlobalPermissionsAdmin -->
<g id="edge25" class="edge">
<title>Role&#45;&gt;GlobalPermissionsAdmin</title>
<path fill="none" stroke="#000000" d="M1201.2152,-774.3551C1209.5321,-765.4265 1219.7115,-754.4987 1228.7961,-744.7461"/>
<polygon fill="#000000" stroke="#000000" points="1231.5355,-746.9402 1235.7905,-737.2374 1226.4134,-742.169 1231.5355,-746.9402"/>
</g>
<!-- RoleBinding&#45;&gt;Role -->
<g id="edge26" class="edge">
<title>RoleBinding&#45;&gt;Role</title>
<path fill="none" stroke="#000000" d="M1088.8788,-864.2884C1106.7828,-850.8149 1132.0855,-831.7735 1152.1522,-816.6724"/>
<polygon fill="#000000" stroke="#000000" points="1154.5092,-819.2791 1160.3949,-810.4695 1150.3001,-813.6859 1154.5092,-819.2791"/>
<text text-anchor="middle" x="1147.2891" y="-832.6" font-family="Times,serif" font-size="14.00" fill="#000000">role</text>
</g>
<!-- TabularSchema -->
<g id="node29" class="node">
<title>TabularSchema</title>
<ellipse fill="#ffffff" stroke="#000000" cx="326.4062" cy="-557.6" rx="79.3677" ry="18"/>
<text text-anchor="middle" x="326.4062" y="-553.4" font-family="Helvetica,sans-Serif" font-size="14.00" fill="#000000">TabularSchema</text>
</g>
<!-- DataSchema&#45;&gt;TabularSchema -->
<g id="edge27" class="edge">
<title>DataSchema&#45;&gt;TabularSchema</title>
<path fill="none" stroke="#000000" d="M367.8106,-612.5551C361.2169,-603.8033 353.1758,-593.1307 345.9401,-583.5268"/>
<polygon fill="#000000" stroke="#000000" points="348.6582,-581.3181 339.8453,-575.4374 343.0674,-585.5304 348.6582,-581.3181"/>
</g>
<!-- HiveTableStorage -->
<g id="node30" class="node">
<title>HiveTableStorage</title>
<ellipse fill="#ffffff" stroke="#000000" cx="725.4062" cy="-341.6" rx="88.1135" ry="18"/>
<text text-anchor="middle" x="725.4062" y="-337.4" font-family="Helvetica,sans-Serif" font-size="14.00" fill="#000000">HiveTableStorage</text>
</g>
<!-- HiveTableStorage&#45;&gt;Encoding -->
<g id="edge30" class="edge">
<title>HiveTableStorage&#45;&gt;Encoding</title>
<path fill="none" stroke="#000000" d="M695.9062,-324.4785C672.2146,-310.728 638.7037,-291.2786 612.5659,-276.1084"/>
<polygon fill="#000000" stroke="#000000" points="614.0621,-272.93 603.6563,-270.9373 610.5482,-278.9842 614.0621,-272.93"/>
<text text-anchor="middle" x="689.0661" y="-293" font-family="Times,serif" font-size="14.00" fill="#000000">encoding</text>
</g>
<!-- HiveTableStorage&#45;&gt;HiveStorageLayout -->
<g id="edge29" class="edge">
<title>HiveTableStorage&#45;&gt;HiveStorageLayout</title>
<path fill="none" stroke="#000000" d="M725.8206,-323.2006C726.0932,-311.0949 726.4555,-295.0076 726.765,-281.2674"/>
<polygon fill="#000000" stroke="#000000" points="730.273,-280.9483 726.9991,-270.872 723.2748,-280.7906 730.273,-280.9483"/>
<text text-anchor="middle" x="744.9041" y="-293" font-family="Times,serif" font-size="14.00" fill="#000000">layout</text>
</g>
<!-- HiveTableStorage&#45;&gt;HiveLocation -->
<g id="edge28" class="edge">
<title>HiveTableStorage&#45;&gt;HiveLocation</title>
<path fill="none" stroke="#000000" d="M749.0152,-324.2128C763.5928,-313.6645 782.7952,-300.1035 800.3052,-288.8 806.9237,-284.5274 814.0508,-280.1417 821.0186,-275.9663"/>
<polygon fill="#000000" stroke="#000000" points="822.892,-278.9246 829.7092,-270.8143 819.3223,-272.9032 822.892,-278.9246"/>
<text text-anchor="middle" x="822.9567" y="-293" font-family="Times,serif" font-size="14.00" fill="#000000">location</text>
</g>
<!-- RemoteStorage -->
<g id="node31" class="node">
<title>RemoteStorage</title>
<ellipse fill="#ffffff" stroke="#000000" cx="475.4062" cy="-341.6" rx="78.8034" ry="18"/>
<text text-anchor="middle" x="475.4062" y="-337.4" font-family="Helvetica,sans-Serif" font-size="14.00" fill="#000000">RemoteStorage</text>
</g>
<!-- RemoteStorage&#45;&gt;Encoding -->
<g id="edge33" class="edge">
<title>RemoteStorage&#45;&gt;Encoding</title>
<path fill="none" stroke="#000000" d="M494.5702,-324.056C508.9945,-310.8511 528.964,-292.5698 545.0642,-277.8305"/>
<polygon fill="#000000" stroke="#000000" points="547.6033,-280.2513 552.6159,-270.9172 542.8766,-275.0881 547.6033,-280.2513"/>
<text text-anchor="middle" x="559.0661" y="-293" font-family="Times,serif" font-size="14.00" fill="#000000">encoding</text>
</g>
<!-- RemoteStorage&#45;&gt;FileBasedStorageLayout -->
<g id="edge32" class="edge">
<title>RemoteStorage&#45;&gt;FileBasedStorageLayout</title>
<path fill="none" stroke="#000000" d="M428.4993,-327.0359C381.8787,-312.5607 309.8963,-290.2109 257.0892,-273.8149"/>
<polygon fill="#000000" stroke="#000000" points="258.0507,-270.4486 247.4625,-270.8259 255.9749,-277.1338 258.0507,-270.4486"/>
<text text-anchor="middle" x="375.9041" y="-293" font-family="Times,serif" font-size="14.00" fill="#000000">layout</text>
</g>
<!-- RemoteStorage&#45;&gt;RemoteLocation -->
<g id="edge31" class="edge">
<title>RemoteStorage&#45;&gt;RemoteLocation</title>
<path fill="none" stroke="#000000" d="M471.8837,-323.2006C469.5433,-310.975 466.4254,-294.6887 463.778,-280.8599"/>
<polygon fill="#000000" stroke="#000000" points="467.1838,-280.0355 461.8659,-270.872 460.3087,-281.3518 467.1838,-280.0355"/>
<text text-anchor="middle" x="491.9567" y="-293" font-family="Times,serif" font-size="14.00" fill="#000000">location</text>
</g>
<!-- Storage -->
<g id="node32" class="node">
<title>Storage</title>
<polygon fill="#c0c0c0" stroke="#000000" points="561.9244,-467.6 496.888,-467.6 496.888,-431.6 561.9244,-431.6 561.9244,-467.6"/>
<text text-anchor="middle" x="529.4062" y="-445.4" font-family="Helvetica,sans-Serif" font-size="14.00" fill="#000000">Storage</text>
</g>
<!-- Storage&#45;&gt;HiveTableStorage -->
<g id="edge35" class="edge">
<title>Storage&#45;&gt;HiveTableStorage</title>
<path fill="none" stroke="#000000" d="M562.2122,-431.5232C596.2693,-412.7571 649.5513,-383.3976 685.9006,-363.3684"/>
<polygon fill="#000000" stroke="#000000" points="687.6858,-366.3809 694.7551,-358.4894 684.3075,-360.25 687.6858,-366.3809"/>
</g>
<!-- Storage&#45;&gt;RemoteStorage -->
<g id="edge34" class="edge">
<title>Storage&#45;&gt;RemoteStorage</title>
<path fill="none" stroke="#000000" d="M520.2458,-431.2793C511.6605,-414.1088 498.7196,-388.2268 488.9433,-368.6743"/>
<polygon fill="#000000" stroke="#000000" points="492.0339,-367.0292 484.4312,-359.6502 485.7729,-370.1597 492.0339,-367.0292"/>
</g>
<!-- RemoteImportStorageSetup -->
<g id="node33" class="node">
<title>RemoteImportStorageSetup</title>
<ellipse fill="#ffffff" stroke="#000000" cx="554.4062" cy="-557.6" rx="131.485" ry="18"/>
<text text-anchor="middle" x="554.4062" y="-553.4" font-family="Helvetica,sans-Serif" font-size="14.00" fill="#000000">RemoteImportStorageSetup</text>
</g>
<!-- RemoteImportStorageSetup&#45;&gt;Storage -->
<g id="edge36" class="edge">
<title>RemoteImportStorageSetup&#45;&gt;Storage</title>
<path fill="none" stroke="#000000" d="M550.1652,-539.2793C546.2448,-522.3429 540.3624,-496.9311 535.8593,-477.4777"/>
<polygon fill="#000000" stroke="#000000" points="539.2495,-476.6032 533.5844,-467.6502 532.4299,-478.1819 539.2495,-476.6032"/>
<text text-anchor="middle" x="565.8417" y="-499.4" font-family="Times,serif" font-size="14.00" fill="#000000">remote</text>
</g>
<!-- RemoteImportStorageSetup&#45;&gt;Storage -->
<g id="edge37" class="edge">
<title>RemoteImportStorageSetup&#45;&gt;Storage</title>
<path fill="none" stroke="#000000" d="M522.8464,-540.0399C516.5385,-534.9618 510.7625,-528.8052 507.1958,-521.6 500.0975,-507.2607 502.8295,-500.9927 507.1958,-485.6 508.05,-482.5885 509.2355,-479.5818 510.6183,-476.6619"/>
<polygon fill="#000000" stroke="#000000" points="513.7795,-478.1772 515.5434,-467.7302 507.6497,-474.7971 513.7795,-478.1772"/>
<text text-anchor="middle" x="521.0114" y="-499.4" font-family="Times,serif" font-size="14.00" fill="#000000">local</text>
</g>
<!-- StorageSetup&#45;&gt;RemoteImportStorageSetup -->
<g id="edge38" class="edge">
<title>StorageSetup&#45;&gt;RemoteImportStorageSetup</title>
<path fill="none" stroke="#000000" d="M553.6533,-612.5551C553.7639,-604.4828 553.8969,-594.7764 554.0201,-585.7817"/>
<polygon fill="#000000" stroke="#000000" points="557.5209,-585.7374 554.1583,-575.6904 550.5216,-585.6414 557.5209,-585.7374"/>
</g>
<!-- KeyedStruct -->
<g id="node36" class="node">
<title>KeyedStruct</title>
<ellipse fill="#ffffff" stroke="#000000" cx="1051.4062" cy="-719.4" rx="63.7587" ry="18"/>
<text text-anchor="middle" x="1051.4062" y="-715.2" font-family="Helvetica,sans-Serif" font-size="14.00" fill="#000000">KeyedStruct</text>
</g>
<!-- DatumTemplate&#45;&gt;KeyedStruct -->
<g id="edge39" class="edge">
<title>DatumTemplate&#45;&gt;KeyedStruct</title>
<path fill="none" stroke="#000000" d="M1024.305,-774.3551C1028.4466,-765.9569 1033.4604,-755.79 1038.0438,-746.496"/>
<polygon fill="#000000" stroke="#000000" points="1041.3257,-747.7541 1042.6096,-737.2374 1035.0476,-744.6581 1041.3257,-747.7541"/>
</g>
<!-- Attribute -->
<g id="node39" class="node">
<title>Attribute</title>
<polygon fill="#c0c0c0" stroke="#000000" points="1589.5297,-648.6 1521.2826,-648.6 1521.2826,-612.6 1589.5297,-612.6 1589.5297,-648.6"/>
<text text-anchor="middle" x="1555.4062" y="-626.4" font-family="Helvetica,sans-Serif" font-size="14.00" fill="#000000">Attribute</text>
</g>
<!-- KeyedStruct&#45;&gt;Attribute -->
<g id="edge40" class="edge">
<title>KeyedStruct&#45;&gt;Attribute</title>
<path fill="none" stroke="#000000" d="M1098.4053,-707.2326C1107.0267,-705.1656 1115.9667,-703.1308 1124.4062,-701.4 1264.8114,-672.6044 1432.839,-647.7346 1511.1597,-636.6911"/>
<polygon fill="#000000" stroke="#000000" points="1511.7394,-640.1441 1521.1559,-635.2881 1510.7664,-633.2121 1511.7394,-640.1441"/>
<text text-anchor="middle" x="1339.4546" y="-670.8" font-family="Times,serif" font-size="14.00" fill="#000000">attributes</text>
</g>
<!-- URI -->
<g id="node40" class="node">
<title>URI</title>
<ellipse fill="#ffffff" stroke="#000000" cx="1555.4062" cy="-557.6" rx="27.8267" ry="18"/>
<text text-anchor="middle" x="1555.4062" y="-553.4" font-family="Helvetica,sans-Serif" font-size="14.00" fill="#000000">URI</text>
</g>
<!-- Attribute&#45;&gt;URI -->
<g id="edge48" class="edge">
<title>Attribute&#45;&gt;URI</title>
<path fill="none" stroke="#000000" d="M1555.4062,-612.5551C1555.4062,-604.4828 1555.4062,-594.7764 1555.4062,-585.7817"/>
<polygon fill="#000000" stroke="#000000" points="1558.9063,-585.6903 1555.4062,-575.6904 1551.9063,-585.6904 1558.9063,-585.6903"/>
</g>
<!-- FloatLongitude -->
<g id="node41" class="node">
<title>FloatLongitude</title>
<ellipse fill="#ffffff" stroke="#000000" cx="1676.4062" cy="-557.6" rx="74.8075" ry="18"/>
<text text-anchor="middle" x="1676.4062" y="-553.4" font-family="Helvetica,sans-Serif" font-size="14.00" fill="#000000">FloatLongitude</text>
</g>
<!-- Attribute&#45;&gt;FloatLongitude -->
<g id="edge47" class="edge">
<title>Attribute&#45;&gt;FloatLongitude</title>
<path fill="none" stroke="#000000" d="M1585.3163,-612.5551C1601.7646,-602.6317 1622.3066,-590.2386 1639.7178,-579.7343"/>
<polygon fill="#000000" stroke="#000000" points="1641.7447,-582.5991 1648.4991,-574.4365 1638.1287,-576.6054 1641.7447,-582.5991"/>
</g>
<!-- FloatLatitude -->
<g id="node42" class="node">
<title>FloatLatitude</title>
<ellipse fill="#ffffff" stroke="#000000" cx="1836.4062" cy="-557.6" rx="66.7018" ry="18"/>
<text text-anchor="middle" x="1836.4062" y="-553.4" font-family="Helvetica,sans-Serif" font-size="14.00" fill="#000000">FloatLatitude</text>
</g>
<!-- Attribute&#45;&gt;FloatLatitude -->
<g id="edge46" class="edge">
<title>Attribute&#45;&gt;FloatLatitude</title>
<path fill="none" stroke="#000000" d="M1589.5813,-621.7217C1636.4253,-609.5523 1721.2438,-587.5176 1778.1992,-572.7214"/>
<polygon fill="#000000" stroke="#000000" points="1779.344,-576.0402 1788.1427,-570.1382 1777.5839,-569.2651 1779.344,-576.0402"/>
</g>
<!-- NullableString -->
<g id="node43" class="node">
<title>NullableString</title>
<ellipse fill="#ffffff" stroke="#000000" cx="1992.4062" cy="-557.6" rx="71.2559" ry="18"/>
<text text-anchor="middle" x="1992.4062" y="-553.4" font-family="Helvetica,sans-Serif" font-size="14.00" fill="#000000">NullableString</text>
</g>
<!-- Attribute&#45;&gt;NullableString -->
<g id="edge45" class="edge">
<title>Attribute&#45;&gt;NullableString</title>
<path fill="none" stroke="#000000" d="M1589.5028,-626.1389C1653.1799,-617.6321 1794.4113,-597.9365 1912.4062,-575.6 1918.1411,-574.5144 1924.0911,-573.3148 1930.0401,-572.0656"/>
<polygon fill="#000000" stroke="#000000" points="1930.9686,-575.4461 1940.0129,-569.9278 1929.5014,-568.6016 1930.9686,-575.4461"/>
</g>
<!-- NullableInt64 -->
<g id="node44" class="node">
<title>NullableInt64</title>
<ellipse fill="#ffffff" stroke="#000000" cx="2149.4062" cy="-557.6" rx="67.264" ry="18"/>
<text text-anchor="middle" x="2149.4062" y="-553.4" font-family="Helvetica,sans-Serif" font-size="14.00" fill="#000000">NullableInt64</text>
</g>
<!-- Attribute&#45;&gt;NullableInt64 -->
<g id="edge44" class="edge">
<title>Attribute&#45;&gt;NullableInt64</title>
<path fill="none" stroke="#000000" d="M1589.4791,-628.4393C1672.512,-622.8564 1891.7454,-606.2051 2072.4062,-575.6 2078.2159,-574.6158 2084.242,-573.4556 2090.2487,-572.2061"/>
<polygon fill="#000000" stroke="#000000" points="2091.2624,-575.5679 2100.2973,-570.0344 2089.7836,-568.7259 2091.2624,-575.5679"/>
</g>
<!-- NullablePOSIXTimestamp -->
<g id="node45" class="node">
<title>NullablePOSIXTimestamp</title>
<ellipse fill="#ffffff" stroke="#000000" cx="954.4062" cy="-557.6" rx="123.3442" ry="18"/>
<text text-anchor="middle" x="954.4062" y="-553.4" font-family="Helvetica,sans-Serif" font-size="14.00" fill="#000000">NullablePOSIXTimestamp</text>
</g>
<!-- Attribute&#45;&gt;NullablePOSIXTimestamp -->
<g id="edge43" class="edge">
<title>Attribute&#45;&gt;NullablePOSIXTimestamp</title>
<path fill="none" stroke="#000000" d="M1521.2482,-626.8169C1443.8251,-618.1933 1249.0668,-596.2263 1086.4062,-575.6 1075.8658,-574.2634 1064.8578,-572.8269 1053.8895,-571.3694"/>
<polygon fill="#000000" stroke="#000000" points="1054.2176,-567.8822 1043.8422,-570.0272 1053.2907,-574.8206 1054.2176,-567.8822"/>
</g>
<!-- NullableStringIdentifier -->
<g id="node46" class="node">
<title>NullableStringIdentifier</title>
<ellipse fill="#ffffff" stroke="#000000" cx="1203.4062" cy="-557.6" rx="108.3053" ry="18"/>
<text text-anchor="middle" x="1203.4062" y="-553.4" font-family="Helvetica,sans-Serif" font-size="14.00" fill="#000000">NullableStringIdentifier</text>
</g>
<!-- Attribute&#45;&gt;NullableStringIdentifier -->
<g id="edge42" class="edge">
<title>Attribute&#45;&gt;NullableStringIdentifier</title>
<path fill="none" stroke="#000000" d="M1521.3351,-623.5341C1466.2667,-612.1137 1356.3077,-589.3097 1281.293,-573.7527"/>
<polygon fill="#000000" stroke="#000000" points="1281.9109,-570.3064 1271.4085,-571.7028 1280.4894,-577.1606 1281.9109,-570.3064"/>
</g>
<!-- KeyStringIdentifier -->
<g id="node47" class="node">
<title>KeyStringIdentifier</title>
<ellipse fill="#ffffff" stroke="#000000" cx="1419.4062" cy="-557.6" rx="89.8328" ry="18"/>
<text text-anchor="middle" x="1419.4062" y="-553.4" font-family="Helvetica,sans-Serif" font-size="14.00" fill="#000000">KeyStringIdentifier</text>
</g>
<!-- Attribute&#45;&gt;KeyStringIdentifier -->
<g id="edge41" class="edge">
<title>Attribute&#45;&gt;KeyStringIdentifier</title>
<path fill="none" stroke="#000000" d="M1521.7882,-612.5551C1503.1822,-602.568 1479.9159,-590.0795 1460.2664,-579.5324"/>
<polygon fill="#000000" stroke="#000000" points="1461.702,-576.3306 1451.2358,-574.685 1458.3914,-582.4983 1461.702,-576.3306"/>
</g>
<!-- ReplicatedSchema -->
<g id="node48" class="node">
<title>ReplicatedSchema</title>
<polygon fill="#ffffff" stroke="#ff0000" points="614.3754,-810.4 480.4369,-810.4 480.4369,-774.4 614.3754,-774.4 614.3754,-810.4"/>
<text text-anchor="middle" x="547.4062" y="-788.2" font-family="Helvetica,sans-Serif" font-size="14.00" fill="#ff0000">ReplicatedSchema</text>
</g>
<!-- ReplicatedSchema&#45;&gt;StaticDataTable -->
<g id="edge49" class="edge">
<title>ReplicatedSchema&#45;&gt;StaticDataTable</title>
<path fill="none" stroke="#ff0000" d="M547.4062,-774.3551C547.4062,-766.2828 547.4062,-756.5764 547.4062,-747.5817"/>
<polygon fill="#ff0000" stroke="#ff0000" points="550.9063,-747.4903 547.4062,-737.4904 543.9063,-747.4904 550.9063,-747.4903"/>
</g>
<!-- UploadDataToLocal -->
<g id="node49" class="node">
<title>UploadDataToLocal</title>
<polygon fill="#ffffff" stroke="#ff0000" points="900.1021,-413.6 760.7102,-413.6 760.7102,-377.6 900.1021,-377.6 900.1021,-413.6"/>
<text text-anchor="middle" x="830.4062" y="-391.4" font-family="Helvetica,sans-Serif" font-size="14.00" fill="#ff0000">UploadDataToLocal</text>
</g>
<!-- UploadDataToLocal&#45;&gt;HiveLocation -->
<g id="edge50" class="edge">
<title>UploadDataToLocal&#45;&gt;HiveLocation</title>
<path fill="none" stroke="#ff0000" d="M834.3323,-377.5143C839.6141,-353.1841 849.0616,-309.6648 855.2819,-281.0109"/>
<polygon fill="#ff0000" stroke="#ff0000" points="858.7127,-281.7048 857.4139,-271.1899 851.8721,-280.2198 858.7127,-281.7048"/>
</g>
<!-- DownloadDataFromRemote -->
<g id="node50" class="node">
<title>DownloadDataFromRemote</title>
<polygon fill="#ffffff" stroke="#ff0000" points="788.3639,-521.6 598.4484,-521.6 598.4484,-485.6 788.3639,-485.6 788.3639,-521.6"/>
<text text-anchor="middle" x="693.4062" y="-499.4" font-family="Helvetica,sans-Serif" font-size="14.00" fill="#ff0000">DownloadDataFromRemote</text>
</g>
<!-- DownloadDataFromRemote&#45;&gt;RemoteLocation -->
<g id="edge51" class="edge">
<title>DownloadDataFromRemote&#45;&gt;RemoteLocation</title>
<path fill="none" stroke="#ff0000" d="M685.6219,-485.5869C664.2326,-436.4144 605.0498,-302.6247 588.4062,-288.8 587.0397,-287.665 557.7507,-279.515 527.3216,-271.2565"/>
<polygon fill="#ff0000" stroke="#ff0000" points="528.0031,-267.815 517.4359,-268.5801 526.1737,-274.5718 528.0031,-267.815"/>
</g>
<!-- ReplicatedData -->
<g id="node51" class="node">
<title>ReplicatedData</title>
<polygon fill="#ffffff" stroke="#ff0000" points="770.0924,-648.6 658.7199,-648.6 658.7199,-612.6 770.0924,-612.6 770.0924,-648.6"/>
<text text-anchor="middle" x="714.4062" y="-626.4" font-family="Helvetica,sans-Serif" font-size="14.00" fill="#ff0000">ReplicatedData</text>
</g>
<!-- ReplicatedData&#45;&gt;RemoteImportStorageSetup -->
<g id="edge52" class="edge">
<title>ReplicatedData&#45;&gt;RemoteImportStorageSetup</title>
<path fill="none" stroke="#ff0000" d="M674.8556,-612.5551C652.7327,-602.4615 625.0094,-589.8127 601.7387,-579.1955"/>
<polygon fill="#ff0000" stroke="#ff0000" points="602.9506,-575.9014 592.4,-574.9347 600.045,-582.2699 602.9506,-575.9014"/>
</g>
<!-- ReplicatedData&#45;&gt;UploadDataToLocal -->
<g id="edge54" class="edge">
<title>ReplicatedData&#45;&gt;UploadDataToLocal</title>
<path fill="none" stroke="#ff0000" d="M729.4381,-612.334C746.001,-591.4716 772.5246,-555.7905 789.4062,-521.6 805.2497,-489.5118 816.9779,-449.8935 823.7418,-423.7464"/>
<polygon fill="#ff0000" stroke="#ff0000" points="827.2083,-424.3127 826.2526,-413.761 820.4196,-422.6056 827.2083,-424.3127"/>
</g>
<!-- ReplicatedData&#45;&gt;DownloadDataFromRemote -->
<g id="edge53" class="edge">
<title>ReplicatedData&#45;&gt;DownloadDataFromRemote</title>
<path fill="none" stroke="#ff0000" d="M711.3974,-612.404C707.9199,-591.3735 702.155,-556.5094 698.0896,-531.9236"/>
<polygon fill="#ff0000" stroke="#ff0000" points="701.4939,-531.0573 696.4094,-521.7622 694.5877,-532.1993 701.4939,-531.0573"/>
</g>
<!-- ReplicatedAssets -->
<g id="node52" class="node">
<title>ReplicatedAssets</title>
<polygon fill="#ffffff" stroke="#ff0000" points="734.5394,-899.2 610.2729,-899.2 610.2729,-863.2 734.5394,-863.2 734.5394,-899.2"/>
<text text-anchor="middle" x="672.4062" y="-877" font-family="Helvetica,sans-Serif" font-size="14.00" fill="#ff0000">ReplicatedAssets</text>
</g>
<!-- ReplicatedAssets&#45;&gt;Asset -->
<g id="edge55" class="edge">
<title>ReplicatedAssets&#45;&gt;Asset</title>
<path fill="none" stroke="#ff0000" d="M669.7125,-862.8006C667.9228,-850.575 665.5385,-834.2887 663.514,-820.4599"/>
<polygon fill="#ff0000" stroke="#ff0000" points="666.9635,-819.8595 662.0518,-810.472 660.0374,-820.8736 666.9635,-819.8595"/>
</g>
<!-- ReplicatedAssets&#45;&gt;ReplicatedSchema -->
<g id="edge56" class="edge">
<title>ReplicatedAssets&#45;&gt;ReplicatedSchema</title>
<path fill="none" stroke="#ff0000" d="M646.8089,-863.0157C627.8502,-849.5474 601.8334,-831.0651 581.1718,-816.3871"/>
<polygon fill="#ff0000" stroke="#ff0000" points="583.1485,-813.4981 572.9692,-810.56 579.0945,-819.2047 583.1485,-813.4981"/>
</g>
<!-- ReplicatedAssets&#45;&gt;ReplicatedData -->
<g id="edge57" class="edge">
<title>ReplicatedAssets&#45;&gt;ReplicatedData</title>
<path fill="none" stroke="#ff0000" d="M679.4285,-863.1488C684.6446,-849.0087 691.5053,-828.7293 695.4062,-810.4 706.6568,-757.5359 711.3685,-694.4437 713.2478,-658.7982"/>
<polygon fill="#ff0000" stroke="#ff0000" points="716.7509,-658.8178 713.7442,-648.6586 709.7593,-658.4755 716.7509,-658.8178"/>
</g>
<!-- ReplicatedDataSets -->
<g id="node53" class="node">
<title>ReplicatedDataSets</title>
<polygon fill="#ffffff" stroke="#ff0000" points="822.1021,-988 682.7102,-988 682.7102,-952 822.1021,-952 822.1021,-988"/>
<text text-anchor="middle" x="752.4062" y="-965.8" font-family="Helvetica,sans-Serif" font-size="14.00" fill="#ff0000">ReplicatedDataSets</text>
</g>
<!-- ReplicatedDataSets&#45;&gt;DataSet -->
<g id="edge58" class="edge">
<title>ReplicatedDataSets&#45;&gt;DataSet</title>
<path fill="none" stroke="#ff0000" d="M763.3878,-951.6006C770.9489,-938.9321 781.1125,-921.9033 789.5498,-907.7669"/>
<polygon fill="#ff0000" stroke="#ff0000" points="792.6806,-909.3505 794.8003,-898.9699 786.6698,-905.763 792.6806,-909.3505"/>
</g>
<!-- ReplicatedDataSets&#45;&gt;ReplicatedAssets -->
<g id="edge59" class="edge">
<title>ReplicatedDataSets&#45;&gt;ReplicatedAssets</title>
<path fill="none" stroke="#ff0000" d="M735.8301,-951.6006C724.1682,-938.6559 708.4049,-921.1586 695.511,-906.8464"/>
<polygon fill="#ff0000" stroke="#ff0000" points="697.981,-904.359 688.6873,-899.272 692.7803,-909.0443 697.981,-904.359"/>
</g>
<!-- IsConsistent -->
<g id="node54" class="node">
<title>IsConsistent</title>
<polygon fill="#ffffff" stroke="#ff0000" points="832.9216,-1061 739.8908,-1061 739.8908,-1025 832.9216,-1025 832.9216,-1061"/>
<text text-anchor="middle" x="786.4062" y="-1038.8" font-family="Helvetica,sans-Serif" font-size="14.00" fill="#ff0000">IsConsistent</text>
</g>
<!-- IsConsistent&#45;&gt;ParsedDataSetup -->
<g id="edge60" class="edge">
<title>IsConsistent&#45;&gt;ParsedDataSetup</title>
<path fill="none" stroke="#ff0000" d="M821.2601,-1024.9551C840.7788,-1014.8496 865.2445,-1002.183 885.7667,-991.558"/>
<polygon fill="#ff0000" stroke="#ff0000" points="887.6152,-994.5423 894.8864,-986.8365 884.3968,-988.326 887.6152,-994.5423"/>
</g>
<!-- IsConsistent&#45;&gt;ReplicatedDataSets -->
<g id="edge61" class="edge">
<title>IsConsistent&#45;&gt;ReplicatedDataSets</title>
<path fill="none" stroke="#ff0000" d="M778.0017,-1024.9551C774.1194,-1016.6196 769.4255,-1006.5416 765.1232,-997.3042"/>
<polygon fill="#ff0000" stroke="#ff0000" points="768.2267,-995.6776 760.8318,-988.0904 761.8812,-998.6331 768.2267,-995.6776"/>
</g>
<!-- IsAuditedTable -->
<g id="node55" class="node">
<title>IsAuditedTable</title>
<polygon fill="#ffffff" stroke="#ff0000" points="841.2686,-1134 731.5438,-1134 731.5438,-1098 841.2686,-1098 841.2686,-1134"/>
<text text-anchor="middle" x="786.4062" y="-1111.8" font-family="Helvetica,sans-Serif" font-size="14.00" fill="#ff0000">IsAuditedTable</text>
</g>
<!-- IsAuditedTable&#45;&gt;StaticDataTable -->
<g id="edge62" class="edge">
<title>IsAuditedTable&#45;&gt;StaticDataTable</title>
<path fill="none" stroke="#ff0000" d="M731.6269,-1109.614C636.872,-1097.8187 452.4062,-1071.2307 452.4062,-1043 452.4062,-1043 452.4062,-1043 452.4062,-792.4 452.4062,-767.9945 472.363,-750.6256 493.9828,-738.9699"/>
<polygon fill="#ff0000" stroke="#ff0000" points="495.5897,-742.0796 502.9658,-734.4742 492.4568,-735.8198 495.5897,-742.0796"/>
</g>
<!-- IsAuditedTable&#45;&gt;IsConsistent -->
<g id="edge63" class="edge">
<title>IsAuditedTable&#45;&gt;IsConsistent</title>
<path fill="none" stroke="#ff0000" d="M786.4062,-1097.9551C786.4062,-1089.8828 786.4062,-1080.1764 786.4062,-1071.1817"/>
<polygon fill="#ff0000" stroke="#ff0000" points="789.9063,-1071.0903 786.4062,-1061.0904 782.9063,-1071.0904 789.9063,-1071.0903"/>
</g>
<!-- IsAudited -->
<g id="node56" class="node">
<title>IsAudited</title>
<polygon fill="#ffffff" stroke="#ff0000" points="910.7618,-1207 836.0505,-1207 836.0505,-1171 910.7618,-1171 910.7618,-1207"/>
<text text-anchor="middle" x="873.4062" y="-1184.8" font-family="Helvetica,sans-Serif" font-size="14.00" fill="#ff0000">IsAudited</text>
</g>
<!-- IsAudited&#45;&gt;ParsedDataSetup -->
<g id="edge64" class="edge">
<title>IsAudited&#45;&gt;ParsedDataSetup</title>
<path fill="none" stroke="#ff0000" d="M877.9173,-1170.7049C887.3709,-1132.3651 909.3105,-1043.3879 920.5301,-997.8862"/>
<polygon fill="#ff0000" stroke="#ff0000" points="923.9499,-998.6362 922.9458,-988.089 917.1535,-996.9603 923.9499,-998.6362"/>
</g>
<!-- IsAudited&#45;&gt;IsAuditedTable -->
<g id="edge65" class="edge">
<title>IsAudited&#45;&gt;IsAuditedTable</title>
<path fill="none" stroke="#ff0000" d="M851.9005,-1170.9551C841.0254,-1161.8299 827.6614,-1150.6165 815.8475,-1140.7036"/>
<polygon fill="#ff0000" stroke="#ff0000" points="817.8762,-1137.837 807.9659,-1134.0904 813.3767,-1143.1994 817.8762,-1137.837"/>
</g>
</g>
</svg>
