<?xml version="1.0" encoding="UTF-8" standalone="no"?>
<!DOCTYPE svg PUBLIC "-//W3C//DTD SVG 1.1//EN"
 "http://www.w3.org/Graphics/SVG/1.1/DTD/svg11.dtd">
<!-- Generated by graphviz version 2.40.1 (20161225.0304)
 -->
<!-- Title: boxes_and_circles Pages: 1 -->
<svg width="744pt" height="620pt"
 viewBox="0.00 0.00 744.37 620.00" xmlns="http://www.w3.org/2000/svg" xmlns:xlink="http://www.w3.org/1999/xlink">
<g id="graph0" class="graph" transform="scale(1 1) rotate(0) translate(4 616)">
<title>boxes_and_circles</title>
<polygon fill="#ffffff" stroke="transparent" points="-4,4 -4,-616 740.373,-616 740.373,4 -4,4"/>
<!-- UploadFasttextToMinio -->
<g id="node1" class="node">
<title>UploadFasttextToMinio</title>
<polygon fill="#c0c0c0" stroke="#000000" points="592.0434,-36 432.2286,-36 432.2286,0 592.0434,0 592.0434,-36"/>
<text text-anchor="middle" x="512.136" y="-13.8" font-family="Helvetica,sans-Serif" font-size="14.00" fill="#000000">UploadFasttextToMinio</text>
</g>
<!-- TrainFasttextModel -->
<g id="node2" class="node">
<title>TrainFasttextModel</title>
<polygon fill="#c0c0c0" stroke="#000000" points="579.9258,-108 444.3462,-108 444.3462,-72 579.9258,-72 579.9258,-108"/>
<text text-anchor="middle" x="512.136" y="-85.8" font-family="Helvetica,sans-Serif" font-size="14.00" fill="#000000">TrainFasttextModel</text>
</g>
<!-- TrainFasttextModel&#45;&gt;UploadFasttextToMinio -->
<g id="edge1" class="edge">
<title>TrainFasttextModel&#45;&gt;UploadFasttextToMinio</title>
<path fill="none" stroke="#000000" d="M512.136,-71.8314C512.136,-64.131 512.136,-54.9743 512.136,-46.4166"/>
<polygon fill="#000000" stroke="#000000" points="515.6361,-46.4132 512.136,-36.4133 508.6361,-46.4133 515.6361,-46.4132"/>
</g>
<!-- FasttextTrainingDataFromHive -->
<g id="node3" class="node">
<title>FasttextTrainingDataFromHive</title>
<polygon fill="#c0c0c0" stroke="#000000" points="615.1975,-180 409.0745,-180 409.0745,-144 615.1975,-144 615.1975,-180"/>
<text text-anchor="middle" x="512.136" y="-157.8" font-family="Helvetica,sans-Serif" font-size="14.00" fill="#000000">FasttextTrainingDataFromHive</text>
</g>
<!-- FasttextTrainingDataFromHive&#45;&gt;TrainFasttextModel -->
<g id="edge2" class="edge">
<title>FasttextTrainingDataFromHive&#45;&gt;TrainFasttextModel</title>
<path fill="none" stroke="#000000" d="M512.136,-143.8314C512.136,-136.131 512.136,-126.9743 512.136,-118.4166"/>
<polygon fill="#000000" stroke="#000000" points="515.6361,-118.4132 512.136,-108.4133 508.6361,-118.4133 515.6361,-118.4132"/>
</g>
<!-- ConvertJSONTableToORCTable -->
<g id="node4" class="node">
<title>ConvertJSONTableToORCTable</title>
<polygon fill="#c0c0c0" stroke="#000000" points="621.9285,-252 402.3435,-252 402.3435,-216 621.9285,-216 621.9285,-252"/>
<text text-anchor="middle" x="512.136" y="-229.8" font-family="Helvetica,sans-Serif" font-size="14.00" fill="#000000">ConvertJSONTableToORCTable</text>
</g>
<!-- ConvertJSONTableToORCTable&#45;&gt;FasttextTrainingDataFromHive -->
<g id="edge3" class="edge">
<title>ConvertJSONTableToORCTable&#45;&gt;FasttextTrainingDataFromHive</title>
<path fill="none" stroke="#000000" d="M512.136,-215.8314C512.136,-208.131 512.136,-198.9743 512.136,-190.4166"/>
<polygon fill="#000000" stroke="#000000" points="515.6361,-190.4132 512.136,-180.4133 508.6361,-190.4133 515.6361,-190.4132"/>
</g>
<!-- ORCTableSchemasCreated -->
<g id="node5" class="node">
<title>ORCTableSchemasCreated</title>
<polygon fill="#c0c0c0" stroke="#000000" points="424.3802,-324 233.8918,-324 233.8918,-288 424.3802,-288 424.3802,-324"/>
<text text-anchor="middle" x="329.136" y="-301.8" font-family="Helvetica,sans-Serif" font-size="14.00" fill="#000000">ORCTableSchemasCreated</text>
</g>
<!-- ORCTableSchemasCreated&#45;&gt;ConvertJSONTableToORCTable -->
<g id="edge6" class="edge">
<title>ORCTableSchemasCreated&#45;&gt;ConvertJSONTableToORCTable</title>
<path fill="none" stroke="#000000" d="M375.3146,-287.8314C400.1161,-278.0734 430.861,-265.977 456.9203,-255.7242"/>
<polygon fill="#000000" stroke="#000000" points="458.2652,-258.9563 466.2894,-252.038 455.7023,-252.4423 458.2652,-258.9563"/>
</g>
<!-- UploadDataToLocal -->
<g id="node6" class="node">
<title>UploadDataToLocal</title>
<polygon fill="#ffffff" stroke="#000000" points="581.8319,-324 442.4401,-324 442.4401,-288 581.8319,-288 581.8319,-324"/>
<text text-anchor="middle" x="512.136" y="-301.8" font-family="Helvetica,sans-Serif" font-size="14.00" fill="#000000">UploadDataToLocal</text>
</g>
<!-- UploadDataToLocal&#45;&gt;ConvertJSONTableToORCTable -->
<g id="edge5" class="edge">
<title>UploadDataToLocal&#45;&gt;ConvertJSONTableToORCTable</title>
<path fill="none" stroke="#000000" d="M512.136,-287.8314C512.136,-280.131 512.136,-270.9743 512.136,-262.4166"/>
<polygon fill="#000000" stroke="#000000" points="515.6361,-262.4132 512.136,-252.4133 508.6361,-262.4133 515.6361,-262.4132"/>
</g>
<!-- UploadDataToSQLite -->
<g id="node7" class="node">
<title>UploadDataToSQLite</title>
<polygon fill="#ffffff" stroke="#000000" points="424.6668,-396 275.6052,-396 275.6052,-360 424.6668,-360 424.6668,-396"/>
<text text-anchor="middle" x="350.136" y="-373.8" font-family="Helvetica,sans-Serif" font-size="14.00" fill="#000000">UploadDataToSQLite</text>
</g>
<!-- UploadDataToSQLite&#45;&gt;UploadDataToLocal -->
<g id="edge8" class="edge">
<title>UploadDataToSQLite&#45;&gt;UploadDataToLocal</title>
<path fill="none" stroke="#000000" d="M391.0154,-359.8314C412.682,-350.2018 439.4723,-338.295 462.3438,-328.1299"/>
<polygon fill="#000000" stroke="#000000" points="463.8339,-331.2978 471.5505,-324.038 460.9909,-324.9011 463.8339,-331.2978"/>
</g>
<!-- ReadyForUpload -->
<g id="node8" class="node">
<title>ReadyForUpload</title>
<polygon fill="#ffffff" stroke="#000000" points="410.93,-468 289.342,-468 289.342,-432 410.93,-432 410.93,-468"/>
<text text-anchor="middle" x="350.136" y="-445.8" font-family="Helvetica,sans-Serif" font-size="14.00" fill="#000000">ReadyForUpload</text>
</g>
<!-- ReadyForUpload&#45;&gt;UploadDataToSQLite -->
<g id="edge9" class="edge">
<title>ReadyForUpload&#45;&gt;UploadDataToSQLite</title>
<path fill="none" stroke="#000000" d="M350.136,-431.8314C350.136,-424.131 350.136,-414.9743 350.136,-406.4166"/>
<polygon fill="#000000" stroke="#000000" points="353.6361,-406.4132 350.136,-396.4133 346.6361,-406.4133 353.6361,-406.4132"/>
</g>
<!-- UploadDataToMinio -->
<g id="node11" class="node">
<title>UploadDataToMinio</title>
<polygon fill="#c0c0c0" stroke="#000000" points="581.8166,-396 442.4554,-396 442.4554,-360 581.8166,-360 581.8166,-396"/>
<text text-anchor="middle" x="512.136" y="-373.8" font-family="Helvetica,sans-Serif" font-size="14.00" fill="#000000">UploadDataToMinio</text>
</g>
<!-- ReadyForUpload&#45;&gt;UploadDataToMinio -->
<g id="edge12" class="edge">
<title>ReadyForUpload&#45;&gt;UploadDataToMinio</title>
<path fill="none" stroke="#000000" d="M391.0154,-431.8314C412.682,-422.2018 439.4723,-410.295 462.3438,-400.1299"/>
<polygon fill="#000000" stroke="#000000" points="463.8339,-403.2978 471.5505,-396.038 460.9909,-396.9011 463.8339,-403.2978"/>
</g>
<!-- DownloadDataFromRemotePushshiftAPILocationToNewlineDelimitedJSON -->
<g id="node9" class="node">
<title>DownloadDataFromRemotePushshiftAPILocationToNewlineDelimitedJSON</title>
<polygon fill="#c0c0c0" stroke="#000000" points="484.4081,-540 -.1361,-540 -.1361,-504 484.4081,-504 484.4081,-540"/>
<text text-anchor="middle" x="242.136" y="-517.8" font-family="Helvetica,sans-Serif" font-size="14.00" fill="#000000">DownloadDataFromRemotePushshiftAPILocationToNewlineDelimitedJSON</text>
</g>
<!-- DownloadDataFromRemotePushshiftAPILocationToNewlineDelimitedJSON&#45;&gt;ReadyForUpload -->
<g id="edge10" class="edge">
<title>DownloadDataFromRemotePushshiftAPILocationToNewlineDelimitedJSON&#45;&gt;ReadyForUpload</title>
<path fill="none" stroke="#000000" d="M269.389,-503.8314C283.0749,-494.7074 299.8275,-483.539 314.5187,-473.7449"/>
<polygon fill="#000000" stroke="#000000" points="316.5127,-476.6221 322.8918,-468.1628 312.6298,-470.7977 316.5127,-476.6221"/>
</g>
<!-- HiveDirectoriesCreated -->
<g id="node10" class="node">
<title>HiveDirectoriesCreated</title>
<polygon fill="#c0c0c0" stroke="#000000" points="592.2998,-612 431.9722,-612 431.9722,-576 592.2998,-576 592.2998,-612"/>
<text text-anchor="middle" x="512.136" y="-589.8" font-family="Helvetica,sans-Serif" font-size="14.00" fill="#000000">HiveDirectoriesCreated</text>
</g>
<!-- HiveDirectoriesCreated&#45;&gt;DownloadDataFromRemotePushshiftAPILocationToNewlineDelimitedJSON -->
<g id="edge11" class="edge">
<title>HiveDirectoriesCreated&#45;&gt;DownloadDataFromRemotePushshiftAPILocationToNewlineDelimitedJSON</title>
<path fill="none" stroke="#000000" d="M444.3521,-575.9243C406.4786,-565.8247 359.1293,-553.1982 319.7712,-542.7027"/>
<polygon fill="#000000" stroke="#000000" points="320.512,-539.278 309.9478,-540.0831 318.7083,-546.0417 320.512,-539.278"/>
</g>
<!-- HiveDirectoriesCreated&#45;&gt;UploadDataToMinio -->
<g id="edge13" class="edge">
<title>HiveDirectoriesCreated&#45;&gt;UploadDataToMinio</title>
<path fill="none" stroke="#000000" d="M512.136,-575.9555C512.136,-538.3938 512.136,-451.5541 512.136,-406.4103"/>
<polygon fill="#000000" stroke="#000000" points="515.6361,-406.145 512.136,-396.1451 508.6361,-406.1451 515.6361,-406.145"/>
</g>
<!-- JSONTableSchemasCreated -->
<g id="node12" class="node">
<title>JSONTableSchemasCreated</title>
<polygon fill="#c0c0c0" stroke="#000000" points="736.6106,-468 539.6614,-468 539.6614,-432 736.6106,-432 736.6106,-468"/>
<text text-anchor="middle" x="638.136" y="-445.8" font-family="Helvetica,sans-Serif" font-size="14.00" fill="#000000">JSONTableSchemasCreated</text>
</g>
<!-- HiveDirectoriesCreated&#45;&gt;JSONTableSchemasCreated -->
<g id="edge14" class="edge">
<title>HiveDirectoriesCreated&#45;&gt;JSONTableSchemasCreated</title>
<path fill="none" stroke="#000000" d="M528.094,-575.7623C550.2478,-550.4436 590.4326,-504.5182 615.6266,-475.7251"/>
<polygon fill="#000000" stroke="#000000" points="618.3565,-477.9202 622.3076,-468.0896 613.0885,-473.3106 618.3565,-477.9202"/>
</g>
<!-- UploadDataToMinio&#45;&gt;UploadDataToLocal -->
<g id="edge7" class="edge">
<title>UploadDataToMinio&#45;&gt;UploadDataToLocal</title>
<path fill="none" stroke="#000000" d="M512.136,-359.8314C512.136,-352.131 512.136,-342.9743 512.136,-334.4166"/>
<polygon fill="#000000" stroke="#000000" points="515.6361,-334.4132 512.136,-324.4133 508.6361,-334.4133 515.6361,-334.4132"/>
</g>
<!-- JSONTableSchemasCreated&#45;&gt;ConvertJSONTableToORCTable -->
<g id="edge4" class="edge">
<title>JSONTableSchemasCreated&#45;&gt;ConvertJSONTableToORCTable</title>
<path fill="none" stroke="#000000" d="M636.8585,-431.9835C633.8003,-400.1183 623.6861,-332.946 591.136,-288 582.4269,-275.9743 570.17,-265.7636 557.9039,-257.5664"/>
<polygon fill="#000000" stroke="#000000" points="559.775,-254.6086 549.454,-252.2155 556.03,-260.5226 559.775,-254.6086"/>
</g>
</g>
</svg>
